<?xml version="1.0" standalone="no"?>
<!DOCTYPE svg PUBLIC "-//W3C//DTD SVG 20010904//EN"
 "http://www.w3.org/TR/2001/REC-SVG-20010904/DTD/svg10.dtd">
<svg version="1.0" xmlns="http://www.w3.org/2000/svg"
 width="1024.000000pt" height="1024.000000pt" viewBox="0 0 1024.000000 1024.000000"
 preserveAspectRatio="xMidYMid meet">
<metadata>
Created by potrace 1.14, written by Peter Selinger 2001-2017
</metadata>
<g transform="translate(0.000000,1024.000000) scale(0.100000,-0.100000)"
fill="#000000" stroke="none">
<path d="M1600 10230 c-240 -33 -414 -86 -615 -187 -416 -210 -714 -553 -889
-1020 -16 -43 -51 -175 -60 -228 -3 -16 -8 -41 -11 -55 -3 -14 -8 -43 -12 -65
-11 -61 -13 -6998 -2 -7075 5 -36 11 -78 14 -95 63 -413 293 -810 635 -1098
192 -161 503 -313 745 -363 11 -2 56 -12 100 -21 74 -16 340 -17 3570 -19
3745 -3 3564 -5 3785 47 193 45 399 134 570 247 94 62 88 58 149 110 203 170
356 361 466 579 91 182 135 320 181 568 5 22 9 1610 10 3530 3 3756 6 3553
-47 3777 -24 103 -72 241 -115 333 -49 105 -155 281 -199 331 -5 6 -25 31 -44
55 -19 24 -77 87 -130 139 -201 200 -430 340 -701 430 -108 36 -240 65 -360
79 -101 11 -6956 12 -7040 1z"/>
</g>
</svg>
