<svg height="409pt" viewBox="-7 0 409 409.6" width="409pt" xmlns="http://www.w3.org/2000/svg"><path d="m307.5 221.867188c0 84.832031-68.769531 153.597656-153.601562 153.597656-84.828126 0-153.597657-68.765625-153.597657-153.597656 0-84.832032 68.769531-153.601563 153.597657-153.601563 84.832031 0 153.601562 68.769531 153.601562 153.601563zm0 0" fill="#efefd2"/><path d="m221.503906 253.210938s65.515625-137.15625 167.917969-150.8125c0 0-101.539063 69.515624-139.515625 150.8125zm0 0" fill="#a9ba5a"/><path d="m249.90625 260.035156h-28.398438c-2.347656 0-4.527343-1.203125-5.773437-3.183594-1.253906-1.980468-1.402344-4.46875-.390625-6.585937.679688-1.429687 17.066406-35.433594 46.414062-71.640625 39.292969-48.472656 83.125-77.175781 126.757813-82.992188 3.089844-.417968 6.136719 1.371094 7.273437 4.320313 1.136719 2.949219.097657 6.292969-2.511718 8.078125-1 .683594-100.460938 69.4375-137.1875 148.066406-1.125 2.402344-3.53125 3.9375-6.183594 3.9375zm-17.113281-13.652344h12.820312c26.53125-53.800781 78.492188-101.414062 111.132813-127.820312-64.152344 27.390625-109.300782 101.160156-123.953125 127.820312zm0 0" fill="#4c241d"/><path d="m195.519531 253.210938s-10.898437-184.945313 9.582031-246.382813c0 0 27.304688 95.570313 20.476563 245.757813zm0 0" fill="#a9ba5a"/><path d="m195.519531 260.035156c-3.605469 0-6.601562-2.808594-6.8125-6.421875-.449219-7.609375-10.742187-186.972656 9.917969-248.945312.945312-2.835938 3.640625-4.5976565 6.621094-4.667969 2.992187.0664062 5.589844 2.074219 6.417968 4.949219.273438.964843 27.535157 98.378906 20.734376 247.945312-.167969 3.59375-3.085938 6.441407-6.679688 6.515625l-30.058594.625c-.046875 0-.09375 0-.140625 0zm9.660157-221.539062c-9.488282 65.890625-4.621094 179.382812-3.195313 207.753906l17.046875-.355469c3.777344-95.871093-6.519531-169.070312-13.851562-207.398437zm0 0" fill="#4c241d"/><path d="m205.601562 250.9375s40.457032-169.015625 129.207032-223.628906c0 0-90.125 133.234375-96.261719 223.628906zm0 0" fill="#a9ba5a"/><path d="m238.546875 257.765625h-32.949219c-2.09375 0-4.066406-.957031-5.359375-2.597656s-1.765625-3.785157-1.28125-5.816407c1.679688-7.011718 42.152344-172.40625 132.265625-227.859374 2.734375-1.683594 6.289063-1.230469 8.507813 1.09375 2.226562 2.320312 2.527343 5.882812.726562 8.546874-.886719 1.316407-89.167969 132.769532-95.101562 220.269532-.242188 3.582031-3.214844 6.363281-6.808594 6.363281zm-24.085937-13.652344h17.832031c6.574219-61.984375 47.644531-139.699219 74.1875-184.464843-53.933594 57.175781-83.972657 155.277343-92.019531 184.464843zm0 0" fill="#4c241d"/><path d="m195.519531 253.210938s-65.511719-137.15625-167.914062-150.8125c0 0 101.539062 69.515624 139.515625 150.8125zm0 0" fill="#a9ba5a"/><path d="m195.519531 260.035156h-28.402343c-2.652344 0-5.058594-1.535156-6.1875-3.9375-36.726563-78.628906-136.183594-147.382812-137.183594-148.066406-2.609375-1.785156-3.648438-5.128906-2.515625-8.078125 1.132812-2.949219 4.195312-4.738281 7.273437-4.320313 43.632813 5.816407 87.46875 34.519532 126.757813 82.992188 29.347656 36.207031 45.734375 70.210938 46.414062 71.640625 1.015625 2.117187.867188 4.605469-.386719 6.585937-1.242187 1.980469-3.421874 3.183594-5.769531 3.183594zm-24.109375-13.652344h12.824219c-14.65625-26.660156-59.800781-100.429687-123.957031-127.820312 32.640625 26.40625 84.601562 74.019531 111.132812 127.820312zm0 0" fill="#4c241d"/><path d="m211.425781 250.9375s-40.460937-169.015625-129.207031-223.628906c0 0 90.125 133.234375 96.261719 223.628906zm0 0" fill="#a9ba5a"/><path d="m211.425781 257.765625h-32.945312c-3.59375 0-6.566407-2.78125-6.8125-6.363281-5.9375-87.503906-94.214844-218.953125-95.101563-220.273438-1.800781-2.664062-1.5-6.222656.726563-8.546875 2.21875-2.320312 5.773437-2.777343 8.507812-1.089843 90.113281 55.453124 130.585938 220.84375 132.265625 227.855468.484375 2.035156.011719 4.175782-1.28125 5.816406-1.292968 1.648438-3.265625 2.601563-5.359375 2.601563zm-26.691406-13.652344h17.832031c-8.046875-29.191406-38.085937-127.289062-92.019531-184.464843 26.539063 44.765624 67.613281 122.480468 74.1875 184.464843zm0 0" fill="#4c241d"/><path d="m252.886719 252.585938c1.238281-9.207032 70.785156-80.195313 129.707031 47.789062 0 0-47.785156-61.441406-129.707031-47.789062zm0 0" fill="#a9ba5a"/><path d="m382.601562 307.191406c-2.039062 0-4.054687-.90625-5.386718-2.617187-1.867188-2.382813-46.453125-58.070313-123.207032-45.253907-2.121093.371094-4.3125-.320312-5.871093-1.832031-1.554688-1.507812-2.300781-3.664062-2.015625-5.8125 1.226562-9.113281 22.019531-29.382812 47.246094-33.164062 25.195312-3.753907 62.222656 6.859375 95.429687 79.007812 1.445313 3.144531.304687 6.871094-2.648437 8.675781-1.109376.675782-2.335938.996094-3.546876.996094zm-105.855468-63.441406c34.3125 0 61.394531 12.179688 80.246094 24.808594-17.226563-24.789063-36.425782-37.570313-55.839844-37.039063-13.425782.289063-24.597656 6.503907-32 12.425781 2.566406-.132812 5.101562-.195312 7.59375-.195312zm0 0" fill="#4c241d"/><path d="m164.140625 252.585938c-1.238281-9.207032-70.785156-80.195313-129.707031 47.789062 0 0 47.785156-61.441406 129.707031-47.789062zm0 0" fill="#a9ba5a"/><path d="m34.425781 307.191406c-1.210937 0-2.441406-.320312-3.546875-.996094-2.953125-1.804687-4.089844-5.53125-2.644531-8.675781 33.21875-72.160156 70.222656-82.824219 95.453125-79.003906 25.21875 3.792969 46 24.058594 47.21875 33.164063.289062 2.148437-.460938 4.304687-2.019531 5.808593-1.546875 1.511719-3.722657 2.203125-5.867188 1.832031-76.792969-12.765624-121.347656 42.871094-123.207031 45.253907-1.332031 1.707031-3.347656 2.617187-5.386719 2.617187zm80.492188-75.683594c-19.3125 0-37.9375 12.667969-54.890625 37.058594 20.21875-13.554687 49.847656-26.609375 87.851562-24.621094-7.398437-5.921874-18.570312-12.136718-32-12.425781-.320312-.007812-.640625-.011719-.960937-.011719zm42.621093 22.707032" fill="#4c241d"/><path d="m288.761719 252.585938h-165.582031l19.84375 122.878906h125.894531zm0 0" fill="#fff"/><path d="m268.917969 382.292969h-125.894531c-3.351563 0-6.207032-2.429688-6.738282-5.734375l-19.847656-122.882813c-.320312-1.976562.25-3.992187 1.539062-5.515625 1.300782-1.523437 3.203126-2.398437 5.203126-2.398437h165.578124c2 0 3.902344.878906 5.203126 2.398437 1.292968 1.523438 1.859374 3.539063 1.539062 5.511719l-19.839844 122.882813c-.535156 3.308593-3.386718 5.738281-6.742187 5.738281zm-120.078125-13.652344h114.265625l17.632812-109.226563h-149.539062zm0 0" fill="#4c241d"/><path d="m143.023438 375.464844 4.410156 27.308594h117.074218l4.410157-27.308594zm0 0" fill="#bf7e68"/><path d="m264.503906 409.601562h-117.070312c-3.355469 0-6.210938-2.433593-6.742188-5.742187l-4.40625-27.304687c-.320312-1.972657.246094-3.992188 1.539063-5.511719 1.300781-1.527344 3.199219-2.402344 5.199219-2.402344h125.894531c2 0 3.902343.878906 5.203125 2.402344 1.292968 1.523437 1.859375 3.539062 1.539062 5.515625l-4.414062 27.304687c-.535156 3.304688-3.394532 5.738281-6.742188 5.738281zm-111.257812-13.65625h105.445312l2.207032-13.652343h-109.859376zm0 0" fill="#4c241d"/><path d="m184.621094 252.585938s-54.613282-75.09375-81.921875 68.265624c0 0 27.808593-63.085937 81.921875-68.265624zm0 0" fill="#a9ba5a"/><path d="m102.699219 327.679688c-.671875 0-1.351563-.101563-2.027344-.308594-3.3125-1.03125-5.324219-4.382813-4.679687-7.792969 10.914062-57.300781 27.320312-87.640625 50.148437-92.75 23.945313-5.367187 43.191406 20.636719 44 21.742187 1.4375 1.980469 1.710937 4.585938.707031 6.820313-1.007812 2.234375-3.136718 3.757813-5.574218 3.992187-49.5625 4.742188-76.066407 63.628907-76.328126 64.222657-1.113281 2.53125-3.605468 4.074219-6.246093 4.074219zm50.035156-87.921876c-1.207031 0-2.421875.125-3.648437.402344-7.140626 1.613282-19.039063 9.777344-29.894532 42.746094 12.269532-14.359375 29.535156-28.949219 51.839844-34.8125-4.84375-4.183594-11.390625-8.335938-18.296875-8.335938zm0 0" fill="#4c241d"/><path d="m225.578125 252.585938s54.613281-75.09375 81.921875 68.265624c0 0-27.808594-63.085937-81.921875-68.265624zm0 0" fill="#a9ba5a"/><path d="m307.5 327.675781c-2.640625 0-5.125-1.535156-6.246094-4.0625-.257812-.59375-26.914062-59.5-76.328125-64.230469-2.441406-.234374-4.566406-1.757812-5.574219-3.992187-1.007812-2.234375-.734374-4.839844.707032-6.820313.808594-1.105468 19.964844-27.113281 44-21.742187 22.828125 5.109375 39.234375 35.449219 50.148437 92.75.644531 3.40625-1.363281 6.753906-4.675781 7.789063-.671875.207031-1.359375.308593-2.03125.308593zm-68.332031-79.582031c22.304687 5.863281 39.574219 20.453125 51.839843 34.8125-10.855468-32.964844-22.753906-41.132812-29.894531-42.746094-8.242187-1.847656-16.253906 3.023438-21.945312 7.933594zm0 0" fill="#4c241d"/></svg>