<svg height="435pt" viewBox="-59 0 435 435.81891" width="435pt" xmlns="http://www.w3.org/2000/svg"><path d="m307.609375 197.09375c0 84.828125-68.769531 153.597656-153.601563 153.597656-84.828124 0-153.597656-68.769531-153.597656-153.597656 0-84.832031 68.769532-153.601562 153.597656-153.601562 84.832032 0 153.601563 68.769531 153.601563 153.601562zm0 0" fill="#efefd2"/><path d="m162.460938 147.957031c-6.945313 1.421875-10.625 6.1875-12.570313 10.753907-1.96875 4.605468-6.699219 7.453124-11.691406 7.03125-4.945313-.414063-10.878907.601562-15.386719 6.074218-8.292969 10.070313-10.019531 52.179688 35.324219 50.148438 13.203125-.59375 25.382812-7.921875 32.089843-19.308594 23.03125-39.113281-14.984374-57.308594-27.765624-54.699219zm0 0" fill="#a9ba5a"/><path d="m155.054688 228.863281c-25.011719 0-35.375-13.03125-39.363282-21.039062-7.085937-14.183594-4.769531-32.3125 1.851563-40.347657 5.207031-6.324218 12.585937-9.257812 21.234375-8.53125 2.003906.117188 4.023437-1.027343 4.832031-2.921874 3.417969-8.011719 9.464844-13.113282 17.484375-14.753907 10.222656-2.105469 27.308594 4.363281 36.515625 17.253907 5.425781 7.597656 12.453125 23.894531-1.507813 47.59375-7.820312 13.285156-22.253906 21.972656-37.65625 22.664062-1.15625.058594-2.289062.082031-3.390624.082031zm-18.832032-56.378906c-4.554687 0-6.8125 2.0625-8.140625 3.671875-2.847656 3.449219-5.074219 15.773438-.179687 25.566406 4.789062 9.574219 14.859375 14.128906 29.925781 13.421875 10.847656-.488281 21.007813-6.601562 26.515625-15.953125 7.652344-13.007812 8.378906-24.015625 2.160156-32.734375-6.363281-8.910156-18.3125-12.714843-22.675781-11.816406-2.25.460937-5.492187 1.664063-7.65625 6.742187-3.136719 7.347657-10.582031 11.84375-18.546875 11.160157-.488281-.039063-.960938-.058594-1.402344-.058594zm26.238282-24.527344h.066406zm0 0" fill="#4c241d"/><path d="m275.652344 148.519531c-3.679688-5.328125-9.003906-6.710937-13.535156-6.714843-4.578126-.003907-8.664063-2.960938-10.09375-7.304688-1.421876-4.304688-4.398438-8.929688-10.609376-10.757812-11.429687-3.363282-47.433593 10.257812-29.496093 47.632812 5.222656 10.882812 15.738281 18.492188 27.707031 20.050781 41.109375 5.355469 42.792969-33.101562 36.027344-42.90625zm0 0" fill="#a9ba5a"/><path d="m247.035156 198.753906c-2.585937 0-5.34375-.175781-8.292968-.5625-14.160157-1.839844-26.792969-10.984375-32.976563-23.863281-11.007813-22.941406-3.230469-37.445313 2.382813-44.054687 9.535156-11.21875 25.886718-15.851563 35.195312-13.078126 7.367188 2.171876 12.605469 7.417969 15.160156 15.167969.511719 1.539063 2 2.617188 3.621094 2.617188 8.046875 0 14.84375 3.433593 19.144531 9.660156 5.507813 7.972656 6.253907 24.945313-1.414062 37.507813-3.992188 6.539062-13.3125 16.605468-32.820313 16.605468zm-9.546875-68.695312c-4.507812 0-13.253906 2.367187-18.941406 9.054687-6.164063 7.253907-6.324219 17.113281-.476563 29.308594 4.207032 8.757813 12.804688 14.976563 22.433594 16.238281 13.410156 1.746094 22.738282-1.492187 27.699219-9.625 5.40625-8.859375 3.734375-19.882812 1.824219-22.636718 0 0 0 0 0-.003907-1.113282-1.613281-3.144532-3.761719-7.914063-3.761719-7.550781-.011718-14.210937-4.832031-16.570312-11.992187-1.5-4.535156-4.175781-5.792969-6.0625-6.355469-.492188-.144531-1.171875-.226562-1.992188-.226562zm0 0" fill="#4c241d"/><path d="m218.855469 323.386719c-3.027344 0-5.785157-2.027344-6.59375-5.085938-34.171875-129.863281-.386719-274.941406-.039063-276.386719.882813-3.671874 4.566406-5.929687 8.21875-5.0625 3.667969.875 5.9375 4.554688 5.0625 8.222657-.332031 1.417969-33.320312 143.265625-.039062 269.746093.957031 3.648438-1.214844 7.378907-4.859375 8.339844-.589844.152344-1.167969.226563-1.75.226563zm0 0" fill="#4c241d"/><path d="m195.863281 72.996094c6.328125 13.691406.359375 29.917968-13.332031 36.242187-13.6875 6.328125-29.914062.359375-36.242188-13.328125-6.324218-13.691406-2.554687-32.4375 11.136719-38.765625 13.6875-6.324219 32.109375 2.160157 38.4375 15.851563zm0 0" fill="#a9ba5a"/><path d="m171.097656 118.605469c-3.972656 0-7.960937-.707031-11.808594-2.121094-8.554687-3.144531-15.371093-9.4375-19.199218-17.71875-7.558594-16.359375-3.554688-39.488281 14.46875-47.8125 8.179687-3.78125 18.191406-3.65625 27.53125.332031 8.921875 3.820313 16.199218 10.695313 19.972656 18.851563 3.820312 8.277343 4.195312 17.539062 1.046875 26.101562-3.144531 8.554688-9.4375 15.375-17.71875 19.199219-4.554687 2.109375-9.421875 3.167969-14.292969 3.167969zm-3.628906-56.761719c-2.578125 0-5.019531.5-7.179688 1.496094-10.152343 4.691406-12.492187 19.550781-7.804687 29.699218 2.300781 4.972657 6.386719 8.746094 11.527344 10.632813 5.140625 1.890625 10.699219 1.652344 15.652343-.628906 4.972657-2.300781 8.746094-6.386719 10.632813-11.523438 1.886719-5.128906 1.667969-10.695312-.625-15.65625-.007813 0-.007813 0-.007813-.007812-2.332031-5.050781-7.171874-9.546875-12.949218-12.019531-3.097656-1.324219-6.257813-1.992188-9.246094-1.992188zm0 0" fill="#4c241d"/><path d="m253.105469 106.230469c-12.320313 8.695312-29.355469 5.761719-38.054688-6.558594s-5.761719-29.359375 6.558594-38.058594 31.441406-8.378906 40.136719 3.941407c8.699218 12.320312 3.679687 31.976562-8.640625 40.675781zm0 0" fill="#a9ba5a"/><path d="m237.410156 118.046875c-10.726562 0-21.296875-5.027344-27.933594-14.433594-10.851562-15.382812-7.171874-36.722656 8.191407-47.574219 14.75-10.40625 38.210937-10.632812 49.65625 5.582032 10.585937 15 5.6875 38.917968-10.273438 50.183594 0 .007812-.007812.007812-.007812.007812-5.96875 4.207031-12.832031 6.234375-19.632813 6.234375zm15.699219-11.8125h.066406zm-12.3125-43.753906c-5.386719 0-10.96875 1.683593-15.253906 4.710937-9.21875 6.515625-11.425781 19.3125-4.914063 28.546875 6.5 9.222657 19.3125 11.433594 28.539063 4.921875 9.769531-6.898437 13.234375-22.332031 7.003906-31.167968-3.421875-4.847657-9.273437-7.011719-15.375-7.011719zm0 0" fill="#4c241d"/><path d="m225.109375 12.660156c6.371094 9.34375 7.8125 27.722656-1.53125 34.097656s-25.933594-1.671874-32.308594-11.015624c-6.371093-9.347657-.117187-16.445313 9.226563-22.820313s18.238281-9.605469 24.613281-.261719zm0 0" fill="#a9ba5a"/><path d="m215.507812 55.886719c-3.664062 0-7.605468-.792969-11.679687-2.382813-7.425781-2.898437-14.234375-8.097656-18.199219-13.917968-5.546875-8.128907-3.988281-15.09375-1.707031-19.507813 2.246094-4.347656 6.292969-8.414063 12.726563-12.800781 6.433593-4.386719 11.699218-6.664063 16.558593-7.171875 4.929688-.507813 11.996094.574219 17.539063 8.707031 3.96875 5.820312 6.328125 14.054688 6.316406 22.027344-.015625 9.671875-3.441406 17.332031-9.640625 21.558594-3.398437 2.320312-7.453125 3.488281-11.914063 3.488281zm-.207031-42.242188c-.226562 0-.453125.015625-.675781.039063-2.457031.253906-5.914062 1.894531-10.28125 4.875-4.367188 2.980468-7.152344 5.597656-8.292969 7.792968-.632812 1.234376-1.09375 2.671876.859375 5.539063 2.402344 3.527344 7.070313 7.011719 11.882813 8.894531 4.546875 1.765625 8.636719 1.890625 10.9375.332032 2.300781-1.566407 3.671875-5.421876 3.679687-10.308594.015625-5.164063-1.53125-10.777344-3.941406-14.304688-1.636719-2.402344-2.964844-2.859375-4.167969-2.859375zm0 0" fill="#4c241d"/><path d="m195.097656 228.15625c-4.699218.960938-7.1875 4.1875-8.507812 7.277344-1.328125 3.117187-4.53125 5.046875-7.910156 4.761718-3.347657-.28125-7.363282.40625-10.414063 4.109376-5.613281 6.8125-6.78125 35.316406 23.910156 33.9375 8.933594-.398438 17.175781-5.359376 21.714844-13.066407 15.589844-26.472656-10.140625-38.789062-18.792969-37.019531zm0 0" fill="#a9ba5a"/><path d="m190.082031 285.117188c-18.105469 0-25.679687-9.578126-28.613281-15.460938-5.347656-10.703125-3.375-23.75 1.527344-29.691406 3.941406-4.785156 9.734375-7.125 16.25-6.574219.542968.015625.898437-.226563 1.066406-.632813 2.578125-6.039062 7.34375-10.046874 13.417969-11.292968h.007812c7.585938-1.582032 20 2.828125 26.953125 12.566406 3.984375 5.582031 9.160156 17.492188-.921875 34.605469-5.664062 9.628906-16.117187 15.921875-27.277343 16.425781-.824219.039062-1.628907.054688-2.410157.054688zm-12.738281-38.15625c-2.113281 0-3.113281.839843-3.8125 1.683593-1.167969 1.425781-2.929688 8.769531.160156 14.925781 2.8125 5.621094 8.859375 8.261719 18.179688 7.855469 6.597656-.300781 12.785156-4.027343 16.140625-9.71875 4.691406-7.96875 5.222656-14.609375 1.578125-19.726562-4.007813-5.621094-11.359375-7.488281-13.113282-7.140625-1.199218.246094-2.558593.824218-3.605468 3.277344-2.488282 5.839843-8.285156 9.476562-14.773438 8.875-.269531-.019532-.515625-.03125-.753906-.03125zm0 0" fill="#4c241d"/><path d="m148.621094 302.304688c-6.53125 12.121093-10.253906 25.984374-10.253906 40.722656 0 47.476562 38.488281 85.96875 85.96875 85.96875 47.484374 0 85.972656-38.488282 85.972656-85.96875 0-14.738282-3.71875-28.601563-10.253906-40.722656zm0 0" fill="#fff"/><g fill="#4c241d"><path d="m224.335938 435.820312c-51.164063 0-92.792969-41.628906-92.792969-92.792968 0-15.324219 3.828125-30.527344 11.074219-43.960938 1.183593-2.207031 3.492187-3.589844 6.007812-3.589844h151.429688c2.515624 0 4.820312 1.382813 6.007812 3.589844 7.246094 13.433594 11.074219 28.636719 11.074219 43.960938 0 51.164062-41.628907 92.792968-92.800781 92.792968zm-71.519532-126.6875c-4.992187 10.539063-7.621094 22.171876-7.621094 33.894532 0 43.636718 35.5 79.136718 79.140626 79.136718 43.640624 0 79.148437-35.5 79.148437-79.136718 0-11.722656-2.628906-23.355469-7.621094-33.894532zm0 0"/><path d="m257.289062 393.558594c-2.066406 0-4.105468-.933594-5.445312-2.707032-2.28125-3.007812-1.6875-7.289062 1.320312-9.5625 12.90625-9.777343 20.3125-24.664062 20.3125-40.839843 0-3.773438 3.054688-6.824219 6.828126-6.824219 3.773437 0 6.824218 3.050781 6.824218 6.824219 0 20.488281-9.371094 39.339843-25.726562 51.722656-1.234375.933594-2.679688 1.386719-4.113282 1.386719zm0 0"/></g></svg>