<svg height="410pt" viewBox="0 -7 410.62059 410" width="410pt" xmlns="http://www.w3.org/2000/svg"><path d="m308.21875 153.910156c0 84.832032-68.765625 153.601563-153.597656 153.601563-84.832032 0-153.601563-68.769531-153.601563-153.601563 0-84.832031 68.769531-153.601562 153.601563-153.601562 84.832031 0 153.597656 68.769531 153.597656 153.601562zm0 0" fill="#efefd2"/><path d="m327.777344 389.429688h-244.9375c-41.980469 0-76.011719-34.03125-76.011719-76.015626 0-41.980468 34.03125-76.011718 76.011719-76.011718h244.9375c41.984375 0 76.015625 34.03125 76.015625 76.011718 0 41.984376-34.03125 76.015626-76.015625 76.015626zm0 0" fill="#fff"/><g fill="#4c241d"><path d="m327.78125 396.257812h-244.941406c-45.675782 0-82.839844-37.164062-82.839844-82.839843 0-45.679688 37.164062-82.84375 82.839844-82.84375h244.941406c45.679688 0 82.839844 37.164062 82.839844 82.839843 0 45.679688-37.160156 82.84375-82.839844 82.84375zm-244.941406-152.03125c-38.152344 0-69.1875 31.039063-69.1875 69.1875 0 38.148438 31.039062 69.191407 69.1875 69.191407h244.941406c38.148438 0 69.1875-31.039063 69.1875-69.1875 0-38.148438-31.042969-69.191407-69.1875-69.191407zm0 0"/><path d="m294.566406 300.683594h-27.304687c-3.773438 0-6.828125-3.054688-6.828125-6.828125 0-3.769531 3.054687-6.824219 6.828125-6.824219h27.304687c3.773438 0 6.828125 3.054688 6.828125 6.824219 0 3.773437-3.054687 6.828125-6.828125 6.828125zm0 0"/><path d="m226.300781 300.683594h-157.011719c-3.773437 0-6.828124-3.054688-6.828124-6.828125 0-3.769531 3.054687-6.824219 6.828124-6.824219h157.011719c3.773438 0 6.828125 3.054688 6.828125 6.824219 0 3.773437-3.054687 6.828125-6.828125 6.828125zm0 0"/></g><path d="m236.128906 156.082031c0 30.945313-8.375 75.050781-32.738281 75.050781-24.359375 0-32.734375-44.105468-32.734375-75.050781 0-30.949219 2.773438-102.753906 29.472656-102.753906 26.703125 0 36 71.804687 36 102.753906zm0 0" fill="#c1dbdc"/><path d="m203.394531 237.960938c-31.234375 0-39.566406-51.46875-39.566406-81.882813 0-72.710937 12.210937-109.582031 36.300781-109.582031 40.984375 0 42.824219 108.484375 42.824219 109.582031 0 30.414063-8.332031 81.882813-39.558594 81.882813zm-3.265625-177.8125c-11.273437 0-22.648437 29.664062-22.648437 95.929687 0 33.074219 9.078125 68.230469 25.914062 68.230469 16.824219 0 25.90625-35.15625 25.90625-68.230469 0-38.1875-11.632812-95.929687-29.171875-95.929687zm0 0" fill="#4c241d"/><path d="m309.925781 96.4375c-9.839843-9.238281-42.78125 9.851562-73.582031 42.644531s-47.792969 66.867188-37.957031 76.109375c9.839843 9.238282 42.78125-9.855468 73.582031-42.648437s47.792969-66.867188 37.957031-76.105469zm0 0" fill="#c1dbdc"/><path d="m205.21875 224.3125c-4.539062 0-8.453125-1.292969-11.5-4.15625-5.050781-4.746094-8.757812-15.0625 2.300781-37.246094 7.460938-14.953125 20.015625-32.183594 35.355469-48.515625 29.105469-30.984375 67.585938-57.652343 83.226562-42.949219 5.054688 4.746094 8.761719 15.0625-2.300781 37.242188-7.460937 14.957031-20.011719 32.183594-35.351562 48.515625-23.441407 24.960937-52.949219 47.109375-71.730469 47.109375zm97.734375-123.550781c-7.964844 0-32.40625 11.863281-61.632813 42.980469-14.453124 15.390624-26.199218 31.464843-33.078124 45.261718-7.347657 14.738282-5.953126 20.46875-5.175782 21.199219 3.746094 3.511719 30.734375-7 63.933594-42.34375 14.453125-15.390625 26.203125-31.464844 33.082031-45.261719 7.347657-14.734375 5.953125-20.464844 5.171875-21.195312-.445312-.417969-1.21875-.640625-2.300781-.640625zm0 0" fill="#4c241d"/><path d="m162.585938 139.0625c-30.800782-32.792969-63.742188-51.886719-73.582032-42.648438-9.835937 9.242188 7.15625 43.316407 37.957032 76.109376 30.800781 32.792968 63.742187 51.882812 73.582031 42.644531 9.835937-9.238281-7.15625-43.3125-37.957031-76.105469zm0 0" fill="#c1dbdc"/><path d="m193.675781 224.296875c-6.027343 0-14.261719-2.265625-25.484375-8.773437-14.457031-8.378907-30.867187-21.992188-46.203125-38.320313-15.335937-16.328125-27.894531-33.558594-35.351562-48.515625-11.058594-22.179688-7.355469-32.496094-2.300781-37.242188 5.050781-4.753906 15.574218-7.792968 37.027343 4.632813 14.457031 8.378906 30.863281 21.988281 46.203125 38.316406 15.339844 16.335938 27.894532 33.5625 35.347656 48.515625 11.058594 22.183594 7.351563 32.5 2.300782 37.246094-2.410156 2.265625-6.058594 4.140625-11.539063 4.140625zm-97.726562-123.375c-1.300781 0-2.027344.25-2.265625.476563-.777344.730468-2.171875 6.464843 5.171875 21.199218 6.882812 13.796875 18.632812 29.867188 33.085937 45.257813 14.449219 15.390625 29.757813 28.125 43.097656 35.855469 14.261719 8.269531 20.070313 7.21875 20.828126 6.496093.78125-.734375 2.171874-6.464843-5.171876-21.203125-6.878906-13.796875-18.628906-29.871094-33.082031-45.261718-14.453125-15.390626-29.761719-28.121094-43.097656-35.851563-9.839844-5.699219-15.652344-6.96875-18.566406-6.96875zm-6.941407-4.5h.066407zm0 0" fill="#4c241d"/><path d="m343.6875 147.476562c-7.070312-11.5-43.871094-1.71875-82.195312 21.839844-38.328126 23.5625-63.667969 51.984375-56.601563 63.480469 7.070313 11.496094 43.871094 1.71875 82.195313-21.84375 38.328124-23.558594 63.667968-51.980469 56.601562-63.476563zm0 0" fill="#c1dbdc"/><path d="m217.632812 244.398438c-10.832031 0-16.042968-3.972657-18.546874-8.042969-3.632813-5.90625-4.503907-16.832031 11.988281-35.335938 11.121093-12.472656 27.761719-25.800781 46.847656-37.535156 36.226563-22.265625 80.34375-37.886719 91.578125-19.605469v.003906c11.246094 18.296876-22.613281 50.597657-58.835938 72.871094-19.085937 11.734375-38.492187 20.558594-54.640624 24.851563-7.449219 1.980469-13.496094 2.792969-18.390626 2.792969zm114.101563-95.019532c-10.921875 0-35.167969 6.371094-66.667969 25.738282-17.984375 11.058593-33.539062 23.484374-43.796875 34.988281-10.957031 12.292969-11.117187 18.191406-10.554687 19.097656.558594.914063 5.90625 3.4375 21.804687-.796875 14.898438-3.960938 33.015625-12.230469 51-23.289062 41.285157-25.386719 57.019531-49.730469 54.355469-54.085938-.632812-1.035156-2.75-1.652344-6.140625-1.652344zm0 0" fill="#4c241d"/><path d="m366.613281 228.515625c0-13.496094-36.472656-24.4375-81.460937-24.4375-44.992188 0-81.460938 10.941406-81.460938 24.4375s36.46875 24.4375 81.460938 24.4375c44.988281 0 81.460937-10.941406 81.460937-24.4375zm0 0" fill="#c1dbdc"/><path d="m285.152344 259.78125c-42.519532 0-88.285156-9.785156-88.285156-31.265625s45.765624-31.265625 88.285156-31.265625c42.519531 0 88.285156 9.785156 88.285156 31.265625.003906 21.480469-45.765625 31.265625-88.285156 31.265625zm0-48.875c-48.480469 0-74.632813 12.496094-74.632813 17.609375 0 5.109375 26.152344 17.609375 74.632813 17.609375 48.480468 0 74.632812-12.5 74.632812-17.609375 0-5.113281-26.152344-17.609375-74.632812-17.609375zm0 0" fill="#4c241d"/><path d="m129.59375 169.285156c-38.324219-23.5625-75.125-33.339844-82.195312-21.84375-7.066407 11.5 18.273437 39.917969 56.601562 63.480469 38.324219 23.5625 75.125 33.339844 82.191406 21.84375 7.070313-11.5-18.269531-39.917969-56.597656-63.480469zm0 0" fill="#c1dbdc"/><path d="m173.472656 244.402344c-19.117187 0-47.972656-12.234375-73.050781-27.648438-19.085937-11.738281-35.722656-25.066406-46.835937-37.539062-16.5-18.503906-15.628907-29.429688-11.996094-35.339844 11.253906-18.296875 55.359375-2.664062 91.585937 19.609375 36.222657 22.265625 70.085938 54.570313 58.832031 72.867187-3.460937 5.632813-10.035156 8.050782-18.535156 8.050782zm-114.117187-95.023438c-3.394531 0-5.503907.617188-6.136719 1.652344-.558594.90625-.402344 6.804688 10.554688 19.097656 10.261718 11.507813 25.8125 23.933594 43.800781 34.992188 41.300781 25.390625 70.105469 28.433594 72.804687 24.082031 2.671875-4.355469-13.058594-28.699219-54.355468-54.085937-31.5-19.367188-55.746094-25.738282-66.667969-25.738282zm0 0" fill="#4c241d"/><path d="m203.691406 228.515625c0-13.496094-36.472656-24.4375-81.460937-24.4375-44.992188 0-81.460938 10.941406-81.460938 24.4375s36.46875 24.4375 81.460938 24.4375c44.988281 0 81.460937-10.941406 81.460937-24.4375zm0 0" fill="#c1dbdc"/><path d="m122.230469 259.78125c-42.519531 0-88.285157-9.785156-88.285157-31.265625s45.765626-31.265625 88.285157-31.265625c42.523437 0 88.289062 9.785156 88.289062 31.265625s-45.765625 31.265625-88.289062 31.265625zm0-48.875c-48.480469 0-74.632813 12.496094-74.632813 17.609375 0 5.109375 26.152344 17.609375 74.632813 17.609375s74.636719-12.5 74.636719-17.609375c0-5.113281-26.152344-17.609375-74.636719-17.609375zm0 0" fill="#4c241d"/></svg>