<svg height="433pt" viewBox="-63 0 433 433.64772" width="433pt" xmlns="http://www.w3.org/2000/svg"><path d="m307.523438 218.609375c0 84.828125-68.769532 153.597656-153.597657 153.597656-84.832031 0-153.601562-68.769531-153.601562-153.597656 0-84.832031 68.769531-153.601563 153.601562-153.601563 84.828125 0 153.597657 68.769532 153.597657 153.601563zm0 0" fill="#efefd2"/><path d="m152.804688 241.875s-37.199219-156.527344-8.078126-215.296875c0 0 22.347657-38.21875 30.097657-8.332031 9.597656 36.996094 24.179687 135.289062-14.730469 223.628906zm0 0" fill="#a9ba5a"/><path d="m160.09375 248.703125h-7.289062c-3.164063 0-5.910157-2.171875-6.640626-5.246094-1.542968-6.492187-37.429687-159.625-7.554687-219.910156 3.644531-6.269531 15.789063-25.21875 28.847656-23.429687 6.691407.929687 11.390625 6.449218 13.976563 16.414062 3.238281 12.484375 30.324218 124.984375-15.09375 228.097656-1.089844 2.476563-3.539063 4.074219-6.246094 4.074219zm5.246094-235.140625c-2.484375.164062-9.929688 8.273438-14.71875 16.460938-23.492188 47.445312-.636719 166.308593 6.722656 200.777343 38.621094-96.546875 13.902344-199.160156 10.875-210.839843-1.382812-5.328126-2.867188-6.386719-2.878906-6.398438zm0 0" fill="#4c241d"/><path d="m231.007812 214.078125s-58.300781-34.980469-52.472656-93.28125c3.15625-31.582031 16.582032-23.816406 28.21875-10.066406 12.621094 14.910156 20.363282 33.316406 23.25 52.636719 2.332032 15.609374 4.039063 35.53125 1.003906 50.710937zm0 0" fill="#a9ba5a"/><path d="m231.007812 220.902344c-1.222656 0-2.4375-.324219-3.515624-.972656-2.527344-1.519532-61.941407-37.917969-55.753907-99.816407 1.03125-10.28125 3.609375-24.328125 14.070313-27.578125 11.464844-3.5625 22.519531 9.488282 26.152344 13.78125 13.042968 15.402344 21.613281 34.785156 24.789062 56.042969 3.285156 21.945313 3.601562 39.792969.949219 53.058594-.433594 2.175781-1.898438 4.007812-3.929688 4.902343-.882812.390626-1.820312.582032-2.761719.582032zm-41.175781-115.324219c.027344 0-3.109375 1.964844-4.503906 15.894531-3.972656 39.695313 25.070313 68.269532 40.296875 80.351563.582031-10.289063-.210938-23-2.371094-37.449219-2.808594-18.746094-10.316406-35.773438-21.710937-49.238281-8.097657-9.5625-11.710938-9.59375-11.710938-9.558594zm0 0" fill="#4c241d"/><path d="m254.328125 173.265625s-29.152344-40.808594-34.980469-93.28125c-5.832031-52.472656 17.488282-29.152344 29.152344-11.660156 11.660156 17.492187 17.488281 58.300781 11.660156 104.941406zm0 0" fill="#a9ba5a"/><path d="m260.15625 180.09375h-5.828125c-2.203125 0-4.273437-1.0625-5.558594-2.859375-1.230469-1.726563-30.25-42.878906-36.207031-96.496094-1.78125-16.007812-2.347656-34.921875 9.148438-39.109375 12.019531-4.367187 25.507812 12.472656 32.464843 22.90625 13.324219 19.984375 18.445313 64.023438 12.753907 109.578125-.425782 3.417969-3.328126 5.980469-6.773438 5.980469zm-33.5625-125.289062c-.789062 1.820312-2.316406 7.722656-.460938 24.425781 4.050782 36.476562 20.019532 67.480469 28.460938 81.722656 3.722656-43.210937-3.152344-75.910156-11.773438-88.84375-7.152343-10.726563-13.535156-16.136719-16.226562-17.304687zm0 0" fill="#4c241d"/><path d="m201.855469 319.019531s5.832031-122.433593 52.472656-151.582031c46.640625-29.152344 23.320313 40.8125 23.320313 40.8125s-23.320313 69.960938-58.300782 110.773438h-17.492187zm0 0" fill="#a9ba5a"/><path d="m219.347656 325.847656h-17.492187c-1.867188 0-3.652344-.765625-4.9375-2.117187-1.292969-1.351563-1.96875-3.167969-1.882813-5.035157.25-5.144531 6.566406-126.355468 55.671875-157.046874 5.277344-3.308594 21.359375-13.347657 32.230469-4.78125 13.988281 11.011718 4.445312 43.765624 1.183594 53.539062-.96875 2.90625-24.148438 71.707031-59.59375 113.058594-1.292969 1.511718-3.1875 2.382812-5.179688 2.382812zm-10.179687-13.65625h7c32.625-39.65625 54.78125-105.429687 55.003906-106.105468 5.113281-15.378907 7.621094-35.113282 3.324219-38.492188-1.148438-.921875-6.101563-.90625-16.550782 5.632812-36.90625 23.066407-46.6875 112.855469-48.777343 138.964844zm0 0" fill="#4c241d"/><path d="m178.535156 324.851562s-37.527344-28.148437-57.882812-84.4375c-4.492188-12.429687.5-26.265624 11.589844-33.449218 1.925781-1.246094 3.949218-2.507813 6.042968-3.75 16.734375-9.925782 38.300782-.953125 42.660156 18.007812 6.054688 26.335938 12.675782 65.984375 9.253907 103.625h-11.664063zm0 0" fill="#a9ba5a"/><g fill="#4c241d"><path d="m190.199219 331.675781h-11.664063c-1.476562 0-2.914062-.480469-4.097656-1.367187-1.597656-1.195313-39.394531-30.027344-60.203125-87.574219-5.5625-15.382813.320313-32.449219 14.300781-41.5 2-1.292969 4.101563-2.601563 6.269532-3.890625 9.953124-5.910156 21.734374-6.6875 32.328124-2.148438 10.457032 4.480469 17.914063 13.410157 20.464844 24.5 6.21875 27.042969 12.890625 67.335938 9.402344 105.773438-.324219 3.515625-3.273438 6.207031-6.800781 6.207031zm-9.253907-13.652343h2.925782c2.132812-34.761719-3.925782-70.667969-9.578125-95.265626-1.5625-6.796874-6.132813-12.269531-12.539063-15.015624-6.539062-2.800782-13.824218-2.3125-19.988281 1.34375-2.019531 1.195312-3.964844 2.414062-5.816406 3.609374-8.613281 5.578126-12.265625 16.023438-8.875 25.398438 16.9375 46.847656 46.511719 73.757812 53.871093 79.929688zm0 0"/><path d="m134.171875 63.59375c-.199219 0-.398437-.011719-.601563-.027344l-24.558593-2.171875c-3.753907-.332031-6.53125-3.644531-6.199219-7.398437.328125-3.757813 3.667969-6.511719 7.398438-6.199219l11.75 1.035156-5.914063-10.644531c-1.832031-3.300781-.640625-7.453125 2.65625-9.285156 3.300781-1.820313 7.449219-.632813 9.28125 2.65625l12.15625 21.894531c1.222656 2.210937 1.128906 4.914063-.25 7.035156-1.261719 1.945313-3.425781 3.105469-5.71875 3.105469zm0 0"/><path d="m107.867188 280.582031c-2.238282 0-4.429688-1.097656-5.734376-3.117187-2.050781-3.164063-1.148437-7.390625 2.019532-9.441406l9.898437-6.414063-11.210937-4.753906c-3.46875-1.472657-5.089844-5.480469-3.617188-8.949219 1.472656-3.472656 5.476563-5.085938 8.949219-3.617188l23.050781 9.777344c2.328125.988282 3.917969 3.175782 4.132813 5.695313.222656 2.511719-.96875 4.945312-3.089844 6.320312l-20.691406 13.402344c-1.148438.742187-2.4375 1.097656-3.707031 1.097656zm0 0"/><path d="m285.484375 265.105469c-1.921875 0-3.832031-.808594-5.183594-2.382813l-16.308593-19c-1.644532-1.917968-2.097657-4.585937-1.175782-6.933594.925782-2.355468 3.066406-4.003906 5.578125-4.296874l24.492188-2.816407c3.65625-.425781 7.125 2.253907 7.5625 6.003907.429687 3.746093-2.253907 7.132812-6.003907 7.566406l-11.710937 1.34375 7.925781 9.242187c2.457032 2.863281 2.128906 7.167969-.730468 9.625-1.289063 1.105469-2.871094 1.648438-4.445313 1.648438zm0 0"/><path d="m294.070312 129.425781c-.265624 0-.53125-.011719-.804687-.042969l-24.867187-2.90625c-2.507813-.296874-4.652344-1.949218-5.570313-4.300781-.914063-2.355469-.460937-5.023437 1.1875-6.9375l16.089844-18.675781c2.46875-2.855469 6.777343-3.171875 9.632812-.71875 2.855469 2.464844 3.175781 6.777344.714844 9.632812l-7.695313 8.933594 12.097657 1.410156c3.742187.4375 6.421875 3.828126 5.984375 7.574219-.40625 3.472657-3.355469 6.03125-6.769532 6.03125zm0 0"/></g><path d="m102.722656 303.941406h197.972656v122.878906h-197.972656zm0 0" fill="#fff"/><path d="m300.695312 433.648438h-197.972656c-3.769531 0-6.824218-3.058594-6.824218-6.828126v-122.878906c0-3.769531 3.054687-6.828125 6.824218-6.828125h197.972656c3.773438 0 6.828126 3.058594 6.828126 6.828125v122.878906c0 3.769532-3.054688 6.828126-6.828126 6.828126zm-191.144531-13.652344h184.320313v-109.226563h-184.320313zm0 0" fill="#4c241d"/><path d="m102.722656 303.941406h197.972656v40.433594h-197.972656zm0 0" fill="#bf7e68"/><path d="m300.695312 351.199219h-197.972656c-3.769531 0-6.824218-3.054688-6.824218-6.824219v-40.433594c0-3.769531 3.054687-6.828125 6.824218-6.828125h197.972656c3.773438 0 6.828126 3.058594 6.828126 6.828125v40.433594c0 3.769531-3.054688 6.824219-6.828126 6.824219zm-191.144531-13.652344h184.320313v-26.777344h-184.320313zm0 0" fill="#4c241d"/></svg>