<svg height="382pt" viewBox="-14 0 382 382.29333" width="382pt" xmlns="http://www.w3.org/2000/svg"><path d="m307.347656 153.601562c0 84.828126-68.769531 153.597657-153.601562 153.597657-84.832032 0-153.597656-68.769531-153.597656-153.597657 0-84.832031 68.765624-153.601562 153.597656-153.601562 84.832031 0 153.601562 68.769531 153.601562 153.601562zm0 0" fill="#efefd2"/><path d="m251.222656 64.488281c0 22.648438-27.066406 17.433594-59.929687 17.433594s-59.078125 5.214844-59.078125-17.433594c0-22.648437 26.640625-33.554687 59.503906-33.554687s59.503906 10.90625 59.503906 33.554687zm0 0" fill="#ffce56"/><path d="m220.058594 89.265625c-4.160156 0-8.578125-.117187-13.226563-.242187-9.9375-.273438-21.207031-.265626-31.066406 0-19.625.535156-35.164063.957031-44.039063-7.683594-4.207031-4.089844-6.339843-9.765625-6.339843-16.851563 0-24.910156 25.417969-40.382812 66.332031-40.382812 40.910156 0 66.324219 15.472656 66.324219 40.382812 0 7.011719-2.132813 12.636719-6.332031 16.730469-6.917969 6.738281-17.863282 8.046875-31.652344 8.046875zm-28.765625-14.171875c5.492187 0 10.835937.144531 15.90625.28125 15.488281.40625 30.109375.8125 34.992187-3.941406.941406-.921875 2.203125-2.640625 2.203125-6.945313 0-19.730469-28.375-26.726562-52.675781-26.726562-24.296875 0-52.679688 7-52.679688 26.726562 0 4.410157 1.261719 6.144531 2.207032 7.070313 4.753906 4.617187 19.015625 4.226562 34.15625 3.816406 5.050781-.136719 10.378906-.28125 15.890625-.28125zm0 0" fill="#4c241d"/><path d="m300.132812 167.585938c0 59.875-48.539062 108.414062-108.414062 108.414062s-108.414062-48.539062-108.414062-108.414062 48.539062-88.699219 108.414062-88.699219 108.414062 28.824219 108.414062 88.699219zm0 0" fill="#a9ba5a"/><g fill="#4c241d"><path d="m191.71875 282.828125c-63.542969 0-115.238281-51.699219-115.238281-115.242187 0-58.027344 45.234375-95.523438 115.238281-95.523438 70.007812 0 115.242188 37.496094 115.242188 95.523438 0 63.542968-51.695313 115.242187-115.242188 115.242187zm0-197.113281c-49.113281 0-101.585938 21.507812-101.585938 81.871094 0 56.019531 45.574219 101.585937 101.585938 101.585937 56.015625 0 101.585938-45.566406 101.585938-101.585937 0-60.367188-52.472657-81.871094-101.585938-81.871094zm0 0"/><path d="m254.046875 262.613281c-.253906 0-.511719-.011719-.78125-.042969-3.746094-.425781-6.433594-3.808593-6.003906-7.558593 6.816406-59.957031 5.257812-114.96875-4.636719-163.503907-.75-3.691406 1.628906-7.296874 5.320312-8.050781 3.699219-.75 7.300782 1.632813 8.054688 5.324219 10.1875 49.941406 11.804688 106.386719 4.820312 167.777344-.394531 3.484375-3.347656 6.054687-6.773437 6.054687zm0 0"/><path d="m130.140625 262.765625c-3.460937 0-6.421875-2.613281-6.789063-6.125-6.378906-62.023437-5.074218-116.53125 4-166.640625.675782-3.707031 4.175782-6.195312 7.941407-5.5 3.707031.667969 6.164062 4.222656 5.5 7.929688-8.847657 48.828124-10.105469 102.085937-3.855469 162.808593.390625 3.75-2.34375 7.105469-6.089844 7.492188-.242187.027343-.472656.035156-.707031.035156zm0 0"/><path d="m191.414062 282.6875c-3.773437 0-6.828124-3.058594-6.828124-6.828125v-196.535156c0-3.769531 3.054687-6.828125 6.828124-6.828125 3.773438 0 6.824219 3.058594 6.824219 6.828125v196.535156c0 3.769531-3.050781 6.828125-6.824219 6.828125zm0 0"/><path d="m129.847656 68.265625c-1.027344 0-2.066406-.230469-3.046875-.71875l-13.652343-6.828125c-3.375-1.683594-4.742188-5.785156-3.054688-9.160156 1.6875-3.371094 5.792969-4.742188 9.160156-3.050782l13.652344 6.824219c3.375 1.6875 4.738281 5.789063 3.054688 9.160157-1.199219 2.394531-3.605469 3.773437-6.113282 3.773437zm0 0"/><path d="m143.507812 47.785156c-1.746093 0-3.496093-.664062-4.828124-2l-13.652344-13.652344c-2.667969-2.664062-2.667969-6.988281 0-9.652343 2.664062-2.667969 6.988281-2.667969 9.652344 0l13.652343 13.652343c2.667969 2.667969 2.667969 6.988282 0 9.652344-1.332031 1.335938-3.078125 2-4.824219 2zm0 0"/><path d="m163.992188 34.132812c-2.503907 0-4.914063-1.378906-6.113282-3.773437l-6.824218-13.652344c-1.6875-3.375-.320313-7.472656 3.050781-9.160156 3.375-1.683594 7.476562-.320313 9.160156 3.054687l6.828125 13.652344c1.6875 3.375.320312 7.472656-3.054688 9.160156-.980468.488282-2.019531.71875-3.046874.71875zm0 0"/><path d="m252.738281 68.265625c-2.503906 0-4.910156-1.378906-6.113281-3.773437-1.683594-3.371094-.320312-7.472657 3.054688-9.160157l13.652343-6.824219c3.375-1.691406 7.46875-.320312 9.160157 3.050782 1.6875 3.375.320312 7.476562-3.050782 9.160156l-13.65625 6.828125c-.976562.488281-2.019531.71875-3.046875.71875zm0 0"/><path d="m239.078125 47.785156c-1.742187 0-3.492187-.664062-4.824219-2-2.667968-2.664062-2.667968-6.984375 0-9.652344l13.652344-13.652343c2.667969-2.667969 6.988281-2.667969 9.652344 0 2.667968 2.664062 2.667968 6.988281 0 9.652343l-13.652344 13.652344c-1.332031 1.335938-3.082031 2-4.828125 2zm0 0"/><path d="m218.59375 34.132812c-1.027344 0-2.066406-.230468-3.046875-.71875-3.375-1.6875-4.738281-5.789062-3.054687-9.160156l6.828124-13.652344c1.691407-3.375 5.789063-4.738281 9.160157-3.054687 3.375 1.6875 4.738281 5.789063 3.050781 9.160156l-6.824219 13.652344c-1.199219 2.394531-3.605469 3.773437-6.113281 3.773437zm0 0"/><path d="m191.292969 34.132812c-3.773438 0-6.828125-3.054687-6.828125-6.824218v-20.480469c0-3.773437 3.054687-6.828125 6.828125-6.828125 3.773437 0 6.828125 3.054688 6.828125 6.828125v20.480469c0 3.769531-3.054688 6.824218-6.828125 6.824218zm0 0"/></g><path d="m286.867188 375.464844h-184.320313c-33.933594 0-61.441406-27.507813-61.441406-61.4375 0-33.933594 27.507812-61.441406 61.441406-61.441406h184.320313c33.929687 0 61.441406 27.507812 61.441406 61.441406 0 33.929687-27.511719 61.4375-61.441406 61.4375zm0 0" fill="#fff"/><path d="m286.867188 382.292969h-184.320313c-37.640625 0-68.265625-30.621094-68.265625-68.265625 0-37.644532 30.625-68.265625 68.265625-68.265625h184.320313c37.640624 0 68.265624 30.621093 68.265624 68.265625 0 37.644531-30.625 68.265625-68.265624 68.265625zm-184.320313-122.878907c-30.113281 0-54.613281 24.5-54.613281 54.613282 0 30.113281 24.5 54.613281 54.613281 54.613281h184.320313c30.113281 0 54.613281-24.5 54.613281-54.613281 0-30.113282-24.5-54.613282-54.613281-54.613282zm0 0" fill="#4c241d"/><path d="m321 320.851562c-3.773438 0-6.828125-3.054687-6.828125-6.824218 0-12.367188-8.332031-23.21875-20.265625-26.394532-3.648438-.964843-5.8125-4.707031-4.847656-8.351562.972656-3.640625 4.714844-5.820312 8.355468-4.84375 17.90625 4.757812 30.414063 21.039062 30.414063 39.589844 0 3.769531-3.054687 6.824218-6.828125 6.824218zm0 0" fill="#4c241d"/></svg>