<svg height="426pt" viewBox="-56 0 426 426.08" width="426pt" xmlns="http://www.w3.org/2000/svg"><path d="m307.238281 194.179688c0 84.832031-68.765625 153.601562-153.597656 153.601562s-153.6015625-68.769531-153.6015625-153.601562c0-84.832032 68.7695315-153.601563 153.6015625-153.601563s153.597656 68.769531 153.597656 153.601563zm0 0" fill="#efefd2"/><path d="m257.863281 55.054688 9.050781 253.386718h-54.296874zm0 0" fill="#a9ba5a"/><path d="m266.914062 315.265625h-54.292968c-2.019532 0-3.941406-.890625-5.234375-2.445313-1.300781-1.546874-1.839844-3.59375-1.484375-5.582031l45.246094-253.386719c.621093-3.433593 3.832031-5.886718 7.199218-5.605468 3.480469.238281 6.222656 3.070312 6.339844 6.558594l9.050781 253.386718c.066407 1.855469-.621093 3.65625-1.90625 4.988282-1.289062 1.332031-3.066406 2.085937-4.917969 2.085937zm-46.140624-13.652344h39.066406l-6.511719-182.3125zm0 0" fill="#4c241d"/><path d="m138.164062 55.054688-9.050781 253.386718h54.296875zm0 0" fill="#a9ba5a"/><path d="m183.40625 315.265625h-54.292969c-1.851562 0-3.625-.753906-4.914062-2.085937-1.285157-1.335938-1.972657-3.132813-1.90625-4.988282l9.046875-253.386718c.121094-3.488282 2.859375-6.320313 6.339844-6.558594 3.515624-.261719 6.585937 2.171875 7.203124 5.605468l45.246094 253.386719c.351563 1.984375-.1875 4.03125-1.488281 5.582031-1.292969 1.554688-3.214844 2.445313-5.234375 2.445313zm-47.21875-13.652344h39.066406l-32.554687-182.3125zm0 0" fill="#4c241d"/><path d="m228.859375 308.484375 78.855469-253.429687-45.246094 253.386718zm0 0" fill="#a9ba5a"/><path d="m228.859375 315.3125c-2.167969 0-4.207031-1.03125-5.492187-2.773438-1.296876-1.75-1.675782-4.003906-1.027344-6.078124l78.851562-253.433594c1.074219-3.453125 4.628906-5.464844 8.140625-4.605469 3.5.851563 5.734375 4.289063 5.101563 7.832031l-45.25 253.390625c-.578125 3.25-3.40625 5.617188-6.710938 5.625l-33.609375.046875h-.003906zm52.949219-154.019531-43.667969 140.355469 18.605469-.027344zm0 0" fill="#4c241d"/><path d="m167.167969 308.484375-78.855469-253.429687 45.246094 253.386718zm0 0" fill="#a9ba5a"/><path d="m167.167969 315.3125h-.007813l-33.605468-.042969c-3.308594-.007812-6.132813-2.375-6.714844-5.628906l-45.246094-253.386719c-.632812-3.546875 1.601562-6.980468 5.097656-7.832031 3.496094-.863281 7.0625 1.152344 8.140625 4.605469l78.855469 253.433594c.644531 2.074218.265625 4.324218-1.027344 6.078124-1.285156 1.742188-3.328125 2.773438-5.492187 2.773438zm-27.886719-13.691406 18.605469.027344-43.667969-140.355469zm0 0" fill="#4c241d"/><path d="m198.011719 300.019531c-3.773438 0-6.824219-3.050781-6.824219-6.824219v-150.214843c0-3.773438 3.050781-6.828125 6.824219-6.828125 3.773437 0 6.828125 3.054687 6.828125 6.828125v150.214843c0 3.773438-3.054688 6.824219-6.828125 6.824219zm0 0" fill="#4c241d"/><path d="m198.011719 6.605469c-30.246094 49.496093-33.25 86.277343-31.804688 105.546875.664063 8.859375 4.617188 17.136718 10.894531 23.414062l20.910157 20.910156 20.910156-20.910156c6.28125-6.277344 10.230469-14.554687 10.898437-23.414062 1.445313-19.269532-1.558593-56.050782-31.808593-105.546875zm0 0" fill="#f53e28"/><path d="m198.011719 163.304688c-1.746094 0-3.492188-.664063-4.824219-2l-20.914062-20.914063c-7.519532-7.519531-12.09375-17.363281-12.875-27.722656-1.398438-18.613281 1.007812-57.609375 32.789062-109.628907 2.480469-4.050781 9.171875-4.050781 11.652344 0 31.78125 52.019532 34.1875 91.015626 32.785156 109.628907-.777344 10.359375-5.351562 20.203125-12.871094 27.722656l-20.914062 20.914063c-1.332032 1.335937-3.078125 2-4.828125 2zm0-143.164063c-24.265625 43.652344-26.183594 75.707031-24.996094 91.5.53125 7.105469 3.699219 13.886719 8.914063 19.097656l16.085937 16.089844 16.085937-16.089844c5.214844-5.210937 8.378907-11.992187 8.914063-19.097656 1.183594-15.792969-.734375-47.847656-25.003906-91.5zm0 0" fill="#4c241d"/><path d="m120.945312 292.5625c-6.53125 12.125-10.253906 25.988281-10.253906 40.722656 0 47.480469 38.488282 85.972656 85.96875 85.972656 47.484375 0 85.972656-38.488281 85.972656-85.972656 0-14.734375-3.71875-28.597656-10.253906-40.722656zm0 0" fill="#fff"/><g fill="#4c241d"><path d="m196.660156 426.078125c-51.167968 0-92.792968-41.625-92.792968-92.792969 0-15.320312 3.824218-30.527344 11.074218-43.957031 1.183594-2.207031 3.492188-3.589844 6.003906-3.589844h151.433594c2.515625 0 4.820313 1.382813 6.007813 3.589844 7.246093 13.429687 11.074219 28.636719 11.074219 43.957031 0 51.167969-41.625 92.792969-92.800782 92.792969zm-71.519531-126.683594c-4.992187 10.539063-7.621094 22.171875-7.621094 33.890625 0 43.640625 35.5 79.140625 79.140625 79.140625s79.144532-35.5 79.144532-79.140625c0-11.71875-2.625-23.351562-7.617188-33.890625zm0 0"/><path d="m229.613281 383.820312c-2.066406 0-4.105469-.933593-5.445312-2.707031-2.28125-3.007812-1.6875-7.289062 1.320312-9.5625 12.90625-9.777343 20.3125-24.664062 20.3125-40.839843 0-3.773438 3.050781-6.824219 6.824219-6.824219s6.828125 3.050781 6.828125 6.824219c0 20.488281-9.371094 39.339843-25.726563 51.722656-1.234374.933594-2.679687 1.386718-4.113281 1.386718zm0 0"/></g></svg>