<svg height="422pt" viewBox="-57 0 422 422.49557" width="422pt" xmlns="http://www.w3.org/2000/svg"><path d="m307.449219 224.730469c0 84.828125-68.769531 153.597656-153.601563 153.597656-84.832031 0-153.601562-68.769531-153.601562-153.597656 0-84.832031 68.769531-153.601563 153.601562-153.601563 84.832032 0 153.601563 68.769532 153.601563 153.601563zm0 0" fill="#efefd2"/><path d="m237.59375 44.644531 9.046875 253.382813h-54.296875zm0 0" fill="#d9be6f"/><path d="m246.640625 304.855469h-54.292969c-2.019531 0-3.941406-.894531-5.230468-2.441407-1.300782-1.550781-1.839844-3.59375-1.488282-5.582031l45.246094-253.386719c.613281-3.4375 3.746094-5.816406 7.203125-5.609374 3.480469.25 6.21875 3.082031 6.339844 6.566406l9.046875 253.386718c.066406 1.847657-.621094 3.648438-1.90625 4.980469-1.289063 1.335938-3.0625 2.085938-4.917969 2.085938zm-46.140625-13.652344h39.070312l-6.515624-182.3125zm0 0" fill="#4c241d"/><path d="m145.195312 44.644531-9.046874 253.382813h54.296874zm0 0" fill="#d9be6f"/><path d="m190.441406 304.855469h-54.292968c-1.855469 0-3.628907-.75-4.914063-2.085938-1.285156-1.335937-1.972656-3.132812-1.90625-4.984375l9.046875-253.382812c.121094-3.488282 2.859375-6.320313 6.339844-6.566406 3.492187-.191407 6.585937 2.171874 7.199218 5.609374l45.25 253.382813c.351563 1.992187-.1875 4.035156-1.488281 5.582031-1.292969 1.550782-3.214843 2.445313-5.234375 2.445313zm-47.222656-13.652344h39.070312l-32.554687-182.3125zm0 0" fill="#4c241d"/><path d="m208.585938 298.074219 78.859374-253.429688-45.25 253.382813zm0 0" fill="#a9ba5a"/><path d="m208.585938 304.898438c-2.164063 0-4.207032-1.03125-5.492188-2.777344-1.292969-1.746094-1.671875-4.003906-1.027344-6.074219l78.851563-253.429687c1.074219-3.445313 4.628906-5.449219 8.140625-4.605469 3.5.855469 5.734375 4.285156 5.101562 7.835937l-45.246094 253.382813c-.582031 3.253906-3.40625 5.621093-6.714843 5.625l-33.605469.042969zm52.949218-154.019532-43.667968 140.355469 18.605468-.027344zm0 0" fill="#4c241d"/><path d="m174.203125 298.074219-78.859375-253.429688 45.25 253.382813zm0 0" fill="#a9ba5a"/><path d="m174.203125 304.898438h-.007813l-33.605468-.042969c-3.308594-.003907-6.136719-2.371094-6.714844-5.625l-45.246094-253.382813c-.632812-3.550781 1.597656-6.980468 5.097656-7.835937 3.5-.851563 7.066407 1.160156 8.140626 4.605469l78.855468 253.429687c.644532 2.070313.265625 4.328125-1.027344 6.074219-1.285156 1.75-3.328124 2.777344-5.492187 2.777344zm-27.886719-13.6875 18.605469.023437-43.667969-140.351563zm0 0" fill="#4c241d"/><path d="m158.371094 296.410156 36.195312-289.582031 27.152344 289.582031zm0 0" fill="#a9ba5a"/><path d="m221.714844 303.234375h-63.347656c-1.957032 0-3.816407-.839844-5.117188-2.308594-1.292969-1.46875-1.902344-3.421875-1.65625-5.367187l36.203125-289.578125c.425781-3.421875 3.332031-5.980469 6.773437-5.980469h.105469c3.480469.0546875 6.363281 2.71875 6.691407 6.191406l27.148437 289.578125c.171875 1.914063-.460937 3.8125-1.753906 5.234375-1.292969 1.417969-3.125 2.230469-5.046875 2.230469zm-55.613282-13.652344h48.121094l-20.621094-219.957031zm0 0" fill="#4c241d"/><path d="m114.328125 288.980469c-6.535156 12.121093-10.253906 25.984375-10.253906 40.722656 0 47.480469 38.488281 85.96875 85.96875 85.96875s85.96875-38.488281 85.96875-85.96875c0-14.738281-3.71875-28.601563-10.253907-40.722656zm0 0" fill="#fff"/><g fill="#4c241d"><path d="m190.042969 422.496094c-51.167969 0-92.796875-41.628906-92.796875-92.792969 0-15.320313 3.828125-30.523437 11.074218-43.964844 1.1875-2.210937 3.492188-3.585937 6.007813-3.585937h151.433594c2.511719 0 4.820312 1.375 6.007812 3.585937 7.246094 13.441407 11.070313 28.644531 11.070313 43.964844 0 51.167969-41.625 92.792969-92.796875 92.792969zm-71.519531-126.691406c-4.996094 10.542968-7.621094 22.179687-7.621094 33.898437 0 43.636719 35.5 79.140625 79.140625 79.140625 43.636719 0 79.144531-35.503906 79.144531-79.140625 0-11.71875-2.625-23.359375-7.621094-33.898437zm0 0"/><path d="m222.996094 380.238281c-2.066406 0-4.105469-.933593-5.445313-2.703125-2.28125-3.007812-1.6875-7.289062 1.316407-9.566406 12.90625-9.78125 20.3125-24.664062 20.3125-40.839844 0-3.769531 3.054687-6.828125 6.828124-6.828125 3.773438 0 6.828126 3.058594 6.828126 6.828125 0 20.484375-9.375 39.335938-25.726563 51.71875-1.234375.9375-2.683594 1.390625-4.113281 1.390625zm0 0"/></g></svg>