<svg height="430pt" viewBox="0 -3 430.91078 430" width="430pt" xmlns="http://www.w3.org/2000/svg"><path d="m321.269531 181.367188c0 84.832031-68.769531 153.597656-153.601562 153.597656s-153.597657-68.765625-153.597657-153.597656c0-84.832032 68.765626-153.601563 153.597657-153.601563s153.601562 68.769531 153.601562 153.601563zm0 0" fill="#efefd2"/><path d="m317.855469 242.808594c0 56.550781-45.847657 102.398437-102.398438 102.398437-56.554687 0-102.402343-45.847656-102.402343-102.398437zm0 0" fill="#fff"/><path d="m215.457031 352.035156c-60.226562 0-109.230469-49-109.230469-109.226562 0-3.773438 3.054688-6.828125 6.828126-6.828125h204.800781c3.773437 0 6.828125 3.054687 6.828125 6.828125 0 60.226562-49 109.226562-109.226563 109.226562zm-95.335937-102.402344c3.515625 49.523438 44.933594 88.746094 95.335937 88.746094 50.398438 0 91.820313-39.222656 95.332031-88.746094zm0 0" fill="#4c241d"/><path d="m270.273438 336.035156c-1.597657 0-3.199219-.558594-4.492188-1.6875l-51.40625-44.964844c-1.480469-1.296874-2.332031-3.167968-2.332031-5.140624v-276.957032c0-3.25 2.292969-6.050781 5.480469-6.691406 3.246093-.6328125 6.386718 1.058594 7.644531 4.054688l98.988281 236.425781c1.453125 3.476562-.1875 7.480469-3.667969 8.933593-3.460937 1.453126-7.464843-.179687-8.933593-3.660156l-85.859376-205.078125v239.875l49.074219 42.921875c2.839844 2.484375 3.125 6.796875.644531 9.632813-1.351562 1.542969-3.238281 2.335937-5.140624 2.335937zm0 0" fill="#4c241d"/><path d="m220.414062 233.285156s88.320313-96.960937 203.675782-.546875c0 0-80.773438-33.390625-203.675782.546875zm0 0" fill="#a9ba5a"/><path d="m220.414062 240.113281c-2.332031 0-4.550781-1.195312-5.820312-3.253906-1.585938-2.59375-1.273438-5.921875.773438-8.167969.925781-1.019531 94.113281-100.65625 213.101562-1.1875 2.578125 2.160156 3.199219 5.875 1.457031 8.761719-1.738281 2.886719-5.3125 4.066406-8.4375 2.789063-.789062-.320313-80.355469-32.019532-199.253906.816406-.605469.164062-1.210937.242187-1.820313.242187zm99.515626-43.421875c-31.054688 0-56.109376 12.003906-72.613282 23.074219 61.539063-12.746094 110.433594-9.121094 141.539063-3.460937-25.105469-14.332032-48.339844-19.613282-68.925781-19.613282zm0 0" fill="#4c241d"/><path d="m113.046875 249.636719c-.933594 0-1.878906-.191407-2.792969-.605469-3.441406-1.542969-4.972656-5.585938-3.425781-9.023438l105.8125-235.519531c1.539063-3.433593 5.566406-4.980469 9.027344-3.429687 3.441406 1.542968 4.972656 5.585937 3.425781 9.023437l-105.8125 235.519531c-1.132812 2.53125-3.625 4.035157-6.234375 4.035157zm0 0" fill="#4c241d"/><path d="m210.496094 233.285156s-88.320313-96.960937-203.675782-.546875c0 0 80.773438-33.390625 203.675782.546875zm0 0" fill="#a9ba5a"/><path d="m210.496094 240.113281c-.605469 0-1.214844-.078125-1.820313-.246093-118.894531-32.839844-198.464843-1.136719-199.253906-.816407-3.140625 1.269531-6.707031.09375-8.4375-2.789062-1.742187-2.882813-1.121094-6.601563 1.457031-8.761719 118.988282-99.453125 212.175782.171875 213.101563 1.1875 2.046875 2.246094 2.359375 5.578125.773437 8.167969-1.265625 2.0625-3.496094 3.257812-5.820312 3.257812zm-108.761719-28.980469c23.734375 0 51.222656 2.285157 81.859375 8.632813-27.453125-18.414063-78.570312-39.402344-141.546875-3.457031 15.628906-2.847656 35.742187-5.175782 59.6875-5.175782zm0 0" fill="#4c241d"/><path d="m163.867188 333.039062c-1.972657 0-3.925782-.847656-5.28125-2.488281-2.390626-2.910156-1.972657-7.214843.933593-9.609375l51.59375-42.449218c2.921875-2.386719 7.214844-1.976563 9.613281.9375 2.394532 2.910156 1.972657 7.214843-.933593 9.609374l-51.59375 42.449219c-1.269531 1.042969-2.804688 1.550781-4.332031 1.550781zm0 0" fill="#4c241d"/><path d="m180.84375 242.300781s-125.816406-98.480469-173.601562 174.585938c0 0 75.09375-170.667969 173.601562-174.585938zm0 0" fill="#a9ba5a"/><path d="m7.242188 423.714844c-.652344 0-1.320313-.09375-1.980469-.296875-3.300781-1-5.339844-4.308594-4.746094-7.707031 19.121094-109.234376 53.078125-173.941407 100.953125-192.328126 43.980469-16.890624 81.992188 12.289063 83.585938 13.542969 2.253906 1.765625 3.167968 4.746094 2.296874 7.472657-.882812 2.722656-3.367187 4.609374-6.226562 4.722656-93.109375 3.707031-166.902344 168.851562-167.636719 170.515625-1.113281 2.53125-3.597656 4.078125-6.246093 4.078125zm122.179687-191.835938c-7.371094 0-15.199219 1.210938-23.1875 4.300782-35.160156 13.589843-63.09375 59.136718-81.851563 132.765624 27.136719-46.859374 75.839844-115.199218 135.753907-130.453124-8.179688-3.476563-18.847657-6.613282-30.714844-6.613282zm0 0" fill="#4c241d"/><path d="m250.066406 242.300781s125.816406-98.480469 173.601563 174.585938c0 0-75.09375-170.667969-173.601563-174.585938zm0 0" fill="#a9ba5a"/><path d="m423.667969 423.714844c-2.648438 0-5.132813-1.542969-6.246094-4.078125-.734375-1.667969-74.527344-166.808594-167.632813-170.515625-2.859374-.113282-5.347656-2-6.226562-4.726563-.875-2.722656.039062-5.707031 2.292969-7.472656 1.59375-1.25 39.621093-30.429687 83.589843-13.539063 47.871094 18.382813 81.832032 83.09375 100.949219 192.324219.59375 3.398438-1.445312 6.710938-4.746093 7.710938-.660157.203125-1.328126.296875-1.980469.296875zm-152.894531-185.222656c59.910156 15.253906 108.617187 83.59375 135.753906 130.453124-18.757813-73.628906-46.691406-119.175781-81.851563-132.765624-20.863281-8.074219-40.640625-3.324219-53.902343 2.3125zm0 0" fill="#4c241d"/><path d="m225.695312 239.300781s13.652344-47.695312 54.613282-34.039062c40.960937 13.652343 88.746094 122.878906 68.265625 191.144531 0 0-8.753907-55.449219-31.902344-101.5-17.226563-34.265625-52.621094-55.605469-90.976563-55.605469zm0 0" fill="#a9ba5a"/><path d="m348.582031 403.234375c-.152343 0-.3125-.007813-.464843-.019531-3.179688-.210938-5.789063-2.59375-6.28125-5.742188-.085938-.546875-8.878907-54.980468-31.257813-99.5-16.074219-31.980468-48.601563-51.847656-84.882813-51.847656-2.136718 0-4.160156-1.003906-5.453124-2.714844-1.285157-1.710937-1.699219-3.929687-1.105469-5.992187.300781-1.058594 7.660156-26.078125 27.882812-36.734375 10.578125-5.578125 22.5-6.210938 35.453125-1.898438 45.777344 15.257813 93.753906 129.222656 72.644532 199.582032-.875 2.902343-3.542969 4.867187-6.535157 4.867187zm-112.941406-170.320313c37.40625 3.320313 70.207031 25.261719 87.136719 58.925782 10.914062 21.714844 18.652344 45.234375 23.839844 64.367187-1.496094-62.183593-39.152344-134.703125-68.46875-144.46875-9.398438-3.136719-17.5-2.800781-24.765626 1.023438-8.734374 4.605469-14.476562 13.527343-17.742187 20.152343zm0 0" fill="#4c241d"/><path d="m232.523438 239.300781s-13.65625-47.695312-54.613282-34.039062c-40.960937 13.652343-88.75 122.878906-68.269531 191.144531 0 0 8.757813-55.449219 31.902344-101.5 17.226562-34.265625 52.625-55.605469 90.980469-55.605469zm0 0" fill="#a9ba5a"/><path d="m109.636719 403.234375c-2.996094 0-5.660157-1.964844-6.535157-4.867187-21.105468-70.363282 26.867188-184.324219 72.644532-199.582032 12.96875-4.3125 24.882812-3.679687 35.453125 1.898438 20.222656 10.65625 27.582031 35.675781 27.882812 36.734375.59375 2.0625.175781 4.28125-1.105469 5.992187-1.296874 1.710938-3.316406 2.714844-5.453124 2.714844-36.28125 0-68.808594 19.867188-84.882813 51.847656-22.410156 44.582032-31.171875 98.953125-31.257813 99.496094-.496093 3.148438-3.101562 5.535156-6.28125 5.746094-.152343.011718-.304687.019531-.464843.019531zm82.410156-193.621094c-3.757813 0-7.730469.707031-11.980469 2.125-29.3125 9.769531-66.972656 82.285157-68.464844 144.46875 5.1875-19.132812 12.925782-42.652343 23.839844-64.367187 16.925782-33.671875 49.742188-55.613282 87.152344-58.929688-3.246094-6.628906-8.988281-15.550781-17.820312-20.179687-3.964844-2.082031-8.179688-3.117188-12.726563-3.117188zm0 0" fill="#4c241d"/></svg>