<svg height="423pt" viewBox="-17 0 423 423.25333" width="423pt" xmlns="http://www.w3.org/2000/svg"><path d="m307.328125 187.734375c0 84.828125-68.769531 153.597656-153.601563 153.597656-84.832031 0-153.601562-68.769531-153.601562-153.597656 0-84.832031 68.769531-153.601563 153.601562-153.601563 84.832032 0 153.601563 68.769532 153.601563 153.601563zm0 0" fill="#efefd2"/><path d="m242.089844 394.972656c-14.988282-1.675781-25.777344-15.183594-24.101563-30.171875l28.828125-257.804687c1.675782-14.988282 15.183594-25.78125 30.171875-24.105469s25.78125 15.183594 24.105469 30.171875l-28.832031 257.808594c-1.675781 14.988281-15.183594 25.777344-30.171875 24.101562zm0 0" fill="#a9ba5a"/><path d="m245.148438 401.96875c-1.257813 0-2.535157-.070312-3.820313-.210938-18.699219-2.09375-32.214844-19.011718-30.125-37.710937l28.828125-257.808594c2.09375-18.703125 18.984375-32.1875 37.71875-30.128906 18.699219 2.09375 32.21875 19.011719 30.125 37.710937l-28.828125 257.808594c-1.945313 17.421875-16.761719 30.339844-33.898437 30.339844zm-2.296876-13.777344c5.417969.601563 10.78125-.9375 15.058594-4.355468 4.273438-3.414063 6.960938-8.285157 7.570313-13.726563l28.832031-257.808594c1.25-11.21875-6.859375-21.367187-18.082031-22.625-5.40625-.601562-10.777344.9375-15.058594 4.351563-4.273437 3.414062-6.960937 8.289062-7.570313 13.726562l-28.832031 257.808594c-1.253906 11.21875 6.859375 21.371094 18.082031 22.628906zm0 0" fill="#4c241d"/><path d="m273.605469 397.839844c12.515625 4.1875 26.054687-2.566406 30.238281-15.082032l45.460938-135.960937c4.183593-12.515625-2.570313-26.054687-15.085938-30.238281-12.511719-4.183594-26.050781 2.570312-30.234375 15.082031l-45.460937 135.964844c-4.183594 12.511719 2.566406 26.050781 15.082031 30.234375zm0 0" fill="#a9ba5a"/><path d="m281.214844 405.917969c-3.28125 0-6.574219-.535157-9.777344-1.601563-7.78125-2.601562-14.082031-8.078125-17.746094-15.421875-3.660156-7.34375-4.246094-15.675781-1.640625-23.457031l45.460938-135.957031c2.597656-7.78125 8.074219-14.085938 15.417969-17.746094 7.34375-3.664063 15.679687-4.242187 23.457031-1.644531 7.78125 2.597656 14.082031 8.074218 17.746093 15.417968 3.660157 7.34375 4.246094 15.675782 1.644532 23.457032l-45.460938 135.957031c-2.601562 7.785156-8.078125 14.085937-15.421875 17.75-4.320312 2.15625-8.988281 3.246094-13.679687 3.246094zm45.410156-183.773438c-2.605469 0-5.199219.605469-7.597656 1.800781-4.082032 2.039063-7.125 5.539063-8.570313 9.859376l-45.460937 135.960937c-1.445313 4.328125-1.117188 8.953125.914062 13.035156 2.035156 4.078125 5.539063 7.121094 9.859375 8.566407h.003907c4.328124 1.445312 8.949218 1.117187 13.027343-.914063 4.082031-2.035156 7.125-5.535156 8.570313-9.859375l45.460937-135.957031c1.445313-4.328125 1.117188-8.953125-.914062-13.035157-2.035157-4.078124-5.535157-7.121093-9.859375-8.566406-1.78125-.59375-3.613282-.890625-5.433594-.890625zm0 0" fill="#4c241d"/><path d="m198.101562 395.945312c-15.082031 0-27.308593-12.222656-27.308593-27.304687v-334.507813c0-15.082031 12.226562-27.304687 27.308593-27.304687 15.082032 0 27.304688 12.222656 27.304688 27.304687v334.507813c0 15.082031-12.222656 27.304687-27.304688 27.304687zm0 0" fill="#a9ba5a"/><path d="m198.101562 402.773438c-18.820312 0-34.136718-15.3125-34.136718-34.132813v-334.507813c0-18.820312 15.316406-34.132812 34.136718-34.132812 18.816407 0 34.132813 15.3125 34.132813 34.132812v334.507813c0 18.820313-15.316406 34.132813-34.132813 34.132813zm0-389.121094c-11.292968 0-20.480468 9.1875-20.480468 20.480468v334.507813c0 11.292969 9.1875 20.480469 20.480468 20.480469 11.292969 0 20.476563-9.1875 20.476563-20.480469v-334.507813c0-11.292968-9.183594-20.480468-20.476563-20.480468zm0 0" fill="#4c241d"/><path d="m198.101562 297.339844c-3.773437 0-6.828124-3.054688-6.828124-6.824219v-283.6875c0-3.773437 3.054687-6.828125 6.828124-6.828125 3.769532 0 6.824219 3.054688 6.824219 6.828125v283.6875c0 3.769531-3.054687 6.824219-6.824219 6.824219zm0 0" fill="#4c241d"/><path d="m196.839844 394.652344c-14.945313 2.019531-28.699219-8.457032-30.722656-23.402344l-31.097657-230.011719c-2.019531-14.945312 8.457031-28.699219 23.402344-30.722656 14.945313-2.019531 28.699219 8.457031 30.71875 23.402344l31.101563 230.015625c2.019531 14.945312-8.457032 28.699218-23.402344 30.71875zm0 0" fill="#a9ba5a"/><path d="m193.160156 401.730469c-16.8125 0-31.492187-12.457031-33.808594-29.5625l-31.101562-230.015625c-1.21875-9.035156 1.152344-18.003906 6.675781-25.257813 5.523438-7.25 13.546875-11.914062 22.582031-13.140625 18.695313-2.484375 35.875 10.613282 38.394532 29.253906l31.101562 230.015626c2.519532 18.648437-10.601562 35.875-29.253906 38.398437-1.539062.203125-3.074219.308594-4.589844.308594zm3.679688-7.078125h.066406zm-34.742188-277.554688c-.914062 0-1.835937.0625-2.761718.1875-5.417969.730469-10.234376 3.53125-13.546876 7.882813-3.316406 4.351562-4.734374 9.734375-4.003906 15.152343l31.101563 230.019532c1.511719 11.183594 11.867187 19.042968 23.039062 17.542968 11.1875-1.507812 19.058594-11.84375 17.546875-23.039062l-31.101562-230.011719c-1.382813-10.257812-10.191406-17.734375-20.273438-17.734375zm0 0" fill="#4c241d"/><path d="m156.726562 397.839844c-12.515624 4.1875-26.050781-2.566406-30.238281-15.082032l-45.457031-135.960937c-4.1875-12.515625 2.566406-26.054687 15.082031-30.238281s26.050781 2.570312 30.238281 15.082031l45.457032 135.964844c4.1875 12.511719-2.566406 26.050781-15.082032 30.234375zm0 0" fill="#a9ba5a"/><path d="m149.121094 405.917969c-4.699219 0-9.359375-1.089844-13.683594-3.246094-7.34375-3.664063-12.820312-9.96875-15.421875-17.75l-45.460937-135.960937c-2.601563-7.78125-2.019532-16.109376 1.644531-23.453126 3.664062-7.34375 9.96875-12.820312 17.75-15.417968 7.785156-2.605469 16.113281-2.019532 23.453125 1.644531 7.34375 3.660156 12.820312 9.964844 15.417968 17.746094l45.460938 135.960937c2.605469 7.78125 2.023438 16.109375-1.644531 23.453125-3.664063 7.34375-9.960938 12.820313-17.742188 15.421875-3.203125 1.066406-6.496093 1.601563-9.773437 1.601563zm-45.414063-183.773438c-1.820312 0-3.652343.296875-5.429687.886719-4.324219 1.449219-7.828125 4.492188-9.863282 8.570312-2.03125 4.078126-2.359374 8.707032-.910156 13.027344l45.460938 135.964844c1.445312 4.324219 4.488281 7.824219 8.566406 9.859375 4.078125 2.027344 8.703125 2.355469 13.027344.914063h.003906c4.324219-1.449219 7.828125-4.492188 9.859375-8.570313s2.359375-8.707031.914063-13.027344l-45.460938-135.964843c-1.449219-4.324219-4.492188-7.824219-8.570312-9.859376-2.398438-1.195312-4.988282-1.800781-7.597657-1.800781zm0 0" fill="#4c241d"/><path d="m95.699219 218.453125 27.308593 75.09375" fill="#a9ba5a"/><path d="m123.007812 300.375c-2.792968 0-5.40625-1.722656-6.417968-4.496094l-27.308594-75.09375c-1.285156-3.542968.539062-7.457031 4.085938-8.75 3.527343-1.28125 7.460937.535156 8.75 4.085938l27.304687 75.09375c1.289063 3.542968-.539063 7.457031-4.082031 8.75-.769532.277344-1.558594.410156-2.332032.410156zm0 0" fill="#4c241d"/><path d="m320.980469 416.425781h-197.972657c-33.933593 0-61.441406-27.507812-61.441406-61.4375 0-33.933593 27.507813-61.441406 61.441406-61.441406h197.972657c33.929687 0 61.441406 27.507813 61.441406 61.441406 0 33.929688-27.511719 61.4375-61.441406 61.4375zm0 0" fill="#fff"/><path d="m320.980469 423.253906h-197.972657c-37.644531 0-68.269531-30.625-68.269531-68.265625 0-37.644531 30.625-68.269531 68.269531-68.269531h197.972657c37.644531 0 68.265625 30.625 68.265625 68.269531 0 37.640625-30.621094 68.265625-68.265625 68.265625zm-197.972657-122.878906c-30.117187 0-54.613281 24.496094-54.613281 54.613281 0 30.113281 24.496094 54.613281 54.613281 54.613281h197.972657c30.113281 0 54.613281-24.5 54.613281-54.613281 0-30.117187-24.5-54.613281-54.613281-54.613281zm0 0" fill="#4c241d"/><path d="m157.140625 116.054688 24.175781 174.296874" fill="#a9ba5a"/><g fill="#4c241d"><path d="m181.304688 297.179688c-3.351563 0-6.277344-2.472657-6.75-5.890626l-24.179688-174.296874c-.515625-3.734376 2.09375-7.183594 5.828125-7.703126 3.675781-.507812 7.175781 2.089844 7.699219 5.828126l24.179687 174.300781c.515625 3.734375-2.09375 7.179687-5.828125 7.699219-.316406.042968-.632812.0625-.949218.0625zm0 0"/><path d="m286.847656 342.160156h-17.308594c-3.769531 0-6.828124-3.058594-6.828124-6.828125s3.058593-6.824219 6.828124-6.824219h17.308594c3.769532 0 6.824219 3.054688 6.824219 6.824219s-3.054687 6.828125-6.824219 6.828125zm0 0"/><path d="m235.894531 342.160156h-124.8125c-3.773437 0-6.828125-3.058594-6.828125-6.828125s3.054688-6.824219 6.828125-6.824219h124.8125c3.769531 0 6.828125 3.054688 6.828125 6.824219s-3.058594 6.828125-6.828125 6.828125zm0 0"/><path d="m252.722656 298.855469c-.304687 0-.609375-.019531-.917968-.058594-3.738282-.503906-6.359376-3.941406-5.859376-7.675781l27.308594-203.285156c.5-3.734376 3.894532-6.367188 7.675782-5.855469 3.734374.503906 6.355468 3.941406 5.855468 7.675781l-27.304687 203.28125c-.460938 3.429688-3.394531 5.917969-6.757813 5.917969zm0 0"/></g><path d="m334.632812 218.453125-27.304687 75.09375" fill="#a9ba5a"/><path d="m307.328125 300.375c-.777344 0-1.566406-.132812-2.335937-.410156-3.542969-1.292969-5.367188-5.207032-4.082032-8.75l27.304688-75.09375c1.296875-3.542969 5.226562-5.359375 8.75-4.085938 3.542968 1.292969 5.371094 5.207032 4.085937 8.75l-27.308593 75.09375c-1.007813 2.773438-3.625 4.496094-6.414063 4.496094zm0 0" fill="#4c241d"/></svg>