<svg height="409pt" viewBox="-41 0 409 409.59422" width="409pt" xmlns="http://www.w3.org/2000/svg"><path d="m307.496094 194.554688c0 84.832031-68.769532 153.597656-153.597656 153.597656-84.832032 0-153.601563-68.765625-153.601563-153.597656 0-84.832032 68.769531-153.601563 153.601563-153.601563 84.828124 0 153.597656 68.769531 153.597656 153.601563zm0 0" fill="#efefd2"/><path d="m251.1875 200.074219c-7.800781 5.292969-44.554688 44.707031-39.265625 52.507812 5.292969 7.800781 50.628906-18.972656 58.429687-24.261719 7.800782-5.292968 9.832032-15.90625 4.539063-23.707031s-15.90625-9.832031-23.703125-4.539062zm0 0" fill="#a9ba5a"/><path d="m215.667969 260.429688c-4.152344 0-7.464844-1.171876-9.390625-4.015626-10.675782-15.722656 40.503906-61.605468 41.070312-61.992187 10.902344-7.390625 25.789063-4.542969 33.1875 6.355469 3.585938 5.28125 4.898438 11.644531 3.699219 17.910156-1.199219 6.269531-4.773437 11.695312-10.054687 15.28125-1.910157 1.296875-39.253907 26.460938-58.511719 26.460938zm39.347656-54.707032c-6.511719 4.417969-29.125 29.253906-35.25 40.804688 11.121094-3.125 35.867187-16.472656 46.753906-23.859375 2.265625-1.535157 3.792969-3.859375 4.304688-6.546875s-.046875-5.414063-1.582031-7.675782c-3.164063-4.667968-9.539063-5.894531-14.226563-2.722656zm0 0" fill="#4c241d"/><path d="m310.714844 286.714844h-197.582032c-5.761718 0-10.4375-4.671875-10.4375-10.4375v-20.085938c0-5.765625 4.675782-10.4375 10.4375-10.4375h197.582032c5.761718 0 10.4375 4.671875 10.4375 10.4375v20.085938c0 5.765625-4.675782 10.4375-10.4375 10.4375zm0 0" fill="#bf7e68"/><path d="m310.71875 293.539062h-197.589844c-9.519531 0-17.257812-7.742187-17.257812-17.261718v-20.085938c0-9.519531 7.738281-17.265625 17.257812-17.265625h197.585938c9.519531 0 17.261718 7.746094 17.261718 17.265625v20.085938c0 9.519531-7.738281 17.261718-17.257812 17.261718zm-197.589844-40.957031c-1.984375 0-3.605468 1.617188-3.605468 3.609375v20.085938c0 1.992187 1.621093 3.609375 3.605468 3.609375h197.585938c1.988281 0 3.605468-1.617188 3.605468-3.609375v-20.085938c0-1.992187-1.617187-3.609375-3.605468-3.609375zm0 0" fill="#4c241d"/><path d="m254.9375 402.765625h-86.023438c-9 0-16.980468-5.785156-19.773437-14.339844l-33.234375-101.710937h192.039062l-33.234374 101.710937c-2.796876 8.554688-10.773438 14.339844-19.773438 14.339844zm0 0" fill="#fff"/><path d="m254.9375 409.59375h-86.027344c-11.984375 0-22.539062-7.65625-26.261718-19.050781l-33.230469-101.710938c-.679688-2.078125-.328125-4.355469.957031-6.125 1.289062-1.773437 3.339844-2.820312 5.527344-2.820312h192.039062c2.1875 0 4.238282 1.046875 5.527344 2.820312 1.285156 1.769531 1.636719 4.046875.957031 6.125l-33.234375 101.710938c-3.714844 11.394531-14.265625 19.050781-26.253906 19.050781zm-129.621094-116.054688 30.308594 92.765626c1.886719 5.765624 7.21875 9.636718 13.285156 9.636718h86.027344c6.066406 0 11.398438-3.875 13.285156-9.636718l30.308594-92.765626zm0 0" fill="#4c241d"/><path d="m211.921875 252.582031c-3.773437 0-6.824219-3.058593-6.824219-6.828125v-191.144531c0-3.773437 3.050782-6.828125 6.824219-6.828125s6.828125 3.054688 6.828125 6.828125v191.144531c0 3.769532-3.054688 6.828125-6.828125 6.828125zm0 0" fill="#4c241d"/><path d="m172.660156 15.753906c7.800782 5.292969 44.554688 44.710938 39.261719 52.507813-5.289063 7.800781-50.625-18.96875-58.425781-24.261719-7.800782-5.292969-9.832032-15.90625-4.539063-23.707031s15.90625-9.832031 23.703125-4.539063zm0 0" fill="#a9ba5a"/><path d="m208.175781 76.113281c-19.246093 0-56.597656-25.167969-58.511719-26.464843-5.28125-3.585938-8.855468-9.011719-10.054687-15.28125-1.199219-6.265626.113281-12.628907 3.703125-17.910157 7.390625-10.898437 22.289062-13.746093 33.183594-6.355469.566406.386719 51.746094 46.269532 41.074218 61.992188-1.925781 2.84375-5.242187 4.019531-9.394531 4.019531zm-45.078125-56.476562c-3.285156 0-6.511718 1.574219-8.492187 4.488281-1.535157 2.261719-2.097657 4.988281-1.582031 7.675781.511718 2.6875 2.039062 5.011719 4.304687 6.546875 10.886719 7.386719 35.632813 20.734375 46.753906 23.859375-6.125-11.554687-28.738281-36.386719-35.25-40.804687-1.753906-1.195313-3.753906-1.765625-5.734375-1.765625zm0 0" fill="#4c241d"/><path d="m273.605469 42.015625c-9.753907 1.945313-59 27.070313-59.929688 33.777344-1.90625 13.765625 56.851563 1.644531 66.601563-.300781 9.753906-1.945313 16.164062-11.015626 14.320312-20.257813s-11.242187-15.160156-20.992187-13.21875zm0 0" fill="#a9ba5a"/><path d="m229.34375 89.074219c-13.984375 0-17.28125-3.101563-19.140625-4.851563-2.613281-2.46875-3.785156-5.792968-3.285156-9.363281 1.792969-12.988281 58.597656-38.191406 65.351562-39.539063 6.441407-1.273437 12.984375-.09375 18.433594 3.335938 5.566406 3.503906 9.328125 8.917969 10.585937 15.246094 1.265626 6.324218-.132812 12.765625-3.925781 18.140625-3.722656 5.261719-9.3125 8.863281-15.753906 10.144531l-.832031.167969c-25.265625 5.058593-41.207032 6.71875-51.433594 6.71875zm-5.789062-13.917969c6.160156.699219 20.882812.554688 54.535156-6.1875l.851562-.171875c2.996094-.601563 5.582032-2.246094 7.269532-4.640625 1.613281-2.277344 2.210937-4.972656 1.691406-7.585938-.519532-2.617187-2.105469-4.875-4.472656-6.363281-2.480469-1.5625-5.5-2.089843-8.492188-1.496093-7.621094 1.519531-39.898438 18.046874-51.382812 26.445312zm0 0" fill="#4c241d"/><path d="m172.660156 90.847656c7.800782 5.292969 44.554688 44.707032 39.261719 52.507813-5.289063 7.800781-50.625-18.972657-58.425781-24.261719-7.800782-5.292969-9.832032-15.90625-4.539063-23.707031s15.90625-9.832031 23.703125-4.539063zm0 0" fill="#a9ba5a"/><path d="m208.175781 151.203125c-19.246093 0-56.597656-25.164063-58.511719-26.460937-5.28125-3.589844-8.855468-9.011719-10.054687-15.28125-1.199219-6.265626.113281-12.628907 3.703125-17.910157 7.390625-10.898437 22.289062-13.742187 33.183594-6.355469.566406.386719 51.746094 46.269532 41.074218 61.992188-1.925781 2.84375-5.242187 4.015625-9.394531 4.015625zm-45.078125-56.472656c-3.285156 0-6.511718 1.574219-8.492187 4.488281-1.535157 2.261719-2.097657 4.988281-1.582031 7.675781.511718 2.6875 2.039062 5.011719 4.304687 6.546875 10.886719 7.386719 35.632813 20.734375 46.753906 23.859375-6.125-11.554687-28.738281-36.386719-35.25-40.804687-1.753906-1.195313-3.753906-1.765625-5.734375-1.765625zm0 0" fill="#4c241d"/><path d="m175.109375 165.238281c7.292969 5.972657 40.335937 48.546875 34.363281 55.835938-5.972656 7.289062-48.707031-23.464844-55.996094-29.4375-7.289062-5.976563-8.355468-16.730469-2.382812-24.019531 5.972656-7.289063 16.726562-8.355469 24.015625-2.378907zm0 0" fill="#a9ba5a"/><path d="m206.597656 229.027344c-6.953125 0-16.554687-4.777344-28.1875-11.867188-12.613281-7.691406-25.28125-16.980468-29.261718-20.246094-4.941407-4.039062-8.003907-9.769531-8.632813-16.117187-.632813-6.351563 1.246094-12.566406 5.292969-17.503906 8.355468-10.1875 23.441406-11.691407 33.628906-3.332031 4.570312 3.742187 15.320312 16.957031 23.457031 28.84375 16.746094 24.449218 15.59375 32.039062 11.855469 36.601562-2.054688 2.503906-4.800781 3.621094-8.152344 3.621094zm-42.292968-60.824219c-2.964844 0-5.914063 1.273437-7.933594 3.746094-1.734375 2.113281-2.539063 4.777343-2.265625 7.496093.265625 2.722657 1.582031 5.175782 3.699219 6.910157 10.175781 8.339843 33.613281 23.871093 44.414062 27.984375-5.0625-12.058594-25.339844-38.832032-31.433594-43.824219-1.902344-1.558594-4.199218-2.3125-6.480468-2.3125zm0 0" fill="#4c241d"/><path d="m248 117.285156c-7.128906 6.167969-39.023438 49.609375-32.855469 56.738282 6.167969 7.128906 48.0625-24.757813 55.191407-30.925782 7.128906-6.167968 7.90625-16.945312 1.738281-24.074218-6.171875-7.128907-16.949219-7.90625-24.074219-1.738282zm0 0" fill="#a9ba5a"/><path d="m217.570312 181.519531c-3.144531 0-5.757812-.910156-7.585937-3.027343-12.425781-14.363282 32.949219-65.828126 33.546875-66.367188 4.820312-4.179688 10.933594-6.246094 17.351562-5.765625 6.367188.460937 12.175782 3.371094 16.347657 8.195313 8.628906 9.964843 7.535156 25.085937-2.425781 33.703124-1.816407 1.570313-38.6875 33.253907-57.234376 33.261719zm3.613282-10.128906h.066406zm37.96875-51.441406c-2.460938 0-4.808594.875-6.6875 2.496093v.003907c-5.953125 5.152343-25.507813 32.453125-30.242188 44.644531 10.679688-4.40625 33.699219-20.550781 43.648438-29.160156 4.265625-3.695313 4.730468-10.175782 1.039062-14.445313-1.792968-2.066406-4.28125-3.316406-7.007812-3.515625-.25-.015625-.507813-.023437-.75-.023437zm-11.15625-2.664063h.066406zm0 0" fill="#4c241d"/><path d="m232.859375 24.476562c-.324219 9.421876-9.148437 44.089844-18.570313 43.765626-9.417968-.320313-15.863281-35.507813-15.542968-44.925782.320312-9.417968 8.214844-16.796875 17.636718-16.476562 9.421876.320312 16.796876 8.21875 16.476563 17.636718zm0 0" fill="#a9ba5a"/><g fill="#4c241d"><path d="m214.417969 75.074219c-.121094 0-.242188-.003907-.359375-.003907-18.148438-.625-22.28125-47.65625-22.136719-51.988281.449219-13.171875 11.722656-23.527343 24.695313-23.066406 13.167968.453125 23.503906 11.53125 23.058593 24.695313-.144531 4.300781-7.367187 50.363281-25.257812 50.363281zm1.378906-61.417969c-5.484375 0-10.039063 4.367188-10.230469 9.890625-.289062 8.511719 4.570313 30.859375 8.992188 36.976563 4.820312-5.800782 11.1875-27.765626 11.480468-36.277344.1875-5.644532-4.246093-10.390625-9.886718-10.585938-.121094-.003906-.234375-.003906-.355469-.003906zm0 0"/><path d="m237.617188 382.289062h-12.039063c-3.773437 0-6.828125-3.058593-6.828125-6.828124 0-3.769532 3.054688-6.828126 6.828125-6.828126h12.039063c6.8125 0 12.941406-3.785156 15.988281-9.878906 1.691406-3.375 5.792969-4.746094 9.15625-3.050781 3.375 1.6875 4.742187 5.789063 3.054687 9.15625-5.378906 10.75-16.183594 17.429687-28.199218 17.429687zm0 0"/></g></svg>