<svg height="417pt" viewBox="-35 0 417 417.52576" width="417pt" xmlns="http://www.w3.org/2000/svg"><path d="m307.460938 180.90625c0 84.832031-68.765626 153.601562-153.597657 153.601562s-153.601562-68.769531-153.601562-153.601562 68.769531-153.597656 153.601562-153.597656 153.597657 68.765625 153.597657 153.597656zm0 0" fill="#efefd2"/><g fill="#4c241d"><path d="m123.140625 307.199219c-.871094 0-1.753906-.167969-2.605469-.519531-3.484375-1.441407-5.140625-5.433594-3.699218-8.921876l81.921874-197.972656c1.046876-2.53125 3.515626-4.191406 6.261719-4.214844h.042969c2.730469 0 5.199219 1.628907 6.273438 4.140626l81.921874 191.148437c1.484376 3.457031-.121093 7.472656-3.585937 8.960937-3.460937 1.5-7.484375-.113281-8.960937-3.589843l-75.539063-176.246094-75.722656 183c-1.085938 2.628906-3.628907 4.214844-6.308594 4.214844zm0 0"/><path d="m205.0625 109.226562c-3.769531 0-6.828125-3.054687-6.828125-6.828124v-95.570313c0-3.773437 3.058594-6.828125 6.828125-6.828125s6.828125 3.054688 6.828125 6.828125v95.570313c0 3.773437-3.058594 6.828124-6.828125 6.828124zm0 0"/><path d="m239.203125 279.894531c-.550781 0-1.105469-.066406-1.664063-.207031-3.65625-.914062-5.878906-4.621094-4.964843-8.273438 1.121093-4.496093 27.726562-110.425781 48.300781-151.585937 1.691406-3.367187 5.777344-4.730469 9.160156-3.054687 3.375 1.6875 4.742188 5.789062 3.054688 9.160156-19.917969 39.828125-47 147.707031-47.269532 148.785156-.777343 3.109375-3.5625 5.175781-6.617187 5.175781zm0 0"/><path d="m205.054688 279.894531c-3.5625 0-6.5625-2.769531-6.800782-6.375-6.636718-99.539062-39.605468-153.320312-39.941406-153.847656-1.996094-3.199219-1.027344-7.414063 2.175781-9.40625 3.191407-2 7.40625-1.027344 9.40625 2.167969 1.429688 2.292968 35.117188 57.253906 41.980469 160.179687.25 3.757813-2.59375 7.011719-6.359375 7.265625-.152344.007813-.304687.015625-.460937.015625zm0 0"/><path d="m164.105469 279.894531c-2.710938 0-5.273438-1.621093-6.34375-4.296875-13.316407-33.285156-40.277344-80.59375-40.546875-81.066406-1.871094-3.273438-.734375-7.445312 2.539062-9.3125 3.273438-1.878906 7.449219-.734375 9.316406 2.539062 1.125 1.96875 27.699219 48.59375 41.371094 82.773438 1.398438 3.5-.304687 7.472656-3.804687 8.875-.832031.332031-1.6875.488281-2.53125.488281zm0 0"/></g><path d="m340.636719 103.023438c2.28125 7.1875-4.605469 15.789062-15.386719 19.214843-10.777344 3.425781-35.984375 7.828125-38.265625.640625-2.28125-7.183594 19.21875-23.242187 30-26.664062 10.777344-3.425782 21.367187-.378906 23.652344 6.808594zm0 0" fill="#a9ba5a"/><path d="m298.023438 133.597656c-6.398438 0-15.195313-1.257812-17.546876-8.652344-4.445312-13.992187 24.445313-32.058593 34.441407-35.238281 6.484375-2.058593 13.222656-2.28125 18.96875-.625 6.632812 1.914063 11.464843 6.238281 13.257812 11.878907 3.476563 10.941406-5.234375 23.144531-19.828125 27.785156-5.644531 1.796875-15.207031 3.914062-23.84375 4.601562-1.273437.097656-3.210937.25-5.449218.25zm-3.152344-13.769531c5.921875.625 19.039062-1.148437 28.3125-4.09375 7.941406-2.527344 11.789062-7.988281 10.945312-10.640625-.378906-1.191406-1.882812-2.277344-4.023437-2.890625-3.136719-.90625-7.164063-.714844-11.054688.519531-7.898437 2.503906-20.164062 11.78125-24.179687 17.105469zm0 0" fill="#4c241d"/><path d="m251.957031 77.648438c-5.738281 4.890624-4.445312 15.835937 2.894531 24.441406 7.332032 8.609375 26.394532 25.679687 32.132813 20.789062s-4.015625-29.890625-11.351563-38.496094c-7.335937-8.613281-17.933593-11.625-23.675781-6.734374zm0 0" fill="#a9ba5a"/><path d="m284.457031 130.574219c-6.816406 0-14.09375-5.386719-17.003906-7.535157-6.960937-5.152343-13.957031-12.003906-17.800781-16.519531-9.929688-11.652343-10.863282-26.621093-2.125-34.066406.003906 0 .003906-.007813.003906-.007813 8.742188-7.445312 23.367188-4.144531 33.300781 7.507813 6.792969 7.980469 21.753907 38.59375 10.582031 48.117187-2.109374 1.800782-4.503906 2.503907-6.957031 2.503907zm-.09375-13.652344h.066407zm-27.980469-34.074219c-2.113281 1.804688-1.738281 8.480469 3.664063 14.820313 6.308594 7.40625 16.488281 15.847656 21.859375 18.445312-.59375-6.640625-6.09375-21-11.46875-27.304687-5.398438-6.335938-11.929688-7.777344-14.054688-5.960938zm0 0" fill="#4c241d"/><path d="m229.507812 151.613281c-5.738281 4.894531-5.222656 14.921875 1.152344 22.402344s23.277344 22.019531 29.019532 17.132813c5.738281-4.894532-1.859376-27.363282-8.234376-34.84375-6.375-7.480469-16.195312-9.582032-21.9375-4.691407zm0 0" fill="#a9ba5a"/><path d="m256.832031 198.964844c-4.269531 0-9.386719-2.042969-15.304687-6.125-6.363282-4.394532-12.65625-10.394532-16.066406-14.402344-8.804688-10.324219-8.976563-24.691406-.382813-32.019531.003906 0 .003906 0 .003906-.007813 8.601563-7.3125 22.75-4.867187 31.554688 5.46875 6.449219 7.566406 18.164062 35.339844 7.46875 44.460938-2.050781 1.753906-4.480469 2.625-7.273438 2.625zm-.140625-13.660156h.070313zm-22.75-28.496094c-2.460937 2.097656-2.277344 7.859375 1.914063 12.777344 5.820312 6.828124 14.707031 13.546874 19.101562 15.285156.109375-5.585938-4.148437-18.785156-8.710937-24.140625-4.195313-4.917969-9.859375-6.003907-12.304688-3.921875zm0 0" fill="#4c241d"/><path d="m119.023438 110.300781c-1.699219 7.34375 4.683593 15.097657 14.257812 17.316407 9.574219 2.214843 31.8125 3.835937 33.511719-3.511719 1.699219-7.34375-17.777344-20.875-27.355469-23.09375-9.570312-2.214844-18.714844 1.941406-20.414062 9.289062zm0 0" fill="#a9ba5a"/><path d="m150.828125 136.304688c-7.070313 0-14.492187-.976563-19.089844-2.039063-6.082031-1.40625-11.441406-4.617187-15.085937-9.046875-4.015625-4.871094-5.574219-10.871094-4.28125-16.460938 1.292968-5.585937 5.332031-10.285156 11.078125-12.90625 5.214843-2.367187 11.4375-2.890624 17.527343-1.492187 5.726563 1.328125 13.800782 5.601563 20.574219 10.902344 9.335938 7.296875 13.335938 14.152343 11.894531 20.386719-1.535156 6.644531-8.34375 10.21875-20.222656 10.625-.789062.027343-1.589844.03125-2.394531.03125zm-16.539063-29.058594c-1.882812 0-3.675781.347656-5.183593 1.035156-1.089844.5-2.980469 1.617188-3.429688 3.558594s.757813 3.78125 1.519531 4.699218c1.714844 2.089844 4.496094 3.699219 7.621094 4.421876 8.75 2.039062 19.894532 2.140624 24.453125.914062-3.234375-4.5625-14.511719-12.628906-21.367187-14.207031-1.207032-.28125-2.429688-.421875-3.613282-.421875zm0 0" fill="#4c241d"/><path d="m184.550781 80.363281c6.9375 2.960938 9.433594 12.6875 5.578125 21.726563-3.855468 9.042968-15.660156 27.957031-22.597656 25-6.9375-2.957032-6.378906-26.671875-2.523438-35.710938 3.859376-9.039062 12.605469-13.972656 19.542969-11.015625zm0 0" fill="#a9ba5a"/><path d="m169.058594 134.246094c-1.390625 0-2.792969-.273438-4.203125-.875-12.933594-5.519532-10.023438-35.523438-6.125-44.671875 2.453125-5.746094 6.550781-10.460938 11.542969-13.273438 5.511718-3.09375 11.679687-3.585937 16.957031-1.339843 10.386719 4.433593 14.503906 18.199218 9.179687 30.6875-.144531.320312-13.007812 29.472656-27.351562 29.472656zm11.234375-47.914063c-1.320313 0-2.570313.566407-3.316407.988281-2.351562 1.324219-4.425781 3.785157-5.683593 6.738282-2.761719 6.46875-2.894531 20.335937-1.121094 25.636718 3.675781-2.96875 10.160156-12.027343 13.675781-20.28125 2.539063-5.945312.996094-11.5-1.976562-12.765624-.519532-.222657-1.054688-.316407-1.578125-.316407zm0 0" fill="#4c241d"/><path d="m295.742188 235.835938c-2.96875-6.933594-12.695313-9.414063-21.730469-5.546876-9.035157 3.867188-27.9375 15.695313-24.972657 22.628907 2.96875 6.929687 26.679688 6.339843 35.714844 2.472656s13.957032-12.625 10.988282-19.554687zm0 0" fill="#a9ba5a"/><path d="m266.664062 265.058594c-.753906 0-1.507812-.007813-2.261718-.035156-11.839844-.378907-19.121094-3.546876-21.640625-9.425782-2.679688-6.265625.695312-13.171875 10.046875-20.511718 6.085937-4.78125 13.6875-9.007813 18.515625-11.074219 12.488281-5.339844 26.253906-1.242188 30.695312 9.132812 4.441407 10.382813-2.097656 23.175781-14.574219 28.523438-4.9375 2.109375-12.898437 3.390625-20.78125 3.390625zm-10.230468-14.792969c5.300781 1.78125 19.171875 1.613281 25.636718-1.148437 5.9375-2.542969 8.664063-7.632813 7.394532-10.597657-1.273438-2.96875-6.835938-4.5-12.769532-1.960937-8.25 3.535156-17.300781 10.027344-20.261718 13.707031zm0 0" fill="#4c241d"/><path d="m218.128906 204.507812c-6.261718 4.199219-6.902344 14.21875-1.425781 22.382813 5.472656 8.164063 20.597656 24.546875 26.859375 20.34375 6.261719-4.199219 1.292969-27.390625-4.183594-35.554687-5.472656-8.160157-14.988281-11.375-21.25-7.171876zm0 0" fill="#a9ba5a"/><path d="m241.324219 254.738281c-13.722657.007813-30.105469-23.765625-30.292969-24.046875-3.476562-5.1875-5.195312-11.195312-4.832031-16.914062.402343-6.296875 3.363281-11.746094 8.128906-14.9375 4.75-3.203125 10.925781-3.867188 16.90625-1.847656 5.429687 1.832031 10.335937 5.691406 13.816406 10.886718 5.535157 8.261719 13.984375 37.199219 2.316407 45.027344-1.90625 1.28125-3.945313 1.832031-6.042969 1.832031zm-.054688-13.644531h.070313zm-16.871093-31.605469c-.828126 0-1.699219.171875-2.464844.683594-1.65625 1.113281-2.03125 3.28125-2.105469 4.472656-.175781 2.703125.753906 5.773438 2.546875 8.449219 4.996094 7.445312 13.054688 15.136719 17.21875 17.371094.753906-5.539063-1.964844-19.140625-5.882812-24.984375-1.785157-2.667969-4.285157-4.6875-6.84375-5.554688-.609376-.207031-1.511719-.4375-2.46875-.4375zm-6.269532-4.980469h.070313zm0 0" fill="#4c241d"/><path d="m307.460938 157.011719c0 7.542969-6.113282 13.65625-13.652344 13.65625-7.539063 0-20.480469.710937-20.480469-6.828125 0-7.539063 12.941406-20.480469 20.480469-20.480469 7.542968 0 13.652344 6.113281 13.652344 13.652344zm0 0" fill="#a9ba5a"/><path d="m289.742188 177.511719c-6.992188 0-14.984376-.425781-19.734376-5.140625-2.292968-2.28125-3.503906-5.226563-3.503906-8.53125 0-11.226563 16.078125-27.308594 27.308594-27.308594 11.292969 0 20.480469 9.1875 20.480469 20.480469s-9.1875 20.480469-20.480469 20.480469l-1.769531.007812c-.753907.007812-1.523438.011719-2.300781.011719zm-9.445313-14.523438c2.566406.925781 8.828125.890625 11.648437.859375l1.863282-.007812c3.765625 0 6.828125-3.058594 6.828125-6.828125 0-3.765625-3.0625-6.824219-6.828125-6.824219-3.613282.074219-12.296875 8.519531-13.511719 12.800781zm0 0" fill="#4c241d"/><path d="m147.171875 167.441406c4.441406 6.097656 3.101563 14.636719-2.992187 19.078125-6.09375 4.4375-16.128907 12.636719-20.574219 6.546875-4.4375-6.097656-1.605469-24.171875 4.488281-28.617187 6.09375-4.441407 14.636719-3.101563 19.078125 2.992187zm0 0" fill="#a9ba5a"/><path d="m127.917969 202.066406c-.65625 0-1.3125-.046875-1.972657-.148437-3.191406-.492188-5.910156-2.160157-7.855468-4.832031-6.613282-9.074219-3.089844-31.539063 5.984375-38.152344 4.414062-3.222656 9.808593-4.527344 15.234375-3.6875 5.40625.847656 10.15625 3.753906 13.378906 8.175781 3.21875 4.417969 4.527344 9.832031 3.683594 15.230469-.847656 5.414062-3.75 10.160156-8.171875 13.386718l-1.441407 1.0625c-5.457031 4.03125-12.132812 8.964844-18.839843 8.964844zm8.207031-33.414062c-1.433594 0-2.828125.453125-4.007812 1.316406-2.878907 2.191406-4.921876 14.132812-3.378907 18.304688 2.609375-.757813 7.625-4.464844 9.90625-6.152344l1.515625-1.117188c1.472656-1.074218 2.4375-2.65625 2.722656-4.453125.28125-1.808593-.152343-3.613281-1.226562-5.085937s-2.660156-2.441406-4.457031-2.722656c-.363281-.0625-.71875-.089844-1.074219-.089844zm0 0" fill="#4c241d"/><path d="m208.609375 140.136719c4.441406 6.09375 3.105469 14.632812-2.988281 19.074219-6.097656 4.441406-16.132813 12.640624-20.574219 6.546874s-1.605469-24.171874 4.488281-28.613281c6.09375-4.441406 14.632813-3.101562 19.074219 2.992188zm0 0" fill="#a9ba5a"/><path d="m189.359375 174.757812c-.65625 0-1.316406-.042968-1.976563-.144531-3.1875-.492187-5.90625-2.160156-7.851562-4.835937-6.613281-9.070313-3.09375-31.539063 5.980469-38.152344 4.414062-3.21875 9.8125-4.523438 15.234375-3.683594 5.40625.84375 10.160156 3.75 13.382812 8.171875 3.21875 4.421875 4.527344 9.835938 3.679688 15.234375-.84375 5.414063-3.75 10.160156-8.167969 13.386719l-1.441406 1.058594c-5.460938 4.035156-12.136719 8.964843-18.839844 8.964843zm8.203125-33.410156c-1.433594 0-2.824219.453125-4.007812 1.3125-2.875 2.191406-4.917969 14.132813-3.378907 18.308594 2.609375-.761719 7.628907-4.46875 9.910157-6.152344l1.515624-1.121094c1.472657-1.074218 2.4375-2.652343 2.71875-4.453124.285157-1.808594-.152343-3.613282-1.226562-5.085938-1.070312-1.472656-2.65625-2.441406-4.453125-2.71875-.363281-.0625-.71875-.089844-1.078125-.089844zm0 0" fill="#4c241d"/><path d="m181.304688 235.710938c4.441406 6.09375 3.101562 14.632812-2.992188 19.074218s-16.128906 12.640625-20.570312 6.546875c-4.445313-6.09375-1.609376-24.171875 4.484374-28.613281 6.09375-4.445312 14.636719-3.105469 19.078126 2.992188zm0 0" fill="#a9ba5a"/><path d="m162.054688 270.332031c-.660157 0-1.316407-.046875-1.976563-.144531-3.191406-.496094-5.90625-2.164062-7.855469-4.835938-6.613281-9.070312-3.089844-31.539062 5.984375-38.152343 4.414063-3.21875 9.8125-4.523438 15.234375-3.6875 5.40625.847656 10.160156 3.753906 13.378906 8.175781 3.21875 4.417969 4.53125 9.832031 3.683594 15.234375-.847656 5.414063-3.75 10.160156-8.171875 13.386719l-1.4375 1.058594c-5.460937 4.03125-12.136719 8.964843-18.839843 8.964843zm8.203124-33.414062c-1.433593 0-2.828124.457031-4.007812 1.316406-2.878906 2.191406-4.921875 14.132813-3.378906 18.304687 2.609375-.757812 7.625-4.464843 9.90625-6.152343l1.519531-1.117188c1.472656-1.074219 2.433594-2.65625 2.71875-4.453125.28125-1.808594-.152344-3.613281-1.226563-5.085937-1.074218-1.472657-2.65625-2.441407-4.457031-2.71875-.363281-.066407-.71875-.09375-1.074219-.09375zm0 0" fill="#4c241d"/><path d="m89.445312 193.054688c1.539063 7.382812 8.769532 12.117187 16.152344 10.582031 7.378906-1.539063 20.195313-3.480469 18.65625-10.859375-1.539062-7.382813-16.84375-17.414063-24.226562-15.875-7.382813 1.539062-12.117188 8.769531-10.582032 16.152344zm0 0" fill="#a9ba5a"/><path d="m102.816406 210.753906c-9.503906 0-18.046875-6.652344-20.054687-16.308594-1.113281-5.359374-.078125-10.828124 2.921875-15.398437 2.996094-4.582031 7.597656-7.714844 12.953125-8.828125 7.535156-1.550781 16.089843 3.378906 19.4375 5.566406 3.347656 2.195313 11.304687 8.109375 12.863281 15.601563.675781 3.234375.089844 6.367187-1.6875 9.066406-4.09375 6.207031-13.199219 8.039063-20.515625 9.511719l-1.742187.355468c-1.402344.292969-2.796876.433594-4.175782.433594zm-.839844-27.214844c-.199218 0-.386718.019532-.558593.046876-1.785157.375-3.316407 1.421874-4.316407 2.941406-.996093 1.527344-1.34375 3.347656-.96875 5.132812.765626 3.6875 4.355469 6.0625 8.078126 5.292969l1.828124-.371094c2.78125-.5625 8.902344-1.789062 11.222657-3.214843-1.964844-3.753907-11.320313-9.828126-15.285157-9.828126zm0 0" fill="#4c241d"/><path d="m109.925781 234.015625c1.539063 7.378906 8.769531 12.117187 16.152344 10.582031 7.378906-1.539062 20.195313-3.480468 18.65625-10.859375-1.539063-7.382812-16.84375-17.414062-24.226563-15.875-7.382812 1.539063-12.117187 8.769531-10.582031 16.152344zm0 0" fill="#a9ba5a"/><path d="m123.296875 251.710938c-9.503906 0-18.046875-6.652344-20.054687-16.304688-1.113282-5.359375-.078126-10.828125 2.921874-15.398438 2.996094-4.582031 7.597657-7.714843 12.953126-8.828124 7.535156-1.554688 16.089843 3.378906 19.4375 5.566406 3.347656 2.195312 11.300781 8.105468 12.863281 15.601562.671875 3.234375.089843 6.367188-1.6875 9.066406-4.09375 6.207032-13.199219 8.039063-20.515625 9.511719l-1.742188.355469c-1.402344.292969-2.800781.429688-4.175781.429688zm-.839844-27.210938c-.199219 0-.386719.019531-.558593.046875-1.785157.371094-3.316407 1.417969-4.316407 2.941406-.996093 1.527344-1.34375 3.34375-.96875 5.132813.761719 3.6875 4.347657 6.066406 8.078125 5.292968l1.828125-.375c2.78125-.558593 8.902344-1.785156 11.21875-3.210937-1.960937-3.753906-11.320312-9.828125-15.28125-9.828125zm0 0" fill="#4c241d"/><path d="m157.714844 206.707031c1.535156 7.382813 8.765625 12.121094 16.148437 10.582031 7.382813-1.539062 20.195313-3.476562 18.65625-10.859374-1.535156-7.382813-16.84375-17.410157-24.226562-15.875-7.378907 1.539062-12.117188 8.769531-10.578125 16.152343zm0 0" fill="#a9ba5a"/><path d="m171.082031 224.40625c-9.5 0-18.046875-6.652344-20.050781-16.308594-1.117188-5.359375-.082031-10.824218 2.917969-15.398437 2.996093-4.582031 7.601562-7.714844 12.953125-8.828125 7.523437-1.542969 16.089844 3.375 19.4375 5.570312 3.347656 2.191406 11.304687 8.105469 12.863281 15.597656.675781 3.234376.089844 6.367188-1.683594 9.066407-4.097656 6.207031-13.203125 8.042969-20.519531 9.515625l-1.742188.351562c-1.402343.292969-2.796874.433594-4.175781.433594zm-.839843-27.210938c-.199219 0-.386719.019532-.558594.042969-1.785156.375-3.316406 1.421875-4.316406 2.941407-.996094 1.527343-1.34375 3.347656-.96875 5.132812.761718 3.6875 4.367187 6.074219 8.078124 5.296875l1.832032-.375c2.777344-.558594 8.898437-1.789063 11.21875-3.214844-1.964844-3.753906-11.320313-9.824219-15.285156-9.824219zm0 0" fill="#4c241d"/><path d="m205.0625 410.699219c-56.410156 0-102.136719-45.730469-102.136719-102.136719v-42.324219h204.273438v42.324219c0 56.40625-45.726563 102.136719-102.136719 102.136719zm0 0" fill="#fff"/><path d="m205.0625 417.527344c-60.082031 0-108.964844-48.882813-108.964844-108.96875v-42.320313c0-3.773437 3.058594-6.828125 6.828125-6.828125h204.273438c3.769531 0 6.824219 3.054688 6.824219 6.828125v42.320313c.003906 60.089844-48.878907 108.96875-108.960938 108.96875zm-95.308594-144.460938v35.492188c0 52.554687 42.757813 95.316406 95.3125 95.316406 52.550782 0 95.308594-42.761719 95.308594-95.316406v-35.492188zm0 0" fill="#4c241d"/><path d="m234.890625 384.445312c-2.648437 0-5.164063-1.546874-6.273437-4.125-1.492188-3.46875.109374-7.480468 3.574218-8.976562 15.269532-6.566406 27.636719-18.449219 34.824219-33.464844 1.628906-3.40625 5.714844-4.832031 9.105469-3.214844 3.398437 1.632813 4.839844 5.707032 3.210937 9.109376-8.617187 17.992187-23.4375 32.238281-41.75 40.117187-.875.375-1.792969.554687-2.691406.554687zm0 0" fill="#4c241d"/></svg>