<svg height="420pt" viewBox="-41 0 420 420.46763" width="420pt" xmlns="http://www.w3.org/2000/svg"><path d="m307.433594 174.015625c0 84.828125-68.769532 153.597656-153.601563 153.597656-84.828125 0-153.597656-68.769531-153.597656-153.597656 0-84.832031 68.769531-153.601563 153.597656-153.601563 84.832031 0 153.601563 68.769532 153.601563 153.601563zm0 0" fill="#efefd2"/><path d="m214.675781 172.707031c9.046875 3.109375 18.757813 4.792969 28.859375 4.792969 49.054688 0 88.820313-39.765625 88.820313-88.820312zm0 0" fill="#c1dbdc"/><path d="m243.535156 184.328125c-10.648437 0-21.101562-1.738281-31.082031-5.164063-2.410156-.828124-4.164063-2.941406-4.53125-5.472656-.375-2.527344.707031-5.050781 2.785156-6.539062l117.679688-84.027344c2.089843-1.480469 4.8125-1.683594 7.09375-.511719 2.273437 1.171875 3.699219 3.511719 3.699219 6.070313 0 52.738281-42.90625 95.644531-95.644532 95.644531zm-12.859375-14.652344c4.226563.664063 8.527344 1 12.859375 1 40.394532 0 74.058594-29.359375 80.773438-67.863281zm0 0" fill="#4c241d"/><path d="m243.535156 87.433594c0 44.59375-12.652344 80.746094-28.261718 80.746094-15.605469 0-28.261719-36.152344-28.261719-80.746094s28.261719-80.746094 28.261719-80.746094 28.261718 36.152344 28.261718 80.746094zm0 0" fill="#c1dbdc"/><path d="m215.273438 175.003906c-23.03125 0-35.085938-44.050781-35.085938-87.570312 0-46.414063 28.492188-83.398438 29.707031-84.949219 2.585938-3.3125 8.171875-3.3125 10.757813 0 1.214844 1.550781 29.707031 38.535156 29.707031 84.949219 0 43.515625-12.050781 87.570312-35.085937 87.570312zm0-156.148437c-7.828126 12.605469-21.433594 38.796875-21.433594 68.578125 0 44.4375 12.902344 73.917968 21.433594 73.917968 8.535156 0 21.433593-29.476562 21.433593-73.917968 0-29.78125-13.605469-55.972656-21.433593-68.578125zm0 0" fill="#4c241d"/><path d="m213.660156 166.488281c-9.40625-1.746093-18.6875-5.058593-27.484375-10.027343-42.703125-24.140626-57.75-78.332032-33.609375-121.03125zm0 0" fill="#c1dbdc"/><path d="m213.660156 173.320312c-.414062 0-.832031-.039062-1.246094-.117187-10.363281-1.925781-20.324218-5.5625-29.597656-10.796875-45.90625-25.957031-62.140625-84.425781-36.1875-130.335938 1.257813-2.222656 3.640625-3.558593 6.207032-3.460937 2.550781.101563 4.839843 1.617187 5.917968 3.9375l61.09375 131.0625c1.082032 2.316406.773438 5.042969-.792968 7.066406-1.308594 1.683594-3.304688 2.644531-5.394532 2.644531zm-61.046875-121.628906c-13.101562 36.820313 1.761719 78.945313 36.921875 98.824219 3.773438 2.136719 7.679688 3.953125 11.691406 5.457031zm0 0" fill="#4c241d"/><path d="m216.886719 166.488281c9.410156-1.746093 18.691406-5.058593 27.484375-10.027343 42.703125-24.140626 57.75-78.332032 33.609375-121.03125zm0 0" fill="#c1dbdc"/><path d="m216.886719 173.320312c-2.085938 0-4.085938-.960937-5.390625-2.648437-1.566406-2.019531-1.875-4.746094-.792969-7.0625l61.09375-131.066406c1.078125-2.316407 3.367187-3.835938 5.917969-3.9375 2.460937-.117188 4.953125 1.238281 6.207031 3.460937 25.953125 45.910156 9.71875 104.378906-36.1875 130.335938-9.273437 5.234375-19.230469 8.871094-29.597656 10.796875-.414063.082031-.835938.121093-1.25.121093zm61.046875-121.628906-48.613282 104.285156c4.015626-1.503906 7.921876-3.328124 11.695313-5.457031 35.160156-19.882812 50.019531-62.007812 36.917969-98.828125zm0 0" fill="#4c241d"/><path d="m215.875 172.707031c-9.050781 3.109375-18.757812 4.792969-28.863281 4.792969-49.054688 0-88.820313-39.765625-88.820313-88.820312zm0 0" fill="#c1dbdc"/><path d="m187.015625 184.328125c-52.738281 0-95.648437-42.90625-95.648437-95.648437 0-2.554688 1.425781-4.898438 3.699218-6.070313 2.28125-1.175781 5.015625-.96875 7.09375.515625l117.679688 84.027344c2.082031 1.484375 3.160156 4.007812 2.789062 6.539062-.367187 2.527344-2.121094 4.644532-4.535156 5.472656-9.980469 3.425782-20.433594 5.164063-31.078125 5.164063zm-80.777344-81.515625c6.714844 38.503906 40.382813 67.863281 80.773438 67.863281 4.335937 0 8.636719-.335937 12.859375-1zm0 0" fill="#4c241d"/><path d="m211.859375 413.640625c-67.5625 0-120.878906-58.546875-115.878906-127.246094l8.425781-115.792969h214.910156l8.425782 115.792969c5 68.699219-48.316407 127.246094-115.882813 127.246094zm0 0" fill="#fff"/><g fill="#4c241d"><path d="m211.859375 420.46875c-34.132813 0-65.851563-13.898438-89.3125-39.136719-23.765625-25.554687-35.925781-60.335937-33.375-95.433593l8.429687-115.796876c.257813-3.566406 3.226563-6.328124 6.804688-6.328124h214.90625c3.582031 0 6.546875 2.761718 6.808594 6.328124l8.425781 115.796876c2.554687 35.09375-9.605469 69.878906-33.375 95.433593-23.457031 25.238281-55.179687 39.136719-89.3125 39.136719zm-101.105469-243.039062-7.964844 109.460937c-2.28125 31.324219 8.566407 62.359375 29.753907 85.148437 20.851562 22.425782 49.027343 34.777344 79.320312 34.777344s58.464844-12.351562 79.320313-34.777344c21.1875-22.789062 32.035156-53.824218 29.753906-85.148437l-7.96875-109.460937zm0 0"/><path d="m211.859375 382.226562c-3.773437 0-6.824219-3.054687-6.824219-6.824218 0-3.769532 3.050782-6.828125 6.824219-6.828125 28.835937 0 55.875-15.441407 70.574219-40.289063 1.921875-3.246094 6.121094-4.308594 9.347656-2.402344 3.246094 1.917969 4.320312 6.105469 2.398438 9.351563-17.136719 28.988281-48.679688 46.992187-82.320313 46.992187zm0 0"/></g></svg>