<svg height="420pt" viewBox="0 -15 420.42881 420" width="420pt" xmlns="http://www.w3.org/2000/svg"><path d="m331.683594 213.308594c0 84.828125-68.769532 153.597656-153.601563 153.597656-84.828125 0-153.597656-68.769531-153.597656-153.597656 0-84.832032 68.769531-153.601563 153.597656-153.601563 84.832031 0 153.601563 68.769531 153.601563 153.601563zm0 0" fill="#efefd2"/><path d="m214.363281 268.546875 31.664063-94.402344 43.050781-17.671875 24.90625-16.601562 16.601563-33.207032 16.601562 4.152344 16.601562-8.300781 49.8125 8.300781-54.613281 23.984375-20.480469 27.308594c-43.210937 18.042969-80.707031 47.484375-108.484374 85.179687zm0 0" fill="#a9ba5a"/><path d="m214.363281 275.371094c-1.066406 0-2.144531-.25-3.144531-.769532-2.984375-1.550781-4.394531-5.039062-3.328125-8.226562l31.660156-94.398438c.632813-1.882812 2.046875-3.394531 3.878907-4.148437l42.425781-17.410156 22.828125-15.21875 15.792968-31.585938c1.433594-2.859375 4.644532-4.332031 7.765626-3.570312l14.152343 3.535156 14.34375-7.171875c1.289063-.640625 2.753907-.867188 4.175781-.625l49.808594 8.300781c2.976563.496094 5.277344 2.886719 5.652344 5.886719.378906 2.996094-1.261719 5.882812-4.027344 7.09375l-52.972656 23.269531-19.40625 25.871094c-.730469.972656-1.707031 1.734375-2.828125 2.203125-42.0625 17.5625-78.585937 46.242188-105.617187 82.929688l-15.660157 21.257812c-1.328125 1.796875-3.390625 2.777344-5.5 2.777344zm37.140625-96.097656-17.3125 51.636718c26.894532-32.320312 61.160156-57.847656 99.964844-74.375l19.375-25.832031c.703125-.941406 1.640625-1.679687 2.710938-2.152344l33.632812-14.769531-25.015625-4.167969-14.613281 7.308594c-1.460938.726563-3.128906.90625-4.710938.515625l-11.289062-2.824219-14.15625 28.3125c-.53125 1.0625-1.328125 1.964844-2.316406 2.625l-24.90625 16.605469c-.375.25-.773438.460938-1.191407.636719zm0 0" fill="#4c241d"/><path d="m214.363281 268.546875 12.453125-149.429687 16.601563-8.304688v-16.601562l12.453125-12.453126v-29.054687l16.605468-4.148437 8.300782-33.207032 41.507812-8.300781-12.453125 33.203125-20.753906 16.605469 8.300781 20.753906-29.054687 16.601563 4.152343 37.359374-24.90625 8.300782 8.300782 16.601562zm0 0" fill="#a9ba5a"/><path d="m214.367188 275.371094c-.488282 0-.988282-.054688-1.484376-.164063-3.332031-.742187-5.605468-3.832031-5.320312-7.230469l12.449219-149.425781c.195312-2.375 1.621093-4.472656 3.75-5.539062l12.832031-6.417969v-12.382812c0-1.8125.71875-3.546876 2-4.828126l10.453125-10.453124v-26.226563c0-3.132813 2.132813-5.863281 5.167969-6.625l12.628906-3.15625 7.308594-29.234375c.640625-2.554688 2.695312-4.519531 5.28125-5.035156l41.511718-8.300782c2.445313-.496093 4.933594.382813 6.539063 2.269532 1.605469 1.886718 2.0625 4.5 1.191406 6.816406l-12.453125 33.207031c-.433594 1.15625-1.164062 2.167969-2.128906 2.933594l-16.796875 13.441406 6.421875 16.050781c1.261719 3.164063.003906 6.773438-2.953125 8.460938l-25.160156 14.382812 3.652343 32.898438c.359376 3.199219-1.570312 6.210938-4.621093 7.230469l-17.441407 5.8125 4.785157 9.5625c.84375 1.691406.949219 3.65625.296875 5.425781l-41.507813 112.070312c-1.011719 2.722657-3.597656 4.457032-6.402343 4.457032zm18.933593-151.863282-7.980469 95.8125 23.121094-62.4375-6.980468-13.957031c-.882813-1.769531-.957032-3.835937-.199219-5.667969.757812-1.824218 2.269531-3.234374 4.148437-3.863281l19.671875-6.558593-3.539062-31.871094c-.304688-2.703125 1.03125-5.332032 3.394531-6.679688l23.898438-13.65625-6.097657-15.242187c-1.113281-2.789063-.273437-5.988281 2.078125-7.863281l19.285156-15.429688 7.480469-19.945312-25.226562 5.042968-7.253907 29.019532c-.613281 2.441406-2.523437 4.351562-4.96875 4.964843l-11.429687 2.859375v23.722656c0 1.808594-.722656 3.542969-2.003906 4.824219l-10.453125 10.453125v13.777344c0 2.585938-1.457032 4.949219-3.773438 6.105469zm0 0" fill="#4c241d"/><path d="m214.363281 268.546875 66.414063-58.113281 41.507812-4.152344 33.207032 41.507812-45.660157-12.449218-16.605469-8.304688-12.449218 16.605469zm0 0" fill="#a9ba5a"/><path d="m214.367188 275.371094c-2.34375 0-4.597657-1.214844-5.863282-3.324219-1.691406-2.832031-1.117187-6.46875 1.363282-8.636719l66.410156-58.113281c1.070312-.9375 2.402344-1.511719 3.816406-1.65625l41.511719-4.148437c2.308593-.242188 4.566406.722656 6.007812 2.527343l33.207031 41.507813c1.84375 2.304687 2 5.539062.375 8.007812-1.621093 2.472656-4.648437 3.625-7.5 2.839844l-45.660156-12.453125c-.433594-.121094-.855468-.28125-1.257812-.480469l-11.507813-5.753906-9.035156 12.046875c-.78125 1.042969-1.84375 1.839844-3.0625 2.300781l-66.410156 24.902344c-.78125.292969-1.597657.433594-2.394531.433594zm69.261718-58.359375-36.539062 31.972656 29.421875-11.039063 11.257812-15.003906c1.980469-2.640625 5.566407-3.472656 8.511719-2.011718l15.996094 7.996093 24.789062 6.765625-17.796875-22.242187zm0 0" fill="#4c241d"/><path d="m201.910156 264.394531-99.617187-112.070312-24.90625-4.152344v-16.601563h-20.753907v-16.605468l-29.054687-4.152344-4.152344-24.902344-16.601562-20.753906 58.109375 12.453125 8.304687 12.453125 31.996094 8.453125 84.226563 82.863281zm0 0" fill="#a9ba5a"/><path d="m201.914062 271.21875c-1.90625 0-3.78125-.800781-5.105468-2.289062l-98.015625-110.269532-22.527344-3.757812c-3.289063-.546875-5.703125-3.394532-5.703125-6.730469v-9.777344h-13.929688c-3.769531 0-6.828124-3.058593-6.828124-6.828125v-10.683594l-23.195313-3.3125c-2.941406-.417968-5.273437-2.699218-5.765625-5.632812l-3.859375-23.148438-15.488281-19.371093c-1.804688-2.253907-1.992188-5.398438-.476563-7.855469 1.515625-2.449219 4.425781-3.664062 7.238281-3.085938l58.109376 12.453126c1.738281.371093 3.261718 1.410156 4.25 2.886718l6.863281 10.300782 29.496093 7.792968c1.152344.304688 2.199219.898438 3.042969 1.734375l84.226563 82.863281c1.054687 1.035157 1.742187 2.390626 1.960937 3.855469l12.453125 83.015625c.453125 2.992188-1.117187 5.917969-3.855468 7.199219-.925782.433594-1.910157.640625-2.890626.640625zm-117.699218-128.832031 19.203125 3.203125c1.535156.257812 2.941406 1.03125 3.976562 2.195312l84.359375 94.90625-8.707031-58.050781-81.308594-79.988281-30.246093-7.992188c-1.613282-.425781-3.015626-1.425781-3.9375-2.8125l-6.765626-10.144531-36.679687-7.859375 4.644531 5.804688c.730469.910156 1.214844 1.988281 1.402344 3.140624l3.335938 19.976563 24.105468 3.445313c3.363282.476562 5.859375 3.359374 5.859375 6.753906v9.777344h13.929688c3.769531 0 6.828125 3.058593 6.828125 6.828124zm0 0" fill="#4c241d"/><path d="m69.085938 214.585938 29.054687-16.605469 35.570313-1.738281 68.199218 68.152343-74.714844-45.660156-29.054687 4.152344zm0 0" fill="#a9ba5a"/><path d="m201.90625 271.21875c-1.21875 0-2.449219-.324219-3.554688-1l-72.621093-44.378906-26.625 3.804687c-.945313.132813-1.910157.074219-2.839844-.195312l-29.058594-8.300781c-2.640625-.753907-4.570312-3.019532-4.898437-5.742188-.328125-2.726562 1.007812-5.382812 3.390625-6.746094l29.054687-16.605468c.933594-.53125 1.980469-.839844 3.050782-.894532l35.570312-1.738281c1.875-.058594 3.796875.632813 5.15625 1.988281l68.207031 68.15625c2.445313 2.445313 2.675781 6.332032.535157 9.050782-1.335938 1.695312-3.335938 2.601562-5.367188 2.601562zm-74.710938-59.3125c1.25 0 2.484376.34375 3.558594 1.003906l25.683594 15.695313-25.414062-25.398438-30.914063 1.515625-13.566406 7.75 12.074219 3.453125 27.613281-3.949219c.320312-.046874.644531-.070312.964843-.070312zm0 0" fill="#4c241d"/><path d="m214.363281 268.546875-16.601562-136.976563s-28.550781-123.800781-132.320313-119.648437l28.550782 32.480469-4.152344 41.507812h20.753906l-4.148438 37.355469 24.902344 8.304687v20.753907l29.058594 12.449219c-.003906 0 41.503906 37.359374 53.957031 103.773437zm0 0" fill="#a9ba5a"/><path d="m214.359375 275.371094c-3.234375 0-6.089844-2.296875-6.703125-5.570313-10.972656-58.496093-45.464844-93.828125-51.054688-99.230469l-27.945312-11.976562c-2.507812-1.070312-4.136719-3.542969-4.136719-6.273438v-15.835937l-20.234375-6.742187c-3.058594-1.015626-4.984375-4.027344-4.625-7.230469l3.308594-29.773438h-13.128906c-1.933594 0-3.769532-.820312-5.066406-2.246093-1.292969-1.429688-1.917969-3.339844-1.730469-5.261719l3.859375-38.554688-26.585938-30.25c-1.742187-1.976562-2.183594-4.777343-1.148437-7.195312 1.039062-2.417969 3.371093-4.027344 6.003906-4.132813 108.195313-4.519531 138.945313 123.636719 139.246094 124.933594.050781.234375.09375.472656.121093.714844l16.605469 136.976562c.441407 3.65625-2.097656 7.007813-5.738281 7.566406-.351562.054688-.703125.082032-1.046875.082032zm-76.183594-127.550782 24.917969 10.679688c.6875.296875 1.320312.699219 1.878906 1.203125 1.144532 1.03125 19.140625 17.5 35.089844 47.566406l-9.027344-74.484375c-.824218-3.328125-8.203125-31.710937-26.425781-59.152344-22.027344-33.171874-50.152344-51.460937-83.761719-54.523437l18.269532 20.785156c1.25 1.421875 1.855468 3.300781 1.667968 5.1875l-3.402344 34.003907h13.214844c1.941406 0 3.792969.824218 5.085938 2.273437 1.296875 1.445313 1.910156 3.375 1.695312 5.304687l-3.542968 31.875 19.667968 6.550782c2.792969.933594 4.671875 3.539062 4.671875 6.480468zm0 0" fill="#4c241d"/><path d="m138.5625 257.078125c-6.535156 12.121094-10.253906 25.984375-10.253906 40.722656 0 47.476563 38.488281 85.96875 85.96875 85.96875 47.480468 0 85.96875-38.488281 85.96875-85.96875 0-14.738281-3.71875-28.601562-10.25-40.722656zm0 0" fill="#fff"/><g fill="#4c241d"><path d="m214.28125 390.59375c-51.167969 0-92.796875-41.625-92.796875-92.792969 0-15.320312 3.824219-30.523437 11.066406-43.964843 1.191407-2.207032 3.503907-3.585938 6.011719-3.585938h151.433594c2.507812 0 4.816406 1.378906 6.007812 3.585938 7.238282 13.4375 11.066406 28.636718 11.066406 43.964843.003907 51.167969-41.625 92.792969-92.789062 92.792969zm-71.527344-126.691406c-4.996094 10.542968-7.617187 22.175781-7.617187 33.898437 0 43.636719 35.5 79.136719 79.140625 79.136719 43.636718 0 79.140625-35.5 79.140625-79.136719 0-11.722656-2.625-23.363281-7.617188-33.898437zm0 0"/><path d="m247.230469 348.332031c-2.066407 0-4.101563-.929687-5.445313-2.703125-2.277344-3.003906-1.683594-7.285156 1.316406-9.5625 12.910157-9.78125 20.3125-24.667968 20.3125-40.839844 0-3.769531 3.058594-6.828124 6.828126-6.828124 3.769531 0 6.824218 3.058593 6.824218 6.828124 0 20.484376-9.371094 39.332032-25.71875 51.71875-1.230468.9375-2.683594 1.386719-4.117187 1.386719zm0 0"/></g></svg>