<svg height="425pt" viewBox="-43 0 425 425.33952" width="425pt" xmlns="http://www.w3.org/2000/svg"><path d="m307.371094 203.472656c0 84.832032-68.769532 153.601563-153.601563 153.601563s-153.601562-68.769531-153.601562-153.601563c0-84.832031 68.769531-153.601562 153.601562-153.601562s153.601563 68.769531 153.601563 153.601562zm0 0" fill="#efefd2"/><path d="m204.96875 288.804688c-3.773438 0-6.824219-3.050782-6.824219-6.824219v-170.667969c0-3.773438 3.050781-6.828125 6.824219-6.828125s6.828125 3.054687 6.828125 6.828125v170.667969c0 3.773437-3.054687 6.824219-6.828125 6.824219zm0 0" fill="#4c241d"/><path d="m284.234375 275.152344h-158.054687l18.941406 117.296875h120.171875zm0 0" fill="#fff"/><path d="m265.289062 399.273438h-120.167968c-3.347656 0-6.207032-2.433594-6.738282-5.738282l-18.945312-117.296875c-.320312-1.972656.25-3.984375 1.542969-5.511719 1.296875-1.519531 3.199219-2.398437 5.199219-2.398437h158.054687c2 0 3.898437.878906 5.199219 2.398437 1.292968 1.527344 1.859375 3.539063 1.539062 5.511719l-18.945312 117.296875c-.53125 3.304688-3.386719 5.738282-6.738282 5.738282zm-114.351562-13.652344h108.539062l16.742188-103.640625h-142.019531zm0 0" fill="#4c241d"/><path d="m145.121094 391.207031 4.210937 27.304688h111.75l4.210938-27.304688zm0 0" fill="#bf7e68"/><path d="m261.082031 425.339844h-111.75c-3.371093 0-6.230469-2.460938-6.746093-5.789063l-4.210938-27.304687c-.304688-1.964844.265625-3.972656 1.5625-5.488282 1.296875-1.507812 3.191406-2.378906 5.183594-2.378906h120.167968c1.992188 0 3.886719.871094 5.179688 2.378906 1.300781 1.515626 1.875 3.519532 1.566406 5.488282l-4.207031 27.304687c-.511719 3.328125-3.378906 5.789063-6.746094 5.789063zm-105.894531-13.652344h100.042969l2.097656-13.65625h-104.246094zm0 0" fill="#4c241d"/><path d="m155.847656 192.847656c22.929688 11.496094 29.804688 20.679688 27.492188 36.738282-2.871094 19.953124-28.707032 28.648437-67.695313 14.84375-19-6.730469-51.304687-32.761719-40.269531-49.632813 11.035156-16.867187 62.449219-10.984375 80.472656-1.949219zm0 0" fill="#a9ba5a"/><path d="m150.0625 258.007812c-10.839844 0-23.257812-2.386718-36.695312-7.148437-15.242188-5.390625-39.585938-22.4375-45.660157-40.417969-2.386719-7.074218-1.714843-13.78125 1.953125-19.386718 13.960938-21.328126 69.835938-14.054688 89.25-4.308594 21.585938 10.820312 34.332032 21.921875 31.191406 43.816406-1.300781 9.011719-6.21875 16.339844-14.230468 21.179688-6.910156 4.179687-15.667969 6.265624-25.808594 6.265624zm-40.855469-67.214843c-13.097656 0-24.542969 2.265625-28.121093 7.742187-.847657 1.292969-1.8125 3.476563-.445313 7.539063 3.976563 11.777343 23.644531 27.09375 37.28125 31.917969 21.757813 7.695312 40.300781 8.453124 50.886719 2.0625 4.453125-2.695313 7.070312-6.542969 7.777344-11.441407 1.640624-11.4375-1.40625-18.441406-23.796876-29.667969-9.769531-4.890624-27.867187-8.152343-43.582031-8.152343zm0 0" fill="#4c241d"/><path d="m211.804688 275.152344c-.546876 0-1.105469-.066406-1.660157-.207032-3.664062-.910156-5.886719-4.617187-4.96875-8.273437 7.644531-30.59375 30.785157-38.625 31.765625-38.953125 3.605469-1.199219 7.441406.742188 8.636719 4.3125 1.183594 3.5625-.722656 7.40625-4.269531 8.621094-.777344.273437-17.144532 6.347656-22.890625 29.328125-.773438 3.105469-3.554688 5.171875-6.613281 5.171875zm0 0" fill="#4c241d"/><path d="m273 252.382812c-22.355469 1.496094-31.601562-2.378906-36.96875-15.496093-6.667969-16.296875 8.941406-34.28125 44.414062-41.144531 17.289063-3.34375 53.144532 1.960937 52.300782 19.550781-.847656 17.589843-42.175782 35.917969-59.746094 37.089843zm0 0" fill="#a9ba5a"/><path d="m264.722656 259.519531c-16.761718 0-28.558594-4.300781-35.007812-20.046875-3.113282-7.613281-2.640625-15.558594 1.375-22.988281 7.066406-13.0625 24.132812-22.816406 48.050781-27.445313 14.058594-2.738281 40.292969-.601562 53.019531 10.425782 5.132813 4.453125 7.695313 10.042968 7.402344 16.15625-1.089844 22.699218-46.949219 42.296875-66.109375 43.578125-3.042969.199219-5.957031.320312-8.730469.320312zm8.28125-7.132812h.066406zm18.597656-50.773438c-3.59375 0-6.980468.273438-9.867187.828125-19.25 3.734375-33.699219 11.40625-38.632813 20.539063-2.03125 3.757812-2.285156 7.566406-.746093 11.320312 3.660156 8.953125 8.871093 12.738281 30.191406 11.273438 16.773437-1.121094 52.804687-18.675781 53.371094-30.609375.0625-1.171875-.160157-2.980469-2.699219-5.179688-6.128906-5.3125-19.96875-8.171875-31.617188-8.171875zm0 0" fill="#4c241d"/><path d="m205.308594 277.738281c-.035156 0-.058594 0-.09375 0-3.773438-.050781-6.785156-3.152343-6.730469-6.917969.292969-21.355468-18.339844-38.1875-18.535156-38.355468-2.8125-2.507813-3.066407-6.820313-.558594-9.636719 2.507813-2.8125 6.828125-3.070313 9.640625-.5625.957031.855469 23.484375 21.222656 23.105469 48.742187-.054688 3.738282-3.101563 6.730469-6.828125 6.730469zm0 0" fill="#4c241d"/><path d="m144.890625 144.328125c-19.589844-34.125 9.378906-93.394531 36.148437-122.234375 37.585938-40.484375 59.636719 9.058594 79.683594 38.832031 16.175782 24.019531 17.308594 55.347657 3.574219 80.839844-31.003906 57.554687-37.773437 17.242187-59.054687 14.398437-21.214844-2.835937-48.875 8.160157-60.351563-11.835937zm0 0" fill="#f53e28"/><path d="m235.597656 179.367188c-7.519531.003906-13.375-4.789063-18.621094-9.082032-4.253906-3.476562-8.273437-6.773437-12.632812-7.351562-5.914062-.792969-12.527344-.382813-19.546875.058594-16.785156 1.054687-35.785156 2.226562-45.828125-15.265626-21.859375-38.078124 9.195312-100.253906 37.066406-130.28125 11.828125-12.738281 23.320313-18.386718 34.960938-17.320312 20.59375 1.9375 35.039062 24.902344 47.785156 45.160156 2.589844 4.109375 5.109375 8.121094 7.601562 11.828125 17.574219 26.09375 19.074219 59.769531 3.925782 87.894531-11.773438 21.847657-21.078125 32.019532-31.125 34.007813-1.234375.246094-2.433594.351563-3.585938.351563zm-38.902344-30.535157c3.1875 0 6.355469.15625 9.453126.570313 8.207031 1.09375 14.191406 6 19.480468 10.320312 4.925782 4.039063 8.105469 6.457032 10.90625 5.898438 2.996094-.59375 9.800782-4.898438 21.746094-27.09375 12.742188-23.640625 11.507812-51.914063-3.21875-73.785156-2.574219-3.8125-5.171875-7.953126-7.839844-12.1875-11.066406-17.585938-23.609375-37.527344-37.5-38.835938-7.09375-.605469-15.054687 3.722656-23.6875 13.023438-25.445312 27.410156-52.636718 83.859374-35.226562 114.183593 5.53125 9.648438 16.1875 9.480469 33.136718 8.441407 4.210938-.265626 8.496094-.535157 12.75-.535157zm0 0" fill="#4c241d"/><path d="m215.167969 49.515625c-5.5-.707031-13.011719 22.484375-16.78125 51.796875-3.769531 29.316406-2.363281 53.652344 3.136719 54.359375s13.011718-22.484375 16.78125-51.796875c3.765624-29.3125 2.363281-53.652344-3.136719-54.359375zm0 0" fill="#ffec95"/><path d="m201.75 162.5c-.28125 0-.558594-.011719-.847656-.039062-1.742188-.171876-4.257813-.945313-6.398438-3.640626-8.476562-10.652343-3.921875-50.265624-2.921875-58.105468 3.472657-27.21875 10.367188-59.285156 24.21875-58.007813 1.734375.175781 4.253907.941407 6.402344 3.632813 8.464844 10.632812 3.914063 50.269531 2.917969 58.101562v.007813c-3.398438 26.652343-10.203125 58.050781-23.371094 58.050781zm11.511719-98.160156c-2.710938 7.855468-5.914063 20.6875-8.132813 38.105468-2.1875 17.148438-2.328125 30.1875-1.695312 38.386719 2.722656-7.851562 5.921875-20.691406 8.144531-38.117187v.003906c2.183594-17.144531 2.324219-30.179688 1.683594-38.378906zm5.089843 39.238281h.066407zm0 0" fill="#4c241d"/></svg>