<svg height="416pt" viewBox="-34 0 416 416.43037" width="416pt" xmlns="http://www.w3.org/2000/svg"><path d="m307.414062 180.910156c0 84.832032-68.769531 153.601563-153.597656 153.601563-84.832031 0-153.601562-68.769531-153.601562-153.601563 0-84.832031 68.769531-153.601562 153.601562-153.601562 84.828125 0 153.597656 68.769531 153.597656 153.601562zm0 0" fill="#efefd2"/><path d="m153.800781 32.253906-26.519531 20.625c5.789062 8.648438 11.015625 17.246094 15.671875 25.738282l34.207031-26.605469c-7.839844-7.851563-15.71875-14.398438-23.359375-19.757813zm0 0" fill="#a9ba5a"/><path d="m142.957031 85.441406c-.460937 0-.925781-.046875-1.386719-.140625-1.953124-.40625-3.640624-1.648437-4.601562-3.402343-4.589844-8.375-9.761719-16.859376-15.359375-25.21875-1.992187-2.976563-1.347656-6.992188 1.480469-9.191407l26.523437-20.625c2.367188-1.847656 5.65625-1.925781 8.113281-.199219 8.359376 5.871094 16.523438 12.773438 24.265626 20.519532 1.382812 1.386718 2.105468 3.300781 1.984374 5.253906-.125 1.953125-1.078124 3.761719-2.625 4.964844l-34.207031 26.601562c-1.207031.941406-2.683593 1.4375-4.1875 1.4375zm-6.507812-31.042968c2.996093 4.640624 5.855469 9.3125 8.558593 13.96875l21.730469-16.898438c-4.175781-3.839844-8.453125-7.410156-12.796875-10.675781zm0 0" fill="#4c241d"/><path d="m177.160156 52.007812-34.207031 26.605469c5.816406 10.613281 10.777344 21.035157 15.039063 31.164063l38.609374-35.097656c-6.34375-8.613282-12.878906-16.101563-19.441406-22.671876zm0 0" fill="#ffce56"/><path d="m157.992188 116.601562c-.492188 0-.984376-.050781-1.472657-.160156-2.164062-.476562-3.960937-1.976562-4.820312-4.019531-4.371094-10.402344-9.332031-20.671875-14.730469-30.527344-1.609375-2.941406-.851562-6.613281 1.796875-8.671875l34.207031-26.601562c2.71875-2.121094 6.578125-1.867188 9.019532.566406 7.167968 7.171875 13.933593 15.0625 20.105468 23.441406 2.074219 2.820313 1.683594 6.746094-.902344 9.101563l-38.609374 35.097656c-1.269532 1.15625-2.914063 1.773437-4.59375 1.773437zm-6.296876-36.136718c3.078126 5.855468 6 11.824218 8.738282 17.867187l26.949218-24.496093c-3.464843-4.410157-7.097656-8.644532-10.867187-12.675782zm0 0" fill="#4c241d"/><path d="m90.527344 6.832031c14.386718 15.230469 26.476562 30.703125 36.753906 46.046875l26.519531-20.628906c-34.007812-23.851562-63.273437-25.417969-63.273437-25.417969zm0 0" fill="#ffce56"/><path d="m127.28125 59.703125c-.359375 0-.722656-.027344-1.085938-.085937-1.871093-.300782-3.53125-1.367188-4.585937-2.941407-10.691406-15.957031-22.820313-31.148437-36.050781-45.160156-1.914063-2.027344-2.402344-5.019531-1.230469-7.554687 1.171875-2.535157 3.855469-4.128907 6.558594-3.945313 1.277343.0664062 31.628906 1.953125 66.832031 26.644531 1.773438 1.242188 2.851562 3.257813 2.90625 5.421875.050781 2.164063-.925781 4.230469-2.636719 5.558594l-26.515625 20.628906c-1.207031.933594-2.683594 1.433594-4.191406 1.433594zm-17.929688-42.007813c6.863282 8.164063 13.367188 16.632813 19.460938 25.34375l13.277344-10.328124c-12.421875-7.65625-23.8125-12.257813-32.738282-15.015626zm0 0" fill="#4c241d"/><path d="m196.601562 74.679688-38.609374 35.097656c5.226562 12.429687 9.382812 24.390625 12.667968 35.652344l44.714844-40.652344c-5.941406-11.292969-12.257812-21.253906-18.773438-30.097656zm0 0" fill="#a9ba5a"/><path d="m170.660156 152.257812c-.621094 0-1.242187-.085937-1.851562-.257812-2.265625-.636719-4.042969-2.398438-4.703125-4.65625-3.40625-11.6875-7.582031-23.433594-12.410157-34.921875-1.117187-2.664063-.4375-5.75 1.703126-7.695313l38.609374-35.09375c1.429688-1.304687 3.335938-1.957031 5.269532-1.742187 1.921875.1875 3.671875 1.1875 4.820312 2.742187 7.03125 9.554688 13.53125 19.96875 19.320313 30.96875 1.445312 2.753907.847656 6.136719-1.453125 8.226563l-44.714844 40.652344c-1.273438 1.160156-2.914062 1.777343-4.589844 1.777343zm-4.53125-40.648437c2.878906 7.121094 5.511719 14.332031 7.875 21.550781l32.828125-29.839844c-3.542969-6.390624-7.339843-12.550781-11.339843-18.40625zm0 0" fill="#4c241d"/><path d="m252.324219 232.109375c-6.890625-54.597656-20.46875-95.972656-36.953125-127.328125l-44.714844 40.648438c14.699219 50.414062 12.171875 86.675781 12.171875 86.675781 3.730469 0 69.496094.003906 69.496094.003906zm0 0" fill="#ffce56"/><path d="m252.324219 238.9375-69.496094-.007812c-1.890625 0-3.695313-.785157-4.988281-2.167969-1.289063-1.382813-1.953125-3.238281-1.820313-5.125.023438-.351563 2.222657-35.804688-11.914062-84.296875-.730469-2.503906.03125-5.207032 1.960937-6.960938l44.714844-40.652344c1.5625-1.421874 3.691406-2.035156 5.78125-1.671874 2.082031.367187 3.875 1.675781 4.855469 3.546874 18.609375 35.417969 31.292969 79.039063 37.679687 129.652344.25 1.949219-.355468 3.90625-1.652344 5.375-1.296874 1.464844-3.160156 2.308594-5.121093 2.308594zm-62.492188-13.660156 54.695313.007812c-5.9375-42.03125-16.414063-78.761718-31.203125-109.414062l-34.941407 31.761718c10.105469 36.371094 11.457032 64.859376 11.449219 77.644532zm0 0" fill="#4c241d"/><path d="m164.058594 218.457031c-1.855469 0-3.707032-.753906-5.054688-2.234375-2.535156-2.789062-2.332031-7.109375.457032-9.640625l75.09375-68.269531c2.796874-2.539062 7.109374-2.324219 9.644531.457031 2.535156 2.792969 2.332031 7.113281-.457031 9.644531l-75.09375 68.265626c-1.308594 1.191406-2.953126 1.777343-4.589844 1.777343zm0 0" fill="#4c241d"/><path d="m228.824219 164.914062 46.820312 36.417969c1.191407-13.265625 3.644531-26.277343 7.363281-39.027343l-40.910156-31.820313c-5.523437 11.382813-9.851562 23.125-13.273437 34.429687zm0 0" fill="#a9ba5a"/><path d="m275.640625 208.15625c-1.492187 0-2.972656-.488281-4.1875-1.4375l-46.820313-36.414062c-2.230468-1.738282-3.164062-4.664063-2.34375-7.371094 3.886719-12.832032 8.484376-24.753906 13.664063-35.429688.898437-1.855468 2.585937-3.199218 4.589844-3.667968 2.003906-.453126 4.113281-.007813 5.742187 1.257812l40.914063 31.824219c2.207031 1.71875 3.144531 4.613281 2.363281 7.296875-3.578125 12.273437-5.972656 24.96875-7.121094 37.726562-.222656 2.488282-1.789062 4.65625-4.082031 5.648438-.871094.382812-1.796875.566406-2.71875.566406zm-38.890625-45.726562 33.546875 26.09375c1.183594-7.96875 2.824219-15.875 4.90625-23.640626l-30.496094-23.71875c-2.886719 6.664063-5.546875 13.78125-7.957031 21.265626zm0 0" fill="#4c241d"/><path d="m216.394531 232.109375h58.738281c-.625-10.421875-.398437-20.671875.511719-30.777344l-46.820312-36.417969c-10.871094 35.886719-12.429688 67.195313-12.429688 67.195313zm0 0" fill="#ffce56"/><path d="m275.132812 238.9375h-58.742187c-1.871094 0-3.65625-.765625-4.945313-2.121094-1.285156-1.355468-1.960937-3.179687-1.871093-5.046875.0625-1.3125 1.730469-32.5625 12.714843-68.835937.648438-2.148438 2.320313-3.84375 4.460938-4.527344 2.152344-.675781 4.484375-.261719 6.261719 1.117188l46.820312 36.417968c1.832031 1.425782 2.816407 3.6875 2.609375 6-.90625 10.117188-1.074218 20.128906-.496094 29.761719.113282 1.878906-.554687 3.71875-1.84375 5.089844-1.289062 1.367187-3.089843 2.144531-4.96875 2.144531zm-51.335937-13.652344h44.21875c-.164063-6.835937.007813-13.804687.523437-20.832031l-35.910156-27.929687c-5.503906 20.824218-7.875 39.136718-8.832031 48.761718zm0 0" fill="#4c241d"/><path d="m242.097656 130.484375 40.910156 31.820313c3.296876-11.300782 7.570313-22.402344 12.75-33.316407l-35.664062-27.738281c-7.0625 9.035156-13.019531 18.96875-17.996094 29.234375zm0 0" fill="#ffce56"/><path d="m283.007812 169.132812c-1.496093 0-2.976562-.492187-4.191406-1.433593l-40.910156-31.824219c-2.546875-1.980469-3.363281-5.46875-1.957031-8.371094 5.484375-11.296875 11.796875-21.546875 18.765625-30.460937 2.320312-2.96875 6.605468-3.488281 9.566406-1.179688l35.664062 27.734375c2.527344 1.96875 3.351563 5.425782 1.976563 8.316406-5.074219 10.695313-9.234375 21.566407-12.363281 32.304688-.632813 2.167969-2.300782 3.886719-4.449219 4.585938-.6875.21875-1.394531.328124-2.101563.328124zm-32.289062-40.589843 28.742188 22.359375c2.265624-6.628906 4.882812-13.265625 7.832031-19.851563l-25.878907-20.121093c-3.816406 5.417968-7.390624 11.3125-10.695312 17.613281zm0 0" fill="#4c241d"/><path d="m281.507812 79.976562c-8.089843 6.109376-15.199218 13.320313-21.414062 21.273438l35.664062 27.738281c4.261719-8.980469 9.136719-17.832031 14.617188-26.5625zm0 0" fill="#a9ba5a"/><path d="m295.757812 135.8125c-1.503906 0-2.980468-.496094-4.1875-1.4375l-35.664062-27.734375c-1.433594-1.113281-2.367188-2.75-2.585938-4.550781-.222656-1.800782.277344-3.613282 1.394532-5.042969 6.816406-8.726563 14.445312-16.300781 22.675781-22.515625 2.460937-1.855469 5.871094-1.832031 8.300781.058594l28.871094 22.453125c2.765625 2.152343 3.457031 6.046875 1.589844 9.019531-5.324219 8.484375-10.117188 17.179688-14.230469 25.851562-.886719 1.871094-2.574219 3.234376-4.585937 3.714844-.519532.125-1.050782.183594-1.578126.183594zm-25.921874-35.632812 23.515624 18.289062c2.492188-4.824219 5.167969-9.636719 8.011719-14.398438l-19.808593-15.402343c-4.097657 3.445312-8.011719 7.296875-11.71875 11.511719zm0 0" fill="#4c241d"/><path d="m342.261719 60.136719c-24.820313 0-44.726563 7.730469-60.753907 19.839843l28.867188 22.453126c9.050781-14.421876 19.6875-28.515626 31.886719-42.292969zm0 0" fill="#ffce56"/><path d="m310.375 109.257812c-1.507812 0-2.984375-.5-4.191406-1.4375l-28.867188-22.453124c-1.675781-1.304688-2.652344-3.3125-2.636718-5.4375.015624-2.121094 1.015624-4.121094 2.710937-5.398438 18.636719-14.082031 40.460937-21.222656 64.867187-21.222656 2.6875 0 5.125 1.574218 6.222657 4.023437 1.101562 2.449219.671875 5.316407-1.109375 7.328125-11.921875 13.472656-22.425782 27.398438-31.214844 41.398438-1.023438 1.632812-2.695312 2.757812-4.59375 3.09375-.398438.070312-.792969.105468-1.1875.105468zm-17.289062-28.925781 15.601562 12.132813c5.429688-8.179688 11.402344-16.3125 17.867188-24.324219-12.070313 1.871094-23.265626 5.945313-33.46875 12.191406zm0 0" fill="#4c241d"/><path d="m82.136719 100.117188s13.421875 17.789062 26.402343 44.148437l22.1875-22.1875c-12.371093-10.882813-28.230468-19.019531-48.589843-21.960937zm0 0" fill="#a9ba5a"/><path d="m108.542969 151.089844c-.371094 0-.746094-.03125-1.113281-.089844-2.171876-.359375-4.035157-1.746094-5.011719-3.722656-12.511719-25.398438-25.601563-42.878906-25.730469-43.050782-1.667969-2.210937-1.835938-5.207031-.425781-7.589843 1.40625-2.378907 4.089843-3.6875 6.851562-3.277344 20.085938 2.898437 37.625 10.839844 52.125 23.59375 1.414063 1.242187 2.25 3.019531 2.3125 4.910156.058594 1.882813-.664062 3.707031-2 5.042969l-22.183593 22.179688c-1.289063 1.292968-3.03125 2.003906-4.824219 2.003906zm-10.964844-40.34375c3.730469 5.902344 8.179687 13.378906 12.773437 22.054687l10.175782-10.175781c-6.949219-5.113281-14.617188-9.082031-22.949219-11.878906zm0 0" fill="#4c241d"/><path d="m130.726562 122.078125-22.1875 22.1875c5.007813 10.160156 9.941407 21.578125 14.023438 33.765625l29.535156-29.535156c-5.601562-9.617188-12.609375-18.703125-21.371094-26.417969zm0 0" fill="#ffce56"/><path d="m122.5625 184.859375c-.519531 0-1.046875-.0625-1.5625-.179687-2.304688-.542969-4.160156-2.238282-4.910156-4.480469-3.582032-10.691407-8.179688-21.765625-13.671875-32.917969-1.292969-2.621094-.769531-5.777344 1.296875-7.84375l22.183594-22.183594c2.542968-2.550781 6.632812-2.675781 9.339843-.300781 8.699219 7.65625 16.359375 17.109375 22.761719 28.105469 1.558594 2.679687 1.121094 6.074218-1.074219 8.261718l-29.535156 29.539063c-1.296875 1.296875-3.039063 2-4.828125 2zm-5.761719-39.195313c3.164063 6.695313 6.019531 13.359376 8.546875 19.929688l18.117188-18.117188c-3.804688-5.890624-8.019532-11.199218-12.605469-15.871093zm0 0" fill="#4c241d"/><path d="m131.476562 216.902344c.632813 5.46875 1.003907 10.972656 1.003907 16.484375 0 0 44.664062 0 41.957031 0 0 0-.023438-23.757813-8.152344-51.292969zm0 0" fill="#ffce56"/><path d="m174.554688 240.210938h-42.074219c-3.769531 0-6.824219-3.058594-6.824219-6.828126 0-4.964843-.316406-10.101562-.960938-15.703124-.238281-2.070313.484376-4.132813 1.957032-5.605469l34.808594-34.808594c1.703124-1.703125 4.179687-2.371094 6.507812-1.789063 2.332031.59375 4.183594 2.375 4.863281 4.683594 7.296875 24.714844 8.28125 46.265625 8.414063 51.847656.089844.445313.136718.90625.136718 1.375 0 3.765626-3.050781 6.820313-6.8125 6.828126-.003906 0-.011718 0-.015624 0zm-35.421876-13.652344h28.171876c-.464844-6.839844-1.648438-18.179688-4.617188-31.214844l-24.078125 24.078125c.238281 2.441406.410156 4.8125.523437 7.136719zm0 0" fill="#4c241d"/><path d="m152.097656 148.492188-29.535156 29.539062c4.140625 12.363281 7.375 25.503906 8.914062 38.871094l34.808594-34.808594c-3.257812-11.023438-7.800781-22.640625-14.1875-33.601562zm0 0" fill="#a9ba5a"/><path d="m131.476562 223.726562c-.75 0-1.507812-.121093-2.246093-.378906-2.472657-.859375-4.230469-3.066406-4.53125-5.664062-1.378907-11.921875-4.277344-24.535156-8.609375-37.488282-.824219-2.453124-.183594-5.160156 1.644531-6.992187l29.539063-29.539063c1.488281-1.5 3.59375-2.222656 5.703124-1.941406 2.101563.273438 3.957032 1.503906 5.023438 3.332032 6.007812 10.316406 11 22.128906 14.832031 35.101562.710938 2.398438.050781 4.996094-1.71875 6.761719l-34.808593 34.808593c-1.296876 1.304688-3.046876 2-4.828126 2zm-1.132812-43.828124c2.421875 7.6875 4.359375 15.269531 5.804688 22.679687l22.402343-22.40625c-2.324219-7.253906-5.050781-14.058594-8.128906-20.34375zm0 0" fill="#4c241d"/><path d="m188.980469 184.324219h51.335937c1.332032-11.835938 3.085938-23.21875 5.132813-34.132813h-50.058594c-2.613281 12.089844-4.714844 23.636719-6.410156 34.132813zm0 0" fill="#ffce56"/><path d="m240.316406 191.148438h-51.335937c-2 0-3.902344-.875-5.199219-2.398438-1.300781-1.523438-1.863281-3.539062-1.542969-5.515625 1.917969-11.84375 4.09375-23.445313 6.476563-34.484375.679687-3.140625 3.457031-5.382812 6.675781-5.382812h50.058594c2.03125 0 3.957031.902343 5.253906 2.464843s1.828125 3.621094 1.457031 5.617188c-2.109375 11.261719-3.8125 22.578125-5.058594 33.640625-.390624 3.449218-3.3125 6.058594-6.785156 6.058594zm-43.269531-13.652344h37.207031c.859375-6.777344 1.871094-13.625 3.039063-20.480469h-36.367188c-1.378906 6.664063-2.675781 13.515625-3.878906 20.480469zm0 0" fill="#4c241d"/><path d="m202.019531 122.882812h49.34375c2.367188-9.597656 4.910157-18.714843 7.535157-27.304687h-48.484376c-3.117187 8.972656-5.90625 18.140625-8.394531 27.304687zm0 0" fill="#ffce56"/><path d="m251.363281 129.710938h-49.339843c-2.128907 0-4.132813-.992188-5.425782-2.675782-1.289062-1.691406-1.71875-3.882812-1.167968-5.9375 2.609374-9.625 5.480468-18.964844 8.535156-27.761718.953125-2.746094 3.542968-4.585938 6.449218-4.585938h48.484376c2.164062 0 4.203124 1.027344 5.488281 2.765625 1.289062 1.742187 1.671875 3.984375 1.039062 6.054687-2.714843 8.894532-5.21875 17.960938-7.4375 26.945313-.746093 3.050781-3.484375 5.195313-6.625 5.195313zm-40.324219-13.652344h35.007813c1.171875-4.554688 2.410156-9.113282 3.714844-13.65625h-34.457031c-1.472657 4.433594-2.898438 9-4.265626 13.65625zm0 0" fill="#4c241d"/><path d="m182.828125 233.386719 54.664063-1.46875c.089843-16.511719 1.117187-32.410157 2.824218-47.59375h-51.335937c-4.617188 28.578125-6.152344 49.0625-6.152344 49.0625zm0 0" fill="#a9ba5a"/><path d="m182.828125 240.210938c-1.863281 0-3.652344-.761719-4.941406-2.117188-1.332031-1.394531-2.011719-3.296875-1.863281-5.21875.0625-.851562 1.609374-21.101562 6.214843-49.636719.535157-3.3125 3.390625-5.742187 6.742188-5.742187h51.335937c1.941406 0 3.792969.828125 5.089844 2.277344 1.292969 1.449218 1.910156 3.378906 1.691406 5.3125-1.757812 15.679687-2.695312 31.449218-2.777344 46.867187-.019531 3.683594-2.957031 6.691406-6.644531 6.789063l-54.664062 1.464843c-.058594.003907-.125.003907-.183594.003907zm11.984375-49.0625c-2.328125 15.230468-3.738281 27.738281-4.488281 35.207031l40.429687-1.085938c.230469-11.28125.890625-22.707031 1.984375-34.121093zm0 0" fill="#4c241d"/><path d="m195.390625 150.191406h50.058594c1.773437-9.476562 3.765625-18.59375 5.914062-27.308594h-49.339843c-2.503907 9.210938-4.707032 18.390626-6.632813 27.308594zm0 0" fill="#a9ba5a"/><path d="m245.449219 157.015625h-50.0625c-2.0625 0-4.015625-.933594-5.3125-2.539063-1.292969-1.605468-1.796875-3.710937-1.359375-5.726562 2.039062-9.433594 4.300781-18.742188 6.722656-27.652344.804688-2.976562 3.503906-5.039062 6.585938-5.039062h49.339843c2.101563 0 4.082031.964844 5.375 2.617187 1.296875 1.652344 1.753907 3.804688 1.25 5.847657-2.179687 8.851562-4.144531 17.910156-5.832031 26.925781-.601562 3.226562-3.421875 5.566406-6.707031 5.566406zm-41.535157-13.652344h35.902344c.90625-4.5625 1.878906-9.125 2.914063-13.652343h-35.457031c-1.167969 4.476562-2.289063 9.035156-3.359376 13.652343zm0 0" fill="#4c241d"/><path d="m221.339844 68.269531c-4.039063 8.675781-7.652344 17.878907-10.925782 27.308594h48.488282c3-9.824219 6.097656-18.929687 9.148437-27.308594zm0 0" fill="#a9ba5a"/><path d="m258.902344 102.402344h-48.488282c-2.210937 0-4.28125-1.070313-5.5625-2.871094-1.28125-1.796875-1.609374-4.105469-.886718-6.195312 3.605468-10.382813 7.265625-19.527344 11.191406-27.949219 1.117188-2.40625 3.53125-3.945313 6.183594-3.945313h46.707031c2.226563 0 4.3125 1.085938 5.59375 2.910156 1.277344 1.828126 1.582031 4.160157.820313 6.25-3.335938 9.164063-6.289063 17.984376-9.03125 26.96875-.875 2.875-3.523438 4.832032-6.527344 4.832032zm-38.746094-13.652344h33.714844c1.4375-4.550781 2.933594-9.078125 4.515625-13.652344h-32.648438c-1.894531 4.28125-3.761719 8.84375-5.582031 13.652344zm0 0" fill="#4c241d"/><path d="m278.738281 40.964844h-41.875c-5.730469 8.15625-10.898437 17.371094-15.523437 27.304687h46.710937c3.738281-10.277343 7.386719-19.414062 10.6875-27.304687zm0 0" fill="#ffce56"/><path d="m268.050781 75.097656h-46.707031c-2.332031 0-4.503906-1.191406-5.757812-3.15625-1.253907-1.96875-1.417969-4.4375-.433594-6.554687 4.949218-10.621094 10.375-20.15625 16.125-28.347657 1.28125-1.816406 3.367187-2.902343 5.585937-2.902343h41.871094c2.285156 0 4.417969 1.144531 5.683594 3.042969 1.261719 1.898437 1.496093 4.304687.617187 6.417968-3.875 9.269532-7.335937 18.101563-10.570312 27.003906-.984375 2.699219-3.546875 4.496094-6.414063 4.496094zm-35.6875-13.652344h30.925781c1.683594-4.527343 3.4375-9.058593 5.277344-13.65625h-28.097656c-2.789062 4.203126-5.5 8.765626-8.105469 13.65625zm0 0" fill="#4c241d"/><path d="m291.914062 6.832031c-22.597656 0-40.640624 13.625-55.050781 34.132813h41.875c8.917969-21.339844 15.191407-33.546875 13.175781-34.132813zm0 0" fill="#a9ba5a"/><path d="m278.734375 47.789062h-41.871094c-2.542969 0-4.882812-1.417968-6.054687-3.679687-1.175782-2.257813-.992188-4.984375.46875-7.070313 17.265625-24.574218 37.667968-37.03515575 60.632812-37.03515575.648438 0 1.285156.08984375 1.90625.27343775 1.886719.546875 3.730469 2.136718 4.5625 3.914062 1.933594 4.128906.34375 7.773438-6.351562 23.117188-2.011719 4.605468-4.390625 10.054687-6.996094 16.289062-1.058594 2.539063-3.542969 4.191406-6.296875 4.191406zm-27.71875-13.652343h23.191406c1.945313-4.585938 3.738281-8.695313 5.308594-12.289063 1.082031-2.488281 2.183594-5.011718 3.144531-7.265625-11.28125 2.296875-21.867187 8.839844-31.644531 19.554688zm0 0" fill="#4c241d"/><path d="m302.445312 225h-203.527343l24.390625 151.039062h154.746094zm0 0" fill="#fff"/><path d="m278.050781 382.867188h-154.738281c-3.351562 0-6.207031-2.429688-6.738281-5.734376l-24.394531-151.042968c-.316407-1.976563.246093-3.992188 1.542968-5.515625 1.292969-1.523438 3.195313-2.398438 5.195313-2.398438h203.527343c2 0 3.898438.875 5.195313 2.398438 1.296875 1.523437 1.863281 3.539062 1.542969 5.515625l-24.390625 151.042968c-.535157 3.304688-3.390625 5.734376-6.742188 5.734376zm-148.925781-13.652344h143.113281l22.1875-137.386719h-187.492187zm0 0" fill="#4c241d"/><path d="m123.308594 376.039062 5.421875 33.566407h143.902343l5.421876-33.566407zm0 0" fill="#bf7e68"/><path d="m272.632812 416.429688h-143.902343c-3.347657 0-6.207031-2.429688-6.738281-5.738282l-5.417969-33.5625c-.320313-1.972656.246093-3.992187 1.539062-5.515625 1.296875-1.519531 3.199219-2.398437 5.199219-2.398437h154.738281c2 0 3.902344.878906 5.199219 2.398437 1.296875 1.523438 1.859375 3.542969 1.542969 5.515625l-5.421875 33.5625c-.53125 3.308594-3.390625 5.738282-6.738282 5.738282zm-138.085937-13.652344h132.273437l3.214844-19.910156h-138.707031zm0 0" fill="#4c241d"/></svg>