<svg height="416pt" viewBox="-54 0 416 416.68346" width="416pt" xmlns="http://www.w3.org/2000/svg"><path d="m307.542969 167.511719c0 84.828125-68.769531 153.597656-153.601563 153.597656-84.832031 0-153.601562-68.769531-153.601562-153.597656 0-84.832031 68.769531-153.601563 153.601562-153.601563 84.832032 0 153.601563 68.769532 153.601563 153.601563zm0 0" fill="#efefd2"/><path d="m176.167969 395.296875c-3.59375 0-6.59375-2.800781-6.804688-6.421875-.296875-4.824219-3.246093-56.789062-.75-121.339844-2.546875-191.058594-11.027343-235.8125-14.738281-246.257812-.847656-.082032-1.703125-.316406-2.507812-.726563-3.328126-1.714843-4.660157-5.773437-2.988282-9.121093 1.875-3.746094 5.847656-5.722657 9.703125-4.839844 5.816407 1.378906 16.171875 3.8125 21.519531 145.324218 8.425782-50.53125 22.457032-97.152343 45.472657-125.480468 2.386719-2.917969 6.6875-3.359375 9.605469-.992188 2.929687 2.382813 3.367187 6.679688.996093 9.609375-38.402343 47.253907-50.28125 152.890625-53.320312 236.363281.417969 34.347657.644531 73.152344.644531 117.054688 0 3.691406-2.933594 6.714844-6.617188 6.828125-.074218 0-.140624 0-.214843 0zm0 0" fill="#4c241d"/><path d="m266.066406 48.042969c0-15.082031-9.203125-27.304688-20.558594-27.304688-11.351562 0-20.554687 12.222657-20.554687 27.304688s9.203125 27.308593 20.554687 27.308593c11.355469 0 20.558594-12.226562 20.558594-27.308593zm0 0" fill="#a9ba5a"/><path d="m245.507812 82.175781c-15.101562 0-27.378906-15.3125-27.378906-34.132812 0-18.820313 12.277344-34.132813 27.378906-34.132813 15.101563 0 27.378907 15.3125 27.378907 34.132813 0 18.820312-12.277344 34.132812-27.378907 34.132812zm0-54.613281c-7.4375 0-13.726562 9.378906-13.726562 20.480469 0 11.101562 6.289062 20.480469 13.726562 20.480469s13.726563-9.378907 13.726563-20.480469c0-11.101563-6.285156-20.480469-13.726563-20.480469zm0 0" fill="#4c241d"/><path d="m257.527344 84.824219c12.808594 18.441406 34.316406 25.660156 34.316406 25.660156s.75-22.679687-12.054688-41.121094c-12.808593-18.4375-34.320312-25.65625-34.320312-25.65625s-.746094 22.675781 12.058594 41.117188zm0 0" fill="#fff"/><path d="m291.847656 117.308594c-.734375 0-1.457031-.117188-2.171875-.351563-.964843-.324219-23.820312-8.171875-37.753906-28.242187-13.9375-20.066406-13.304687-44.21875-13.269531-45.238282.066406-2.152343 1.152344-4.148437 2.925781-5.378906 1.777344-1.234375 4.011719-1.535156 6.066406-.867187.964844.324219 23.820313 8.171875 37.753907 28.238281 13.9375 20.070312 13.304687 44.222656 13.273437 45.242188-.066406 2.152343-1.15625 4.148437-2.929687 5.378906-1.160157.808594-2.519532 1.21875-3.894532 1.21875zm-38.640625-62.484375c1.179688 7.386719 3.855469 17.367187 9.925781 26.105469 6.109376 8.789062 14.488282 14.765624 20.976563 18.433593-1.179687-7.386719-3.855469-17.367187-9.929687-26.105469-6.097657-8.789062-14.484376-14.769531-20.972657-18.433593zm0 0" fill="#4c241d"/><path d="m230.320312 84.824219c-12.808593 18.441406-34.316406 25.660156-34.316406 25.660156s-.75-22.679687 12.054688-41.121094c12.808594-18.4375 34.320312-25.65625 34.320312-25.65625s.75 22.675781-12.058594 41.117188zm0 0" fill="#fff"/><path d="m196.003906 117.308594c-1.375 0-2.734375-.410156-3.894531-1.21875-1.773437-1.234375-2.859375-3.226563-2.925781-5.378906-.035156-1.019532-.667969-25.171876 13.273437-45.242188 13.929688-20.066406 36.785157-27.910156 37.75-28.238281 2.0625-.679688 4.289063-.367188 6.070313.867187 1.773437 1.234375 2.859375 3.226563 2.925781 5.378906.035156 1.019532.667969 25.171876-13.273437 45.238282-13.933594 20.070312-36.785157 27.914062-37.753907 28.242187-.714843.234375-1.449219.351563-2.171875.351563zm38.664063-62.472656c-6.511719 3.6875-14.925781 9.683593-21 18.421874-6.097657 8.785157-8.78125 18.726563-9.953125 26.09375 6.511718-3.6875 14.925781-9.679687 21-18.421874 6.101562-8.785157 8.78125-18.726563 9.953125-26.09375zm0 0" fill="#4c241d"/><path d="m257.476562 84.839844c0 22.453125-13.550781 40.652344-13.550781 40.652344s-13.550781-18.199219-13.550781-40.652344c0-22.449219 13.550781-40.648438 13.550781-40.648438s13.550781 18.199219 13.550781 40.648438zm0 0" fill="#fff"/><path d="m243.921875 132.316406c-2.160156 0-4.1875-1.019531-5.472656-2.753906-.613281-.8125-14.898438-20.292969-14.898438-44.71875 0-24.433594 14.285157-43.910156 14.898438-44.726562 2.574219-3.457032 8.371093-3.457032 10.945312-.007813.613281.820313 14.90625 20.300781 14.90625 44.734375 0 24.425781-14.292969 43.90625-14.90625 44.726562-1.285156 1.726563-3.3125 2.746094-5.472656 2.746094zm.011719-74.578125c-3.246094 6.738281-6.730469 16.464844-6.730469 27.105469 0 10.703125 3.464844 20.386719 6.707031 27.101562 3.246094-6.742187 6.738282-16.460937 6.738282-27.101562 0-10.699219-3.472657-20.390625-6.714844-27.105469zm0 0" fill="#4c241d"/><path d="m161.480469 12.492188c-7.476563-8.539063-22.738281-7.40625-34.082031 2.53125s-14.476563 24.914062-6.996094 33.453124c7.480468 8.539063 22.738281 7.40625 34.082031-2.53125s14.476563-24.914062 6.996094-33.453124zm0 0" fill="#a9ba5a"/><path d="m134.226562 61.03125c-7.589843 0-14.410156-2.875-18.949218-8.0625-4.996094-5.691406-6.855469-13.746094-5.109375-22.089844 1.621093-7.761718 6.140625-15.214844 12.734375-20.996094 14.152344-12.398437 33.765625-13.246093 43.71875-1.890624 4.996094 5.691406 6.855468 13.753906 5.109375 22.097656-1.621094 7.753906-6.148438 15.214844-12.742188 20.988281s-14.578125 9.28125-22.480469 9.867187c-.765624.050782-1.527343.085938-2.28125.085938zm13.515626-47.453125c-5.027344 0-10.925782 2.273437-15.839844 6.574219-4.3125 3.78125-7.367188 8.707031-8.375 13.519531-.503906 2.414063-.910156 6.960937 2.015625 10.300781 2.941406 3.351563 7.539062 3.585938 9.953125 3.351563 4.898437-.359375 10.179687-2.734375 14.492187-6.511719 4.320313-3.789062 7.375-8.710938 8.378907-13.519531.5-2.414063.914062-6.960938-2.011719-10.300781-2.019531-2.308594-5.101563-3.414063-8.613281-3.414063zm6.746093 32.367187h.066407zm0 0" fill="#4c241d"/><path d="m121.199219 63.757812c-5.433594 21.78125 3.3125 42.722657 3.3125 42.722657s17.550781-14.382813 22.984375-36.164063c5.433594-21.785156-3.3125-42.722656-3.3125-42.722656s-17.550782 14.378906-22.984375 36.164062zm0 0" fill="#fff"/><path d="m124.507812 113.304688c-.550781 0-1.105468-.066407-1.652343-.199219-2.09375-.527344-3.8125-2.007813-4.648438-4-.390625-.941407-9.539062-23.300781-3.632812-47 5.914062-23.707031 24.492187-39.148438 25.277343-39.792969 1.675782-1.375 3.894532-1.847656 5.980469-1.347656 2.09375.527344 3.8125 2.007812 4.648438 3.996094.394531.9375 9.546875 23.296874 3.640625 47.011718-5.914063 23.699219-24.5 39.140625-25.285156 39.785156-1.234376 1.011719-2.765626 1.546876-4.328126 1.546876zm16.414063-72.566407c-4.789063 5.753907-10.519531 14.34375-13.09375 24.671875-2.574219 10.308594-1.546875 20.566406-.035156 27.894532 4.78125-5.753907 10.507812-14.328126 13.074219-24.640626 2.59375-10.378906 1.566406-20.628906.054687-27.925781zm-19.722656 23.019531h.070312zm0 0" fill="#4c241d"/><path d="m103.273438 43.289062c-22.308594 2.519532-41.914063-8.902343-41.914063-8.902343s16.5625-15.507813 38.875-18.027344c22.308594-2.515625 41.914063 8.90625 41.914063 8.90625s-16.566407 15.507813-38.875 18.023437zm0 0" fill="#fff"/><path d="m96.722656 50.476562c-21.039062.007813-38.011718-9.734374-38.804687-10.191406-1.863281-1.089844-3.101563-2.996094-3.347657-5.136718-.242187-2.144532.546876-4.273438 2.117188-5.753907.75-.691406 18.5-17.078125 42.78125-19.816406 24.265625-2.734375 45.238281 9.273437 46.113281 9.785156 1.867188 1.085938 3.105469 2.992188 3.355469 5.132813.238281 2.148437-.546875 4.273437-2.121094 5.753906-.746094.691406-18.5 17.078125-42.773437 19.824219-2.480469.285156-4.929688.402343-7.320313.402343zm6.550782-7.1875h.066406zm-28.457032-10.4375c7.058594 2.472657 17.09375 4.847657 27.691406 3.652344 10.554688-1.183594 19.816407-5.730468 26.148438-9.710937-7.0625-2.46875-17.125-4.835938-27.652344-3.640625-10.636718 1.191406-19.882812 5.726562-26.1875 9.699218zm0 0" fill="#4c241d"/><path d="m121.152344 63.726562c-16.886719 14.792969-39.507813 16.59375-39.507813 16.59375s4.761719-22.183593 21.648438-36.976562 39.507812-16.59375 39.507812-16.59375-4.761719 22.183594-21.648437 36.976562zm0 0" fill="#fff"/><path d="m81.648438 87.144531c-1.957032 0-3.832032-.839843-5.132813-2.328125-1.421875-1.625-1.992187-3.824218-1.539063-5.933594.210938-.992187 5.445313-24.574218 23.820313-40.671874 18.378906-16.101563 42.445313-18.1875 43.464844-18.269532 2.148437-.125 4.253906.6875 5.675781 2.308594 1.417969 1.628906 1.992188 3.820312 1.539062 5.933594-.214843.996094-5.445312 24.582031-23.820312 40.679687-18.386719 16.101563-42.453125 18.179688-43.46875 18.261719-.179688.011719-.359375.019531-.539062.019531zm50.945312-51.445312c-7.214844 2-16.804688 5.777343-24.796875 12.777343-8.046875 7.054688-13.054687 16.046876-15.96875 22.90625 7.207031-2 16.820313-5.773437 24.828125-12.785156 7.992188-7.007812 13.003906-16.019531 15.9375-22.898437zm-11.4375 28.03125h.066406zm0 0" fill="#4c241d"/><path d="m178.289062 338.09375s19.5625-139.324219 73.765626-171.847656c0 0-22.863282 116.042968-73.765626 171.847656zm0 0" fill="#a9ba5a"/><path d="m178.289062 344.917969c-.988281 0-1.972656-.214844-2.90625-.648438-2.707031-1.269531-4.265624-4.164062-3.855468-7.125.820312-5.820312 20.667968-142.941406 77.015625-176.753906 2.3125-1.398437 5.230469-1.292969 7.4375.265625 2.207031 1.554688 3.296875 4.261719 2.773437 6.910156-.953125 4.8125-23.832031 118.566406-75.417968 175.125-1.328126 1.453125-3.175782 2.226563-5.046876 2.226563zm62.472657-160.226563c-27.328125 30.492188-43.285157 91.160156-50.679688 126.679688 26.617188-41.074219 43.226563-97.273438 50.679688-126.679688zm0 0" fill="#4c241d"/><path d="m174.054688 338.09375s-19.5625-139.324219-73.765626-171.847656c0 0 22.867188 116.042968 73.765626 171.847656zm0 0" fill="#a9ba5a"/><path d="m174.054688 344.917969c-1.875 0-3.71875-.773438-5.046876-2.226563-51.585937-56.5625-74.464843-170.3125-75.417968-175.125-.523438-2.648437.566406-5.355468 2.773437-6.910156 2.207031-1.558594 5.125-1.660156 7.4375-.265625 56.347657 33.816406 76.195313 170.933594 77.015625 176.753906.410156 2.960938-1.148437 5.855469-3.855468 7.125-.933594.433594-1.917969.648438-2.90625.648438zm-62.472657-160.21875c7.453125 29.40625 24.0625 85.589843 50.671875 126.660156-7.398437-35.523437-23.371094-96.175781-50.671875-126.660156zm0 0" fill="#4c241d"/><path d="m224.320312 409.855469h-98.273437l-14.132813-116.050781h126.539063zm0 0" fill="#fff"/><path d="m224.320312 416.683594h-98.273437c-3.453125 0-6.359375-2.574219-6.773437-6l-14.132813-116.054688c-.238281-1.941406.367187-3.886718 1.660156-5.351562 1.300781-1.460938 3.160157-2.300782 5.113281-2.300782h126.542969c1.953125 0 3.8125.839844 5.113281 2.300782 1.292969 1.464844 1.898438 3.410156 1.660157 5.351562l-14.132813 116.054688c-.414062 3.429687-3.320312 6-6.777344 6zm-92.226562-13.652344h86.179688l12.476562-102.402344h-111.128906zm0 0" fill="#4c241d"/></svg>