<svg height="429pt" viewBox="-61 0 429 429.45776" width="429pt" xmlns="http://www.w3.org/2000/svg"><path d="m307.429688 265.824219c0 84.832031-68.769532 153.601562-153.601563 153.601562s-153.597656-68.769531-153.597656-153.601562c0-84.828125 68.765625-153.597657 153.597656-153.597657s153.601563 68.769532 153.601563 153.597657zm0 0" fill="#efefd2"/><path d="m187.957031 409.1875c-1.027343 0-2.070312-.230469-3.046875-.722656-3.375-1.683594-4.742187-5.785156-3.054687-9.160156l12.6875-25.367188c7.855469-15.714844 6.1875-34.199219-4.355469-48.25-14.632812-19.519531-15.976562-45.648438-3.433594-66.570312l7.082032-11.796876c8.363281-13.945312 8.726562-31.484374.9375-45.769531l-13.226563-24.238281c-9.351563-17.15625-9.71875-37.835938-.984375-55.3125l21.773438-43.546875c1.691406-3.371094 5.792968-4.738281 9.160156-3.050781 3.375 1.683594 4.738281 5.785156 3.050781 9.160156l-21.773437 43.539062c-6.738282 13.484376-6.453126 29.433594.761718 42.667969l13.226563 24.242188c10.097656 18.519531 9.625 41.253906-1.222657 59.332031l-7.078124 11.796875c-9.679688 16.136719-8.636719 36.296875 2.648437 51.355469 13.667969 18.210937 15.824219 42.175781 5.648437 62.546875l-12.6875 25.367187c-1.203124 2.394532-3.609374 3.777344-6.113281 3.777344zm0 0" fill="#4c241d"/><path d="m114.308594 295.941406c-6.535156 12.121094-10.253906 25.984375-10.253906 40.722656 0 47.480469 38.488281 85.96875 85.96875 85.96875 47.480468 0 85.96875-38.488281 85.96875-85.96875 0-14.738281-3.71875-28.601562-10.253907-40.722656zm0 0" fill="#fff"/><path d="m190.023438 429.457031c-51.167969 0-92.792969-41.625-92.792969-92.792969 0-15.320312 3.824219-30.523437 11.070312-43.964843 1.1875-2.207031 3.496094-3.585938 6.007813-3.585938h151.433594c2.511718 0 4.820312 1.378907 6.007812 3.585938 7.246094 13.441406 11.070312 28.644531 11.070312 43.964843 0 51.167969-41.625 92.792969-92.796874 92.792969zm-71.519532-126.6875c-4.996094 10.539063-7.621094 22.175781-7.621094 33.894531 0 43.636719 35.5 79.140626 79.140626 79.140626 43.636718 0 79.144531-35.503907 79.144531-79.140626 0-11.71875-2.625-23.355468-7.621094-33.894531zm0 0" fill="#4c241d"/><path d="m222.976562 387.199219c-2.066406 0-4.105468-.933594-5.445312-2.703125-2.28125-3.007813-1.6875-7.289063 1.316406-9.566406 12.90625-9.78125 20.316406-24.664063 20.316406-40.835938 0-3.769531 3.050782-6.828125 6.824219-6.828125 3.773438 0 6.828125 3.058594 6.828125 6.828125 0 20.480469-9.375 39.335938-25.726562 51.71875-1.234375.9375-2.683594 1.386719-4.113282 1.386719zm0 0" fill="#4c241d"/><path d="m262.382812 62.070312s-12.449218-12.269531-26.691406-9.316406c0 0 3.582032-30.453125-12.503906-45.933594-21.640625 5.484376-33.609375 33.71875-33.609375 33.71875-10.910156-9.621093-27.804687-5.125-27.804687-5.125-4.996094 18.863282 13.742187 32.800782 13.742187 32.800782-6.414063 7.273437-5.984375 14.117187-5.984375 14.117187 17.753906 9.1875 33.660156-.054687 33.660156-.054687s9.246094 15.90625 29.21875 16.710937c0 0 3.761719-5.730469 1.792969-15.226562 0 .003906 23.179687-2.828125 28.179687-21.691407zm0 0" fill="#a9ba5a"/><path d="m232.414062 105.820312c-.09375 0-.175781-.003906-.269531-.007812-16-.644531-26.175781-9.398438-31.167969-15.148438-7.203124 2.527344-20.363281 5.089844-34.582031-2.269531-2.125-1.101562-3.519531-3.238281-3.671875-5.632812-.046875-.785157-.257812-6.621094 3.726563-13.574219-6.238281-6.449219-15.566407-19.308594-11.273438-35.519531.628907-2.367188 2.480469-4.21875 4.847657-4.847657.6875-.1875 14.472656-3.738281 26.875 1.941407 5.472656-9.644531 17.113281-26.121094 34.605468-30.554688 2.292969-.574219 4.714844.058594 6.414063 1.695313 13.003906 12.515625 14.964843 32.59375 14.945312 43.6875 13.574219 1.203125 23.800781 11.113281 24.3125 11.617187 1.746094 1.722657 2.433594 4.242188 1.808594 6.613281-4.300781 16.214844-18.765625 22.769532-27.378906 25.28125.019531 8.011719-3.046875 12.976563-3.480469 13.636719-1.261719 1.925781-3.414062 3.082031-5.710938 3.082031zm-29.21875-30.367187c.585938 0 1.175782.074219 1.746094.226563 1.753906.464843 3.246094 1.605468 4.15625 3.167968.257813.425782 6.230469 10.148438 18.691406 12.726563.234376-1.648438.273438-3.8125-.273437-6.417969-.386719-1.871094.027344-3.816406 1.140625-5.371094 1.113281-1.550781 2.824219-2.5625 4.71875-2.796875.148438-.019531 15.113281-2.09375 20.855469-12.738281-3.820313-2.683594-10.394531-6.1875-17.152344-4.8125-2.148437.464844-4.375-.164062-5.988281-1.644531-1.621094-1.480469-2.433594-3.648438-2.179688-5.824219.027344-.253906 2.546875-23.574219-7.8125-37.238281-13.109375 5.671875-22.527344 22.085937-25.234375 28.472656-.859375 2.019531-2.632812 3.507813-4.773437 3.992187-2.132813.480469-4.378906-.085937-6.027344-1.535156-5.152344-4.542968-12.613281-4.738281-17.285156-4.308594-.285156 12.085938 11.699218 21.300782 11.835937 21.402344 1.519531 1.148438 2.5 2.882813 2.683594 4.769532.195313 1.890624-.398437 3.785156-1.660156 5.207031-1.757813 2-2.792969 3.894531-3.40625 5.449219 12.339843 4.003906 22.421875-1.734376 22.539062-1.800782 1.046875-.613281 2.234375-.925781 3.425781-.925781zm0 0" fill="#4c241d"/><path d="m287.730469 206.226562s-.335938-17.34375-12.5-25.113281c0 0 23.648437-19.148437 22.949219-41.292969-19.167969-11.101562-47.234376.65625-47.234376.65625-1.082031-14.390624-16.199218-22.90625-16.199218-22.90625-16.621094 9.933594-12.972656 32.820313-12.972656 32.820313-9.59375.722656-14.03125 5.882813-14.03125 5.882813 6.242187 18.828124 23.945312 23.289062 23.945312 23.289062s-4.457031 17.703125 9.171875 32.121094c0 0 6.644531-1.464844 11.824219-9.574219 0 0 18.425781 14.050781 35.046875 4.117187zm0 0" fill="#a9ba5a"/><path d="m240.855469 218.507812c-1.855469 0-3.660157-.753906-4.960938-2.136718-10.90625-11.535156-12.078125-24.796875-11.652343-32.359375-6.867188-3.207031-17.984376-10.523438-22.980469-25.59375-.753907-2.273438-.257813-4.777344 1.300781-6.59375.515625-.597657 4.398438-4.882813 12.046875-7.070313.039063-8.917968 2.347656-24.503906 16.632813-33.042968 2.09375-1.253907 4.714843-1.292969 6.847656-.089844.625.351562 12.875 7.382812 17.753906 19.992187 10.605469-3.058593 30.265625-6.671875 45.753906 2.300781 2.039063 1.183594 3.324219 3.335938 3.398438 5.691407.566406 17.894531-11.925782 33.507812-19.632813 41.386719 8.785157 10.273437 9.179688 24.394531 9.195313 25.105468.042968 2.449219-1.222656 4.734375-3.328125 5.992188-14.257813 8.539062-29.085938 3.191406-36.980469-1-5.539062 5.695312-11.160156 7.09375-11.925781 7.261718-.488281.105469-.984375.15625-1.46875.15625zm-24.699219-59.828124c5.871094 11.113281 16.734375 14.132812 17.246094 14.273437 3.605468.964844 5.820312 4.660156 4.90625 8.273437-.113282.480469-2.59375 11.476563 4.414062 21.90625 1.292969-1.003906 2.800782-2.5 4.207032-4.699218 1.027343-1.609375 2.679687-2.714844 4.558593-3.046875 1.914063-.324219 3.8125.136719 5.335938 1.296875.109375.082031 12.164062 8.964844 23.546875 5.410156-.863282-4.550781-3.089844-11.570312-8.816406-15.226562-1.84375-1.179688-3.011719-3.179688-3.136719-5.367188-.128907-2.1875.8125-4.300781 2.503906-5.6875.199219-.160156 18.101563-14.941406 20.234375-31.785156-13.199219-5.027344-31.234375.089844-37.574219 2.746094-2.019531.84375-4.339843.675781-6.207031-.476563-1.875-1.140625-3.074219-3.117187-3.238281-5.308594-.507813-6.769531-5.652344-12.066406-9.246094-14.980469-8.621094 8.410157-6.402344 23.144532-6.375 23.308594.300781 1.882813-.199219 3.808594-1.386719 5.308594-1.179687 1.496094-2.9375 2.429688-4.839844 2.574219-2.601562.195312-4.628906.808593-6.132812 1.480469zm0 0" fill="#4c241d"/><path d="m201.4375 199.214844c-2.523438 0-4.941406-1.394532-6.128906-3.804688-1.671875-3.378906-.285156-7.472656 3.09375-9.140625l24.078125-11.898437c3.402343-1.671875 7.488281-.285156 9.148437 3.09375 1.671875 3.382812.285156 7.476562-3.09375 9.144531l-24.078125 11.898437c-.972656.480469-2.007812.707032-3.019531.707032zm0 0" fill="#4c241d"/><path d="m95.019531 178.921875s.339844-17.347656 12.503907-25.117187c0 0-23.652344-19.148438-22.953126-41.289063 19.167969-11.105469 47.234376.65625 47.234376.65625 1.082031-14.394531 16.199218-22.90625 16.199218-22.90625 16.625 9.933594 12.972656 32.820313 12.972656 32.820313 9.597657.722656 14.03125 5.878906 14.03125 5.878906-6.242187 18.832031-23.945312 23.289062-23.945312 23.289062s4.460938 17.707032-9.171875 32.121094c0 0-6.644531-1.464844-11.824219-9.574219.003906 0-18.425781 14.054688-35.046875 4.121094zm0 0" fill="#a9ba5a"/><path d="m141.894531 191.203125c-.484375 0-.976562-.054687-1.464843-.160156-.765626-.167969-6.386719-1.566407-11.925782-7.261719-7.886718 4.183594-22.699218 9.535156-36.980468 1-2.105469-1.253906-3.375-3.542969-3.324219-5.988281.011719-.714844.402343-14.835938 9.191406-25.109375-7.707031-7.878906-20.199219-23.492188-19.632813-41.386719.074219-2.355469 1.359376-4.507813 3.398438-5.6875 15.488281-8.984375 35.148438-5.363281 45.753906-2.304687 4.878906-12.609376 17.128906-19.640626 17.753906-19.992188 2.132813-1.199219 4.753907-1.164062 6.847657.089844 14.285156 8.539062 16.59375 24.125 16.632812 33.042968 7.644531 2.1875 11.535157 6.476563 12.046875 7.070313 1.558594 1.816406 2.054688 4.320313 1.300782 6.59375-4.992188 15.070313-16.113282 22.386719-22.980469 25.59375.425781 7.5625-.746094 20.824219-11.652344 32.359375-1.304687 1.382812-3.109375 2.140625-4.964844 2.140625zm-11.824219-23.21875c.398438 0 .804688.035156 1.203126.105469 1.867187.339844 3.527343 1.433594 4.546874 3.035156 1.402344 2.195312 2.90625 3.6875 4.207032 4.695312 7.007812-10.429687 4.527344-21.425781 4.402344-21.941406-.859376-3.636718 1.34375-7.332031 4.964843-8.246094.472657-.125 11.335938-3.148437 17.199219-14.265624-1.5-.664063-3.523438-1.277344-6.132812-1.476563-1.898438-.140625-3.660157-1.074219-4.839844-2.574219-1.1875-1.5-1.6875-3.421875-1.386719-5.308594.019531-.140624 2.132813-14.929687-6.386719-23.300781-3.589844 2.910157-8.726562 8.199219-9.230468 14.976563-.160157 2.183594-1.375 4.15625-3.242188 5.300781s-4.171875 1.324219-6.191406.488281c-.226563-.097656-21.765625-8.859375-37.585938-2.765625 2.125 16.855469 20.03125 31.640625 20.230469 31.796875 1.695313 1.386719 2.636719 3.503906 2.507813 5.691406-.125 2.183594-1.292969 4.183594-3.140626 5.363282-5.726562 3.65625-7.953124 10.675781-8.8125 15.226562 11.394532 3.527344 23.433594-5.324218 23.566407-5.425781 1.191406-.898437 2.648437-1.375 4.121093-1.375zm0 0" fill="#4c241d"/><path d="m181.316406 171.90625c-1.015625 0-2.046875-.226562-3.023437-.703125l-24.078125-11.898437c-3.378906-1.671876-4.765625-5.765626-3.09375-9.144532 1.660156-3.375 5.761718-4.765625 9.148437-3.09375l24.078125 11.898438c3.378906 1.667968 4.765625 5.761718 3.09375 9.140625-1.1875 2.410156-3.605468 3.800781-6.125 3.800781zm0 0" fill="#4c241d"/><path d="m101.425781 225.507812s-3.6875 16.953126 6.347657 27.328126c0 0-27.441407 13.152343-31.890626 34.851562 16.074219 15.242188 46.101563 10.300781 46.101563 10.300781-2.277344 14.253907 10.453125 26.035157 10.453125 26.035157 18.472656-5.8125 20.21875-28.921876 20.21875-28.921876 9.503906 1.519532 15.015625-2.46875 15.015625-2.46875-1.710937-19.765624-17.902344-28.203124-17.902344-28.203124s8.4375-16.191407-1.480469-33.371094c0 0-6.804687-.113282-13.722656 6.578125 0-.003907-14.667968-17.945313-33.140625-12.128907zm0 0" fill="#a9ba5a"/><g fill="#4c241d"><path d="m132.4375 330.851562c-1.695312 0-3.355469-.628906-4.636719-1.816406-.527343-.480468-10.804687-10.160156-12.636719-23.554687-11.015624.53125-30.988281-.519531-43.980468-12.835938-1.707032-1.625-2.460938-4.015625-1.988282-6.324219 3.59375-17.539062 19.367188-29.832031 28.691407-35.714843-6.171875-12.03125-3.285157-25.847657-3.140625-26.546875.523437-2.394532 2.289062-4.328125 4.621094-5.058594 15.914062-5.019531 29.058593 3.636719 35.753906 9.535156 6.699218-4.246094 12.371094-4.316406 13.277344-4.300781 2.402343.039063 4.601562 1.335937 5.800781 3.410156 7.9375 13.753907 6.011719 26.921875 3.839843 34.179688 5.933594 4.707031 15.058594 14.402343 16.425782 30.222656.207031 2.382813-.851563 4.710937-2.792969 6.113281-.632813.460938-5.414063 3.726563-13.351563 4.082032-2.105468 8.671874-7.960937 23.300781-23.839843 28.296874-.671875.210938-1.359375.3125-2.042969.3125zm-10.460938-39.6875c1.792969 0 3.53125.710938 4.824219 1.996094 1.546875 1.550782 2.269531 3.746094 1.921875 5.910156-1.074218 6.707032 2.691406 13.039063 5.511719 16.707032 10.234375-6.171875 11.601563-21.050782 11.613281-21.214844.160156-1.894531 1.101563-3.652344 2.59375-4.820312 1.5-1.171876 3.429688-1.683594 5.296875-1.382813 2.570313.417969 4.683594.28125 6.304688-.023437-3.1875-12.375-13.3125-17.796876-13.425781-17.855469-1.605469-.835938-2.8125-2.277344-3.359376-4.003907-.542968-1.726562-.382812-3.601562.460938-5.207031.21875-.4375 5.179688-10.558593.777344-22.328125-1.492188.675782-3.308594 1.785156-5.179688 3.597656-1.375 1.324219-3.257812 1.972657-5.148437 1.910157-1.898438-.113281-3.671875-1.019531-4.882813-2.496094-.09375-.109375-9.792968-11.601563-21.660156-10.722656-.214844 4.628906.332031 11.972656 5.050781 16.855469 1.53125 1.578124 2.195313 3.785156 1.808594 5.941406-.378906 2.15625-1.78125 4.003906-3.753906 4.953125-.226563.109375-21.078125 10.347656-27.046875 26.25 13.996094 9.613281 36.953125 6.0625 37.203125 6.019531.363281-.054688.722656-.085938 1.089843-.085938zm0 0"/><path d="m150.410156 269.242188c-2.96875 0-5.703125-1.957032-6.5625-4.953126-1.03125-3.625 1.066406-7.402343 4.695313-8.4375l47.785156-13.65625c3.59375-1.035156 7.398437 1.0625 8.441406 4.6875 1.03125 3.628907-1.070312 7.40625-4.695312 8.441407l-47.785157 13.652343c-.628906.179688-1.253906.265626-1.878906.265626zm0 0"/></g></svg>