<svg height="397pt" viewBox="-18 0 397 397.65919" width="397pt" xmlns="http://www.w3.org/2000/svg"><path d="m307.53125 167.863281c0 84.832031-68.769531 153.601563-153.601562 153.601563-84.832032 0-153.601563-68.769532-153.601563-153.601563 0-84.828125 68.769531-153.597656 153.601563-153.597656 84.832031 0 153.601562 68.769531 153.601562 153.597656zm0 0" fill="#efefd2"/><path d="m232.777344 250.570312c-.894532 0-1.796875-.171874-2.664063-.539062-3.472656-1.464844-5.089843-5.472656-3.625-8.945312l70.371094-166.246094c1.476563-3.480469 5.507813-5.085938 8.949219-3.625 3.472656 1.464844 5.089844 5.472656 3.625 8.945312l-70.371094 166.246094c-1.101562 2.605469-3.632812 4.164062-6.285156 4.164062zm0 0" fill="#4c241d"/><path d="m327.417969 47.414062c-4.574219 10.800782-20.9375 37.261719-26.335938 34.976563-5.402343-2.285156 2.203125-32.453125 6.777344-43.257813 4.570313-10.800781 12.65625-17.703124 18.058594-15.417968 5.398437 2.285156 6.070312 12.898437 1.5 23.699218zm0 0" fill="#a9ba5a"/><path d="m301.816406 89.386719c-1.121094 0-2.253906-.226563-3.394531-.707031-7.707031-3.261719-6.664063-14.441407-4.390625-26.035157 1.792969-9.152343 4.890625-19.917969 7.539062-26.171875 6.339844-14.980468 17.707032-22.96875 27.007813-19.039062 3.210937 1.351562 5.691406 3.992187 7.15625 7.621094 2.628906 6.457031 1.867187 15.820312-2.03125 25.019531-2.648437 6.25-8.210937 15.972656-13.539063 23.632812-5.742187 8.265625-11.886718 15.679688-18.347656 15.679688zm21.328125-59.121094c-1.855469.773437-5.960937 4.347656-9 11.527344-2.980469 7.03125-6.011719 18.738281-7.386719 27.191406 5.105469-6.871094 11.394532-17.199219 14.375-24.230469 3.035157-7.183594 2.75-12.613281 2.011719-14.488281zm0 0" fill="#4c241d"/><path d="m339.355469 98.59375c-10.871094 4.40625-41.152344 11.546875-43.355469 6.109375-2.199219-5.4375 24.511719-21.386719 35.382812-25.792969 10.871094-4.40625 21.46875-3.570312 23.671876 1.867188 2.203124 5.433594-4.824219 13.410156-15.699219 17.816406zm0 0" fill="#a9ba5a"/><path d="m302.636719 113.511719c-6.160157 0-11.054688-1.527344-12.960938-6.246094-3.148437-7.746094 5.492188-14.917969 15.300781-21.511719 7.746094-5.207031 17.554688-10.621094 23.847657-13.167968 15.050781-6.097657 28.753906-3.738282 32.558593 5.628906 2.054688 5.078125.539063 11.046875-4.152343 16.371094-3.65625 4.148437-9.09375 7.820312-15.316407 10.335937-6.285156 2.554687-17.09375 5.488281-26.277343 7.140625-4.554688.816406-9.039063 1.449219-13 1.449219zm42.058593-30.605469c-2.664062 0-6.378906.558594-10.746093 2.332031-7.085938 2.867188-17.507813 8.996094-24.460938 14 8.472657-1.246093 20.226563-4.097656 27.300781-6.972656h.007813c7.226563-2.925781 10.863281-6.972656 11.664063-8.820313-.730469-.300781-2.023438-.539062-3.765626-.539062zm0 0" fill="#4c241d"/><path d="m262.800781 66.1875c4.40625 10.871094 20.359375 37.582031 25.792969 35.382812 5.4375-2.203124-1.703125-32.484374-6.109375-43.355468s-12.382813-17.898438-17.816406-15.699219c-5.4375 2.203125-6.273438 12.800781-1.867188 23.671875zm0 0" fill="#a9ba5a"/><path d="m287.882812 108.550781c-6.5 0-12.582031-7.554687-18.234374-15.960937-5.207032-7.746094-10.621094-17.546875-13.171876-23.839844-2.523437-6.21875-3.675781-12.679688-3.242187-18.1875.5625-7.078125 3.796875-12.320312 8.875-14.371094 3.238281-1.320312 6.851563-1.214844 10.453125.324219 6.425781 2.714844 12.5 9.867187 16.246094 19.132813 2.554687 6.289062 5.488281 17.101562 7.140625 26.28125 2.09375 11.625 2.960937 22.820312-4.792969 25.960937-1.097656.449219-2.195312.660156-3.273438.660156zm1.566407-13.378906h.066406zm-22.113281-46.066406c-.765626 1.859375-1.140626 7.285156 1.792968 14.511719 2.867188 7.082031 8.996094 17.496093 13.992188 24.449218-1.246094-8.476562-4.097656-20.214844-6.964844-27.289062-2.925781-7.230469-6.972656-10.871094-8.820312-11.671875zm0 0" fill="#4c241d"/><path d="m320.730469 142.601562c-10.871094 4.40625-41.152344 11.546876-43.355469 6.109376-2.203125-5.433594 24.507812-21.386719 35.378906-25.792969s21.472656-3.566407 23.671875 1.867187c2.203125 5.433594-4.824219 13.410156-15.695312 17.816406zm0 0" fill="#a9ba5a"/><path d="m284.011719 157.519531c-6.160157 0-11.054688-1.527343-12.960938-6.246093-3.148437-7.746094 5.492188-14.921876 15.300781-21.511719 7.746094-5.207031 17.550782-10.621094 23.84375-13.167969 6.207032-2.519531 12.667969-3.695312 18.179688-3.238281 7.082031.558593 12.320312 3.792969 14.375 8.871093 1.3125 3.226563 1.199219 6.847657-.324219 10.453126-2.714843 6.429687-9.867187 12.5-19.136719 16.25-6.292968 2.550781-17.097656 5.484374-26.277343 7.140624-4.554688.816407-9.042969 1.449219-13 1.449219zm42.050781-30.609375c-2.660156 0-6.371094.5625-10.738281 2.335938-7.078125 2.867187-17.507813 8.992187-24.460938 14 8.472657-1.253906 20.226563-4.109375 27.300781-6.976563h.007813c7.226563-2.925781 10.863281-6.972656 11.664063-8.816406-.730469-.300781-2.027344-.542969-3.773438-.542969zm0 0" fill="#4c241d"/><path d="m244.175781 110.195312c4.402344 10.871094 20.359375 37.582032 25.792969 35.378907s-1.707031-32.484375-6.109375-43.355469c-4.40625-10.871094-12.382813-17.898438-17.820313-15.695312-5.433593 2.203124-6.269531 12.800781-1.863281 23.671874zm0 0" fill="#a9ba5a"/><path d="m269.25 152.558594c-6.5 0-12.582031-7.554688-18.234375-15.960938-5.207031-7.746094-10.621094-17.554687-13.167969-23.847656-2.519531-6.222656-3.671875-12.671875-3.238281-18.179688.558594-7.078124 3.792969-12.320312 8.871094-14.375 3.242187-1.3125 6.847656-1.203124 10.453125.328126 6.429687 2.714843 12.5 9.867187 16.25 19.132812 2.550781 6.289062 5.484375 17.101562 7.140625 26.28125 2.09375 11.625 2.957031 22.816406-4.796875 25.957031-1.097656.449219-2.191406.664063-3.277344.664063zm1.566406-13.386719h.066406zm-22.105468-46.058594c-.769532 1.859375-1.140626 7.285157 1.792968 14.511719v.007812c2.867188 7.078126 8.992188 17.5 14 24.453126-1.253906-8.476563-4.105468-20.230469-6.972656-27.300782-2.929688-7.234375-6.976562-10.875-8.820312-11.671875zm0 0" fill="#4c241d"/><path d="m302.101562 186.609375c-10.871093 4.402344-41.152343 11.542969-43.355468 6.109375-2.203125-5.4375 24.507812-21.390625 35.382812-25.792969 10.871094-4.40625 21.46875-3.570312 23.667969 1.863281 2.203125 5.433594-4.824219 13.414063-15.695313 17.820313zm0 0" fill="#a9ba5a"/><path d="m266.523438 201.410156c-6.765626 0-12.261719-1.585937-14.105469-6.125-6.0625-14.988281 38.691406-34.5 39.152343-34.6875 6.207032-2.519531 12.652344-3.6875 18.179688-3.238281 7.078125.558594 12.320312 3.792969 14.371094 8.871094 1.316406 3.230469 1.199218 6.847656-.324219 10.453125-2.714844 6.429687-9.867187 12.5-19.132813 16.25-.441406.179687-22.640624 8.476562-38.140624 8.476562zm40.914062-30.492187c-2.664062 0-6.375.558593-10.742188 2.332031-7.078124 2.867188-17.507812 8.996094-24.460937 14 8.476563-1.25 20.230469-4.105469 27.300781-6.972656h.007813c7.226562-2.925782 10.867187-6.972656 11.667969-8.820313-.734376-.296875-2.027344-.539062-3.773438-.539062zm0 0" fill="#4c241d"/><path d="m225.546875 154.203125c4.40625 10.871094 20.359375 37.582031 25.792969 35.378906s-1.707032-32.484375-6.109375-43.355469c-4.40625-10.871093-12.382813-17.898437-17.820313-15.695312-5.433594 2.199219-6.269531 12.796875-1.863281 23.671875zm0 0" fill="#a9ba5a"/><path d="m250.628906 196.566406c-6.503906 0-12.585937-7.554687-18.242187-15.960937-5.207031-7.746094-10.617188-17.546875-13.171875-23.839844v-.007813c-2.519532-6.21875-3.667969-12.671874-3.234375-18.179687.558593-7.078125 3.789062-12.320313 8.867187-14.371094 5.085938-2.074219 11.046875-.546875 16.367188 4.144531 4.144531 3.648438 7.820312 9.085938 10.339844 15.308594 2.554687 6.292969 5.488281 17.105469 7.140624 26.285156 2.09375 11.625 2.960938 22.820313-4.792968 25.960938-1.097656.445312-2.191406.660156-3.273438.660156zm-18.757812-44.929687c2.871094 7.082031 8.996094 17.5 14.003906 24.449219-1.25-8.476563-4.105469-20.222657-6.972656-27.292969-2.933594-7.234375-6.980469-10.875-8.820313-11.675781-.765625 1.859374-1.140625 7.292968 1.789063 14.519531zm0 0" fill="#4c241d"/><path d="m283.472656 230.613281c-10.871094 4.40625-41.152344 11.546875-43.355468 6.109375-2.199219-5.433594 24.511718-21.386718 35.382812-25.792968 10.871094-4.402344 21.46875-3.566407 23.671875 1.867187s-4.828125 13.414063-15.699219 17.816406zm0 0" fill="#a9ba5a"/><path d="m247.898438 245.417969c-6.769532 0-12.261719-1.585938-14.109376-6.125-6.058593-14.980469 38.6875-34.5 39.148438-34.6875 6.226562-2.519531 12.738281-3.664063 18.1875-3.238281 7.078125.558593 12.320312 3.792968 14.371094 8.871093 2.0625 5.070313.546875 11.035157-4.144532 16.367188-3.65625 4.140625-9.089843 7.816406-15.308593 10.335937-.320313.125-22.601563 8.476563-38.144531 8.476563zm40.910156-30.492188c-2.664063 0-6.378906.558594-10.746094 2.332031-7.078125 2.867188-17.5 8.992188-24.453125 14 8.472656-1.253906 20.21875-4.105468 27.300781-6.972656 7.226563-2.929687 10.863282-6.972656 11.671875-8.820312-.738281-.300782-2.03125-.539063-3.773437-.539063zm-5.332032 15.6875h.066407zm0 0" fill="#4c241d"/><path d="m206.917969 198.207031c4.40625 10.871094 20.359375 37.582031 25.792969 35.382813 5.433593-2.203125-1.703126-32.484375-6.109376-43.355469-4.40625-10.875-12.382812-17.898437-17.816406-15.699219-5.4375 2.203125-6.273437 12.800782-1.867187 23.671875zm0 0" fill="#a9ba5a"/><path d="m231.988281 240.574219c-6.492187 0-12.570312-7.554688-18.226562-15.960938-5.207031-7.75-10.621094-17.546875-13.171875-23.84375v-.003906c-2.523438-6.222656-3.667969-12.675781-3.234375-18.179687.558593-7.082032 3.785156-12.320313 8.863281-14.375 5.082031-2.074219 11.042969-.546876 16.367188 4.148437 4.148437 3.644531 7.820312 9.085937 10.34375 15.304687 2.550781 6.296876 5.484374 17.109376 7.140624 26.289063 2.09375 11.632813 2.957032 22.824219-4.800781 25.957031-1.105469.457032-2.191406.664063-3.28125.664063zm-18.746093-44.929688c2.875 7.082031 9 17.5 14 24.449219-1.246094-8.46875-4.097657-20.222656-6.964844-27.292969-2.933594-7.234375-6.980469-10.875-8.820313-11.675781-.765625 1.859375-1.140625 7.292969 1.785157 14.519531zm0 0" fill="#4c241d"/><path d="m182.773438 29.519531c1.804687 11.589844 11.226562 41.242188 17.019531 40.339844 5.796875-.902344 5.769531-32.011719 3.964843-43.601563-1.800781-11.589843-7.960937-20.257812-13.753906-19.355468-5.792968.902344-9.03125 11.027344-7.230468 22.617187zm0 0" fill="#a9ba5a"/><path d="m199.65625 76.699219c-15.175781 0-23.511719-45.425781-23.628906-46.128907v-.003906c-2.5-16.0625 2.929687-28.847656 12.921875-30.414062 9.953125-1.558594 19.050781 8.980468 21.558593 25.054687 1.039063 6.714844 1.429688 17.90625.933594 27.21875-.617187 11.800781-2.332031 22.894531-10.597656 24.179688-.402344.058593-.800781.09375-1.1875.09375zm2.425781-12.875h.066407zm-10.988281-49.898438c-1.171875 1.640625-2.769531 6.839844-1.570312 14.539063v.007812c1.171874 7.546875 4.75 19.09375 8.03125 27 .726562-8.535156.632812-20.621094-.539063-28.167968-1.199219-7.699219-4.304687-12.164063-5.921875-13.378907zm0 0" fill="#4c241d"/><path d="m158.722656 76.246094c9.46875 6.921875 37.097656 21.226562 40.558594 16.492187s-18.558594-26.714843-28.027344-33.636719c-9.46875-6.921874-19.953125-8.695312-23.414062-3.960937-3.460938 4.734375 1.410156 14.183594 10.882812 21.105469zm0 0" fill="#a9ba5a"/><path d="m196.53125 100.246094c-15.066406.007812-41.425781-18.195313-41.835938-18.488282-5.417968-3.957031-9.800781-8.847656-12.332031-13.753906-3.253906-6.3125-3.269531-12.472656-.035156-16.898437 5.964844-8.160157 19.832031-7.101563 32.953125 2.480469.398438.292968 39.039062 30.144531 29.515625 43.179687-1.8125 2.480469-4.726563 3.480469-8.265625 3.480469zm-42.949219-40.90625c.328125 1.976562 2.867188 6.789062 9.167969 11.390625 6.164062 4.507812 16.859375 10.140625 24.773438 13.414062-5.519532-6.546875-14.132813-15.027343-20.292969-19.53125-6.300781-4.601562-11.675781-5.582031-13.648438-5.273437zm0 0" fill="#4c241d"/><path d="m240.867188 63.476562c-6.921876 9.46875-28.902344 31.488282-33.640626 28.027344-4.734374-3.460937 9.570313-31.089844 16.492188-40.5625 6.921875-9.46875 16.371094-14.339844 21.105469-10.878906s2.964843 13.941406-3.957031 23.414062zm0 0" fill="#a9ba5a"/><path d="m208.394531 98.710938c-1.839843 0-3.585937-.519532-5.191406-1.691407-13.039063-9.539062 14.710937-49.707031 15-50.097656 9.597656-13.128906 22.5-18.339844 30.644531-12.375 4.429688 3.238281 6.289063 9.105469 5.101563 16.109375-.921875 5.445312-3.613281 11.429688-7.578125 16.851562-4.003906 5.480469-11.640625 13.667969-18.574219 19.90625-6.6875 6.019532-13.535156 11.296876-19.402344 11.296876zm32.234375-52.910157c-1.984375.332031-6.796875 2.878907-11.398437 9.171875-4.507813 6.164063-10.140625 16.867188-13.414063 24.78125 6.546875-5.527344 15.027344-14.140625 19.53125-20.304687 0 0 0 0 .007813-.007813 4.601562-6.296875 5.566406-11.648437 5.273437-13.640625zm0 0" fill="#4c241d"/><path d="m166.0625 123.464844c9.46875 6.921875 37.097656 21.226562 40.558594 16.492187 3.464844-4.734375-18.554688-26.714843-28.027344-33.636719-9.46875-6.921874-19.953125-8.695312-23.414062-3.960937-3.457032 4.738281 1.414062 14.1875 10.882812 21.105469zm0 0" fill="#a9ba5a"/><path d="m203.949219 147.710938c-5.183594 0-11.652344-2.464844-18.167969-5.40625-8.496094-3.839844-18.265625-9.320313-23.746094-13.324219-13.125-9.59375-18.324218-22.480469-12.367187-30.648438 5.96875-8.160156 19.828125-7.113281 32.957031 2.472657.398438.292968 39.039062 30.148437 29.511719 43.179687-1.953125 2.671875-4.800781 3.726563-8.1875 3.726563zm-43.027344-41.152344c.328125 1.980468 2.867187 6.792968 9.167969 11.394531 6.167968 4.507813 16.859375 10.136719 24.773437 13.410156-5.519531-6.546875-14.132812-15.027343-20.292969-19.53125-6.300781-4.601562-11.667968-5.566406-13.648437-5.273437zm0 0" fill="#4c241d"/><path d="m248.207031 110.695312c-6.921875 9.46875-28.902343 31.484376-33.636719 28.027344-4.734374-3.460937 9.566407-31.089844 16.492188-40.5625 6.917969-9.46875 16.367188-14.339844 21.105469-10.878906 4.734375 3.460938 2.960937 13.941406-3.960938 23.414062zm0 0" fill="#a9ba5a"/><path d="m215.832031 145.914062c-2.421875 0-4.179687-.875-5.296875-1.6875-6.746094-4.933593-3.179687-15.574218 1.6875-26.339843 3.839844-8.507813 9.320313-18.273438 13.328125-23.753907 9.59375-13.132812 22.472657-18.328124 30.644531-12.367187 8.160157 5.964844 7.121094 19.824219-2.472656 32.953125-4.273437 5.847656-24.945312 29.3125-36.21875 31.058594-.589844.09375-1.148437.136718-1.671875.136718zm32.136719-52.894531c-1.976562.332031-6.789062 2.875-11.390625 9.167969-4.515625 6.164062-10.148437 16.871094-13.421875 24.785156 6.546875-5.527344 15.035156-14.140625 19.539062-20.308594 4.601563-6.292968 5.570313-11.652343 5.273438-13.644531zm0 0" fill="#4c241d"/><path d="m205.628906 254.003906c-3.664062 0-6.691406-2.910156-6.8125-6.597656l-5.839844-177.320312c-.125-3.773438 2.824219-6.925782 6.59375-7.046876 3.691407-.378906 6.925782 2.828126 7.046876 6.59375l5.839843 177.320313c.125 3.773437-2.828125 6.925781-6.59375 7.046875-.078125.003906-.152343.003906-.234375.003906zm0 0" fill="#4c241d"/><path d="m204.789062 305.183594c-2.652343 0-5.1875-1.558594-6.285156-4.164063l-70.375-166.246093c-1.464844-3.472657.15625-7.480469 3.628906-8.945313 3.4375-1.460937 7.472657.136719 8.945313 3.625l70.371094 166.246094c1.46875 3.472656-.152344 7.480469-3.625 8.945312-.867188.367188-1.765625.539063-2.660157.539063zm0 0" fill="#4c241d"/><path d="m110.148438 102.027344c4.570312 10.800781 20.9375 37.261718 26.335937 34.976562 5.402344-2.285156-2.207031-32.453125-6.777344-43.257812-4.574219-10.800782-12.65625-17.703125-18.058593-15.417969-5.398438 2.285156-6.070313 12.898437-1.5 23.699219zm0 0" fill="#ffec95"/><path d="m135.75 144c-6.460938 0-12.605469-7.414062-18.347656-15.683594-5.324219-7.65625-10.890625-17.378906-13.539063-23.632812-3.898437-9.199219-4.660156-18.558594-2.03125-25.019532 1.464844-3.625 3.945313-6.265624 7.164063-7.621093 9.28125-3.953125 20.65625 4.066406 27 19.039062 2.648437 6.253907 5.746094 17.023438 7.539062 26.175781 2.273438 11.59375 3.3125 22.773438-4.390625 26.03125-1.140625.488282-2.273437.710938-3.394531.710938zm1.488281-13.402344h.066407zm-22.816406-45.71875c-.738281 1.875-1.027344 7.304688 2.015625 14.484375 2.980469 7.035157 9.265625 17.363281 14.375 24.234375-1.375-8.453125-4.40625-20.160156-7.386719-27.195312-3.042969-7.175782-7.148437-10.75-9.003906-11.523438zm0 0" fill="#4c241d"/><path d="m98.207031 153.207031c10.875 4.40625 41.15625 11.546875 43.359375 6.109375s-24.511718-21.386718-35.382812-25.792968-21.46875-3.570313-23.671875 1.867187c-2.203125 5.433594 4.824219 13.410156 15.695312 17.816406zm0 0" fill="#ffec95"/><path d="m134.9375 168.125c-3.96875 0-8.453125-.632812-13.007812-1.453125-9.1875-1.652344-19.992188-4.585937-26.28125-7.140625-6.21875-2.515625-11.65625-6.1875-15.3125-10.332031-4.691407-5.328125-6.207032-11.292969-4.152344-16.367188 3.800781-9.382812 17.5-11.742187 32.566406-5.636719 6.285156 2.546876 16.09375 7.960938 23.839844 13.167969 9.804687 6.59375 18.445312 13.765625 15.300781 21.519531-1.90625 4.714844-6.800781 6.242188-12.953125 6.242188zm-45.832031-30.066406c.796875 1.847656 4.4375 5.894531 11.664062 8.820312h.007813c7.074218 2.875 18.824218 5.726563 27.300781 6.972656-6.953125-5.007812-17.375-11.132812-24.453125-14-7.230469-2.933593-12.660156-2.546874-14.519531-1.792968zm0 0" fill="#4c241d"/><path d="m174.765625 120.800781c-4.40625 10.871094-20.359375 37.582031-25.792969 35.382813-5.4375-2.203125 1.703125-32.484375 6.109375-43.355469s12.382813-17.898437 17.816407-15.699219c5.4375 2.203125 6.269531 12.800782 1.867187 23.671875zm0 0" fill="#ffec95"/><path d="m149.683594 163.15625c-1.082032 0-2.171875-.203125-3.28125-.652344-7.746094-3.140625-6.878906-14.332031-4.785156-25.960937 1.652343-9.179688 4.585937-19.992188 7.140624-26.285157 3.746094-9.261718 9.820313-16.414062 16.246094-19.125 3.605469-1.527343 7.226563-1.632812 10.460938-.328124 5.074218 2.054687 8.304687 7.292968 8.867187 14.375.433594 5.507812-.722656 11.964843-3.242187 18.1875-2.550782 6.292968-7.964844 16.09375-13.171875 23.839843-5.65625 8.40625-11.730469 15.949219-18.234375 15.949219zm20.546875-59.4375c-1.847657.800781-5.894531 4.441406-8.820313 11.667969-2.867187 7.078125-5.722656 18.816406-6.96875 27.292969 5.003906-6.953126 11.128906-17.367188 13.996094-24.449219 2.933594-7.226563 2.558594-12.652344 1.792969-14.511719zm0 0" fill="#4c241d"/><path d="m116.835938 197.214844c10.871093 4.40625 41.152343 11.546875 43.355468 6.109375 2.203125-5.433594-24.507812-21.386719-35.378906-25.792969s-21.46875-3.566406-23.671875 1.867188c-2.203125 5.433593 4.824219 13.410156 15.695313 17.816406zm0 0" fill="#ffec95"/><path d="m153.5625 212.132812c-3.964844 0-8.453125-.632812-13.007812-1.453124-9.179688-1.65625-19.984376-4.589844-26.277344-7.140626-9.269532-3.746093-16.421875-9.820312-19.132813-16.25-1.527343-3.605468-1.640625-7.226562-.328125-10.457031 2.054688-5.074219 7.292969-8.308593 14.375-8.867187 5.5-.449219 11.964844.710937 18.1875 3.238281 6.285156 2.546875 16.09375 7.960937 23.839844 13.167969 9.804688 6.59375 18.445312 13.765625 15.300781 21.519531-1.910156 4.714844-6.800781 6.242187-12.957031 6.242187zm-45.832031-30.066406c.800781 1.847656 4.441406 5.894532 11.667969 8.820313h.003906c7.074218 2.867187 18.828125 5.71875 27.300781 6.972656-6.953125-5.007813-17.375-11.132813-24.453125-14-7.242188-2.933594-12.667969-2.546875-14.519531-1.792969zm0 0" fill="#4c241d"/><path d="m193.394531 164.808594c-4.40625 10.871094-20.359375 37.582031-25.792969 35.378906-5.4375-2.199219 1.703126-32.484375 6.109376-43.355469 4.402343-10.871093 12.378906-17.898437 17.816406-15.695312 5.433594 2.203125 6.269531 12.800781 1.867187 23.671875zm0 0" fill="#ffec95"/><path d="m168.308594 207.171875c-1.078125 0-2.171875-.214844-3.277344-.660156-7.75-3.140625-6.882812-14.332031-4.789062-25.960938 1.652343-9.179687 4.585937-19.992187 7.140624-26.285156 3.746094-9.261719 9.820313-16.414063 16.246094-19.128906 3.609375-1.527344 7.222656-1.640625 10.460938-.324219 5.074218 2.050781 8.308594 7.292969 8.867187 14.375.433594 5.503906-.71875 11.957031-3.238281 18.175781-2.546875 6.296875-7.960938 16.101563-13.167969 23.847657-5.652343 8.410156-11.734375 15.960937-18.242187 15.960937zm20.546875-59.445313c-1.84375.796876-5.890625 4.4375-8.820313 11.664063-2.867187 7.082031-5.71875 18.832031-6.972656 27.308594 5.007812-6.953125 11.132812-17.375 14-24.453125v-.007813c2.933594-7.226562 2.558594-12.652343 1.792969-14.511719zm0 0" fill="#4c241d"/><path d="m135.464844 241.222656c10.871094 4.402344 41.152344 11.542969 43.355468 6.109375 2.199219-5.4375-24.511718-21.390625-35.382812-25.792969-10.871094-4.40625-21.46875-3.570312-23.671875 1.863282-2.199219 5.433594 4.828125 13.414062 15.699219 17.820312zm0 0" fill="#ffec95"/><path d="m171.03125 256.019531c-15.5 0-37.6875-8.292969-38.128906-8.472656-9.265625-3.746094-16.417969-9.820313-19.132813-16.25-1.527343-3.605469-1.640625-7.222656-.324219-10.457031 2.050782-5.074219 7.292969-8.308594 14.371094-8.867188 5.488282-.433594 11.96875.71875 18.1875 3.238282.453125.1875 45.207032 19.699218 39.148438 34.679687-1.84375 4.542969-7.34375 6.128906-14.121094 6.128906zm-44.675781-29.945312c.800781 1.84375 4.441406 5.890625 11.667969 8.820312h.007812c7.074219 2.867188 18.824219 5.71875 27.300781 6.972657-6.953125-5.007813-17.375-11.132813-24.453125-14-7.242187-2.933594-12.667968-2.550782-14.523437-1.792969zm0 0" fill="#4c241d"/><path d="m212.019531 208.816406c-4.40625 10.871094-20.359375 37.582032-25.792969 35.378906-5.4375-2.203124 1.703126-32.484374 6.109376-43.355468s12.382812-17.898438 17.816406-15.695313c5.4375 2.199219 6.273437 12.796875 1.867187 23.671875zm0 0" fill="#ffec95"/><path d="m186.9375 251.179688c-1.082031 0-2.171875-.214844-3.28125-.660157-7.746094-3.140625-6.878906-14.332031-4.789062-25.960937 1.65625-9.179688 4.589843-19.992188 7.144531-26.285156 2.519531-6.222657 6.191406-11.660157 10.339843-15.308594 5.332032-4.699219 11.320313-6.1875 16.371094-4.144532 5.074219 2.050782 8.300782 7.289063 8.859375 14.371094.433594 5.507813-.710937 11.960938-3.234375 18.179688v.007812c-2.550781 6.292969-7.964844 16.09375-13.171875 23.839844-5.652343 8.40625-11.734375 15.960938-18.238281 15.960938zm20.546875-59.445313c-1.839844.800781-5.886719 4.4375-8.820313 11.671875-2.867187 7.074219-5.722656 18.820312-6.972656 27.292969 5.003906-6.945313 11.128906-17.367188 14.003906-24.445313 2.929688-7.230468 2.554688-12.664062 1.789063-14.519531zm4.539063 17.078125h.066406zm0 0" fill="#4c241d"/><path d="m211.957031 390.832031c-56.410156 0-102.136719-45.730469-102.136719-102.136719v-42.324218h204.269532v42.324218c0 56.40625-45.726563 102.136719-102.132813 102.136719zm0 0" fill="#fff"/><g fill="#4c241d"><path d="m211.957031 397.660156c-60.082031 0-108.960937-48.882812-108.960937-108.96875v-42.320312c0-3.773438 3.054687-6.824219 6.828125-6.824219h204.265625c3.773437 0 6.824218 3.050781 6.824218 6.824219v42.320312c.003907 60.085938-48.878906 108.96875-108.957031 108.96875zm-95.308593-144.460937v35.492187c0 52.554688 42.753906 95.3125 95.308593 95.3125 52.550781 0 95.304688-42.757812 95.304688-95.3125v-35.492187zm0 0"/><path d="m241.628906 389.28125c-1.839844 0-3.679687-.742188-5.019531-2.207031l-125.246094-136.082031c-2.554687-2.773438-2.378906-7.085938.398438-9.636719 2.761719-2.5625 7.09375-2.386719 9.640625.398437l125.246094 136.078125c2.554687 2.773438 2.382812 7.085938-.398438 9.640625-1.308594 1.210938-2.964844 1.808594-4.621094 1.808594zm0 0"/><path d="m184.949219 393.21875c-1.660157 0-3.320313-.601562-4.632813-1.8125-2.765625-2.558594-2.941406-6.878906-.378906-9.644531l129.40625-140.023438c2.558594-2.773437 6.878906-2.933593 9.644531-.378906 2.765625 2.558594 2.941407 6.878906.378907 9.644531l-129.40625 140.019532c-1.34375 1.457031-3.179688 2.195312-5.011719 2.195312zm0 0"/><path d="m131.050781 357.605469c-1.648437 0-3.292969-.585938-4.601562-1.78125-2.785157-2.546875-2.984375-6.859375-.445313-9.644531l94.480469-103.59375c2.542969-2.800782 6.863281-2.984376 9.644531-.445313 2.785156 2.539063 2.988282 6.859375.445313 9.644531l-94.476563 103.59375c-1.347656 1.480469-3.195312 2.226563-5.046875 2.226563zm0 0"/><path d="m298.949219 349.304688c-1.773438 0-3.539063-.683594-4.878907-2.050782l-93.3125-95.300781c-2.632812-2.695313-2.589843-7.011719.105469-9.652344 2.699219-2.632812 7.019531-2.582031 9.652344.105469l93.3125 95.300781c2.636719 2.691407 2.59375 7.011719-.105469 9.652344-1.328125 1.300781-3.050781 1.945313-4.773437 1.945313zm0 0"/></g></svg>