<svg height="416pt" viewBox="0 0 416.42667 416" width="416pt" xmlns="http://www.w3.org/2000/svg"><path d="m307.199219 181.074219c0 84.832031-68.769531 153.601562-153.597657 153.601562-84.832031 0-153.601562-68.769531-153.601562-153.601562s68.769531-153.601563 153.601562-153.601563c84.828126 0 153.597657 68.769532 153.597657 153.601563zm0 0" fill="#efefd2"/><path d="m337.921875 409.769531h-204.800781c-39.589844 0-71.679688-32.09375-71.679688-71.683593 0-39.585938 32.089844-71.679688 71.679688-71.679688h204.800781c39.585937 0 71.679687 32.09375 71.679687 71.679688 0 39.589843-32.09375 71.683593-71.679687 71.683593zm0 0" fill="#fff"/><path d="m337.921875 416.59375h-204.800781c-43.289063 0-78.507813-35.214844-78.507813-78.507812 0-43.289063 35.21875-78.503907 78.507813-78.503907h204.800781c43.285156 0 78.503906 35.214844 78.503906 78.503907 0 43.292968-35.21875 78.507812-78.503906 78.507812zm-204.800781-143.359375c-35.761719 0-64.855469 29.09375-64.855469 64.851563 0 35.761718 29.09375 64.855468 64.855469 64.855468h204.800781c35.757813 0 64.851563-29.09375 64.851563-64.855468 0-35.757813-29.09375-64.851563-64.851563-64.851563zm0 0" fill="#4c241d"/><path d="m381.046875 347c-3.773437 0-6.824219-3.058594-6.824219-6.828125 0-14.722656-9.921875-27.644531-24.128906-31.417969-3.648438-.964844-5.8125-4.707031-4.847656-8.347656.964844-3.644531 4.707031-5.8125 8.355468-4.84375 20.179688 5.359375 34.273438 23.703125 34.273438 44.609375 0 3.769531-3.054688 6.828125-6.828125 6.828125zm0 0" fill="#4c241d"/><path d="m289.363281 266.40625s31.945313-19.164062 7.664063-63.011719c-8.445313-15.246093-7.378906-33.964843 3.511718-47.574219l3.652344-4.566406c6.667969-8.332031 7.882813-19.785156 3.109375-29.332031-5.519531-11.035156-17.742187-17.015625-29.84375-14.59375-10.566406 2.113281-19.820312-7.335937-17.480469-17.855469l5.828126-26.238281c3.625-16.3125-5.667969-32.726563-21.519532-38.011719-6.976562-2.324218-14.296875-2.171875-20.894531.089844-12.519531 4.296875-26.332031 1.621094-35.070313-8.324219l-1.621093-1.847656c-4.890625-8.152344-15.601563-10.5625-23.511719-5.289063-6.550781 4.367188-9.144531 12.726563-6.222656 20.035157l4.246094 10.613281c4.472656 11.183594-.371094 23.929688-11.148438 29.320312-9.648438 4.820313-16.527344 13.828126-18.644531 24.40625-3.089844 15.457032 4.546875 31.070313 18.644531 38.121094l5.324219 2.660156c9.199219 4.601563 9.199219 17.726563 0 22.328126-7.371094 3.683593-12.027344 11.21875-12.027344 19.457031 0 7.644531 4.007813 14.726562 10.5625 18.660156 14.839844 8.902344 19.886719 28.089844 11.164063 43.035156-4.882813 8.367188-7.808594 18.144531-4.550782 27.921875h128.828125zm0 0" fill="#c1dbdc"/><g fill="#4c241d"><path d="m289.359375 273.234375h-128.820313c-2.9375 0-5.542968-1.878906-6.472656-4.664063-3.484375-10.457031-1.757812-21.730468 5.128906-33.527343 6.78125-11.625 2.839844-26.761719-8.785156-33.738281-8.5625-5.136719-13.875-14.527344-13.875-24.511719 0-10.898438 6.054688-20.695313 15.800782-25.566407 2.820312-1.40625 3.125-4.003906 3.125-5.054687s-.304688-3.648437-3.125-5.058594l-5.328126-2.664062c-16.804687-8.40625-25.964843-27.140625-22.28125-45.5625 2.546876-12.734375 10.667969-23.363281 22.28125-29.175781 7.546876-3.769532 10.992188-12.851563 7.859376-20.675782l-4.238282-10.617187c-4.101562-10.242188-.414062-22.121094 8.773438-28.246094 5.398437-3.59375 11.839844-4.804687 18.171875-3.367187 6.109375 1.371093 11.273437 5.003906 14.621093 10.25l1.25 1.425781c6.617188 7.527343 17.246094 9.980469 27.722657 6.371093 8.265625-2.832031 17-2.867187 25.277343-.109374 19.234376 6.410156 30.425782 26.175781 26.027344 45.96875l-5.832031 26.238281c-.605469 2.722656.164063 5.425781 2.113281 7.414062 1.953125 1.992188 4.644532 2.832031 7.359375 2.269531 15.097657-3.003906 30.417969 4.480469 37.292969 18.234376 5.9375 11.886718 4.417969 26.273437-3.878906 36.652343l-3.65625 4.566407c-8.984375 11.226562-10.113282 26.925781-2.871094 40 27.15625 49.050781-9.753906 71.949218-10.128906 72.175781-1.058594.636719-2.273438.972656-3.511719.972656zm-123.292969-13.652344h121.1875c5.566406-4.1875 21.941406-20.128906 3.800782-52.882812-9.925782-17.933594-8.300782-39.578125 4.152343-55.140625l3.65625-4.566406c4.988281-6.238282 5.90625-14.878907 2.332031-22.015626-4.132812-8.269531-13.367187-12.753906-22.398437-10.957031-7.234375 1.453125-14.632813-.832031-19.792969-6.101562-5.160156-5.273438-7.289062-12.71875-5.695312-19.921875l5.832031-26.246094c2.882813-12.941406-4.433594-25.863281-17.011719-30.050781-5.402344-1.804688-11.128906-1.78125-16.527344.070312-15.59375 5.339844-32.226562 1.316407-42.40625-10.273437l-1.628906-1.851563c-.273437-.3125-.511718-.644531-.726562-.996093-1.390625-2.324219-3.621094-3.929688-6.261719-4.523438-2.664063-.609375-5.351563-.101562-7.605469 1.40625-3.839844 2.5625-5.386718 7.53125-3.664062 11.816406l4.238281 10.617188c5.753906 14.363281-.585937 31.042968-14.433594 37.960937-7.820312 3.910157-13.285156 11.066407-15 19.640625-2.480469 12.402344 3.6875 25.011719 15 30.671875l5.328125 2.664063c6.585938 3.296875 10.671875 9.910156 10.671875 17.269531s-4.085937 13.976563-10.671875 17.269531c-5.09375 2.542969-8.253906 7.660156-8.253906 13.355469 0 5.214844 2.78125 10.121094 7.246094 12.800781 18.007812 10.800782 24.078125 34.277344 13.546875 52.332032-3.707031 6.355468-5.355469 12.273437-4.914063 17.652343zm0 0"/><path d="m245.761719 239.105469c-.847657 0-1.707031-.160157-2.535157-.492188-3.5-1.402343-5.207031-5.371093-3.804687-8.875l13.652344-34.132812c1.398437-3.5 5.394531-5.195313 8.875-3.804688 3.5 1.402344 5.207031 5.371094 3.804687 8.875l-13.652344 34.136719c-1.066406 2.664062-3.636718 4.292969-6.339843 4.292969zm0 0"/><path d="m211.621094 198.140625c-1.429688 0-2.863282-.441406-4.089844-1.367187l-27.304688-20.480469c-3.023437-2.257813-3.632812-6.539063-1.367187-9.554688 2.265625-3.007812 6.539063-3.636719 9.554687-1.363281l27.304688 20.476562c3.019531 2.261719 3.632812 6.542969 1.367188 9.558594-1.339844 1.789063-3.386719 2.730469-5.464844 2.730469zm0 0"/><path d="m232.101562 157.179688c-1.027343 0-2.070312-.230469-3.046874-.71875-3.375-1.6875-4.742188-5.789063-3.054688-9.160157l13.652344-27.304687c1.695312-3.375 5.78125-4.742188 9.160156-3.054688 3.375 1.6875 4.738281 5.789063 3.054688 9.160156l-13.652344 27.304688c-1.203125 2.394531-3.609375 3.773438-6.113282 3.773438zm0 0"/><path d="m194.558594 126.460938c-1.746094 0-3.492188-.667969-4.824219-2l-27.308594-27.304688c-2.664062-2.667969-2.664062-6.988281 0-9.65625 2.667969-2.664062 6.988281-2.664062 9.652344 0l27.308594 27.308594c2.664062 2.664062 2.664062 6.988281 0 9.652344-1.332031 1.335937-3.082031 2-4.828125 2zm0 0"/><path d="m218.460938 95.742188c-.339844 0-.695313-.027344-1.039063-.082032-3.726563-.570312-6.289063-4.054687-5.714844-7.785156l5.652344-36.832031c.574219-3.71875 4.046875-6.289063 7.78125-5.710938 3.726563.570313 6.285156 4.058594 5.714844 7.785157l-5.652344 36.832031c-.523437 3.375-3.429687 5.792969-6.742187 5.792969zm0 0"/><path d="m211.621094 252.753906c-1.300782 0-2.613282-.371094-3.78125-1.144531l-20.480469-13.65625c-3.140625-2.089844-3.988281-6.328125-1.890625-9.464844 2.085938-3.136719 6.3125-3.996093 9.464844-1.894531l20.480468 13.65625c3.140626 2.089844 3.988282 6.328125 1.890626 9.464844-1.3125 1.972656-3.476563 3.039062-5.683594 3.039062zm0 0"/></g></svg>