<svg height="420pt" viewBox="-51 0 420 420.15888" width="420pt" xmlns="http://www.w3.org/2000/svg"><path d="m307.28125 249.699219c0 84.832031-68.769531 153.597656-153.601562 153.597656-84.832032 0-153.601563-68.765625-153.601563-153.597656s68.769531-153.601563 153.601563-153.601563c84.832031 0 153.601562 68.769532 153.601562 153.601563zm0 0" fill="#efefd2"/><path d="m223.585938 349.796875c-.117188 0-.230469-.003906-.347657-.007813-3.765625-.1875-6.664062-3.394531-6.476562-7.15625l10.019531-200.34375c.722656-14.515624-3.679688-28.910156-12.394531-40.527343-10.769531-14.355469-27.207031-23.378907-45.101563-24.757813l-67.152344-5.164062c-3.757812-.292969-6.570312-3.570313-6.28125-7.332032.289063-3.757812 3.605469-6.566406 7.328126-6.285156l67.152343 5.167969c21.8125 1.675781 41.847657 12.675781 54.972657 30.175781 10.628906 14.167969 15.992187 31.714844 15.109374 49.402344l-10.019531 200.34375c-.179687 3.648438-3.195312 6.484375-6.808593 6.484375zm0 0" fill="#4c241d"/><path d="m240.144531 308.128906s-56.6875-11.722656-96.488281-75.207031c-9.429688-15.046875-10.625-41.628906-9.894531-61.824219.507812-14.019531 16.628906-21.5625 27.886719-13.199218 27.261718 20.253906 67.875 65 78.496093 150.230468zm0 0" fill="#a9ba5a"/><path d="m240.144531 314.957031c-.460937 0-.921875-.042969-1.382812-.140625-2.429688-.5-60.011719-13.0625-100.890625-78.265625-8.351563-13.328125-12.027344-35.433593-10.933594-65.699219.328125-8.964843 5.5625-16.953124 13.664062-20.84375 8.191407-3.933593 17.820313-3.007812 25.121094 2.414063 25.472656 18.925781 69.902344 64.21875 81.195313 154.867187.273437 2.183594-.523438 4.367188-2.140625 5.859376-1.273438 1.171874-2.929688 1.808593-4.632813 1.808593zm-88.949219-153.726562c-1.574218 0-3.167968.359375-4.683593 1.085937-3.570313 1.714844-5.785157 5.089844-5.925781 9.027344-.96875 26.714844 2.171874 47.296875 8.855468 57.953125 28.164063 44.929687 65.167969 62.894531 82.4375 69.183594-12.601562-78.605469-51.566406-118.207031-74.296875-135.097657-1.921875-1.425781-4.140625-2.152343-6.386719-2.152343zm0 0" fill="#4c241d"/><path d="m206.195312 291.898438s-55.964843 14.789062-119.902343-24.28125c-26.71875-16.332032-43.4375-45.035157-46.519531-76.199219l-.378907-3.851563c0 .003906 82.949219-21.917968 166.800781 104.332032zm0 0" fill="#a9ba5a"/><path d="m178.695312 301.539062c-23.332031 0-58.234374-5.042968-95.960937-28.101562-27.796875-16.980469-46.398437-47.394531-49.753906-81.34375l-.378907-3.855469c-.328124-3.332031 1.8125-6.414062 5.050782-7.269531 3.582031-.941406 88.664062-21.683594 174.234375 107.152344 1.214843 1.832031 1.476562 4.144531.691406 6.199218-.78125 2.0625-2.507813 3.613282-4.636719 4.175782-1.019531.273437-11.957031 3.042968-29.246094 3.042968zm-131.839843-108.242187c3.585937 28.683594 19.527343 54.148437 43 68.492187 45.089843 27.558594 86.371093 27.15625 104.667969 25.125-65.632813-93.359374-128.746094-95.40625-147.667969-93.617187zm0 0" fill="#4c241d"/><path d="m211.195312 311.542969s-14.375-56.078125 25.167969-119.722657c9.371094-15.082031 32.726563-27.835937 51.191407-36.050781 12.8125-5.703125 26.675781 5.464844 24.109374 19.253907-6.21875 33.382812-28.570312 89.527343-100.46875 136.519531zm0 0" fill="#a9ba5a"/><path d="m211.195312 318.367188c-.832031 0-1.671874-.152344-2.46875-.460938-2.054687-.796875-3.597656-2.535156-4.144531-4.667969-.617187-2.40625-14.632812-59.652343 25.984375-125.019531 8.300782-13.355469 26.539063-26.371094 54.214844-38.6875 8.199219-3.652344 17.671875-2.453125 24.726562 3.117188 7.136719 5.632812 10.53125 14.6875 8.863282 23.625-5.808594 31.199218-26.972656 91.003906-103.441406 140.980468-1.125.738282-2.425782 1.113282-3.734376 1.113282zm83.402344-157.28125c-1.433594 0-2.878906.304687-4.269531.917968-24.421875 10.867188-41.527344 22.738282-48.164063 33.421875-27.863281 44.839844-27.800781 86.085938-25.902343 104.429688 65.058593-45.859375 83.503906-98.242188 88.691406-126.085938.742187-3.996093-.71875-7.886719-3.90625-10.40625-1.910156-1.503906-4.160156-2.277343-6.449219-2.277343zm0 0" fill="#4c241d"/><path d="m114.15625 286.640625c-6.53125 12.125-10.25 25.984375-10.25 40.722656 0 47.480469 38.488281 85.96875 85.96875 85.96875s85.96875-38.488281 85.96875-85.96875c0-14.738281-3.71875-28.597656-10.253906-40.722656zm0 0" fill="#fff"/><path d="m189.875 420.160156c-51.164062 0-92.796875-41.628906-92.796875-92.792968 0-15.320313 3.828125-30.523438 11.070313-43.964844 1.191406-2.210938 3.5-3.585938 6.007812-3.585938h151.433594c2.511718 0 4.820312 1.375 6.011718 3.585938 7.238282 13.4375 11.0625 28.636718 11.0625 43.964844.003907 51.164062-41.621093 92.792968-92.789062 92.792968zm-71.523438-126.691406c-4.996093 10.539062-7.621093 22.175781-7.621093 33.894531 0 43.636719 35.503906 79.140625 79.144531 79.140625 43.636719 0 79.140625-35.503906 79.140625-79.140625 0-11.722656-2.625-23.359375-7.617187-33.894531zm0 0" fill="#4c241d"/><path d="m222.828125 377.898438c-2.066406 0-4.101563-.929688-5.445313-2.703126-2.277343-3.007812-1.6875-7.289062 1.316407-9.5625 12.910156-9.785156 20.3125-24.671874 20.3125-40.84375 0-3.769531 3.054687-6.824218 6.824219-6.824218 3.773437 0 6.828124 3.054687 6.828124 6.824218 0 20.484376-9.371093 39.335938-25.71875 51.722657-1.234374.9375-2.683593 1.386719-4.117187 1.386719zm0 0" fill="#4c241d"/><path d="m113.5 35.628906c8.269531 12.378906 4.933594 29.117188-7.445312 37.382813-12.378907 8.269531-29.117188 4.933593-37.382813-7.445313s-18.03125-48.730468-5.652344-56.996094c12.378907-8.265624 42.214844 14.679688 50.480469 27.058594zm0 0" fill="#ffded5"/><path d="m91.136719 84.367188c-10.914063 0-21.636719-5.269532-28.140625-15.007813-7.929688-11.875-21.894532-54.359375-3.769532-66.464844 18.125-12.136719 52.019532 17.066407 59.953126 28.941407v.003906c10.34375 15.484375 6.15625 36.507812-9.332032 46.851562-5.753906 3.839844-12.265625 5.675782-18.710937 5.675782zm-21.414063-70.851563c-1.175781 0-2.164062.234375-2.914062.734375-6.730469 4.496094-.820313 35.007812 7.539062 47.53125 6.167969 9.21875 18.679688 11.726562 27.917969 5.558594 9.226563-6.167969 11.722656-18.691406 5.558594-27.917969-7.429688-11.125-28.726563-25.90625-38.101563-25.90625zm0 0" fill="#4c241d"/><path d="m170.503906 36.050781c7.75 11.605469-14.988281 40.394531-26.59375 48.144531-11.605468 7.75-27.296875 4.625-35.046875-6.980468-7.75-11.605469-4.625-27.296875 6.980469-35.046875s46.910156-17.722657 54.660156-6.117188zm0 0" fill="#ffded5"/><path d="m129.941406 95.289062c-2.101562 0-4.222656-.207031-6.335937-.628906-8.40625-1.675781-15.660157-6.523437-20.421875-13.65625-9.828125-14.710937-5.851563-34.683594 8.867187-44.511718 11.523438-7.695313 52.625-21.460938 64.125-4.230469 11.503907 17.226562-16.953125 49.914062-28.480469 57.609375-5.332031 3.566406-11.472656 5.417968-17.753906 5.417968zm26.308594-57.792968c-10.492188 0-27.578125 4.3125-36.617188 10.347656-8.457031 5.652344-10.742187 17.125-5.09375 25.582031 2.738282 4.09375 6.902344 6.882813 11.738282 7.84375 4.820312.972657 9.75-.011719 13.835937-2.75 12.742188-8.507812 28.445313-33.085937 24.710938-38.675781-1.082031-1.625-4.277344-2.347656-8.574219-2.347656zm0 0" fill="#4c241d"/><path d="m177.828125 94.382812c4.640625-13.160156-24.511719-35.433593-37.671875-40.070312-13.164062-4.640625-27.59375 2.265625-32.234375 15.429688-4.636719 13.160156 2.269531 27.59375 15.433594 32.230468 13.160156 4.640625 49.835937 5.574219 54.472656-7.589844zm0 0" fill="#ffded5"/><path d="m147.199219 111.890625c-10.699219 0-20.851563-1.621094-26.113281-3.476563-8.085938-2.851562-14.578126-8.679687-18.28125-16.410156-3.699219-7.734375-4.167969-16.449218-1.316407-24.53125 2.847657-8.082031 8.675781-14.578125 16.40625-18.28125 7.738281-3.695312 16.445313-4.175781 24.53125-1.316406 13.070313 4.609375 48.726563 29.246094 41.84375 48.78125-.003906 0-.003906 0-.003906 0-4.109375 11.664062-21.191406 15.234375-37.066406 15.234375zm-15.460938-52.199219c-2.714843 0-5.421875.605469-7.945312 1.816406-4.445313 2.125-7.789063 5.859376-9.425781 10.5-1.640626 4.648438-1.371094 9.652344.753906 14.097657 2.128906 4.441406 5.859375 7.792969 10.503906 9.429687 14.453125 5.097656 43.539062 2.914063 45.765625-3.421875.667969-1.902343-1.542969-7.726562-10.378906-15.96875-8.105469-7.5625-17.964844-13.578125-23.128907-15.394531-2.003906-.707031-4.078124-1.058594-6.144531-1.058594zm46.089844 34.695313h.066406zm0 0" fill="#4c241d"/><path d="m101.097656 145.625c-13.933594-.757812-23.335937-36.214844-22.578125-50.152344.757813-13.933594 12.664063-24.617187 26.601563-23.859375 13.933594.757813 24.617187 12.667969 23.859375 26.601563-.757813 13.9375-13.945313 48.167968-27.882813 47.410156zm0 0" fill="#ffded5"/><path d="m101.566406 152.464844c-.277344 0-.558594-.007813-.839844-.023438-9.113281-.496094-17.007812-8.992187-22.824218-24.5625-4.101563-10.984375-6.652344-24.464844-6.199219-32.777344.460937-8.558593 4.234375-16.425781 10.617187-22.152343 6.382813-5.722657 14.617188-8.632813 23.167969-8.152344 8.5625.460937 16.429688 4.234375 22.152344 10.617187 5.722656 6.382813 8.621094 14.609376 8.152344 23.171876-.449219 8.3125-4.445313 21.4375-9.714844 31.910156-7.238281 14.394531-15.699219 21.96875-24.511719 21.96875zm2.160156-74.0625c-4.546874 0-8.878906 1.65625-12.289062 4.714844-3.667969 3.289062-5.835938 7.808593-6.101562 12.726562-.296876 5.46875 1.476562 16.875 5.355468 27.257812 4.234375 11.324219 8.765625 15.597657 10.777344 15.707032-.003906 0 .058594.003906.089844.003906 2.0625 0 6.96875-3.804688 12.324218-14.449219 4.980469-9.902343 7.984376-21.050781 8.28125-26.519531.269532-4.917969-1.394531-9.644531-4.683593-13.3125-3.289063-3.667969-7.808594-5.832031-12.730469-6.101562-.34375-.019532-.683594-.027344-1.023438-.027344zm0 0" fill="#4c241d"/><path d="m47.222656 118.382812c7.75 11.601563 43.054688 1.632813 54.660156-6.121093 11.605469-7.75 14.730469-23.441407 6.980469-35.046875-7.75-11.605469-23.441406-14.730469-35.046875-6.980469-11.605468 7.75-34.34375 36.542969-26.59375 48.148437zm0 0" fill="#ffded5"/><path d="m62.046875 130.5c-9.828125 0-16.820313-2.8125-20.503906-8.328125-11.5-17.226563 16.957031-49.917969 28.484375-57.613281 14.71875-9.835938 34.683594-5.851563 44.511718 8.867187 9.828126 14.714844 5.851563 34.683594-8.867187 44.511719-6.917969 4.625-19.816406 9.296875-31.363281 11.363281-4.472656.800781-8.570313 1.199219-12.261719 1.199219zm-9.148437-15.90625c1.128906 1.679688 7.113281 3.402344 19.007812 1.269531 10.914062-1.957031 21.632812-6.238281 26.183594-9.277343 8.460937-5.648438 10.742187-17.121094 5.097656-25.582032-5.644531-8.445312-17.113281-10.738281-25.582031-5.089844-12.734375 8.503907-28.441407 33.082032-24.707031 38.679688zm0 0" fill="#4c241d"/><path d="m105.957031 90.890625c-11.902343-5.058594-18.789062-13.257813-16.710937-22.449219s4.679687-19.980468 16.582031-14.921875c11.902344 5.058594 18.789063 13.257813 16.710937 22.449219-2.078124 9.195312-4.679687 19.980469-16.582031 14.921875zm0 0" fill="#ffce56"/><path d="m111.472656 99.015625c-2.5625 0-5.292968-.613281-8.1875-1.84375-15.734375-6.683594-23.46875-17.984375-20.699218-30.238281 1.542968-6.816406 3.65625-16.152344 11.117187-19.972656 4.265625-2.167969 9.242187-2.082032 14.796875.277343 15.734375 6.683594 23.46875 17.988281 20.699219 30.238281-1.542969 6.816407-3.65625 16.152344-11.117188 19.972657-2.042969 1.042969-4.25 1.566406-6.609375 1.566406zm-11.125-39.960937c-.222656 0-.359375.03125-.421875.0625-1.777343.90625-3.351562 7.859374-4.019531 10.832031-1.773438 7.832031 9.285156 13.199219 12.71875 14.65625 2.050781.867187 3.023438.789062 3.234375.691406 1.777344-.910156 3.351563-7.863281 4.019531-10.835937 1.773438-7.832032-9.285156-13.199219-12.71875-14.65625-1.417968-.601563-2.320312-.75-2.8125-.75zm0 0" fill="#4c241d"/></svg>