<svg height="429pt" viewBox="-26 0 429 429.97413" width="429pt" xmlns="http://www.w3.org/2000/svg"><path d="m307.6875 201.28125c0 84.832031-68.769531 153.597656-153.601562 153.597656-84.828126 0-153.597657-68.765625-153.597657-153.597656s68.769531-153.601562 153.597657-153.601562c84.832031 0 153.601562 68.769531 153.601562 153.601562zm0 0" fill="#efefd2"/><path d="m219.246094 300.6875c-26.90625 9.035156-95.066406-245.625 40.976562-293.859375 0 0-8.402344 69.777344-46.082031 122.011719-38.769531 53.75-1.671875 138.75 5.105469 171.847656zm0 0" fill="#c1dbdc"/><path d="m217.644531 307.796875c-9.992187 0-19.695312-13.449219-28.894531-40.097656-11.320312-32.796875-22.078125-90.476563-15.152344-145.097657 8.015625-63.226562 37.179688-105.488281 84.34375-122.207031 2.21875-.789062 4.695313-.378906 6.546875 1.101563 1.84375 1.476562 2.792969 3.800781 2.511719 6.148437-.351562 2.917969-9.050781 72.140625-47.324219 125.191407-29.617187 41.054687-11.859375 102.191406-.113281 142.644531 2.714844 9.347656 5.058594 17.417969 6.371094 23.839843.695312 3.378907-1.242188 6.746094-4.511719 7.84375-1.265625.421876-2.523437.632813-3.777344.632813zm33.839844-289.917969c-57.167969 27.910156-66.292969 98.714844-66.4375 139.996094-.140625 42.679688 8.511719 82.40625 17.519531 107.855469-11.378906-40.785157-23.957031-99.300781 6.039063-140.882813 27.140625-37.625 38.734375-85.1875 42.878906-106.96875zm0 0" fill="#4c241d"/><path d="m183.542969 297.480469c28.328125-1.796875-4.738281-263.339844-148.921875-256.625 0 0 34.132812 61.4375 88.746094 95.570312 56.203124 35.125 53.949218 127.847657 60.175781 161.054688zm0 0" fill="#c1dbdc"/><path d="m183.539062 304.304688c-3.265624 0-6.097656-2.324219-6.707031-5.570313-1.207031-6.441406-2.085937-14.796875-3.101562-24.476563-4.398438-41.894531-11.050781-105.207031-53.980469-132.042968-55.46875-34.667969-89.667969-95.472656-91.097656-98.042969-1.144532-2.070313-1.144532-4.578125.003906-6.640625 1.152344-2.066406 3.289062-3.386719 5.648438-3.5 50.027343-2.375 92.949218 25.789062 124.253906 81.3125 27.039062 47.960938 38.855468 105.429688 40.765625 140.070312 1.742187 31.675782-3.425781 48.117188-15.347657 48.875-.148437.011719-.296874.015626-.4375.015626zm-136.644531-256.519532c12.082031 18.617188 40.820313 58.308594 80.089844 82.851563 43.476563 27.171875 53.933594 86.101562 58.800781 128.167969-1.269531-26.972657-8.261718-67.019532-24.507812-106.472657-15.722656-38.171875-50.910156-100.285156-114.382813-104.546875zm0 0" fill="#4c241d"/><path d="m204.484375 292.222656c-28.128906-3.792968 23.332031-262.34375 166.679687-245.460937 0 0-38.390624 58.875-95.277343 89.066406-58.542969 31.066406-62.847657 123.710937-71.402344 156.394531zm0 0" fill="#c1dbdc"/><path d="m204.492188 299.050781c-.304688 0-.609376-.019531-.921876-.058593-11.839843-1.597657-15.828124-18.367188-11.855468-49.839844 4.351562-34.421875 20.199218-90.914063 50.5625-136.839844 35.148437-53.175781 79.988281-78.191406 129.6875-72.328125 2.34375.277344 4.378906 1.746094 5.382812 3.886719 1 2.136718.828125 4.640625-.464844 6.621094-1.605468 2.464843-40.011718 60.699218-97.792968 91.363281-44.722656 23.730469-55.828125 86.414062-63.175782 127.894531-1.699218 9.582031-3.164062 17.859375-4.824218 24.203125-.796875 3.035156-3.539063 5.097656-6.597656 5.097656zm153.558593-246.238281c-63.394531 0-102.757812 59.308594-121.101562 96.203125-19 38.214844-28.800781 77.679687-31.972657 104.492187 7.824219-41.613281 22.417969-99.671874 67.710938-123.710937 40.976562-21.746094 72.40625-59.277344 85.753906-76.980469-.132812-.003906-.261718-.003906-.390625-.003906zm0 0" fill="#4c241d"/><path d="m259.902344 232c54.613281-34.132812 88.746094-95.574219 88.746094-95.574219-81.425782-3.789062-127.40625 77.972657-146.910157 150.1875h17.257813c8.207031-21.996093 20.761718-42.023437 40.90625-54.613281zm0 0" fill="#c1dbdc"/><path d="m218.996094 293.441406h-17.257813c-2.121093 0-4.125-.992187-5.417969-2.675781-1.296874-1.6875-1.726562-3.878906-1.171874-5.929687 10.160156-37.625 51.316406-159.949219 153.816406-155.226563 2.359375.109375 4.496094 1.433594 5.648437 3.496094 1.148438 2.0625 1.148438 4.574219.003907 6.640625-1.429688 2.570312-35.628907 63.375-91.097657 98.046875-16.691406 10.429687-29.164062 27.183593-38.128906 51.207031-.996094 2.671875-3.546875 4.441406-6.394531 4.441406zm-8.242188-13.652344h3.566406c9.941407-24.609374 23.703126-42.164062 41.964844-53.578124 39.207032-24.503907 67.84375-63.984376 79.976563-82.664063-30.855469 2.808594-92.316407 23.339844-125.507813 136.242187zm0 0" fill="#4c241d"/><path d="m137.019531 232c-54.613281-34.132812-88.746093-95.574219-88.746093-95.574219 81.425781-3.789062 127.40625 77.972657 146.910156 150.1875h-17.257813c-8.207031-21.996093-20.761719-42.023437-40.90625-54.613281zm0 0" fill="#c1dbdc"/><path d="m195.183594 293.441406h-17.257813c-2.847656 0-5.398437-1.769531-6.394531-4.441406-8.96875-24.03125-21.441406-40.78125-38.128906-51.210938-55.46875-34.667968-89.667969-95.476562-91.09375-98.046874-1.148438-2.066407-1.148438-4.574219.003906-6.640626 1.148438-2.0625 3.285156-3.382812 5.644531-3.496093 102.648438-4.878907 143.65625 117.605469 153.816407 155.226562.554687 2.050781.125 4.242188-1.167969 5.929688s-3.296875 2.679687-5.421875 2.679687zm-12.585938-13.652344h3.53125c-12.109375-40.148437-48.074218-131.28125-125.585937-136.429687 12.082031 18.613281 40.820312 58.304687 80.09375 82.851563 18.257812 11.410156 32.015625 28.964843 41.960937 53.578124zm0 0" fill="#4c241d"/><path d="m279.050781 280.492188h-156.195312l18.722656 115.910156h118.753906zm0 0" fill="#fff"/><path d="m260.332031 403.226562h-118.753906c-3.351563 0-6.207031-2.429687-6.742187-5.734374l-18.71875-115.910157c-.320313-1.976562.246093-3.996093 1.542968-5.515625 1.296875-1.523437 3.195313-2.402344 5.195313-2.402344h156.195312c2 0 3.898438.878907 5.195313 2.402344 1.296875 1.519532 1.867187 3.539063 1.542968 5.515625l-18.71875 115.910157c-.53125 3.304687-3.390624 5.734374-6.738281 5.734374zm-112.941406-13.652343h107.125l16.519531-102.257813h-140.160156zm0 0" fill="#4c241d"/><path d="m141.578125 395.839844 4.160156 27.308594h110.433594l4.160156-27.308594zm0 0" fill="#bf7e68"/><path d="m256.171875 429.972656h-110.433594c-3.375 0-6.238281-2.460937-6.75-5.796875l-4.160156-27.308593c-.300781-1.964844.277344-3.964844 1.574219-5.476563 1.296875-1.507813 3.183594-2.375 5.175781-2.375h118.753906c1.988281 0 3.878907.867187 5.175781 2.375 1.296876 1.511719 1.871094 3.511719 1.574219 5.476563l-4.164062 27.308593c-.507813 3.335938-3.375 5.796875-6.746094 5.796875zm-104.566406-13.652344h98.699219l2.078124-13.652343h-102.859374zm0 0" fill="#4c241d"/></svg>