<svg height="432pt" viewBox="-62 0 432 432.73871" width="432pt" xmlns="http://www.w3.org/2000/svg"><path d="m307.570312 217.699219c0 84.832031-68.769531 153.597656-153.601562 153.597656s-153.597656-68.765625-153.597656-153.597656 68.765625-153.601563 153.597656-153.601563 153.601562 68.769532 153.601562 153.601563zm0 0" fill="#efefd2"/><path d="m159.800781 244.917969c28.679688 40.484375 43.722657 79.121093 33.601563 86.289062-10.121094 7.171875-41.578125-19.839843-70.253906-60.328125-28.679688-40.484375-33.601563-86.289062-33.601563-86.289062s41.574219 19.839844 70.253906 60.328125zm0 0" fill="#a9ba5a"/><path d="m189.40625 339.238281c-7.367188 0-16.824219-5.019531-28.621094-15.144531-13.679687-11.75-29.027344-29.242188-43.207031-49.269531-29.367187-41.457031-34.609375-87.558594-34.816406-89.503907-.265625-2.460937.816406-4.867187 2.839843-6.300781 2.019532-1.417969 4.65625-1.652343 6.886719-.585937 1.761719.839844 43.515625 21.074218 72.886719 62.539062 14.183594 20.027344 25.597656 40.308594 32.136719 57.109375 7.929687 20.351563 7.871093 33.007813-.164063 38.699219-2.3125 1.636719-4.957031 2.457031-7.941406 2.457031zm-90.558594-141.519531c3.621094 16.175781 11.957032 43.925781 29.867188 69.214844 29.203125 41.226562 55.132812 60.234375 60.988281 58.570312 2.851563-4.617187-6.265625-35.40625-35.472656-76.636718-17.910157-25.292969-41.328125-42.359376-55.382813-51.148438zm0 0" fill="#4c241d"/><path d="m209.578125 244.917969c-28.679687 40.484375-43.722656 79.121093-33.601563 86.289062 10.121094 7.171875 41.578126-19.839843 70.253907-60.328125 28.679687-40.484375 33.601562-86.289062 33.601562-86.289062s-41.574219 19.839844-70.253906 60.328125zm0 0" fill="#a9ba5a"/><path d="m179.972656 339.238281c-2.984375 0-5.628906-.820312-7.941406-2.457031-8.035156-5.695312-8.089844-18.347656-.164062-38.703125 6.539062-16.800781 17.953124-37.078125 32.136718-57.105469 29.371094-41.46875 71.125-61.699218 72.886719-62.539062 2.234375-1.070313 4.875-.835938 6.886719.585937 2.023437 1.433594 3.105468 3.839844 2.839844 6.296875-.207032 1.949219-5.449219 48.046875-34.816407 89.507813-14.183593 20.027343-29.527343 37.519531-43.207031 49.265625-11.792969 10.128906-21.25 15.148437-28.621094 15.148437zm90.558594-141.519531c-14.054688 8.785156-37.472656 25.851562-55.382812 51.148438-29.207032 41.230468-38.324219 72.019531-35.023438 76.960937 5.335938 1.183594 31.335938-17.664063 60.539062-58.894531 17.910157-25.285156 26.246094-53.039063 29.867188-69.214844zm-60.957031 47.203125h.066406zm0 0" fill="#4c241d"/><path d="m184.6875 291.652344c-3.769531 0-6.824219-3.054688-6.824219-6.828125v-118.324219c0-3.773438 3.054688-6.828125 6.824219-6.828125 3.773438 0 6.828125 3.054687 6.828125 6.828125v118.324219c0 3.773437-3.054687 6.828125-6.828125 6.828125zm0 0" fill="#4c241d"/><path d="m263.957031 282.550781h-158.058593l18.941406 117.296875h120.171875zm0 0" fill="#fff"/><path d="m245.011719 406.671875h-120.167969c-3.351562 0-6.207031-2.433594-6.738281-5.738281l-18.945313-117.292969c-.320312-1.972656.246094-3.988281 1.542969-5.515625 1.296875-1.519531 3.195313-2.398438 5.195313-2.398438h158.058593c2 0 3.898438.882813 5.195313 2.398438 1.296875 1.527344 1.863281 3.542969 1.542968 5.515625l-18.945312 117.292969c-.53125 3.304687-3.386719 5.738281-6.738281 5.738281zm-114.355469-13.652344h108.542969l16.742187-103.640625h-142.023437zm0 0" fill="#4c241d"/><path d="m124.839844 398.605469 4.210937 27.304687h111.75l4.210938-27.304687zm0 0" fill="#bf7e68"/><path d="m240.804688 432.738281h-111.753907c-3.371093 0-6.230469-2.457031-6.746093-5.785156l-4.210938-27.308594c-.300781-1.964843.269531-3.972656 1.566406-5.488281 1.296875-1.503906 3.1875-2.378906 5.179688-2.378906h120.171875c1.992187 0 3.882812.875 5.183593 2.378906 1.296876 1.515625 1.867188 3.519531 1.5625 5.488281l-4.210937 27.308594c-.511719 3.328125-3.375 5.785156-6.742187 5.785156zm-105.898438-13.652343h100.042969l2.101562-13.652344h-104.25zm0 0" fill="#4c241d"/><path d="m204.789062 42.601562c1.03125 20.328126-8.730468 45.546876-20.023437 46.121094-11.292969.570313-19.84375-23.71875-20.875-44.046875s7.289063-37.269531 18.582031-37.84375c11.292969-.570312 21.285156 15.441407 22.316406 35.769531zm0 0" fill="#fff"/><path d="m184.300781 95.558594c-17.949219 0-26.226562-30.800782-27.230469-50.53125-1.238281-24.46875 9.765626-44.234375 25.054688-45.0156252 15.359375-.5781248 28.238281 17.7812502 29.480469 42.2421872 1.070312 21.125-8.71875 52.378906-26.496094 53.285156-.269531.011719-.539063.019532-.808594.019532zm-1.25-81.914063c-.078125 0-.15625 0-.230469.007813-6.304687.320312-12.96875 13.792968-12.117187 30.679687 1.097656 21.535157 9.683594 37.574219 13.636719 37.574219.027344 0 .050781 0 .074218-.003906 4.839844-.25 14.554688-19.242188 13.554688-38.953125-.847656-16.683594-8.652344-29.304688-14.917969-29.304688zm0 0" fill="#4c241d"/><path d="m204.789062 167.515625c1.03125-20.328125-8.730468-45.546875-20.023437-46.117187-11.292969-.574219-19.84375 23.714843-20.875 44.042968s7.289063 37.269532 18.582031 37.84375c11.292969.574219 21.285156-15.441406 22.316406-35.769531zm0 0" fill="#fff"/><path d="m183.050781 210.125c-.308593 0-.613281-.003906-.925781-.019531-15.289062-.78125-26.292969-20.546875-25.054688-45.011719 1.019532-20.027344 9.21875-51.421875 28.039063-50.515625 17.777344.90625 27.566406 32.160156 26.496094 53.289063-1.214844 23.964843-13.671875 42.257812-28.554688 42.257812zm1.292969-81.910156c-3.957031 0-12.542969 16.039062-13.636719 37.570312-.855469 16.890625 5.808594 30.363282 12.113281 30.683594.078126.003906.15625.003906.234376.003906 6.261718 0 14.070312-12.617187 14.917968-29.296875 1-19.714843-8.714844-38.707031-13.554687-38.953125-.027344-.007812-.050781-.007812-.074219-.007812zm20.445312 39.304687h.066407zm0 0" fill="#4c241d"/><path d="m121.878906 125.511719c20.328125 1.035156 45.542969-8.730469 46.117188-20.023438.574218-11.292969-23.714844-19.839843-44.042969-20.871093s-37.273437 7.285156-37.847656 18.578124c-.570313 11.292969 15.441406 21.285157 35.773437 22.316407zm0 0" fill="#fff"/><path d="m124.832031 132.414062c-1.113281 0-2.214843-.027343-3.304687-.082031-24.460938-1.246093-43.015625-14.191406-42.238282-29.476562.40625-8.046875 5.851563-15.039063 15.324219-19.695313 8.167969-4.015625 18.726563-5.898437 29.6875-5.359375 11.097657.558594 23.140625 3.226563 32.214844 7.140625 15.660156 6.738282 18.59375 15.085938 18.300781 20.898438-.410156 8.105468-7.457031 15.414062-19.839844 20.585937-9.148437 3.820313-20.179687 5.988281-30.144531 5.988281zm-2.609375-13.722656c8.839844.457032 19.113282-1.371094 27.492188-4.867187 8.503906-3.550781 11.398437-7.378907 11.464844-8.679688.050781-1.066406-2.335938-4.339843-10.066407-7.671875-7.660156-3.292968-17.941406-5.554687-27.503906-6.03125-8.585937-.457031-16.945313 1.011719-22.980469 3.972656-4.683594 2.300782-7.5625 5.339844-7.707031 8.132813-.320313 6.300781 12.410156 14.292969 29.300781 15.144531zm0 0" fill="#4c241d"/><path d="m246.792969 125.511719c-20.328125 1.035156-45.546875-8.730469-46.121094-20.023438s23.714844-19.839843 44.042969-20.871093 37.273437 7.285156 37.847656 18.578124c.570312 11.292969-15.441406 21.285157-35.769531 22.316407zm0 0" fill="#fff"/><path d="m243.835938 132.414062c-9.964844 0-20.996094-2.167968-30.144532-5.988281-12.378906-5.171875-19.425781-12.480469-19.835937-20.585937-.296875-5.8125 2.640625-14.160156 18.300781-20.898438 9.070312-3.914062 21.113281-6.582031 32.21875-7.140625 10.925781-.546875 21.503906 1.34375 29.679688 5.359375 9.472656 4.65625 14.914062 11.648438 15.324218 19.695313.777344 15.285156-17.777344 28.230469-42.238281 29.476562-1.085937.054688-2.1875.082031-3.304687.082031zm2.957031-6.902343h.066406zm1.261719-34.152344c-.996094 0-1.992188.027344-2.992188.082031-9.566406.476563-19.847656 2.738282-27.507812 6.03125-7.726563 3.332032-10.117188 6.605469-10.0625 7.671875.066406 1.300781 2.953124 5.128907 11.460937 8.679688 8.378906 3.496093 18.625 5.320312 27.492187 4.867187 16.890626-.851562 29.617188-8.84375 29.296876-15.144531-.140626-2.792969-3.019532-5.832031-7.707032-8.132813-5.328125-2.613281-12.484375-4.054687-19.980468-4.054687zm0 0" fill="#4c241d"/><path d="m153.71875 46.902344c15.316406 13.40625 26.628906 37.96875 19.179688 46.476562-7.445313 8.511719-30.835938-2.253906-46.152344-15.664062-15.316406-13.40625-21.691406-31.171875-14.246094-39.679688 7.449219-8.507812 25.902344-4.535156 41.21875 8.867188zm0 0" fill="#fff"/><path d="m164.820312 103.3125c-13.703124 0-31.648437-10.894531-42.570312-20.453125-18.429688-16.140625-24.96875-37.796875-14.882812-49.320313 10.078124-11.519531 32.414062-7.898437 50.847656 8.226563 8.117187 7.109375 15.558594 17.394531 19.902344 27.519531 5.296874 12.335938 5.265624 22.488282-.082032 28.59375-3.367187 3.847656-7.980468 5.433594-13.214844 5.433594zm-40.90625-62.925781c-2.820312 0-5.023437.714843-6.273437 2.140625-4.160156 4.753906.878906 18.917968 13.601563 30.058594 16.320312 14.28125 33.921874 19.246093 36.519531 16.300781.859375-.980469 1.449219-5.738281-2.1875-14.214844-3.582031-8.347656-9.695313-16.804687-16.351563-22.625-8.894531-7.796875-18.761718-11.660156-25.308594-11.660156zm0 0" fill="#4c241d"/><path d="m243.417969 133.839844c-13.878907-14.890625-38.78125-25.429688-47.050781-17.71875-8.269532 7.710937 3.21875 30.75 17.101562 45.640625 13.878906 14.886719 31.835938 20.707031 40.105469 12.996093 8.269531-7.710937 3.722656-26.03125-10.15625-40.917968zm0 0" fill="#fff"/><path d="m243.984375 184.910156c-11.015625 0-24.40625-6.578125-35.511719-18.5-7.582031-8.125-14.371094-18.425781-18.167968-27.539062-6.554688-15.742188-2.855469-23.78125 1.402343-27.746094 13.015625-12.125 42.277344 2.585938 56.703125 18.058594 16.699219 17.914062 21.011719 40.121094 9.816406 50.566406-3.746093 3.496094-8.695312 5.160156-14.242187 5.160156zm-39.679687-64.65625c-1.527344 0-2.664063.277344-3.285157.859375-.78125.726563-1.34375 4.738281 1.886719 12.511719 3.207031 7.695312 9.019531 16.472656 15.550781 23.480469 11.53125 12.375 25.835938 16.957031 30.460938 12.660156 4.613281-4.304687 1.035156-18.90625-10.492188-31.273437-11.105469-11.90625-26.929687-18.238282-34.121093-18.238282zm0 0" fill="#4c241d"/><path d="m153.71875 164.816406c15.316406-13.40625 26.628906-37.964844 19.179688-46.476562-7.445313-8.507813-30.835938 2.257812-46.152344 15.664062-15.316406 13.410156-21.691406 31.175782-14.246094 39.679688 7.449219 8.507812 25.902344 4.539062 41.21875-8.867188zm0 0" fill="#fff"/><path d="m124.003906 184.910156c-6.792968 0-12.664062-2.191406-16.636718-6.730468-5.3125-6.0625-6.273438-14.867188-2.707032-24.800782 3.078125-8.570312 9.324219-17.273437 17.589844-24.503906 15.089844-13.214844 43.585938-28.976562 55.785156-15.027344 11.726563 13.398438-3.90625 42.179688-19.816406 56.113282-11.171875 9.769531-23.773438 14.949218-34.214844 14.949218zm40.917969-62.890625c-6.160156 0-20.347656 5.453125-33.679687 17.125-6.453126 5.648438-11.457032 12.515625-13.730469 18.847657-1.761719 4.90625-1.714844 9.09375.128906 11.195312 4.15625 4.765625 18.859375 1.632812 31.582031-9.507812 14.855469-13 21.730469-33.199219 18.539063-36.847657-.476563-.539062-1.453125-.8125-2.839844-.8125zm0 0" fill="#4c241d"/><path d="m243.417969 77.882812c-13.878907 14.886719-38.78125 25.429688-47.050781 17.71875-8.269532-7.710937 3.21875-30.753906 17.101562-45.644531 13.878906-14.886719 31.835938-20.703125 40.105469-12.996093 8.269531 7.710937 3.722656 26.035156-10.15625 40.921874zm0 0" fill="#fff"/><path d="m204.472656 105.011719c-5.257812 0-9.605468-1.472657-12.765625-4.417969-4.253906-3.96875-7.953125-12.007812-1.402343-27.75 3.796874-9.113281 10.585937-19.410156 18.167968-27.539062 7.492188-8.03125 16.386719-14.007813 25.046875-16.8125 10.035157-3.234376 18.816407-2.015626 24.710938 3.480468 5.894531 5.492188 7.742187 14.160156 5.199219 24.398438-2.191407 8.839844-7.523438 18.125-15.015626 26.160156-7.351562 7.894531-17.871093 15.007812-28.125 19.039062-5.851562 2.296876-11.1875 3.441407-15.816406 3.441407zm39.398438-64.617188c-1.804688 0-3.894532.359375-6.144532 1.085938-6.394531 2.074219-13.417968 6.859375-19.265624 13.132812-6.535157 7.003907-12.34375 15.785157-15.550782 23.480469-3.234375 7.773438-2.667968 11.785156-1.886718 12.511719.945312.886719 5.691406 1.628906 14.269531-1.738281 8.453125-3.320313 17.101562-9.167969 23.132812-15.640626 5.851563-6.273437 10.132813-13.613281 11.75-20.140624 1.257813-5.0625.789063-9.21875-1.253906-11.128907-1.121094-1.039062-2.878906-1.5625-5.050781-1.5625zm0 0" fill="#4c241d"/><path d="m205.023438 105.058594c0 11.308594-9.167969 20.476562-20.476563 20.476562s-20.472656-9.167968-20.472656-20.476562 9.164062-20.476563 20.472656-20.476563 20.476563 9.167969 20.476563 20.476563zm0 0" fill="#ffce56"/><path d="m184.546875 132.359375c-15.054687 0-27.300781-12.246094-27.300781-27.300781 0-15.050782 12.246094-27.300782 27.300781-27.300782s27.300781 12.25 27.300781 27.300782c0 15.054687-12.246094 27.300781-27.300781 27.300781zm0-40.945313c-7.523437 0-13.648437 6.117188-13.648437 13.644532s6.125 13.648437 13.648437 13.648437c7.527344 0 13.648437-6.121093 13.648437-13.648437s-6.121093-13.644532-13.648437-13.644532zm0 0" fill="#4c241d"/></svg>