<svg height="416pt" viewBox="-10 0 416 416.42667" width="416pt" xmlns="http://www.w3.org/2000/svg"><path d="m307.414062 153.601562c0 84.828126-68.769531 153.597657-153.601562 153.597657s-153.597656-68.769531-153.597656-153.597657c0-84.832031 68.765625-153.601562 153.597656-153.601562s153.601562 68.769531 153.601562 153.601562zm0 0" fill="#efefd2"/><path d="m378.863281 168.5625c-.625 0-1.265625-.09375-1.898437-.273438l-19.933594-5.765624c-2.429688-.699219-4.269531-2.683594-4.785156-5.15625-.519532-2.472657.371094-5.027344 2.308594-6.644532l15.699218-13.074218c2.894532-2.410157 7.199219-2.019532 9.617188.875 2.410156 2.898437 2.019531 7.207031-.878906 9.617187l-5.8125 4.839844 7.574218 2.195312c3.621094 1.046875 5.710938 4.828125 4.660156 8.453125-.859374 2.984375-3.585937 4.933594-6.550781 4.933594zm0 0" fill="#4c241d"/><path d="m385.691406 236.828125c-.628906 0-1.269531-.089844-1.902344-.273437l-19.933593-5.765626c-2.425781-.699218-4.265625-2.679687-4.78125-5.152343-.523438-2.476563.367187-5.03125 2.308593-6.648438l15.695313-13.074219c2.898437-2.40625 7.203125-2.023437 9.617187.878907 2.414063 2.894531 2.023438 7.203125-.875 9.617187l-5.8125 4.839844 7.574219 2.191406c3.621094 1.046875 5.710938 4.832032 4.660157 8.453125-.863282 2.984375-3.589844 4.933594-6.550782 4.933594zm0 0" fill="#4c241d"/><path d="m367.835938 203.96875c0 89.671875-72.691407 162.363281-162.363282 162.363281-89.667968 0-162.359375-72.691406-162.359375-162.363281 0-89.667969 72.691407-132.839844 162.359375-132.839844 89.671875 0 162.363282 43.171875 162.363282 132.839844zm0 0" fill="#a9ba5a"/><path d="m205.472656 373.15625c-93.289062 0-169.183594-75.898438-169.183594-169.1875 0-86.152344 64.828126-139.667969 169.183594-139.667969 104.359375 0 169.1875 53.515625 169.1875 139.667969 0 93.292969-75.894531 169.1875-169.1875 169.1875zm0-295.199219c-75.1875 0-155.53125 33.101563-155.53125 126.011719 0 85.761719 69.773438 155.535156 155.53125 155.535156 85.761719 0 155.535156-69.773437 155.535156-155.535156 0-92.910156-80.34375-126.011719-155.535156-126.011719zm0 0" fill="#4c241d"/><path d="m298.816406 342.890625c-.257812 0-.519531-.015625-.78125-.042969-3.746094-.425781-6.4375-3.808594-6.011718-7.558594 10.261718-90.136718 7.914062-172.882812-6.980469-245.929687-.75-3.691406 1.632812-7.300781 5.328125-8.054687 3.703125-.753907 7.300781 1.636718 8.054687 5.328124 15.175781 74.453126 17.589844 158.632813 7.164063 250.203126-.398438 3.484374-3.347656 6.054687-6.773438 6.054687zm0 0" fill="#4c241d"/><path d="m113.257812 343.117188c-3.457031 0-6.425781-2.613282-6.785156-6.128907-9.527344-92.570312-7.578125-173.890625 5.957032-248.609375.671874-3.707031 4.230468-6.1875 7.929687-5.5 3.710937.671875 6.175781 4.222656 5.503906 7.933594-13.304687 73.433594-15.203125 153.5-5.8125 244.777344.390625 3.75-2.339843 7.101562-6.089843 7.488281-.238282.027344-.472657.039063-.703126.039063zm0 0" fill="#4c241d"/><path d="m205.011719 372.949219c-3.769531 0-6.824219-3.054688-6.824219-6.828125v-294.335938c0-3.769531 3.054688-6.824218 6.824219-6.824218 3.773437 0 6.828125 3.054687 6.828125 6.824218v294.335938c0 3.773437-3.054688 6.828125-6.828125 6.828125zm0 0" fill="#4c241d"/><path d="m266.453125 409.601562h-116.054687c-67.863282 0-122.878907-55.015624-122.878907-122.882812h361.8125c0 67.867188-55.011719 122.882812-122.878906 122.882812zm0 0" fill="#fff"/><g fill="#4c241d"><path d="m266.453125 416.425781h-116.054687c-71.519532 0-129.707032-58.1875-129.707032-129.707031 0-3.769531 3.058594-6.824219 6.828125-6.824219h361.8125c3.769531 0 6.828125 3.054688 6.828125 6.824219 0 71.519531-58.1875 129.707031-129.707031 129.707031zm-231.90625-122.878906c3.546875 60.828125 54.152344 109.226563 115.851563 109.226563h116.054687c61.699219 0 112.308594-48.398438 115.855469-109.226563zm0 0"/><path d="m81.578125 115.015625c-.636719 0-1.277344-.089844-1.90625-.269531l-19.925781-5.789063c-3.617188-1.054687-5.699219-4.839843-4.648438-8.464843 1.050782-3.617188 4.832032-5.695313 8.460938-4.648438l7.574218 2.203125-2.320312-7.203125c-1.160156-3.59375.8125-7.4375 4.398438-8.59375 3.589843-1.175781 7.4375.816406 8.59375 4.398438l6.269531 19.445312c.777343 2.40625.160156 5.039062-1.601563 6.851562-1.304687 1.34375-3.078125 2.070313-4.894531 2.070313zm0 0"/><path d="m31.164062 168.5625c-2.964843 0-5.691406-1.949219-6.554687-4.9375-1.050781-3.621094 1.039063-7.40625 4.660156-8.453125l7.574219-2.191406-5.8125-4.839844c-2.894531-2.414063-3.289062-6.722656-.875-9.617187 2.410156-2.894532 6.71875-3.289063 9.617188-.878907l15.695312 13.074219c1.941406 1.617188 2.828125 4.171875 2.308594 6.648438-.515625 2.472656-2.355469 4.457031-4.78125 5.15625l-19.933594 5.761718c-.632812.183594-1.273438.277344-1.898438.277344zm0 0"/><path d="m24.335938 236.828125c-2.960938 0-5.6875-1.949219-6.550782-4.933594-1.050781-3.625 1.039063-7.40625 4.65625-8.453125l7.578125-2.195312-5.8125-4.839844c-2.898437-2.414062-3.292969-6.71875-.878906-9.617188 2.414063-2.898437 6.722656-3.285156 9.617187-.875l15.695313 13.070313c1.941406 1.617187 2.832031 4.175781 2.3125 6.648437-.519531 2.472657-2.359375 4.457032-4.785156 5.15625l-19.933594 5.761719c-.632813.1875-1.269531.277344-1.898437.277344zm0 0"/><path d="m328.449219 115.015625c-1.816407 0-3.59375-.726563-4.894531-2.070313-1.761719-1.8125-2.378907-4.445312-1.601563-6.851562l6.269531-19.445312c1.160156-3.582032 4.992188-5.574219 8.59375-4.398438 3.585938 1.15625 5.554688 5.003906 4.398438 8.59375l-2.320313 7.203125 7.574219-2.203125c3.628906-1.039062 7.410156 1.03125 8.460938 4.648438 1.050781 3.625-1.03125 7.410156-4.648438 8.464843l-19.925781 5.789063c-.628907.179687-1.269531.269531-1.90625.269531zm0 0"/><path d="m260.527344 81.640625c-1.003906 0-2.011719-.21875-2.949219-.671875-2.28125-1.089844-3.769531-3.347656-3.875-5.871094l-.859375-20.730468c-.15625-3.765626 2.769531-6.945313 6.539062-7.101563 3.8125-.144531 6.945313 2.769531 7.101563 6.535156l.324219 7.878907 6.085937-4.492188c3.042969-2.25 7.316407-1.597656 9.546875 1.433594 2.242188 3.03125 1.601563 7.304687-1.433594 9.546875l-16.429687 12.136719c-1.191406.882812-2.617187 1.335937-4.050781 1.335937zm0 0"/><path d="m205.527344 74.796875c-2.222656 0-4.328125-1.085937-5.613282-2.941406l-11.8125-17.058594c-2.148437-3.101563-1.375-7.355469 1.726563-9.5 3.09375-2.152344 7.351563-1.371094 9.5 1.726563l4.488281 6.488281 2.738282-7.058594c1.367187-3.519531 5.316406-5.265625 8.835937-3.890625 3.515625 1.363281 5.257813 5.316406 3.890625 8.832031l-7.390625 19.046875c-.914063 2.355469-3.054687 4.011719-5.566406 4.308594-.265625.03125-.535157.046875-.796875.046875zm0 0"/><path d="m138.644531 83.242188c-2.226562 0-4.328125-1.085938-5.613281-2.941407l-11.816406-17.054687c-2.144532-3.101563-1.371094-7.355469 1.726562-9.5 3.101563-2.144532 7.347656-1.375 9.5 1.726562l4.492188 6.484375 2.738281-7.054687c1.359375-3.519532 5.316406-5.261719 8.832031-3.890625 3.515625 1.363281 5.257813 5.316406 3.894532 8.832031l-7.390626 19.042969c-.914062 2.355469-3.054687 4.015625-5.5625 4.308593-.269531.03125-.535156.046876-.800781.046876zm0 0"/><path d="m291.804688 375.734375c-2.648438 0-5.171876-1.550781-6.28125-4.144531-1.480469-3.46875.128906-7.476563 3.59375-8.960938 17.910156-7.660156 32.460937-22.371094 39.917968-40.367187 1.445313-3.480469 5.425782-5.140625 8.921875-3.691407 3.480469 1.441407 5.136719 5.4375 3.691407 8.921876-8.808594 21.257812-26 38.640624-47.164063 47.691406-.871094.375-1.78125.550781-2.679687.550781zm0 0"/></g></svg>