<svg height="416pt" viewBox="-54 0 416 416.42624" width="416pt" xmlns="http://www.w3.org/2000/svg"><path d="m307.414062 208.214844c0 84.828125-68.769531 153.597656-153.601562 153.597656s-153.597656-68.769531-153.597656-153.597656c0-84.832032 68.765625-153.601563 153.597656-153.601563s153.601562 68.769531 153.601562 153.601563zm0 0" fill="#efefd2"/><path d="m184.097656 273.894531c-3.769531 0-6.828125-3.054687-6.828125-6.824219v-225.386718c0-3.769532 3.058594-6.824219 6.828125-6.824219 3.769532 0 6.824219 3.054687 6.824219 6.824219v225.386718c0 3.769532-3.054687 6.824219-6.824219 6.824219zm0 0" fill="#4c241d"/><path d="m184.097656 116.734375c-1.746094 0-3.496094-.667969-4.828125-2l-24.648437-24.648437c-2.667969-2.664063-2.667969-6.988282 0-9.652344 2.664062-2.667969 6.988281-2.667969 9.652344 0l19.824218 19.824218 19.820313-19.824218c2.667969-2.667969 6.988281-2.667969 9.652343 0 2.667969 2.664062 2.667969 6.988281 0 9.652344l-24.648437 24.648437c-1.332031 1.332031-3.078125 2-4.824219 2zm0 0" fill="#4c241d"/><path d="m184.097656 81.875c-1.746094 0-3.496094-.667969-4.828125-2l-24.648437-24.648438c-2.667969-2.667968-2.667969-6.988281 0-9.652343 2.664062-2.667969 6.988281-2.667969 9.652344 0l19.824218 19.820312 19.820313-19.820312c2.667969-2.667969 6.988281-2.667969 9.652343 0 2.667969 2.664062 2.667969 6.984375 0 9.652343l-24.648437 24.648438c-1.332031 1.332031-3.078125 2-4.824219 2zm0 0" fill="#4c241d"/><path d="m184.097656 151.597656c-1.746094 0-3.496094-.667968-4.828125-2l-24.648437-24.652344c-2.667969-2.664062-2.667969-6.984374 0-9.652343 2.664062-2.664063 6.988281-2.664063 9.652344 0l19.824218 19.824219 19.820313-19.824219c2.667969-2.664063 6.988281-2.664063 9.652343 0 2.667969 2.667969 2.667969 6.988281 0 9.652343l-24.648437 24.652344c-1.332031 1.332032-3.078125 2-4.824219 2zm0 0" fill="#4c241d"/><path d="m201.527344 24.253906c0 9.625-17.429688 17.429688-17.429688 17.429688s-17.429687-7.800782-17.429687-17.429688c0-9.625 17.429687-17.425781 17.429687-17.425781s17.429688 7.800781 17.429688 17.425781zm0 0" fill="#9dc1e4"/><g fill="#4c241d"><path d="m184.097656 48.511719c-.953125 0-1.90625-.199219-2.792968-.597657-3.582032-1.601562-21.464844-10.285156-21.464844-23.660156 0-13.371094 17.882812-22.054687 21.464844-23.660156 1.773437-.792969 3.808593-.792969 5.582031 0 3.582031 1.605469 21.464843 10.289062 21.464843 23.660156 0 13.375-17.882812 22.058594-21.464843 23.660156-.886719.398438-1.839844.597657-2.789063.597657zm0-34.054688c-5.378906 2.972657-10.605468 7.328125-10.605468 9.796875s5.226562 6.828125 10.605468 9.796875c5.378906-2.96875 10.601563-7.328125 10.601563-9.796875s-5.222657-6.824218-10.601563-9.796875zm0 0"/><path d="m231.882812 362.640625c-3.769531 0-6.828124-3.054687-6.828124-6.824219v-225.386718c0-3.769532 3.058593-6.824219 6.828124-6.824219 3.769532 0 6.828126 3.054687 6.828126 6.824219v225.386718c0 3.769532-3.058594 6.824219-6.828126 6.824219zm0 0"/><path d="m231.882812 205.480469c-1.746093 0-3.492187-.664063-4.828124-2l-24.648438-24.648438c-2.664062-2.664062-2.664062-6.988281 0-9.652343 2.667969-2.664063 6.988281-2.664063 9.652344 0l19.824218 19.824218 19.824219-19.824218c2.664063-2.664063 6.984375-2.664063 9.652344 0 2.664063 2.664062 2.664063 6.988281 0 9.652343l-24.648437 24.648438c-1.335938 1.335937-3.082032 2-4.828126 2zm0 0"/><path d="m231.882812 170.621094c-1.746093 0-3.492187-.667969-4.828124-2l-24.648438-24.648438c-2.664062-2.667968-2.664062-6.988281 0-9.652344 2.667969-2.667968 6.988281-2.667968 9.652344 0l19.824218 19.820313 19.824219-19.820313c2.664063-2.667968 6.984375-2.667968 9.652344 0 2.664063 2.664063 2.664063 6.984376 0 9.652344l-24.648437 24.648438c-1.335938 1.332031-3.082032 2-4.828126 2zm0 0"/><path d="m231.882812 240.34375c-1.746093 0-3.492187-.667969-4.828124-2l-24.648438-24.652344c-2.664062-2.664062-2.664062-6.984375 0-9.652344 2.667969-2.664062 6.988281-2.664062 9.652344 0l19.824218 19.824219 19.824219-19.824219c2.664063-2.664062 6.984375-2.664062 9.652344 0 2.664063 2.667969 2.664063 6.988282 0 9.652344l-24.648437 24.652344c-1.335938 1.332031-3.082032 2-4.828126 2zm0 0"/></g><path d="m249.3125 113c0 9.628906-17.429688 17.429688-17.429688 17.429688s-17.429687-7.800782-17.429687-17.429688c0-9.625 17.429687-17.429688 17.429687-17.429688s17.429688 7.804688 17.429688 17.429688zm0 0" fill="#9dc1e4"/><path d="m231.882812 137.257812c-.949218 0-1.902343-.199218-2.789062-.597656-3.585938-1.601562-21.46875-10.285156-21.46875-23.660156 0-13.371094 17.886719-22.054688 21.46875-23.65625 1.773438-.796875 3.804688-.796875 5.578125 0 3.585937 1.601562 21.46875 10.285156 21.46875 23.65625 0 13.375-17.886719 22.058594-21.46875 23.660156-.886719.398438-1.839844.597656-2.789063.597656zm0-34.050781c-5.378906 2.96875-10.601562 7.324219-10.601562 9.792969 0 2.472656 5.222656 6.828125 10.601562 9.796875 5.378907-2.96875 10.605469-7.324219 10.605469-9.796875 0-2.46875-5.226562-6.824219-10.605469-9.792969zm0 0" fill="#4c241d"/><path d="m143.136719 335.335938c-3.769531 0-6.828125-3.058594-6.828125-6.828126v-225.382812c0-3.769531 3.058594-6.828125 6.828125-6.828125s6.824219 3.058594 6.824219 6.828125v225.382812c0 3.769532-3.054688 6.828126-6.824219 6.828126zm0 0" fill="#4c241d"/><path d="m143.136719 178.175781c-1.746094 0-3.492188-.667969-4.828125-2l-24.648438-24.648437c-2.664062-2.667969-2.664062-6.988282 0-9.652344 2.667969-2.667969 6.988282-2.667969 9.652344 0l19.824219 19.820312 19.824219-19.820312c2.664062-2.667969 6.984374-2.667969 9.652343 0 2.664063 2.664062 2.664063 6.984375 0 9.652344l-24.652343 24.648437c-1.332032 1.332031-3.078126 2-4.824219 2zm0 0" fill="#4c241d"/><path d="m143.136719 143.316406c-1.746094 0-3.492188-.667968-4.828125-2l-24.648438-24.652344c-2.664062-2.664062-2.664062-6.984374 0-9.652343 2.667969-2.664063 6.988282-2.664063 9.652344 0l19.824219 19.824219 19.824219-19.824219c2.664062-2.664063 6.984374-2.664063 9.652343 0 2.664063 2.667969 2.664063 6.988281 0 9.652343l-24.652343 24.652344c-1.332032 1.332032-3.078126 2-4.824219 2zm0 0" fill="#4c241d"/><path d="m143.136719 213.035156c-1.746094 0-3.492188-.667968-4.828125-2l-24.648438-24.648437c-2.664062-2.667969-2.664062-6.988281 0-9.652344 2.667969-2.667969 6.988282-2.667969 9.652344 0l19.824219 19.820313 19.824219-19.820313c2.664062-2.667969 6.984374-2.667969 9.652343 0 2.664063 2.664063 2.664063 6.984375 0 9.652344l-24.652343 24.648437c-1.332032 1.332032-3.078126 2-4.824219 2zm0 0" fill="#4c241d"/><path d="m160.566406 85.695312c0 9.625-17.429687 17.429688-17.429687 17.429688s-17.429688-7.804688-17.429688-17.429688 17.429688-17.429687 17.429688-17.429687 17.429687 7.804687 17.429687 17.429687zm0 0" fill="#9dc1e4"/><path d="m143.136719 109.953125c-.949219 0-1.902344-.203125-2.789063-.597656-3.585937-1.605469-21.46875-10.289063-21.46875-23.660157 0-13.375 17.882813-22.058593 21.46875-23.660156 1.769532-.792968 3.804688-.792968 5.578125 0 3.585938 1.601563 21.46875 10.285156 21.46875 23.660156 0 13.371094-17.886719 22.054688-21.46875 23.660157-.886719.394531-1.839843.597656-2.789062.597656zm0-34.054687c-5.378907 2.96875-10.605469 7.328124-10.605469 9.796874s5.226562 6.824219 10.605469 9.796876c5.378906-2.972657 10.601562-7.328126 10.601562-9.796876s-5.222656-6.828124-10.601562-9.796874zm0 0" fill="#4c241d"/><path d="m268.195312 259.414062h-165.582031l19.84375 122.878907h125.894531zm0 0" fill="#fff"/><path d="m248.351562 389.121094h-125.890624c-3.351563 0-6.207032-2.433594-6.742188-5.738282l-19.84375-122.878906c-.324219-1.976562.246094-3.992187 1.542969-5.515625 1.292969-1.523437 3.195312-2.402343 5.195312-2.402343h165.582031c2 0 3.898438.878906 5.195313 2.398437 1.300781 1.523437 1.867187 3.542969 1.542969 5.515625l-19.84375 122.882812c-.535156 3.304688-3.390625 5.738282-6.738282 5.738282zm-120.078124-13.65625h114.261718l17.644532-109.226563h-149.550782zm0 0" fill="#4c241d"/><path d="m122.457031 382.292969 4.410157 27.304687h117.074218l4.410156-27.304687zm0 0" fill="#bf7e68"/><path d="m243.941406 416.425781h-117.070312c-3.351563 0-6.207032-2.429687-6.742188-5.734375l-4.410156-27.308594c-.320312-1.976562.25-3.992187 1.542969-5.515624 1.296875-1.523438 3.199219-2.398438 5.199219-2.398438h125.890624c2 0 3.898438.875 5.195313 2.398438 1.296875 1.523437 1.859375 3.539062 1.542969 5.515624l-4.410156 27.308594c-.535157 3.304688-3.390626 5.734375-6.738282 5.734375zm-111.257812-13.652343h105.441406l2.207031-13.652344h-109.855469zm0 0" fill="#4c241d"/></svg>