<svg height="427pt" viewBox="-29 0 427 427.99647" width="427pt" xmlns="http://www.w3.org/2000/svg"><path d="m307.699219 264.363281c0 84.832031-68.769531 153.601563-153.601563 153.601563-84.832031 0-153.597656-68.769532-153.597656-153.601563s68.765625-153.601562 153.597656-153.601562c84.832032 0 153.601563 68.769531 153.601563 153.601562zm0 0" fill="#efefd2"/><path d="m169.898438 319.601562c28.328124-1.796874-4.738282-263.339843-148.921876-256.625 0 0 34.136719 61.441407 88.75 95.574219 56.199219 35.125 53.949219 127.84375 60.171876 161.050781zm0 0" fill="#a9ba5a"/><path d="m169.894531 326.425781c-3.261719 0-6.09375-2.320312-6.707031-5.570312-1.207031-6.4375-2.082031-14.796875-3.097656-24.472657-4.402344-41.894531-11.050782-105.207031-53.980469-132.042968-55.472656-34.667969-89.671875-95.476563-91.097656-98.046875-1.148438-2.066407-1.148438-4.578125.003906-6.640625 1.148437-2.0625 3.285156-3.386719 5.648437-3.496094 50.074219-2.367188 92.949219 25.789062 124.253907 81.3125 27.039062 47.960938 38.855469 105.429688 40.761719 140.066406 1.742187 31.679688-3.421876 48.121094-15.347657 48.878906-.148437.011719-.292969.011719-.4375.011719zm-136.640625-256.515625c12.082032 18.617188 40.820313 58.308594 80.089844 82.851563 43.476562 27.171875 53.933594 86.101562 58.800781 128.167969-1.269531-26.972657-8.261719-67.019532-24.511719-106.472657-15.722656-38.171875-50.90625-100.285156-114.378906-104.546875zm0 0" fill="#4c241d"/><path d="m213.390625 319.601562c-28.328125-1.796874 4.738281-263.339843 148.921875-256.625 0 0-34.132812 61.441407-88.746094 95.574219-56.203125 35.125-53.949218 127.84375-60.175781 161.050781zm0 0" fill="#a9ba5a"/><path d="m213.394531 326.425781c-.144531 0-.289062 0-.4375-.011719-11.921875-.757812-17.089843-17.199218-15.34375-48.878906 1.90625-34.636718 13.722657-92.109375 40.761719-140.066406 31.300781-55.523438 74.183594-83.699219 124.253906-81.3125 2.359375.109375 4.496094 1.433594 5.648438 3.496094 1.148437 2.0625 1.148437 4.574218.003906 6.640625-1.429688 2.570312-35.628906 63.378906-91.097656 98.046875-42.929688 26.835937-49.582032 90.148437-53.980469 132.042968-1.015625 9.675782-1.894531 18.035157-3.097656 24.472657-.613281 3.246093-3.449219 5.570312-6.710938 5.570312zm136.65625-256.515625c-63.492187 4.246094-98.667969 66.367188-114.390625 104.546875-16.25 39.453125-23.238281 79.5-24.507812 106.472657 4.867187-42.0625 15.320312-100.996094 58.796875-128.167969 39.335937-24.585938 68.035156-64.25 80.101562-82.851563zm0 0" fill="#4c241d"/><path d="m253.085938 267.777344c54.613281-34.132813 88.746093-95.574219 88.746093-95.574219-81.425781-3.792969-127.40625 77.96875-146.910156 150.1875h17.257813c8.207031-21.996094 20.761718-42.023437 40.90625-54.613281zm0 0" fill="#a9ba5a"/><path d="m212.179688 329.214844h-17.257813c-2.125 0-4.125-.988282-5.421875-2.675782-1.292969-1.683593-1.722656-3.878906-1.167969-5.929687 10.15625-37.625 51.234375-160.039063 153.816407-155.226563 2.359374.109376 4.496093 1.433594 5.644531 3.496094 1.152343 2.066406 1.152343 4.574219.003906 6.640625-1.425781 2.570313-35.625 63.378907-91.09375 98.046875-16.691406 10.433594-29.164063 27.183594-38.128906 51.210938-.996094 2.667968-3.546875 4.4375-6.394531 4.4375zm-8.242188-13.652344h3.566406c9.945313-24.605469 23.703125-42.164062 41.964844-53.578125 39.207031-24.5 67.84375-63.980469 79.976562-82.664063-30.855468 2.8125-92.316406 23.34375-125.507812 136.242188zm0 0" fill="#4c241d"/><path d="m130.203125 267.777344c-54.613281-34.132813-88.746094-95.574219-88.746094-95.574219 81.425781-3.792969 127.40625 77.96875 146.910157 150.1875h-17.257813c-8.207031-21.996094-20.761719-42.023437-40.90625-54.613281zm0 0" fill="#a9ba5a"/><path d="m188.367188 329.214844h-17.253907c-2.851562 0-5.402343-1.769532-6.398437-4.4375-8.964844-24.03125-21.4375-40.78125-38.125-51.210938-55.472656-34.671875-89.671875-95.476562-91.097656-98.046875-1.148438-2.066406-1.148438-4.578125.003906-6.640625 1.148437-2.0625 3.285156-3.386718 5.644531-3.496094 102.660156-4.855468 143.660156 117.605469 153.820313 155.226563.550781 2.046875.121093 4.242187-1.171876 5.929687-1.289062 1.6875-3.296874 2.675782-5.421874 2.675782zm-12.585938-13.652344h3.53125c-12.109375-40.144531-48.074219-131.28125-125.585938-136.429688 12.085938 18.613282 40.820313 58.308594 80.09375 82.855469 18.257813 11.40625 32.015626 28.964844 41.960938 53.574219zm0 0" fill="#4c241d"/><path d="m191.644531 322.390625c-3.769531 0-6.828125-3.058594-6.828125-6.828125v-163.839844c0-3.769531 3.058594-6.828125 6.828125-6.828125s6.828125 3.058594 6.828125 6.828125v163.839844c0 3.769531-3.058594 6.828125-6.828125 6.828125zm0 0" fill="#4c241d"/><path d="m232.605469 110.761719c0 22.625-18.339844 40.960937-40.960938 40.960937-22.621093 0-40.960937-18.335937-40.960937-40.960937 0-22.621094 40.109375-117.074219 44.683594-102.398438 14.894531 47.785157 37.238281 79.78125 37.238281 102.398438zm0 0" fill="#fff"/><path d="m191.644531 158.550781c-26.347656 0-47.785156-21.4375-47.785156-47.789062 0-17.070313 32.828125-108.246094 48.761719-110.6718752 3.53125-.5195318 7.695312 1.1992182 9.265625 6.2421872 6.492187 20.828125 14.386719 38.515625 21.351562 54.117188 9.046875 20.269531 16.191407 36.28125 16.191407 50.3125 0 26.351562-21.433594 47.789062-47.785157 47.789062zm.09375-139.320312c-11.65625 19.566406-34.226562 75.960937-34.226562 91.53125 0 18.820312 15.3125 34.132812 34.132812 34.132812 18.820313 0 34.132813-15.3125 34.132813-34.132812 0-11.121094-6.621094-25.957031-15.007813-44.746094-6.125-13.722656-12.953125-29.023437-19.03125-46.785156zm0 0" fill="#4c241d"/><path d="m205.296875 110.761719c0-18.851563-6.113281-34.132813-13.652344-34.132813-7.539062 0-13.652343 15.28125-13.652343 34.132813 0 18.851562 6.113281 34.132812 13.652343 34.132812 7.539063 0 13.652344-15.28125 13.652344-34.132812zm0 0" fill="#ffce56"/><path d="m191.644531 151.722656c-14.070312 0-20.480469-21.230468-20.480469-40.960937 0-19.726563 6.410157-40.957031 20.480469-40.957031 14.070313 0 20.480469 21.230468 20.480469 40.957031 0 19.730469-6.410156 40.960937-20.480469 40.960937zm.367188-13.589844h.070312zm-.367188-54.503906c-2.234375 1.757813-6.828125 11.113282-6.828125 27.132813 0 16.023437 4.59375 25.378906 6.828125 27.136719 2.234375-1.757813 6.828125-11.113282 6.828125-27.136719 0-16.019531-4.59375-25.375-6.828125-27.132813zm0 0" fill="#4c241d"/><path d="m114.578125 294.480469c-6.535156 12.121093-10.253906 25.984375-10.253906 40.722656 0 47.480469 38.488281 85.96875 85.96875 85.96875s85.96875-38.488281 85.96875-85.96875c0-14.738281-3.71875-28.601563-10.253907-40.722656zm0 0" fill="#fff"/><g fill="#4c241d"><path d="m190.296875 427.996094c-51.167969 0-92.796875-41.625-92.796875-92.792969 0-15.320313 3.824219-30.523437 11.066406-43.964844 1.191406-2.207031 3.5-3.585937 6.011719-3.585937h151.429687c2.511719 0 4.820313 1.378906 6.011719 3.585937 7.238281 13.4375 11.066407 28.636719 11.066407 43.964844.003906 51.167969-41.625 92.792969-92.789063 92.792969zm-71.523437-126.6875c-5 10.539062-7.621094 22.175781-7.621094 33.894531 0 43.636719 35.503906 79.140625 79.144531 79.140625 43.632813 0 79.136719-35.503906 79.136719-79.140625 0-11.722656-2.621094-23.359375-7.617188-33.894531zm0 0"/><path d="m223.25 385.738281c-2.066406 0-4.105469-.929687-5.445312-2.703125-2.277344-3.007812-1.6875-7.289062 1.3125-9.566406 12.910156-9.78125 20.3125-24.667969 20.3125-40.839844 0-3.769531 3.058593-6.824218 6.828124-6.824218 3.769532 0 6.828126 3.054687 6.828126 6.824218 0 20.484375-9.375 39.335938-25.71875 51.722656-1.234376.9375-2.683594 1.386719-4.117188 1.386719zm0 0"/></g></svg>