<svg height="431pt" viewBox="-28 0 431 431.17909" width="431pt" xmlns="http://www.w3.org/2000/svg"><path d="m307.289062 194.558594c0 84.832031-68.769531 153.601562-153.597656 153.601562-84.832031 0-153.6015622-68.769531-153.6015622-153.601562 0-84.828125 68.7695312-153.597656 153.6015622-153.597656 84.828125 0 153.597656 68.769531 153.597656 153.597656zm0 0" fill="#efefd2"/><g fill="#4c241d"><path d="m122.964844 320.851562c-.867188 0-1.75-.164062-2.605469-.519531-3.484375-1.441406-5.140625-5.433593-3.695313-8.921875l81.917969-197.972656c1.046875-2.53125 3.519531-4.191406 6.269531-4.210938 2.90625-.28125 5.230469 1.609376 6.3125 4.140626l81.917969 191.144531c1.488281 3.460937-.117187 7.472656-3.585937 8.960937-3.449219 1.492188-7.480469-.113281-8.960938-3.589844l-75.53125-176.246093-75.726562 183c-1.085938 2.628906-3.628906 4.214843-6.3125 4.214843zm0 0"/><path d="m204.890625 122.878906c-3.773437 0-6.828125-3.050781-6.828125-6.824218v-109.226563c0-3.773437 3.054688-6.828125 6.828125-6.828125s6.824219 3.054688 6.824219 6.828125v109.226563c0 3.773437-3.050782 6.824218-6.824219 6.824218zm0 0"/><path d="m211.710938 300.375c-3.492188 0-6.464844-2.667969-6.792969-6.207031-.28125-3.121094-6.707031-77.199219 13.914062-145.941407 1.078125-3.613281 4.871094-5.652343 8.5-4.582031 3.613281 1.085938 5.65625 4.894531 4.578125 8.5-19.847656 66.148438-13.460937 140.046875-13.394531 140.785157.339844 3.753906-2.425781 7.074218-6.183594 7.414062-.207031.023438-.414062.03125-.621093.03125zm0 0"/><path d="m184.417969 307.199219c-.230469 0-.457031-.011719-.6875-.035157-3.753907-.371093-6.488281-3.71875-6.113281-7.472656 6.59375-65.917968-13.054688-119.273437-13.253907-119.796875-1.324219-3.535156.464844-7.46875 3.996094-8.792969 3.535156-1.308593 7.464844.464844 8.789063 3.992188.859374 2.292969 20.960937 56.898438 14.054687 125.960938-.351563 3.519531-3.320313 6.144531-6.785156 6.144531zm0 0"/><path d="m225.375 307.199219c-.277344 0-.566406-.019531-.851562-.050781-3.738282-.46875-6.394532-3.878907-5.925782-7.621094 6.84375-54.78125 26.839844-108.515625 27.683594-110.78125 1.320312-3.53125 5.289062-5.304688 8.789062-3.992188 3.53125 1.324219 5.316407 5.257813 4 8.785156-.199218.539063-20.28125 54.539063-26.925781 107.679688-.433593 3.453125-3.375 5.980469-6.769531 5.980469zm0 0"/></g><path d="m206.183594 155.0625 5.664062-33.664062 8.996094-12.328126-3.335938-21.332031 24.261719-12.53125 8.796875-27.59375 18.195313-9.402343 33.257812-24.863282-5.464843 48.921875-21.125 18.597657 3.535156 36.59375-21.128906 18.601562-2.527344 39.722656-27.394532 6.46875-3.332031-21.328125zm0 0" fill="#a9ba5a"/><path d="m227.917969 189.078125c-1.347657 0-2.671875-.398437-3.804688-1.160156-1.582031-1.058594-2.648437-2.734375-2.941406-4.613281l-2.679687-17.160157-14.382813-4.578125c-3.238281-1.035156-5.21875-4.289062-4.65625-7.640625l5.660156-33.660156c.175781-1.046875.59375-2.035156 1.21875-2.894531l7.332031-10.046875-2.898437-18.53125c-.453125-2.902344 1-5.769531 3.613281-7.121094l21.746094-11.234375 7.933594-24.898438c.550781-1.730468 1.765625-3.164062 3.371094-3.996093l17.695312-9.136719 32.808594-24.527344c2.175781-1.628906 5.117187-1.808594 7.480468-.460937 2.359376 1.351562 3.691407 3.980469 3.390626 6.6875l-5.460938 48.925781c-.191406 1.6875-1 3.238281-2.273438 4.367188l-18.503906 16.285156 3.191406 33.121094c.214844 2.179687-.640624 4.324218-2.28125 5.78125l-19.003906 16.726562-2.347656 36.90625c-.195312 3-2.320312 5.519531-5.246094 6.214844l-27.394531 6.464844c-.519531.121093-1.042969.179687-1.566406.179687zm-14.019531-38.726563 12.757812 4.066407c2.46875.789062 4.273438 2.902343 4.675781 5.453125l2.191407 14.042968 15.292968-3.609374 2.207032-34.675782c.113281-1.808594.941406-3.496094 2.300781-4.695312l18.507812-16.292969-3.195312-33.121094c-.210938-2.179687.640625-4.324219 2.28125-5.78125l19.148437-16.84375 3.417969-30.648437-20.640625 15.433594c-.296875.226562-.617188.425781-.953125.601562l-15.679687 8.101562-7.933594 24.898438c-.550782 1.726562-1.765625 3.160156-3.375 3.992188l-19.882813 10.277343 2.570313 16.464844c.28125 1.785156-.164063 3.613281-1.230469 5.078125l-8.046875 11.027344zm0 0" fill="#4c241d"/><path d="m163.929688 307.199219c-3.769532 0-6.828126-3.050781-6.828126-6.824219 0-18.949219-13.03125-51.746094-13.164062-52.082031-1.402344-3.5.300781-7.472657 3.800781-8.875 3.515625-1.398438 7.476563.300781 8.878907 3.808593.574218 1.441407 14.140624 35.597657 14.140624 57.144532 0 3.777344-3.058593 6.828125-6.828124 6.828125zm0 0" fill="#4c241d"/><path d="m286.136719 157.140625 27.433593 20.3125 6.910157 13.609375 20.523437 6.699219.167969 27.308593 20.605469 20.351563.125 20.480469 7.078125 40.917968-41.125-27.054687-6.996094-27.265625-34.21875-13.441406-6.992187-27.261719-34.257813-20.269531 6.65625-27.347656 20.523437 6.699218zm0 0" fill="#a9ba5a"/><path d="m368.984375 313.644531c-1.308594 0-2.613281-.371093-3.753906-1.117187l-41.125-27.054688c-1.421875-.933594-2.441407-2.367187-2.863281-4.007812l-6.132813-23.886719-30.960937-12.167969c-2.039063-.796875-3.574219-2.53125-4.121094-4.65625l-6.285156-24.527344-31.828126-18.828124c-2.585937-1.527344-3.871093-4.566407-3.160156-7.484376l6.652344-27.347656c.449219-1.847656 1.648438-3.425781 3.3125-4.351562 1.667969-.921875 3.621094-1.121094 5.441406-.523438l16.515625 5.386719 10.597657-10.734375c2.386718-2.425781 6.195312-2.71875 8.921874-.691406l27.433594 20.3125c.851563.632812 1.546875 1.453125 2.027344 2.394531l5.632812 11.085937 17.832032 5.832032c2.796875.914062 4.6875 3.507812 4.707031 6.445312l.148437 24.476563 18.597657 18.359375c1.289062 1.273437 2.015625 3.007812 2.027343 4.820312l.121094 19.914063 6.988282 40.355469c.464843 2.6875-.707032 5.386718-2.988282 6.875-1.132812.75-2.4375 1.121093-3.738281 1.121093zm-35.175781-38.132812 25.761718 16.949219-4.394531-25.394532c-.066406-.375-.097656-.746094-.097656-1.125l-.109375-17.65625-18.597656-18.359375c-1.289063-1.273437-2.015625-3.007812-2.027344-4.820312l-.136719-22.378907-15.84375-5.179687c-1.722656-.558594-3.148437-1.78125-3.96875-3.394531l-6.183593-12.171875-21.375-15.828125-9.40625 9.523437c-1.820313 1.839844-4.515626 2.492188-6.980469 1.691407l-13.511719-4.40625-3.722656 15.265624 29.90625 17.691407c1.558594.921875 2.6875 2.421875 3.140625 4.179687l6.125 23.882813 30.960937 12.164062c2.042969.800781 3.574219 2.535157 4.121094 4.65625zm0 0" fill="#4c241d"/><path d="m187.855469 175.625 3.816406-33.917969-5.253906-14.332031 9.074219-19.585938-19.875-18.726562-.863282-28.949219-14.90625-14.042969-25.132812-33.058593-8.210938 48.539062 15.191406 23.695313-13.464843 34.207031 15.191406 23.691406-8.5 38.886719 24.558594 13.757812 9.074219-19.585937zm0 0" fill="#a9ba5a"/><path d="m159.480469 202.613281c-1.15625 0-2.308594-.292969-3.335938-.875l-24.558593-13.753906c-2.621094-1.464844-3.972657-4.472656-3.332032-7.414063l7.894532-36.121093-13.664063-21.308594c-1.183594-1.847656-1.410156-4.148437-.605469-6.1875l12.1875-30.960937-13.308594-20.753907c-.917968-1.433593-1.265624-3.152343-.984374-4.824219l8.214843-48.539062c.453125-2.679688 2.453125-4.84375 5.097657-5.488281 2.636718-.652344 5.417968.324219 7.066406 2.492187l24.789062 32.605469 14.496094 13.660156c1.3125 1.242188 2.085938 2.953125 2.140625 4.761719l.777344 26.125 17.816406 16.789062c2.140625 2.011719 2.746094 5.164063 1.511719 7.832032l-7.886719 17.027344 4.28125 11.679687c.367187.996094.492187 2.0625.378906 3.109375l-3.8125 33.917969c-.378906 3.378906-3.183593 5.960937-6.585937 6.066406l-15.082032.449219-7.300781 15.75c-.796875 1.730468-2.277343 3.042968-4.085937 3.628906-.691406.226562-1.402344.332031-2.109375.332031zm-16.808594-24.066406 13.710937 7.679687 5.976563-12.894531c1.085937-2.347656 3.40625-3.878906 5.992187-3.960937l13.386719-.390625 2.964844-26.433594-4.695313-12.828125c-.625-1.699219-.542968-3.570312.214844-5.210938l7.007813-15.128906-16.296875-15.34375c-1.316406-1.242187-2.089844-2.953125-2.140625-4.761718l-.78125-26.132813-12.847657-12.105469c-.273437-.253906-.527343-.53125-.75-.832031l-15.59375-20.515625-5.148437 30.398438 13.769531 21.472656c1.183594 1.847656 1.410156 4.148437.605469 6.1875l-12.191406 30.960937 13.3125 20.753907c.976562 1.527343 1.308593 3.375.921875 5.148437zm45.183594-2.921875h.066406zm0 0" fill="#4c241d"/><path d="m204.890625 424.351562c-56.410156 0-102.136719-45.726562-102.136719-102.132812v-42.324219h204.269532v42.324219c.003906 56.40625-45.726563 102.132812-102.132813 102.132812zm0 0" fill="#fff"/><path d="m204.890625 431.179688c-60.085937 0-108.964844-48.882813-108.964844-108.96875v-42.320313c0-3.773437 3.054688-6.824219 6.828125-6.824219h204.269532c3.773437 0 6.824218 3.050782 6.824218 6.824219v42.320313c.003906 60.089843-48.875 108.96875-108.957031 108.96875zm-95.308594-144.460938v35.496094c0 52.550781 42.753907 95.3125 95.308594 95.3125s95.308594-42.761719 95.308594-95.3125v-35.496094zm0 0" fill="#4c241d"/><path d="m234.710938 398.097656c-2.640626 0-5.160157-1.546875-6.273438-4.125-1.488281-3.46875.113281-7.480468 3.574219-8.972656 15.269531-6.570312 27.636719-18.453125 34.824219-33.46875 1.625-3.398438 5.695312-4.839844 9.105468-3.210938 3.402344 1.632813 4.84375 5.707032 3.214844 9.105469-8.621094 18-23.4375 32.246094-41.746094 40.121094-.878906.371094-1.800781.550781-2.699218.550781zm0 0" fill="#4c241d"/><path d="m130.257812 198.101562-27.429687 20.3125-6.910156 13.609376-20.523438 6.699218-.167969 27.308594-20.605468 20.351562-.125 20.480469-7.082032 40.917969 41.128907-27.054688 6.996093-27.265624 34.214844-13.441407 6.996094-27.265625 34.257812-20.269531-6.660156-27.347656-20.519531 6.703125zm0 0" fill="#a9ba5a"/><path d="m47.414062 354.605469c-1.304687 0-2.605468-.375-3.742187-1.117188-2.273437-1.488281-3.449219-4.1875-2.984375-6.875l6.984375-40.359375.121094-19.914062c.011719-1.8125.742187-3.546875 2.03125-4.816406l18.59375-18.363282.148437-24.472656c.019532-2.941406 1.914063-5.53125 4.707032-6.445312l17.835937-5.835938 5.632813-11.085938c.480468-.9375 1.171874-1.757812 2.023437-2.390624l27.433594-20.3125c2.738281-2.027344 6.539062-1.726563 8.921875.691406l10.601562 10.734375 16.511719-5.386719c1.808594-.59375 3.773437-.398438 5.441406.519531 1.660157.925781 2.859375 2.507813 3.308594 4.355469l6.652344 27.34375c.714843 2.921875-.566407 5.960938-3.152344 7.488281l-31.824219 18.828125-6.292968 24.53125c-.546876 2.121094-2.078126 3.855469-4.117188 4.65625l-30.96875 12.164063-6.125 23.878906c-.421875 1.648437-1.445312 3.082031-2.863281 4.015625l-41.132813 27.054688c-1.132812.738281-2.4375 1.113281-3.746094 1.113281zm14.015626-65.359375-.109376 17.652344c-.003906.382812-.035156.753906-.101562 1.128906l-4.390625 25.390625 25.761719-16.945313 6.335937-24.707031c.546875-2.128906 2.078125-3.859375 4.117188-4.660156l30.96875-12.167969 6.125-23.886719c.453125-1.75 1.582031-3.25 3.136719-4.171875l29.902343-17.691406-3.714843-15.265625-13.515626 4.40625c-2.453124.800781-5.15625.144531-6.976562-1.695313l-9.40625-9.519531-21.378906 15.828125-6.179688 12.171875c-.820312 1.613281-2.246094 2.832031-3.96875 3.394531l-15.84375 5.179688-.136718 22.378906c-.011719 1.8125-.742188 3.546875-2.03125 4.820313zm34.488281-57.226563h.066406zm0 0" fill="#4c241d"/></svg>