<svg height="423pt" viewBox="-54 0 423 423.25333" width="423pt" xmlns="http://www.w3.org/2000/svg"><path d="m307.328125 167.253906c0 84.832032-68.769531 153.597656-153.601563 153.597656-84.832031 0-153.601562-68.765624-153.601562-153.597656 0-84.832031 68.769531-153.601562 153.601562-153.601562 84.832032 0 153.601563 68.769531 153.601563 153.601562zm0 0" fill="#efefd2"/><path d="m211.753906 307.199219c-22.621094 0-40.960937-18.335938-40.960937-40.960938v-218.453125c0-22.621094 18.339843-40.957031 40.960937-40.957031s40.960938 18.335937 40.960938 40.957031v218.453125c0 22.625-18.339844 40.960938-40.960938 40.960938zm0 0" fill="#a9ba5a"/><path d="m211.753906 314.027344c-26.351562 0-47.789062-21.4375-47.789062-47.789063v-218.453125c0-26.347656 21.4375-47.785156 47.789062-47.785156 26.347656 0 47.785156 21.4375 47.785156 47.785156v218.453125c0 26.351563-21.4375 47.789063-47.785156 47.789063zm0-300.375c-18.820312 0-34.132812 15.316406-34.132812 34.132812v218.453125c0 18.820313 15.3125 34.136719 34.132812 34.136719 18.820313 0 34.132813-15.316406 34.132813-34.136719v-218.453125c0-18.816406-15.3125-34.132812-34.132813-34.132812zm0 0" fill="#4c241d"/><path d="m116.179688 259.414062h191.148437v157.011719h-191.148437zm0 0" fill="#fff"/><g fill="#4c241d"><path d="m307.328125 423.253906h-191.148437c-3.769532 0-6.828126-3.058594-6.828126-6.828125v-157.011719c0-3.769531 3.058594-6.828124 6.828126-6.828124h191.148437c3.773437 0 6.824219 3.058593 6.824219 6.828124v157.011719c0 3.769531-3.050782 6.828125-6.824219 6.828125zm-184.320313-13.652344h177.492188v-143.363281h-177.492188zm0 0"/><path d="m221.40625 77.917969c-1.746094 0-3.492188-.664063-4.828125-2l-19.304687-19.304688c-2.664063-2.664062-2.664063-6.988281 0-9.652343 2.667968-2.667969 6.988281-2.667969 9.652343 0l19.308594 19.304687c2.664063 2.667969 2.664063 6.988281 0 9.652344-1.335937 1.335937-3.082031 2-4.828125 2zm0 0"/><path d="m202.101562 153.011719c-1.746093 0-3.496093-.667969-4.828124-2-2.664063-2.664063-2.664063-6.984375 0-9.652344l19.304687-19.304687c2.667969-2.667969 6.988281-2.667969 9.65625 0 2.664063 2.664062 2.664063 6.988281 0 9.652343l-19.308594 19.304688c-1.332031 1.335937-3.078125 2-4.824219 2zm0 0"/><path d="m221.40625 234.933594c-1.746094 0-3.492188-.667969-4.828125-2l-19.304687-19.308594c-2.664063-2.664062-2.664063-6.984375 0-9.652344 2.667968-2.664062 6.988281-2.664062 9.652343 0l19.308594 19.308594c2.664063 2.664062 2.664063 6.984375 0 9.652344-1.335937 1.332031-3.082031 2-4.828125 2zm0 0"/><path d="m256.480469 79.003906c-2.09375 0-4.15625-.957031-5.496094-2.765625-2.246094-3.03125-1.605469-7.304687 1.429687-9.546875l19.785157-14.648437c3.035156-2.25 7.308593-1.601563 9.546875 1.425781 2.246094 3.03125 1.605468 7.304688-1.425782 9.546875l-19.785156 14.648437c-1.222656.902344-2.648437 1.339844-4.054687 1.339844zm0 0"/><path d="m256.480469 181.402344c-2.09375 0-4.15625-.957032-5.496094-2.765625-2.246094-3.027344-1.605469-7.304688 1.429687-9.546875l19.785157-14.648438c3.035156-2.246094 7.308593-1.597656 9.546875 1.429688 2.246094 3.027344 1.605468 7.300781-1.425782 9.546875l-19.785156 14.644531c-1.222656.902344-2.648437 1.339844-4.054687 1.339844zm0 0"/><path d="m255.394531 250.480469c-2.097656 0-4.15625-.957031-5.496093-2.761719-2.238282-3.03125-1.605469-7.304688 1.421874-9.550781l21.957032-16.265625c3.046875-2.246094 7.308594-1.601563 9.554687 1.421875 2.238281 3.027343 1.605469 7.304687-1.417969 9.550781l-21.960937 16.265625c-1.226563.902344-2.648437 1.339844-4.058594 1.339844zm0 0"/><path d="m168.113281 113.949219c-1.410156 0-2.832031-.4375-4.054687-1.339844l-21.960938-16.269531c-3.03125-2.246094-3.667968-6.519532-1.421875-9.550782 2.242188-3.027343 6.511719-3.667968 9.546875-1.421874l21.960938 16.265624c3.03125 2.246094 3.667968 6.519532 1.425781 9.550782-1.34375 1.804687-3.40625 2.765625-5.496094 2.765625zm0 0"/><path d="m168.113281 148.082031c-1.410156 0-2.832031-.4375-4.054687-1.339843l-21.960938-16.265626c-3.03125-2.246093-3.667968-6.519531-1.421875-9.550781 2.242188-3.023437 6.511719-3.664062 9.546875-1.425781l21.960938 16.265625c3.03125 2.246094 3.667968 6.519531 1.425781 9.550781-1.34375 1.808594-3.40625 2.765625-5.496094 2.765625zm0 0"/><path d="m168.113281 250.480469c-1.410156 0-2.832031-.4375-4.054687-1.339844l-21.960938-16.265625c-3.03125-2.246094-3.667968-6.519531-1.421875-9.550781 2.242188-3.023438 6.511719-3.667969 9.546875-1.421875l21.960938 16.265625c3.03125 2.246093 3.667968 6.519531 1.425781 9.550781-1.34375 1.804688-3.40625 2.761719-5.496094 2.761719zm0 0"/><path d="m273.191406 389.121094c-3.773437 0-6.824218-3.058594-6.824218-6.828125v-12.191407c0-3.769531 3.050781-6.824218 6.824218-6.824218 3.773438 0 6.828125 3.054687 6.828125 6.824218v12.191407c0 3.769531-3.054687 6.828125-6.828125 6.828125zm0 0"/><path d="m273.191406 354.675781c-3.773437 0-6.824218-3.054687-6.824218-6.828125v-54.300781c0-3.769531 3.050781-6.828125 6.824218-6.828125 3.773438 0 6.828125 3.058594 6.828125 6.828125v54.300781c0 3.773438-3.054687 6.828125-6.828125 6.828125zm0 0"/></g></svg>