<svg height="438pt" viewBox="-60 0 438 438.24961" width="438pt" xmlns="http://www.w3.org/2000/svg"><path d="m307.324219 209.554688c0 84.832031-68.769531 153.601562-153.597657 153.601562-84.832031 0-153.601562-68.769531-153.601562-153.601562 0-84.828126 68.769531-153.597657 153.601562-153.597657 84.828126 0 153.597657 68.769531 153.597657 153.597657zm0 0" fill="#efefd2"/><path d="m246.34375 141.289062c-7.019531 0-13.316406-4.277343-15.878906-10.8125-3.9375-10.03125-9.484375-24.492187-11.734375-31.894531-2.953125-9.703125-5.613281-25.902343 3.261719-39.210937 11.945312-17.921875 18.667968-56.75 43.027343-43.308594 7.554688 4.167969 15.863281 6.859375 24.488281 6.503906 9.664063-.394531 21.230469 3.28125 21.230469 23.148438v1.019531c-.054687 26.082031-11.660156 50.796875-31.695312 67.492187l-5.457031 4.546876c-5.183594 4.316406-9.292969 9.671874-13.242188 15.144531-3.265625 4.535156-8.386719 7.371093-14 7.371093zm0 0" fill="#a9ba5a"/><path d="m246.34375 148.117188c-9.894531 0-18.625-5.945313-22.234375-15.144532-4.175781-10.648437-9.632813-24.914062-11.910156-32.40625-3.027344-9.949218-6.519531-29.03125 4.113281-44.980468 2.820312-4.238282 5.433594-10.011719 8.195312-16.125 6.210938-13.742188 12.628907-27.953126 24.679688-31.964844 5.980469-1.980469 12.417969-1.113282 19.128906 2.59375 7.292969 4.019531 14.351563 5.941406 20.914063 5.65625 8.347656-.363282 15.253906 1.96875 20.160156 6.683594 5.425781 5.207031 8.175781 13.039062 8.175781 23.285156l-.003906 1.039062c-.054688 28.171875-12.5 54.679688-34.152344 72.71875l-5.453125 4.542969c-4.753906 3.964844-8.726562 9.253906-12.074219 13.898437-4.605468 6.386719-11.910156 10.203126-19.539062 10.203126zm9.203125-128.003907c-1.03125 0-1.695313.21875-2.050781.339844-6.378906 2.117187-11.78125 14.074219-16.546875 24.625-2.867188 6.347656-5.832031 12.910156-9.277344 18.078125-7.515625 11.28125-4.738281 25.792969-2.410156 33.441406 2.148437 7.066406 7.46875 20.96875 11.554687 31.390625 1.546875 3.933594 5.285156 6.476563 9.527344 6.476563 3.300781 0 6.386719-1.652344 8.460938-4.53125 3.839843-5.324219 8.433593-11.417969 14.410156-16.402344l5.453125-4.542969c18.535156-15.445312 29.191406-38.140625 29.238281-62.265625l.003906-1.027344c0-6.363281-1.335937-10.882812-3.976562-13.414062-2.195313-2.105469-5.582032-3.066406-10.144532-2.894531-9.101562.417969-18.558593-2.09375-28.066406-7.34375-2.789062-1.539063-4.804687-1.929688-6.175781-1.929688zm0 0" fill="#4c241d"/><path d="m240.730469 145.664062c-.683594 0-1.378907-.105468-2.058594-.320312-3.59375-1.136719-5.589844-4.96875-4.453125-8.566406l35.875-113.597656c1.136719-3.597657 4.980469-5.589844 8.566406-4.453126 3.59375 1.136719 5.589844 4.96875 4.453125 8.566407l-35.875 113.597656c-.921875 2.910156-3.609375 4.773437-6.507812 4.773437zm0 0" fill="#4c241d"/><path d="m257.714844 85.480469c-2.332032 0-4.605469-1.195313-5.878906-3.351563l-24.824219-41.9375c-1.921875-3.242187-.847657-7.433594 2.398437-9.351562 3.234375-1.925782 7.429688-.847656 9.347656 2.394531l24.824219 41.941406c1.925781 3.242188.847657 7.429688-2.394531 9.351563-1.09375.648437-2.289062.953125-3.472656.953125zm0 0" fill="#4c241d"/><path d="m273.195312 55.960938c-2.710937 0-5.273437-1.628907-6.34375-4.296876-1.398437-3.503906.304688-7.472656 3.804688-8.875l34.132812-13.652343c3.511719-1.394531 7.476563.304687 8.875 3.804687 1.402344 3.503906-.304687 7.472656-3.804687 8.875l-34.132813 13.652344c-.832031.332031-1.6875.492188-2.53125.492188zm0 0" fill="#4c241d"/><path d="m186.75 135.550781c-6.339844 3.019531-13.863281 1.863281-18.984375-2.9375-7.867187-7.363281-19.089844-18.039062-24.304687-23.753906-6.832032-7.5-16.199219-20.976563-13.90625-36.8125 3.085937-21.316406-7.53125-59.261719 20.242187-57.59375 8.613281.515625 17.273437-.628906 24.90625-4.652344 8.558594-4.511719 20.582031-6.160156 29.121094 11.78125l.433593.917969c11.160157 23.574219 11.300782 50.878906.386719 74.566406l-2.972656 6.445313c-2.824219 6.128906-4.238281 12.730469-5.449219 19.367187-1 5.5-4.402344 10.261719-9.472656 12.671875zm0 0" fill="#a9ba5a"/><path d="m179.359375 144.0625c-5.914063 0-11.726563-2.214844-16.261719-6.464844-8.332031-7.804687-19.378906-18.328125-24.679687-24.140625-7.011719-7.695312-18.367188-23.433593-15.621094-42.390625.730469-5.039062.605469-11.371094.472656-18.082031-.300781-15.074219-.609375-30.667969 8.550781-39.460937 4.542969-4.367188 10.699219-6.339844 18.382813-5.882813 8.3125.484375 15.492187-.804687 21.316406-3.878906 7.320313-3.863281 14.613281-4.773438 21.078125-2.628907 7.132813 2.371094 12.984375 8.261719 17.386719 17.515626l.441406.925781c12.0625 25.476562 12.210938 54.757812.417969 80.347656l-2.972656 6.449219c-2.59375 5.625-3.902344 12.101562-4.929688 17.730468-1.417968 7.753907-6.367187 14.339844-13.257812 17.609376-3.316406 1.582031-6.835938 2.351562-10.324219 2.351562zm-31.277344-122.835938c-4.578125 0-6.226562 1.589844-6.804687 2.140626-4.847656 4.65625-4.585938 17.777343-4.355469 29.351562.136719 6.960938.277344 14.160156-.609375 20.308594-1.84375 12.730468 5.613281 24.007812 12.195312 31.230468 3.898438 4.277344 12.398438 12.578126 23.921876 23.371094 3.085937 2.886719 7.550781 3.578125 11.390624 1.757813 2.976563-1.417969 5.050782-4.238281 5.6875-7.734375 1.175782-6.445313 2.703126-13.921875 5.964844-20.996094l2.972656-6.449219c10.097657-21.90625 9.964844-46.976562-.355468-68.789062l-.433594-.914063c-2.742188-5.753906-5.890625-9.261718-9.359375-10.414062-2.894531-.960938-6.390625-.371094-10.410156 1.746094-8.0625 4.253906-17.640625 6.09375-28.503907 5.429687-.457031-.023437-.890624-.039063-1.300781-.039063zm0 0" fill="#4c241d"/><path d="m180.613281 142.574219c-3.347656 0-6.273437-2.472657-6.75-5.886719l-16.421875-117.992188c-.519531-3.734374 2.085938-7.183593 5.820313-7.699218 3.714843-.539063 7.183593 2.082031 7.699219 5.820312l16.425781 117.988282c.519531 3.734374-2.085938 7.183593-5.820313 7.703124-.316406.046876-.640625.066407-.953125.066407zm0 0" fill="#4c241d"/><path d="m170.089844 80.9375c-1.3125 0-2.636719-.378906-3.804688-1.164062l-40.441406-27.203126c-3.128906-2.101562-3.957031-6.347656-1.851562-9.472656 2.105468-3.132812 6.335937-3.960937 9.472656-1.855468l40.441406 27.203124c3.128906 2.101563 3.957031 6.347657 1.851562 9.472657-1.316406 1.960937-3.472656 3.019531-5.667968 3.019531zm0 0" fill="#4c241d"/><path d="m184.007812 158.414062c-1.859374 6.769532-7.65625 11.710938-14.632812 12.449219-10.71875 1.136719-26.132812 2.65625-33.867188 2.863281-10.140624.269532-26.460937-1.453124-36.945312-13.539062-14.113281-16.269531-49.769531-33.042969-30.355469-52.96875 6.023438-6.179688 10.816407-13.480469 12.761719-21.890625 2.179688-9.425781 8.792969-19.597656 27.949219-14.335937l.980469.273437c25.136718 6.960937 45.890624 24.707031 56.679687 48.449219l2.9375 6.460937c2.792969 6.144531 6.863281 11.527344 11.097656 16.78125 3.503907 4.359375 4.882813 10.046875 3.394531 15.457031zm0 0" fill="#a9ba5a"/><g fill="#4c241d"><path d="m133.699219 180.578125c-10.738281 0-28.5-2.316406-40.292969-15.917969-3.335938-3.84375-8.210938-7.890625-13.375-12.171875-11.605469-9.632812-23.605469-19.589843-24.28125-32.265625-.332031-6.292968 2.214844-12.269531 7.570312-17.761718 5.816407-5.96875 9.515626-12.25 11-18.664063 1.867188-8.074219 5.941407-14.1875 11.789063-17.671875 6.457031-3.855469 14.746094-4.421875 24.621094-1.710938l.980469.273438c27.164062 7.523438 49.425781 26.554688 61.082031 52.207031l2.9375 6.464844c2.566406 5.640625 6.609375 10.863281 10.199219 15.324219 4.941406 6.140625 6.683593 14.191406 4.664062 21.542968-2.625 9.542969-10.671875 16.382813-20.5 17.429688-11.40625 1.210938-26.628906 2.6875-34.398438 2.894531-.632812.015625-1.300781.027344-1.996093.027344zm-34.363281-104.203125c-2.5 0-4.589844.492188-6.238282 1.472656-2.609375 1.558594-4.453125 4.59375-5.480468 9.019532-2.050782 8.886718-6.933594 17.335937-14.519532 25.117187-3.894531 4.003906-3.753906 6.644531-3.714844 7.511719.359376 6.714844 10.457032 15.089844 19.367188 22.484375 5.359375 4.445312 10.898438 9.042969 14.96875 13.730469 8.875 10.234374 23.582031 11.367187 31.609375 11.191406 5.796875-.15625 17.320313-1.132813 33.324219-2.824219 4.199218-.449219 7.648437-3.378906 8.769531-7.472656.875-3.179688.097656-6.589844-2.132813-9.359375-4.109374-5.105469-8.765624-11.148438-11.988281-18.238282l-2.941406-6.46875c-9.980469-21.960937-29.035156-38.253906-52.285156-44.691406l-.96875-.269531c-2.921875-.800781-5.515625-1.203125-7.769531-1.203125zm84.671874 82.042969h.066407zm0 0"/><path d="m180.140625 170.007812c-1.269531 0-2.550781-.351562-3.699219-1.09375l-100.023437-64.699218c-3.164063-2.050782-4.070313-6.277344-2.027344-9.441406 2.050781-3.160157 6.277344-4.066407 9.441406-2.027344l100.023438 64.699218c3.164062 2.050782 4.074219 6.277344 2.027343 9.441407-1.308593 2.019531-3.5 3.121093-5.742187 3.121093zm0 0"/><path d="m79.597656 150.507812c-3.003906 0-5.757812-1.996093-6.582031-5.035156-.992187-3.636718 1.152344-7.386718 4.789063-8.382812l47.019531-12.816406c3.648437-1.007813 7.394531 1.152343 8.382812 4.792968.992188 3.636719-1.152343 7.386719-4.789062 8.382813l-47.019531 12.816406c-.601563.160156-1.207032.242187-1.800782.242187zm0 0"/><path d="m102.25 114.933594c-3.429688 0-6.382812-2.574219-6.777344-6.0625l-4.117187-36.53125c-.425781-3.746094 2.273437-7.125 6.015625-7.550782 3.707031-.410156 7.125 2.265626 7.550781 6.019532l4.117187 36.53125c.425782 3.746094-2.269531 7.125-6.015624 7.550781-.257813.027344-.519532.042969-.773438.042969zm0 0"/><path d="m135.15625 130.753906c-.628906 0-1.265625-.089844-1.898438-.269531-3.621093-1.046875-5.710937-4.828125-4.664062-8.453125l7.679688-26.597656c1.042968-3.621094 4.820312-5.707032 8.453124-4.664063 3.621094 1.046875 5.710938 4.828125 4.664063 8.453125l-7.679687 26.597656c-.863282 2.988282-3.59375 4.933594-6.554688 4.933594zm0 0"/><path d="m171.386719 47.628906c-1.660157 0-3.316407-.601562-4.632813-1.8125-2.769531-2.5625-2.9375-6.878906-.378906-9.648437l24.953125-26.996094c2.558594-2.761719 6.875-2.933594 9.644531-.378906 2.769532 2.558593 2.941406 6.878906.382813 9.644531l-24.953125 26.996094c-1.347656 1.457031-3.175782 2.195312-5.015625 2.195312zm0 0"/></g><path d="m202.007812 210.375c-7.011718.375-13.53125-3.558594-16.441406-9.949219-4.464844-9.804687-10.78125-23.949219-13.421875-31.21875-3.464843-9.535156-6.988281-25.566406 1.160157-39.332031 10.96875-18.535156 15.605468-57.664062 40.648437-45.546875 7.769531 3.757813 16.210937 6 24.804687 5.183594 9.628907-.910157 21.375 2.144531 22.4375 21.980469l.050782 1.019531c1.34375 26.042969-8.925782 51.347656-28.039063 69.089843l-5.203125 4.832032c-4.949218 4.589844-8.765625 10.15625-12.414062 15.832031-3.019532 4.703125-7.980469 7.808594-13.582032 8.109375zm0 0" fill="#a9ba5a"/><path d="m201.050781 217.226562c-9.359375 0-17.78125-5.375-21.695312-13.96875-4.734375-10.394531-10.941407-24.332031-13.628907-31.71875-3.550781-9.785156-8.054687-28.660156 1.703126-45.140624 2.59375-4.382813 4.890624-10.289063 7.324218-16.542969 5.46875-14.054688 11.117188-28.585938 22.933594-33.234375 5.867188-2.308594 12.339844-1.773438 19.242188 1.558594 7.5 3.632812 14.613281 5.164062 21.183593 4.539062 8.246094-.785156 15.332031 1.152344 20.488281 5.589844 5.695313 4.910156 8.863282 12.585937 9.410157 22.816406l.054687 1.027344c1.453125 28.144531-9.5625 55.277344-30.210937 74.453125l-5.207031 4.832031c-4.542969 4.214844-8.21875 9.703125-11.3125 14.515625-4.257813 6.628906-11.34375 10.832031-18.964844 11.238281-.441406.023438-.878906.035156-1.320313.035156zm4.070313-128.359374c-1.265625 0-2.046875.308593-2.4375.460937-6.253906 2.460937-11.007813 14.6875-15.207032 25.476563-2.523437 6.492187-5.132812 13.203124-8.296874 18.546874-6.554688 11.070313-3.953126 24.34375-.617188 33.527344 1.976562 5.433594 6.671875 16.347656 13.21875 30.71875 1.753906 3.851563 5.675781 6.21875 9.855469 5.960938h.003906c3.292969-.175782 6.289063-1.992188 8.207031-4.984375 3.542969-5.515625 7.804688-11.839844 13.515625-17.140625l5.203125-4.832032c17.679688-16.414062 27.105469-39.648437 25.867188-63.738281l-.054688-1.011719c-.34375-6.367187-1.921875-10.808593-4.691406-13.195312-2.296875-1.980469-5.75-2.777344-10.285156-2.34375-9.0625.859375-18.636719-1.101562-28.417969-5.839844-2.601563-1.253906-4.511719-1.605468-5.863281-1.605468zm0 0" fill="#4c241d"/><path d="m196.269531 215.050781c-.5625 0-1.136719-.074219-1.707031-.222656-3.65625-.9375-5.851562-4.660156-4.90625-8.3125l29.75-115.351563c.941406-3.652343 4.664062-5.84375 8.3125-4.90625 3.652344.9375 5.851562 4.660157 4.90625 8.3125l-29.75 115.351563c-.792969 3.082031-3.566406 5.128906-6.605469 5.128906zm0 0" fill="#4c241d"/><path d="m210.007812 154.046875c-2.207031 0-4.371093-1.066406-5.683593-3.039063l-27.03125-40.554687c-2.089844-3.136719-1.246094-7.375 1.890625-9.464844 3.136718-2.105469 7.378906-1.246093 9.46875 1.890625l27.03125 40.554688c2.089844 3.136718 1.242187 7.375-1.894532 9.464844-1.164062.777343-2.480468 1.148437-3.78125 1.148437zm0 0" fill="#4c241d"/><path d="m223.886719 123.738281c-2.578125 0-5.042969-1.464843-6.195313-3.957031-1.589844-3.421875-.097656-7.476562 3.320313-9.066406l33.355469-15.460938c3.398437-1.585937 7.480468-.101562 9.0625 3.324219 1.589843 3.421875.097656 7.476563-3.320313 9.066406l-33.355469 15.457031c-.925781.433594-1.902344.636719-2.867187.636719zm0 0" fill="#4c241d"/><path d="m206.324219 185.851562c-3.644531 0-6.667969-2.878906-6.816407-6.550781-.152343-3.765625 2.773438-6.941406 6.542969-7.097656l27.660157-1.125c3.761718-.191406 6.941406 2.777344 7.097656 6.542969.152344 3.765625-2.773438 6.941406-6.542969 7.097656l-27.660156 1.125c-.09375.003906-.1875.007812-.28125.007812zm0 0" fill="#4c241d"/><path d="m198.097656 356.328125c-3.769531 0-6.828125-3.054687-6.828125-6.824219v-143.359375c0-3.773437 3.058594-6.828125 6.828125-6.828125 3.769532 0 6.828125 3.054688 6.828125 6.828125v143.359375c0 3.769532-3.058593 6.824219-6.828125 6.824219zm0 0" fill="#4c241d"/><path d="m194.683594 431.421875c-39.585938 0-71.679688-32.089844-71.679688-71.679687v-44.371094h143.359375v44.371094c0 39.589843-32.089843 71.679687-71.679687 71.679687zm0 0" fill="#fff"/><path d="m194.683594 438.25c-43.289063 0-78.503906-35.21875-78.503906-78.507812v-44.371094c0-3.773438 3.054687-6.828125 6.824218-6.828125h143.359375c3.773438 0 6.828125 3.054687 6.828125 6.828125v44.371094c0 43.292968-35.21875 78.507812-78.507812 78.507812zm-64.851563-116.054688v37.546876c0 35.761718 29.09375 64.855468 64.851563 64.855468 35.761718 0 64.855468-29.09375 64.855468-64.855468v-37.546876zm0 0" fill="#4c241d"/><path d="m266.359375 322.195312c-1.027344 0-2.066406-.230468-3.046875-.71875-3.375-1.6875-4.742188-5.789062-3.054688-9.160156l20.480469-40.960937c1.691407-3.371094 5.777344-4.75 9.160157-3.050781 3.375 1.683593 4.738281 5.785156 3.054687 9.15625l-20.480469 40.960937c-1.199218 2.394531-3.609375 3.773437-6.113281 3.773437zm0 0" fill="#4c241d"/><path d="m126.839844 323.441406c-2.527344 0-4.953125-1.402344-6.140625-3.820312l-21.304688-43.445313c-1.660156-3.386719-.257812-7.476562 3.125-9.140625 3.382813-1.664062 7.476563-.257812 9.136719 3.125l21.304688 43.445313c1.660156 3.386719.261718 7.476562-3.121094 9.136719-.96875.476562-1.996094.699218-3 .699218zm0 0" fill="#4c241d"/><path d="m194.683594 410.941406c-3.769532 0-6.824219-3.054687-6.824219-6.824218 0-3.769532 3.054687-6.828126 6.824219-6.828126 3.730468 0 7.429687-.460937 11-1.375 3.65625-.945312 7.375 1.277344 8.304687 4.933594.929688 3.65625-1.277343 7.367188-4.929687 8.300782-4.675782 1.191406-9.511719 1.792968-14.375 1.792968zm0 0" fill="#4c241d"/><path d="m229.125 397.632812c-1.855469 0-3.707031-.75-5.054688-2.234374-2.535156-2.789063-2.332031-7.105469.457032-9.640626 4.746094-4.3125 8.5625-9.699218 11.050781-15.570312 1.464844-3.46875 5.46875-5.097656 8.945313-3.625 3.472656 1.46875 5.09375 5.472656 3.625 8.945312-3.25 7.679688-8.238282 14.714844-14.433594 20.351563-1.304688 1.1875-2.953125 1.773437-4.589844 1.773437zm0 0" fill="#4c241d"/></svg>