<svg height="418pt" viewBox="-55 0 418 418.9071" width="418pt" xmlns="http://www.w3.org/2000/svg"><path d="m307.652344 210.695312c0 84.828126-68.769532 153.597657-153.597656 153.597657-84.832032 0-153.601563-68.769531-153.601563-153.597657 0-84.832031 68.769531-153.601562 153.601563-153.601562 84.828124 0 153.597656 68.769531 153.597656 153.601562zm0 0" fill="#efefd2"/><path d="m177.640625 299.730469h-20.527344s-77.332031-99.582031-91.390625-205.03125c0 0 76.207032 171.039062 111.917969 205.03125zm0 0" fill="#a9ba5a"/><path d="m177.640625 306.554688h-20.527344c-2.105469 0-4.097656-.972657-5.394531-2.640626-3.199219-4.125-78.625-102.253906-92.765625-208.3125-.445313-3.363281 1.640625-6.546874 4.910156-7.472656 3.296875-.921875 6.710938.695313 8.089844 3.792969.761719 1.699219 76.066406 170.183594 110.394531 202.859375 2.019532 1.925781 2.667969 4.886719 1.632813 7.480469-1.039063 2.59375-3.546875 4.292969-6.339844 4.292969zm-17.113281-13.652344h2.171875c-21.480469-28.183594-50.367188-84.054688-72.132813-128.90625 23.714844 64.257812 60.992188 116.761718 69.960938 128.90625zm0 0" fill="#4c241d"/><path d="m174.683594 302.085938s-63.269532-168.722657-56.238282-224.960938l77.332032 224.960938zm0 0" fill="#a9ba5a"/><path d="m195.773438 308.910156h-21.085938c-2.847656 0-5.394531-1.765625-6.394531-4.429687-2.605469-6.953125-63.777344-170.953125-56.621094-228.203125.394531-3.15625 2.90625-5.617188 6.070313-5.941406 3.089843-.320313 6.125 1.5625 7.15625 4.570312l77.328124 224.957031c.722657 2.085938.386719 4.390625-.898437 6.1875-1.28125 1.792969-3.347656 2.859375-5.554687 2.859375zm-16.328126-13.652344h6.761719l-55.425781-161.261718c12.699219 61.15625 41.5 141.65625 48.664062 161.261718zm0 0" fill="#4c241d"/><path d="m212.808594 301.683594s13.089844-131.769532 12.699218-201.519532c-.132812-23.558593 2.167969-47.070312 7.277344-70.070312l5.171875-23.269531s-28.121093 14.058593-35.152343 119.507812c-7.027344 105.449219-15.394532 176.652344-15.394532 176.652344zm0 0" fill="#a9ba5a"/><path d="m187.40625 309.808594c-1.886719 0-3.6875-.777344-4.984375-2.160156-1.375-1.46875-2.03125-3.464844-1.796875-5.460938.089844-.710938 8.429688-72.265625 15.367188-176.308594 7.085937-106.28125 35.671874-123.542968 38.90625-125.164062 2.363281-1.167969 5.1875-.886719 7.253906.726562 2.074218 1.621094 3.035156 4.292969 2.46875 6.863282l-5.167969 23.269531c-4.859375 21.847656-7.253906 44.910156-7.121094 68.550781.394531 69.304688-12.597656 200.914062-12.730469 202.230469-.335937 3.363281-3.074218 5.976562-6.449218 6.144531l-25.398438 1.300781c-.113281.007813-.234375.007813-.347656.007813zm25.402344-8.125h.066406zm9.796875-254.53125c-5.390625 17.15625-10.511719 42.5-12.984375 79.636718-5.628906 84.339844-12.179688 147.445313-14.535156 168.964844l11.492187-.585937c2.5-26.277344 12.441406-134.683594 12.101563-194.964844-.097657-18.082031 1.214843-35.851563 3.925781-53.050781zm0 0" fill="#4c241d"/><path d="m195.777344 302.085938h21.089844s28.121093-21.089844 28.121093-112.480469 28.117188-161.691407 28.117188-161.691407-42.179688 35.152344-49.207031 140.601563c-7.03125 105.449219-28.121094 133.570313-28.121094 133.570313zm0 0" fill="#a9ba5a"/><path d="m216.867188 308.910156h-21.09375c-2.585938 0-4.945313-1.457031-6.105469-3.773437-1.148438-2.292969-.914063-5.03125.605469-7.097657.382812-.535156 20.113281-29.507812 26.808593-129.976562 7.144531-107.136719 49.839844-143.882812 51.652344-145.390625 2.414063-2 5.859375-2.113281 8.378906-.28125 2.535157 1.835937 3.496094 5.15625 2.335938 8.058594-.28125.691406-27.632813 70.261719-27.632813 159.15625 0 93.726562-29.59375 116.996093-30.855468 117.941406-1.179688.882813-2.613282 1.363281-4.09375 1.363281zm-9.832032-13.652344h7.085938c5.257812-5.84375 24.039062-31.878906 24.039062-105.652343 0-47.394531 7.332032-88.902344 14.585938-118.34375-9.632813 21.480469-19.066406 53.144531-22.039063 97.707031-4.871093 73.105469-16.558593 109.992188-23.671875 126.289062zm0 0" fill="#4c241d"/><path d="m207.597656 302.855469h-36.425781s-49.210937-214.015625 35.148437-284.316407c0 0-35.199218 86.339844-21.085937 147.632813 13.003906 56.492187 22.363281 136.683594 22.363281 136.683594zm0 0" fill="#a9ba5a"/><path d="m207.601562 309.679688h-36.429687c-3.179687 0-5.9375-2.195313-6.652344-5.296876-2.046875-8.90625-49.160156-218.929687 37.429688-291.085937 2.417969-2.015625 5.878906-2.113281 8.398437-.265625 2.53125 1.847656 3.480469 5.179688 2.292969 8.085938-.339844.839843-34.210937 85.085937-20.753906 143.519531 12.941406 56.210937 22.402343 136.621093 22.496093 137.425781.226563 1.933594-.386718 3.875-1.679687 5.328125-1.296875 1.457031-3.15625 2.289063-5.101563 2.289063zm-30.894531-13.652344h23.179688c-2.679688-21.316406-10.851563-82.925782-21.308594-128.328125-8.785156-38.171875.527344-84.796875 9.488281-116.230469-42.707031 75.304688-17.261718 215.601562-11.359375 244.558594zm0 0" fill="#4c241d"/><path d="m238.085938 412.082031h-98.273438l-14.132812-116.054687h126.539062zm0 0" fill="#fff"/><g fill="#4c241d"><path d="m238.085938 418.90625h-98.273438c-3.453125 0-6.359375-2.578125-6.773438-6l-14.132812-116.054688c-.242188-1.9375.367188-3.886718 1.660156-5.351562 1.300782-1.464844 3.160156-2.300781 5.113282-2.300781h126.542968c1.953125 0 3.8125.835937 5.113282 2.300781 1.292968 1.460938 1.898437 3.414062 1.660156 5.351562l-14.132813 116.054688c-.417969 3.421875-3.324219 6-6.777343 6zm-92.226563-13.652344h86.179687l12.476563-102.398437h-111.128906zm0 0"/><path d="m218.90625 330.160156h-61.4375c-3.773438 0-6.828125-3.054687-6.828125-6.828125 0-3.769531 3.054687-6.824219 6.828125-6.824219h61.4375c3.773438 0 6.828125 3.054688 6.828125 6.824219 0 3.773438-3.054687 6.828125-6.828125 6.828125zm0 0"/></g></svg>