<svg height="419pt" viewBox="-56 0 419 419.47989" width="419pt" xmlns="http://www.w3.org/2000/svg"><path d="m307.441406 204.441406c0 84.828125-68.769531 153.597656-153.601562 153.597656-84.832032 0-153.601563-68.769531-153.601563-153.597656 0-84.832031 68.769531-153.601562 153.601563-153.601562 84.832031 0 153.601562 68.769531 153.601562 153.601562zm0 0" fill="#efefd2"/><path d="m159.671875 231.65625c28.679687 40.488281 43.722656 79.121094 33.601563 86.289062-10.125 7.171876-41.578126-19.839843-70.257813-60.324218-28.675781-40.484375-33.597656-86.289063-33.597656-86.289063s41.574219 19.835938 70.253906 60.324219zm0 0" fill="#a9ba5a"/><path d="m189.28125 325.976562c-7.375 0-16.828125-5.015624-28.621094-15.144531-13.679687-11.746093-29.027344-29.242187-43.214844-49.265625-29.363281-41.460937-34.605468-87.5625-34.8125-89.507812-.265624-2.457032.820313-4.867188 2.839844-6.296875 2.023438-1.429688 4.660156-1.65625 6.886719-.589844 1.761719.839844 43.515625 21.074219 72.886719 62.542969 14.183594 20.019531 25.59375 40.304687 32.140625 57.105468 7.921875 20.355469 7.867187 33.007813-.167969 38.699219-2.3125 1.640625-4.957031 2.457031-7.9375 2.457031zm-90.566406-141.535156c3.617187 16.171875 11.957031 43.929688 29.878906 69.230469 29.199219 41.226563 55.1875 60.214844 60.980469 58.574219 2.851562-4.621094-6.269531-35.414063-35.476563-76.640625-17.964844-25.367188-41.34375-42.40625-55.382812-51.164063zm0 0" fill="#4c241d"/><path d="m209.449219 231.65625c-28.679688 40.488281-43.722657 79.121094-33.601563 86.289062 10.121094 7.171876 41.574219-19.839843 70.253906-60.324218 28.679688-40.484375 33.601563-86.289063 33.601563-86.289063s-41.574219 19.835938-70.253906 60.324219zm0 0" fill="#a9ba5a"/><path d="m179.839844 325.976562c-2.980469 0-5.628906-.816406-7.941406-2.464843-8.03125-5.6875-8.085938-18.339844-.164063-38.691407 6.546875-16.800781 17.957031-37.085937 32.136719-57.109374 29.375-41.464844 71.128906-61.699219 72.886718-62.539063 2.234376-1.058594 4.867188-.832031 6.886719.585937 2.023438 1.433594 3.105469 3.839844 2.839844 6.300782-.207031 1.945312-5.445313 48.046875-34.8125 89.503906-14.183594 20.027344-29.53125 37.519531-43.210937 49.269531-11.792969 10.128907-21.246094 15.144531-28.621094 15.144531zm90.582031-141.523437c-14.054687 8.773437-37.480469 25.851563-55.402344 51.152344-29.207031 41.226562-38.324219 72.019531-35.023437 76.960937 5.316406 1.140625 31.332031-17.667968 60.53125-58.894531 17.964844-25.359375 26.285156-53.078125 29.894531-69.21875zm-60.976563 47.207031h.066407zm0 0" fill="#4c241d"/><path d="m184.558594 278.394531c-3.773438 0-6.824219-3.054687-6.824219-6.828125v-118.328125c0-3.773437 3.050781-6.824219 6.824219-6.824219 3.773437 0 6.828125 3.050782 6.828125 6.824219v118.328125c0 3.773438-3.054688 6.828125-6.828125 6.828125zm0 0" fill="#4c241d"/><path d="m263.824219 269.292969h-158.054688l18.941407 117.292969h120.171874zm0 0" fill="#fff"/><path d="m244.878906 393.414062h-120.164062c-3.355469 0-6.207032-2.433593-6.742188-5.742187l-18.945312-117.292969c-.320313-1.972656.246094-3.988281 1.539062-5.511718 1.300782-1.523438 3.199219-2.402344 5.199219-2.402344h158.058594c2.003906 0 3.902343.882812 5.203125 2.402344 1.292968 1.527343 1.859375 3.539062 1.539062 5.511718l-18.949218 117.292969c-.53125 3.308594-3.382813 5.742187-6.738282 5.742187zm-114.351562-13.65625h108.539062l16.742188-103.640624h-142.019532zm0 0" fill="#4c241d"/><path d="m171.535156 59.238281c0 17.984375-14.578125 32.5625-32.558594 32.5625-17.980468 0-32.558593-14.578125-32.558593-32.5625 0-17.980469 14.578125-32.558593 32.558593-32.558593 17.980469 0 32.558594 14.578124 32.558594 32.558593zm0 0" fill="#9dc1e4"/><path d="m138.972656 98.625c-21.71875 0-39.386718-17.664062-39.386718-39.386719 0-21.71875 17.667968-39.382812 39.386718-39.382812s39.386719 17.664062 39.386719 39.382812c0 21.722657-17.664063 39.386719-39.386719 39.386719zm0-65.121094c-14.183594 0-25.734375 11.546875-25.734375 25.734375s11.550781 25.734375 25.734375 25.734375c14.1875 0 25.734375-11.546875 25.734375-25.734375s-11.546875-25.734375-25.734375-25.734375zm0 0" fill="#4c241d"/><path d="m124.710938 385.347656 4.210937 27.304688h111.75l4.210937-27.304688zm0 0" fill="#bf7e68"/><path d="m240.671875 419.480469h-111.75c-3.367187 0-6.234375-2.460938-6.746094-5.789063l-4.207031-27.304687c-.308594-1.96875.265625-3.972657 1.566406-5.488281 1.292969-1.507813 3.183594-2.378907 5.179688-2.378907h120.164062c1.996094 0 3.886719.871094 5.179688 2.378907 1.300781 1.515624 1.875 3.519531 1.566406 5.488281l-4.207031 27.304687c-.511719 3.328125-3.378907 5.789063-6.746094 5.789063zm-105.898437-13.652344h100.046874l2.097657-13.65625h-104.246094zm0 0" fill="#4c241d"/><path d="m216.804688 39.386719c0 17.984375-14.578126 32.5625-32.558594 32.5625-17.984375 0-32.558594-14.578125-32.558594-32.5625 0-17.980469 14.574219-32.558594 32.558594-32.558594 17.980468 0 32.558594 14.578125 32.558594 32.558594zm0 0" fill="#9dc1e4"/><path d="m184.246094 78.773438c-21.722656 0-39.386719-17.667969-39.386719-39.386719s17.667969-39.386719 39.386719-39.386719 39.386718 17.667969 39.386718 39.386719-17.667968 39.386719-39.386718 39.386719zm0-65.121094c-14.1875 0-25.734375 11.546875-25.734375 25.730468 0 14.1875 11.546875 25.734376 25.734375 25.734376s25.734375-11.546876 25.734375-25.734376c0-14.183593-11.546875-25.730468-25.734375-25.730468zm0 0" fill="#4c241d"/><path d="m262.703125 59.238281c0 17.984375-14.578125 32.5625-32.558594 32.5625-17.984375 0-32.5625-14.578125-32.5625-32.5625 0-17.980469 14.578125-32.558593 32.5625-32.558593 17.980469 0 32.558594 14.578124 32.558594 32.558593zm0 0" fill="#9dc1e4"/><path d="m230.148438 98.625c-21.722657 0-39.386719-17.664062-39.386719-39.386719 0-21.71875 17.664062-39.382812 39.386719-39.382812 21.71875 0 39.382812 17.664062 39.382812 39.382812 0 21.722657-17.664062 39.386719-39.382812 39.386719zm0-65.121094c-14.1875 0-25.734376 11.546875-25.734376 25.734375s11.546876 25.734375 25.734376 25.734375c14.183593 0 25.730468-11.546875 25.730468-25.734375s-11.546875-25.734375-25.730468-25.734375zm0 0" fill="#4c241d"/><path d="m256.507812 111.335938c0 17.980468-14.578124 32.558593-32.5625 32.558593-17.980468 0-32.558593-14.578125-32.558593-32.558593 0-17.984376 14.578125-32.5625 32.558593-32.5625 17.984376 0 32.5625 14.578124 32.5625 32.5625zm0 0" fill="#9dc1e4"/><path d="m223.945312 150.71875c-21.71875 0-39.386718-17.667969-39.386718-39.386719s17.667968-39.386719 39.386718-39.386719 39.386719 17.667969 39.386719 39.386719-17.664062 39.386719-39.386719 39.386719zm0-65.121094c-14.183593 0-25.730468 11.550782-25.730468 25.734375 0 14.1875 11.546875 25.734375 25.730468 25.734375 14.1875 0 25.734376-11.546875 25.734376-25.734375 0-14.183593-11.546876-25.734375-25.734376-25.734375zm0 0" fill="#4c241d"/><path d="m177.734375 111.335938c0 17.980468-14.578125 32.558593-32.5625 32.558593-17.980469 0-32.558594-14.578125-32.558594-32.558593 0-17.984376 14.578125-32.5625 32.558594-32.5625 17.984375 0 32.5625 14.578124 32.5625 32.5625zm0 0" fill="#9dc1e4"/><path d="m145.171875 150.71875c-21.71875 0-39.386719-17.667969-39.386719-39.386719s17.667969-39.386719 39.386719-39.386719 39.386719 17.667969 39.386719 39.386719c0 21.722657-17.667969 39.386719-39.386719 39.386719zm0-65.121094c-14.183594 0-25.730469 11.550782-25.730469 25.734375 0 14.1875 11.546875 25.734375 25.730469 25.734375 14.1875 0 25.734375-11.546875 25.734375-25.734375 0-14.183593-11.546875-25.734375-25.734375-25.734375zm0 0" fill="#4c241d"/><path d="m216.804688 123.730469c0 17.980469-14.578126 32.558593-32.558594 32.558593-17.984375 0-32.558594-14.578124-32.558594-32.558593 0-17.984375 14.574219-32.558594 32.558594-32.558594 17.980468 0 32.558594 14.574219 32.558594 32.558594zm0 0" fill="#9dc1e4"/><path d="m184.246094 163.121094c-21.722656 0-39.386719-17.667969-39.386719-39.386719s17.667969-39.386719 39.386719-39.386719 39.386718 17.667969 39.386718 39.386719-17.667968 39.386719-39.386718 39.386719zm0-65.121094c-14.1875 0-25.734375 11.546875-25.734375 25.730469 0 14.1875 11.546875 25.734375 25.734375 25.734375s25.734375-11.546875 25.734375-25.734375c0-14.183594-11.546875-25.730469-25.734375-25.730469zm0 0" fill="#4c241d"/><path d="m211.867188 84.972656c0 15.082032-12.226563 27.308594-27.308594 27.308594-15.078125 0-27.304688-12.226562-27.304688-27.308594 0-15.082031 12.226563-27.304687 27.304688-27.304687 15.082031 0 27.308594 12.222656 27.308594 27.304687zm0 0" fill="#9dc1e4"/><path d="m184.558594 119.105469c-18.816406 0-34.132813-15.3125-34.132813-34.132813 0-18.820312 15.316407-34.132812 34.132813-34.132812 18.820312 0 34.132812 15.3125 34.132812 34.132812 0 18.820313-15.3125 34.132813-34.132812 34.132813zm0-54.613281c-11.292969 0-20.480469 9.1875-20.480469 20.480468 0 11.292969 9.1875 20.480469 20.480469 20.480469 11.292968 0 20.480468-9.1875 20.480468-20.480469 0-11.292968-9.1875-20.480468-20.480468-20.480468zm0 0" fill="#4c241d"/></svg>