<svg height="399pt" viewBox="-36 0 399 399.69803" width="399pt" xmlns="http://www.w3.org/2000/svg"><path d="m307.550781 184.65625c0 84.832031-68.769531 153.601562-153.601562 153.601562s-153.601563-68.769531-153.601563-153.601562c0-84.828125 68.769532-153.597656 153.601563-153.597656s153.601562 68.769531 153.601562 153.597656zm0 0" fill="#efefd2"/><path d="m265.667969 42.628906c10.90625-10.054687 25.976562-12.679687 35.746093-3.804687 9.765626 8.875 3.347657 28.453125-.378906 35.941406-3.726562 7.492187-14.945312 31.269531-53.710937 33.035156 0 0-20.121094-29.707031 18.34375-65.171875zm0 0" fill="#a9ba5a"/><path d="m247.324219 114.628906c-2.253907 0-4.378907-1.117187-5.652344-2.996094-.230469-.347656-22.925781-35.023437 19.371094-74.023437 14.148437-13.046875 33.058593-14.660156 44.964843-3.835937 12.523438 11.378906 6.609376 33.035156 1.144532 44.035156-4.414063 8.890625-17.320313 34.890625-59.515625 36.8125-.105469.003906-.207031.007812-.3125.007812zm39.847656-74.359375c-5.859375 0-12.140625 3.015625-16.875 7.378907-26.644531 24.566406-22.183594 45.191406-18.964844 53.03125 30.691407-2.957032 39.863281-21.441407 43.414063-28.59375 4.265625-8.574219 7.691406-23.109376 2.078125-28.207032-2.78125-2.527344-6.140625-3.609375-9.652344-3.609375zm-21.503906 2.359375h.066406zm0 0" fill="#4c241d"/><path d="m178.199219 93.6875s-56.304688-13.523438-61.425781-62.25c-.601563-5.753906.410156-11.734375 3.589843-16.566406 5-7.597656 15.664063-14.53125 37 2.535156 34.132813 27.304688 33.480469 67.660156 33.480469 67.660156zm0 0" fill="#a9ba5a"/><path d="m178.195312 100.515625c-.53125 0-1.066406-.066406-1.59375-.191406-2.488281-.597657-61.054687-15.253907-66.617187-68.171875-.816406-7.738282.84375-15.210938 4.671875-21.035156 4-6.070313 9.519531-9.816407 15.972656-10.84375 8.992188-1.398438 19.429688 2.546874 30.996094 11.800781 36.332031 29.0625 36.070312 71.320312 36.042969 73.105469-.035157 2.21875-1.152344 4.277343-2.984375 5.527343l-12.644532 8.621094c-1.144531.78125-2.484374 1.1875-3.84375 1.1875zm-43.867187-86.875c-.574219 0-1.097656.046875-1.5625.121094-2.628906.414062-4.820313 2.007812-6.699219 4.863281-2.101562 3.191406-2.988281 7.488281-2.5 12.097656 3.941406 37.5 42.609375 52.144532 53.425782 55.523438l6.859374-4.671875c-.792968-9.746094-5.28125-38.460938-30.753906-58.839844-9.097656-7.277344-15.074218-9.09375-18.769531-9.09375zm0 0" fill="#4c241d"/><path d="m154.367188 144.664062c7.207031-38.75 33.714843-69.296874 57.609374-65.8125 15.175782 2.210938 29.785157 16.34375 41.65625 34.773438 10.609376 16.46875 16.007813 35.890625 16.195313 55.597656.003906.117188.003906.234375.003906.351563.105469 15.816406-4.066406 31.375-10.851562 45.664062l-16.285157 34.273438h-75.09375s-19.640624-70.386719-13.234374-104.847657zm0 0" fill="#a9ba5a"/><path d="m242.695312 256.339844h-75.09375c-3.0625 0-5.753906-2.042969-6.578124-4.992188-.816407-2.9375-19.992188-72.320312-13.363282-107.933594 7.925782-42.664062 37.851563-75.328124 65.296875-71.320312 20.109375 2.929688 36.339844 22.191406 46.414063 37.835938 11.097656 17.226562 17.078125 37.710937 17.289062 59.226562.101563 16.339844-3.773437 32.703125-11.515625 49.011719l-16.28125 34.273437c-1.132812 2.378906-3.53125 3.898438-6.167969 3.898438zm-69.839843-13.65625h65.527343l14.429688-30.375c6.855469-14.433594 10.28125-28.792969 10.195312-42.691406-.1875-19.265626-5.410156-37.234376-15.113281-52.296876-12.070312-18.742187-25.175781-30.007812-36.898437-31.714843-19.707032-2.847657-43.511719 25.863281-49.910156 60.300781h-.003907c-5.09375 27.378906 7.542969 80.332031 11.773438 96.777344zm-18.488281-98.019532h.066406zm0 0" fill="#4c241d"/><path d="m310.765625 276.816406h-197.582031c-5.761719 0-10.433594-4.671875-10.433594-10.433594v-20.089843c0-5.761719 4.671875-10.433594 10.433594-10.433594h197.582031c5.765625 0 10.4375 4.671875 10.4375 10.433594v20.089843c0 5.761719-4.671875 10.433594-10.4375 10.433594zm0 0" fill="#bf7e68"/><path d="m310.765625 283.644531h-197.582031c-9.519532 0-17.261719-7.742187-17.261719-17.261719v-20.089843c0-9.519531 7.742187-17.261719 17.261719-17.261719h197.582031c9.519531 0 17.261719 7.742188 17.261719 17.261719v20.089843c0 9.519532-7.742188 17.261719-17.261719 17.261719zm-197.582031-40.960937c-1.988282 0-3.609375 1.621094-3.609375 3.609375v20.089843c0 1.988282 1.621093 3.609376 3.609375 3.609376h197.582031c1.992187 0 3.609375-1.621094 3.609375-3.609376v-20.089843c0-1.988281-1.617188-3.609375-3.609375-3.609375zm0 0" fill="#4c241d"/><path d="m254.988281 392.871094h-86.023437c-9 0-16.976563-5.785156-19.773438-14.339844l-33.234375-101.714844h192.039063l-33.230469 101.714844c-2.800781 8.554688-10.777344 14.339844-19.777344 14.339844zm0 0" fill="#fff"/><path d="m254.988281 399.699219h-86.027343c-11.980469 0-22.535157-7.65625-26.261719-19.050781l-33.234375-101.710938c-.679688-2.082031-.320313-4.355469.960937-6.125 1.285157-1.773438 3.339844-2.820312 5.527344-2.820312h192.039063c2.1875 0 4.242187 1.046874 5.527343 2.820312 1.28125 1.769531 1.644531 4.042969.960938 6.125l-33.234375 101.710938c-3.722656 11.394531-14.273438 19.050781-26.257813 19.050781zm-129.617187-116.054688 30.308594 92.765625c1.882812 5.761719 7.21875 9.632813 13.28125 9.632813h86.027343c6.0625 0 11.402344-3.871094 13.285157-9.632813l30.308593-92.765625zm0 0" fill="#4c241d"/></svg>