<svg height="424pt" viewBox="-55 0 424 424.15573" width="424pt" xmlns="http://www.w3.org/2000/svg"><path d="m307.277344 174.980469c0 84.832031-68.769532 153.601562-153.597656 153.601562-84.832032 0-153.601563-68.769531-153.601563-153.601562 0-84.828125 68.769531-153.597657 153.601563-153.597657 84.828124 0 153.597656 68.769532 153.597656 153.597657zm0 0" fill="#efefd2"/><path d="m170.746094 335.242188c-3.773438 0-6.828125-3.050782-6.828125-6.824219v-192.84375c0-3.773438 3.054687-6.824219 6.828125-6.824219 3.773437 0 6.824218 3.050781 6.824218 6.824219v192.839843c0 3.773438-3.050781 6.828126-6.824218 6.828126zm0 0" fill="#4c241d"/><path d="m212.253906 250.019531c-16.636718 16.636719-39.398437 20.855469-39.398437 20.855469s4.222656-22.757812 20.859375-39.398438c16.636718-16.636718 39.394531-20.855468 39.394531-20.855468s-4.21875 22.757812-20.855469 39.398437zm0 0" fill="#a9ba5a"/><path d="m172.855469 277.703125c-1.792969 0-3.53125-.707031-4.824219-2-1.59375-1.585937-2.292969-3.859375-1.886719-6.074219.1875-1.011718 4.8125-25.046875 22.738281-42.980468 17.933594-17.925782 41.96875-22.554688 42.984376-22.738282 2.210937-.394531 4.476562.292969 6.070312 1.882813 1.597656 1.589843 2.296875 3.863281 1.886719 6.074219-.183594 1.015624-4.8125 25.046874-22.746094 42.976562-17.925781 17.933594-41.960937 22.558594-42.972656 22.746094-.414063.074218-.832031.113281-1.25.113281zm49.996093-56.800781c-7.207031 2.839844-16.566406 7.652344-24.3125 15.398437-7.789062 7.785157-12.59375 17.113281-15.421874 24.292969 7.207031-2.839844 16.558593-7.660156 24.308593-15.40625 7.785157-7.785156 12.597657-17.105469 15.425781-24.285156zm0 0" fill="#4c241d"/><path d="m127.164062 217.761719c19.886719 12.574219 43.015626 11.691406 43.015626 11.691406s-9.117188-21.277344-29-33.851563c-19.886719-12.578124-43.015626-11.691406-43.015626-11.691406s9.113282 21.273438 29 33.851563zm0 0" fill="#a9ba5a"/><path d="m169.125 236.296875c-5.472656 0-26.71875-.820313-45.605469-12.761719 0-.007812 0-.007812 0-.007812-21.4375-13.550782-31.222656-35.984375-31.628906-36.933594-.886719-2.066406-.699219-4.433594.507813-6.332031 1.199218-1.898438 3.257812-3.089844 5.507812-3.171875 1.03125-.039063 25.511719-.808594 46.917969 12.746094 21.433593 13.546874 31.222656 35.988281 31.628906 36.933593.886719 2.066407.699219 4.433594-.507813 6.332031-1.199218 1.902344-3.261718 3.089844-5.507812 3.175782-.121094.003906-.574219.019531-1.3125.019531zm-38.3125-24.308594c9.304688 5.886719 19.457031 8.535157 27.085938 9.714844-4.355469-6.40625-11.105469-14.472656-20.367188-20.328125-9.246094-5.851562-19.414062-8.5-27.066406-9.6875 4.355468 6.402344 11.101562 14.457031 20.347656 20.308594zm0 0" fill="#4c241d"/><path d="m224.058594 417.328125h-98.277344l-14.128906-116.050781h126.539062zm0 0" fill="#fff"/><path d="m224.058594 424.15625h-98.273438c-3.453125 0-6.363281-2.574219-6.773437-6l-14.132813-116.054688c-.242187-1.941406.367188-3.886718 1.660156-5.355468 1.300782-1.457032 3.160157-2.296875 5.113282-2.296875h126.539062c1.953125 0 3.8125.835937 5.113282 2.296875 1.292968 1.46875 1.898437 3.414062 1.660156 5.355468l-14.132813 116.054688c-.414062 3.425781-3.320312 6-6.773437 6zm-92.226563-13.652344h86.179688l12.472656-102.402344h-111.125zm0 0" fill="#4c241d"/><path d="m190.210938 64.472656c-26.710938 23.785156-20.957032 73.84375-20.957032 73.84375s49.058594 11.492188 75.765625-12.292968c26.710938-23.78125 20.957031-73.839844 20.957031-73.839844s-49.054687-11.496094-75.765624 12.289062zm0 0" fill="#f53e28"/><path d="m196.265625 147.941406c-15.488281 0-27.546875-2.738281-28.574219-2.980468-2.800781-.660157-4.894531-3.007813-5.222656-5.867188-.25-2.183594-5.816406-53.878906 23.203125-79.71875 29.039063-25.847656 79.710937-14.339844 81.867187-13.839844 2.800782.660156 4.890626 3.007813 5.21875 5.867188.253907 2.1875 5.828126 53.878906-23.191406 79.71875-15.1875 13.523437-36.308594 16.820312-53.300781 16.820312zm-20.566406-15.363281c12.453125 2.003906 45.679687 5.359375 64.785156-11.65625 19.152344-17.050781 19.625-50.410156 19.058594-62.996094-12.445313-2.003906-45.691407-5.355469-64.792969 11.652344-19.085938 16.992187-19.605469 50.398437-19.050781 63zm14.511719-68.101563h.066406zm0 0" fill="#4c241d"/><path d="m151.277344 64.472656c26.710937 23.785156 20.957031 73.84375 20.957031 73.84375s-49.054687 11.492188-75.765625-12.292968c-26.710938-23.78125-20.957031-73.839844-20.957031-73.839844s49.054687-11.496094 75.765625 12.289062zm0 0" fill="#f53e28"/><path d="m145.226562 147.941406c-16.996093 0-38.113281-3.300781-53.300781-16.820312-29.019531-25.839844-23.445312-77.53125-23.195312-79.71875.328125-2.859375 2.421875-5.207032 5.222656-5.867188 2.152344-.507812 52.847656-12 81.867187 13.839844 29.019532 25.839844 23.453126 77.535156 23.199219 79.71875-.324219 2.859375-2.417969 5.207031-5.21875 5.867188-1.027343.242187-13.089843 2.980468-28.574219 2.980468zm27.011719-9.632812h.066407zm-90.28125-80.386719c-.550781 12.601563-.042969 46 19.046875 63 19.167969 17.074219 52.363282 13.6875 64.789063 11.667969.550781-12.601563.039062-46.015625-19.054688-63.015625-19.101562-17.003907-52.332031-13.664063-64.78125-11.652344zm0 0" fill="#4c241d"/><path d="m212.894531 71.585938c0 35.765624-41.210937 64.757812-41.210937 64.757812s-41.207032-28.992188-41.207032-64.757812c0-35.765626 41.207032-64.757813 41.207032-64.757813s41.210937 28.992187 41.210937 64.757813zm0 0" fill="#f53e28"/><path d="m171.683594 143.171875c-1.371094 0-2.746094-.414063-3.925782-1.242187-1.800781-1.273438-44.113281-31.480469-44.113281-70.347657 0-38.859375 42.3125-69.066406 44.113281-70.339843 2.359376-1.652344 5.507813-1.660157 7.855469.007812 1.800781 1.265625 44.105469 31.472656 44.105469 70.332031 0 38.867188-42.304688 69.074219-44.105469 70.339844-1.175781.832031-2.554687 1.25-3.929687 1.25zm.007812-127.722656c-9.773437 7.96875-34.390625 30.566406-34.390625 56.136719 0 25.652343 24.597657 48.191406 34.378907 56.140624 9.773437-7.96875 34.386718-30.566406 34.386718-56.140624-.003906-25.648438-24.601562-48.191407-34.375-56.136719zm0 0" fill="#4c241d"/><path d="m244.289062 151.136719c-37.332031 9.246093-72.746093-4.054688-72.746093-4.054688s25.109375-28.296875 62.441406-37.542969c37.332031-9.25 72.746094 4.054688 72.746094 4.054688s-25.109375 28.292969-62.441407 37.542969zm0 0" fill="#a9ba5a"/><path d="m216.257812 161.25c-26.007812 0-45.984374-7.355469-47.113281-7.773438-2.105469-.796874-3.6875-2.570312-4.226562-4.753906-.539063-2.179687.027343-4.488281 1.519531-6.171875 1.082031-1.222656 26.960938-29.988281 65.90625-39.644531 38.941406-9.625 75.253906 3.714844 76.789062 4.289062 2.105469.792969 3.683594 2.566407 4.226563 4.753907.539063 2.179687-.027344 4.484375-1.519531 6.171875-1.089844 1.21875-26.96875 29.992187-65.90625 39.640625-10.269532 2.542969-20.363282 3.488281-29.675782 3.488281zm28.035157-10.113281h.066406zm-59.480469-7.339844c12.757812 3 35.058594 6.355469 57.839844.714844 22.757812-5.640625 40.933594-19.015625 50.8125-27.632813-12.765625-3.015625-35.066406-6.363281-57.839844-.714844-22.765625 5.636719-40.933594 19.019532-50.8125 27.632813zm0 0" fill="#4c241d"/><path d="m97.199219 151.136719c37.332031 9.246093 72.75-4.054688 72.75-4.054688s-25.113281-28.296875-62.445313-37.542969c-37.328125-9.25-72.746094 4.054688-72.746094 4.054688s25.113282 28.292969 62.441407 37.542969zm0 0" fill="#a9ba5a"/><path d="m125.230469 161.25c-9.3125 0-19.40625-.941406-29.671875-3.488281-38.941406-9.644531-64.820313-38.421875-65.90625-39.640625-1.496094-1.6875-2.0625-3.992188-1.523438-6.171875.539063-2.1875 2.121094-3.960938 4.230469-4.753907 1.53125-.566406 37.859375-13.933593 76.785156-4.289062 38.945313 9.65625 64.824219 38.421875 65.90625 39.644531 1.492188 1.683594 2.058594 3.992188 1.519531 6.171875-.539062 2.183594-2.117187 3.957032-4.226562 4.753906-1.125.421876-21.105469 7.773438-47.113281 7.773438zm-26.394531-16.738281c22.867187 5.664062 45.132812 2.316406 57.855468-.703125-9.875-8.613282-28.046875-22-50.828125-27.644532-22.867187-5.667968-45.140625-2.320312-57.851562.699219 9.871093 8.613281 28.054687 22.007813 50.824219 27.648438zm0 0" fill="#4c241d"/></svg>