<svg height="432pt" viewBox="-37 0 432 432.22694" width="432pt" xmlns="http://www.w3.org/2000/svg"><path d="m311.832031 230.839844c0 84.832031-68.769531 153.601562-153.601562 153.601562s-153.601563-68.769531-153.601563-153.601562c0-84.832032 68.769532-153.597656 153.601563-153.597656s153.601562 68.765624 153.601562 153.597656zm0 0" fill="#efefd2"/><path d="m67.398438 81.652344s-15.148438-25.25-5.046876-35.347656c10.097657-10.101563 50.5-10.101563 85.851563 55.550781 35.351563 65.648437-5.460937 61.101562-30.300781 40.398437-30.300782-25.25-50.503906-60.601562-50.503906-60.601562zm0 0" fill="#a9ba5a"/><g fill="#4c241d"><path d="m148.738281 162.695312c-11.199219 0-24.707031-6.441406-35.207031-15.195312-30.539062-25.449219-50.742188-60.167969-52.019531-62.394531-1.996094-3.339844-17.382813-30.238281-3.988281-43.625 5.605468-5.605469 15.445312-8.011719 26.320312-6.402344 14.660156 2.15625 43.296875 13.269531 70.367188 63.539063 16.40625 30.472656 18.996093 50.601562 7.691406 59.839843-3.605469 2.949219-8.15625 4.238281-13.164063 4.238281zm-71.484375-114.460937c-5.546875 0-8.859375 1.679687-10.074218 2.894531-4.109376 4.105469.890624 18.332032 6.078124 27.019532.023438.035156.050782.078124.070313.113281.195313.34375 19.992187 34.621093 48.941406 58.746093 12.550781 10.460938 26.71875 14.363282 30.996094 10.871094 3.085937-2.519531 4.230469-14.371094-11.074219-42.789062-25.144531-46.695313-50.566406-55.070313-60.332031-56.503906-1.675781-.246094-3.210937-.351563-4.605469-.351563zm0 0"/><path d="m188.949219 288.867188c-3.769531 0-6.824219-3.058594-6.824219-6.828126v-143.359374c0-3.769532 3.054688-6.824219 6.824219-6.824219s6.828125 3.054687 6.828125 6.824219v143.359374c0 3.769532-3.058594 6.828126-6.828125 6.828126zm0 0"/><path d="m188.957031 206.945312c-2.257812 0-4.46875-1.117187-5.769531-3.167968l-27.097656-42.714844c-2.019532-3.183594-1.078125-7.40625 2.105468-9.421875 3.183594-2.019531 7.40625-1.078125 9.421876 2.105469l27.097656 42.714844c2.019531 3.183593 1.074218 7.40625-2.105469 9.421874-1.132813.722657-2.402344 1.0625-3.652344 1.0625zm0 0"/><path d="m189.972656 204.746094c-1.761718 0-3.519531-.675782-4.859375-2.027344-2.648437-2.679688-2.621093-7.003906.058594-9.652344l24.160156-23.867187c2.679688-2.648438 7.003907-2.625 9.652344.058593 2.652344 2.679688 2.625 7.003907-.058594 9.652344l-24.160156 23.867188c-1.328125 1.3125-3.058594 1.96875-4.792969 1.96875zm0 0"/></g><path d="m347.707031 154.683594c-23.972656 18.3125-78.503906 50.722656-138.625 24.417968 0 0 49.949219-86.277343 136.933594-43.535156 7.503906 3.6875 8.335937 14.042969 1.691406 19.117188zm0 0" fill="#a9ba5a"/><path d="m255.527344 195.738281c-15.617188 0-32.199219-2.953125-49.183594-10.378906-1.777344-.777344-3.140625-2.28125-3.75-4.128906-.605469-1.847657-.394531-3.863281.582031-5.546875.53125-.917969 54.199219-91.269532 145.851563-46.242188 5.601562 2.75 9.3125 8.121094 9.921875 14.355469.617187 6.34375-2.03125 12.441406-7.097657 16.3125-16.394531 12.523437-52.589843 35.628906-96.324218 35.628906zm-36.054688-19.855469c52.746094 18.761719 100.003906-8.222656 124.089844-26.625 0-.003906 0-.003906 0-.003906 1.847656-1.410156 1.871094-3.355468 1.800781-4.125-.09375-.894531-.511719-2.527344-2.355469-3.4375-33.53125-16.472656-65.089843-14.800781-93.8125 4.964844-14.238281 9.804688-24.339843 21.882812-29.722656 29.226562zm0 0" fill="#4c241d"/><path d="m188.957031 275.214844c-2.507812 0-4.917969-1.382813-6.113281-3.773438l-27.304688-54.613281c-1.6875-3.375-.324218-7.476563 3.050782-9.160156 3.386718-1.691407 7.476562-.316407 9.160156 3.050781l27.308594 54.613281c1.683594 3.375.320312 7.476563-3.054688 9.160157-.980468.492187-2.023437.722656-3.046875.722656zm0 0" fill="#4c241d"/><path d="m9.316406 160.625c13.246094-14.046875 32.050782-21.480469 51.320313-20.296875 14.78125.910156 29.097656 5.597656 41.417969 13.808594 17.203124 11.460937 59.144531 43.515625 70.257812 85.238281 0 0-1.496094-1.191406-41.199219-13.753906-37.96875-12.011719-72.179687-9.914063-121.140625-52.359375-3.757812-3.257813-4.070312-9.019531-.65625-12.636719zm0 0" fill="#a9ba5a"/><path d="m172.3125 246.199219c-1.097656 0-2.179688-.257813-3.171875-.777344-.878906-.382813-6.910156-2.796875-40.089844-13.292969-8.988281-2.84375-17.648437-4.847656-26.816406-6.972656-28.71875-6.648438-58.414063-13.519531-96.734375-46.738281-3.195312-2.773438-5.152344-6.792969-5.367188-11.027344-.210937-4.277344 1.285157-8.34375 4.214844-11.449219 14.683594-15.566406 35.324219-23.773437 56.710938-22.429687 16.117187.992187 31.605468 6.15625 44.78125 14.941406 14.066406 9.371094 60.910156 43.503906 73.070312 89.164063.753906 2.84375-.394531 5.855468-2.859375 7.464843-1.140625.75-2.441406 1.117188-3.738281 1.117188zm-115.699219-99.167969c-16.003906 0-31.265625 6.546875-42.332031 18.277344 0 0 0 .003906-.003906.003906-.453125.476562-.527344 1.027344-.507813 1.398438.019531.3125.125.914062.679688 1.390624 35.75 30.996094 62.523437 37.191407 90.859375 43.753907 9.023437 2.089843 18.359375 4.246093 27.859375 7.253906 12.742187 4.035156 21.652343 6.921875 27.914062 9.007813-15.375-34.601563-51.171875-60.546876-62.816406-68.304688-11.175781-7.445312-24.332031-11.824219-38.050781-12.671875-1.199219-.074219-2.402344-.109375-3.601563-.109375zm-47.296875 13.59375h.066406zm0 0" fill="#4c241d"/><path d="m251.421875 99.511719c-18.878906 25.929687-47.875 54.765625-69.296875 39.167969-21.421875-15.59375-13.617188-71.773438 5.257812-97.707032 18.878907-25.929687 51.367188-46.675781 65.652344-25.25 10.101563 15.152344 17.265625 57.859375-1.613281 83.789063zm0 0" fill="#a9ba5a"/><path d="m195.21875 149.855469c-6.160156 0-11.90625-1.867188-17.109375-5.652344-16.0625-11.695313-16.460937-37.019531-15.265625-51.074219 1.777344-20.972656 9.066406-42.496094 19.019531-56.171875 13.601563-18.683593 36.203125-37.160156 55.464844-36.957031 8.910156.183594 16.304687 4.3125 21.386719 11.9375 10.828125 16.242188 19.757812 62.011719-1.773438 91.589844-22.101562 30.359375-43.691406 46.328125-61.722656 46.328125zm41.484375-136.207031c-12.179687 0-30.523437 13.101562-43.796875 31.34375-8.441406 11.597656-14.902344 30.941406-16.460938 49.289062-1.59375 18.765625 2.03125 33.300781 9.695313 38.878906 19.621094 14.285156 50.703125-25.222656 59.761719-37.664062 16.875-23.179688 10.53125-62.367188 1.453125-75.984375-2.601563-3.90625-5.878907-5.765625-10.304688-5.859375-.117187-.003906-.234375-.003906-.347656-.003906zm0 0" fill="#4c241d"/><path d="m272.613281 275.214844h-165.582031l19.847656 122.878906h125.890625zm0 0" fill="#fff"/><path d="m252.769531 404.921875h-125.890625c-3.351562 0-6.207031-2.433594-6.742187-5.738281l-19.847657-122.878906c-.320312-1.976563.25-3.992188 1.542969-5.515626 1.296875-1.523437 3.199219-2.402343 5.199219-2.402343h165.582031c2 0 3.898438.878906 5.195313 2.402343 1.296875 1.523438 1.863281 3.539063 1.542968 5.515626l-19.84375 122.878906c-.53125 3.308594-3.390624 5.738281-6.738281 5.738281zm-120.078125-13.65625h114.261719l17.644531-109.226563h-149.550781zm0 0" fill="#4c241d"/><path d="m126.878906 398.09375 4.410156 27.304688h117.070313l4.410156-27.304688zm0 0" fill="#bf7e68"/><path d="m248.359375 432.226562h-117.070313c-3.351562 0-6.207031-2.429687-6.742187-5.734374l-4.410156-27.308594c-.320313-1.976563.25-3.992188 1.542969-5.515625 1.296874-1.523438 3.199218-2.398438 5.199218-2.398438h125.890625c2 0 3.898438.875 5.195313 2.398438 1.296875 1.523437 1.859375 3.539062 1.542968 5.515625l-4.410156 27.308594c-.53125 3.304687-3.390625 5.734374-6.738281 5.734374zm-111.257813-13.652343h105.445313l2.203125-13.652344h-109.855469zm0 0" fill="#4c241d"/></svg>