<svg height="395pt" viewBox="-2 0 395 395.94667" width="395pt" xmlns="http://www.w3.org/2000/svg"><path d="m316.648438 153.601562c0 84.828126-68.769532 153.597657-153.597657 153.597657-84.832031 0-153.601562-68.769531-153.601562-153.597657 0-84.832031 68.769531-153.601562 153.601562-153.601562 84.828125 0 153.597657 68.769531 153.597657 153.601562zm0 0" fill="#efefd2"/><path d="m313.234375 389.121094h-204.796875c-39.589844 0-71.683594-32.09375-71.683594-71.679688 0-39.589844 32.09375-71.679687 71.683594-71.679687h204.796875c39.589844 0 71.679687 32.089843 71.679687 71.679687 0 39.585938-32.089843 71.679688-71.679687 71.679688zm0 0" fill="#fff"/><g fill="#4c241d"><path d="m313.234375 395.945312h-204.796875c-43.292969 0-78.507812-35.21875-78.507812-78.503906 0-43.289062 35.214843-78.507812 78.507812-78.507812h204.796875c43.289063 0 78.507813 35.21875 78.507813 78.507812 0 43.285156-35.214844 78.503906-78.507813 78.503906zm-204.796875-143.359374c-35.761719 0-64.855469 29.09375-64.855469 64.855468 0 35.757813 29.09375 64.851563 64.855469 64.851563h204.796875c35.761719 0 64.855469-29.09375 64.855469-64.851563 0-35.761718-29.09375-64.855468-64.855469-64.855468zm0 0"/><path d="m309.105469 362.90625c-3.773438 0-6.828125-3.050781-6.828125-6.824219 0-3.773437 3.054687-6.828125 6.828125-6.828125 14.722656 0 27.636719-9.925781 31.414062-24.132812.964844-3.640625 4.714844-5.796875 8.351563-4.847656 3.644531.972656 5.8125 4.707031 4.84375 8.355468-5.359375 20.179688-23.707032 34.277344-44.609375 34.277344zm0 0"/><path d="m152.808594 245.761719c-.597656 0-1.199219-.082031-1.796875-.242188l-75.09375-20.480469c-3.636719-.992187-5.78125-4.746093-4.789063-8.378906.996094-3.640625 4.738282-5.800781 8.382813-4.792968l55.597656 15.164062-76.46875-100.003906c-2.289063-2.992188-1.722656-7.28125 1.277344-9.566406 2.992187-2.300782 7.28125-1.726563 9.566406 1.273437l88.75 116.054687c1.773437 2.324219 1.875 5.523438.238281 7.957032-1.285156 1.914062-3.429687 3.015625-5.664062 3.015625zm0 0"/></g><path d="m139.15625 269.652344c0 32.046875-43.046875 71.679687-75.09375 71.679687s-40.960938-39.632812-40.960938-71.679687 25.980469-58.027344 58.027344-58.027344 58.027344 25.980469 58.027344 58.027344zm0 0" fill="#a9ba5a"/><path d="m64.0625 348.160156c-29.921875 0-47.785156-29.347656-47.785156-78.507812 0-35.757813 29.09375-64.851563 64.851562-64.851563 35.761719 0 64.851563 29.09375 64.851563 64.851563 0 35.222656-45.167969 78.507812-81.917969 78.507812zm17.066406-129.707031c-28.234375 0-51.199218 22.96875-51.199218 51.199219 0 15.214844 2.457031 64.855468 34.132812 64.855468 28.710938 0 68.265625-37.582031 68.265625-64.855468 0-28.230469-22.964844-51.199219-51.199219-51.199219zm0 0" fill="#4c241d"/><path d="m91.367188 119.464844c0 20.738281-16.808594 37.546875-37.542969 37.546875-20.738281 0-37.546875-16.808594-37.546875-37.546875 0-20.734375 16.808594-37.542969 37.546875-37.542969 20.734375 0 37.542969 16.808594 37.542969 37.542969zm0 0" fill="#a9ba5a"/><path d="m53.824219 163.839844c-24.46875 0-44.375-19.90625-44.375-44.375 0-24.464844 19.90625-44.371094 44.375-44.371094 24.464843 0 44.371093 19.90625 44.371093 44.371094 0 24.46875-19.90625 44.375-44.371093 44.375zm0-75.09375c-16.941407 0-30.722657 13.78125-30.722657 30.71875 0 16.941406 13.78125 30.722656 30.722657 30.722656 16.9375 0 30.71875-13.78125 30.71875-30.722656 0-16.9375-13.78125-30.71875-30.71875-30.71875zm0 0" fill="#4c241d"/><path d="m36.753906 184.320312 116.054688 54.613282" fill="#a9ba5a"/><path d="m152.804688 245.761719c-.976563 0-1.960938-.207031-2.902344-.648438l-116.054688-54.613281c-3.410156-1.605469-4.875-5.671875-3.269531-9.085938 1.605469-3.414062 5.683594-4.867187 9.082031-3.273437l116.054688 54.613281c3.410156 1.605469 4.875 5.671875 3.269531 9.085938-1.160156 2.472656-3.617187 3.921875-6.179687 3.921875zm0 0" fill="#4c241d"/><path d="m60.890625 163.597656c-9.332031-9.332031-27.703125-6.089844-41.03125 7.242188-13.332031 13.328125-16.574219 31.699218-7.242187 41.027344 9.332031 9.332031 27.703124 6.089843 41.03125-7.238282 13.328124-13.332031 16.570312-31.699218 7.242187-41.03125zm0 0" fill="#a9ba5a"/><path d="m26.730469 224.011719c-7.464844 0-14.160157-2.539063-18.9375-7.316407-6.042969-6.042968-8.515625-15.167968-6.773438-25.027343 1.605469-9.121094 6.585938-18.226563 14.011719-25.652344 7.425781-7.433594 16.539062-12.410156 25.65625-14.015625 9.871094-1.738281 18.988281.726562 25.03125 6.773438 6.042969 6.042968 8.511719 15.167968 6.773438 25.027343-1.605469 9.121094-6.585938 18.226563-14.015626 25.652344-7.425781 7.433594-16.539062 12.410156-25.65625 14.015625-2.066406.363281-4.105468.542969-6.089843.542969zm20.140625-58.914063c-1.453125 0-2.773438.164063-3.8125.339844-6.289063 1.113281-12.984375 4.839844-18.371094 10.226562-5.390625 5.386719-9.113281 12.082032-10.222656 18.375-.5625 3.179688-.917969 9.101563 2.980468 13 3.902344 3.898438 9.824219 3.546876 13.007813 2.988282 6.289063-1.113282 12.984375-4.839844 18.375-10.226563 5.386719-5.386719 9.109375-12.082031 10.21875-18.375.5625-3.179687.917969-9.101562-2.980469-13-2.632812-2.632812-6.1875-3.328125-9.195312-3.328125zm0 0" fill="#4c241d"/><path d="m125.503906 129.707031 27.304688 109.226563" fill="#a9ba5a"/><path d="m152.804688 245.761719c-3.058594 0-5.839844-2.070313-6.617188-5.175781l-27.308594-109.226563c-.910156-3.652344 1.3125-7.359375 4.96875-8.273437 3.65625-.914063 7.363282 1.300781 8.28125 4.96875l27.304688 109.226562c.914062 3.652344-1.308594 7.359375-4.964844 8.273438-.558594.140624-1.117188.207031-1.664062.207031zm0 0" fill="#4c241d"/><path d="m149.636719 108.984375c-9.332031-9.332031-27.703125-6.089844-41.03125 7.242187-13.332031 13.328126-16.570313 31.699219-7.242188 41.03125 9.332031 9.328126 27.703125 6.085938 41.03125-7.242187 13.332031-13.328125 16.570313-31.699219 7.242188-41.03125zm0 0" fill="#a9ba5a"/><path d="m115.476562 169.398438c-7.464843 0-14.160156-2.539063-18.9375-7.316407-6.042968-6.042969-8.511718-15.167969-6.773437-25.027343 1.605469-9.121094 6.585937-18.226563 14.011719-25.652344 7.429687-7.433594 16.539062-12.410156 25.65625-14.015625 9.875-1.738281 18.984375.726562 25.03125 6.773437 6.042968 6.042969 8.511718 15.167969 6.773437 25.027344-1.605469 9.121094-6.585937 18.226562-14.011719 25.652344-7.429687 7.433594-16.542968 12.410156-25.65625 14.015625-2.070312.363281-4.109374.542969-6.09375.542969zm20.140626-58.914063c-1.453126 0-2.773438.164063-3.808594.339844-6.292969 1.113281-12.988282 4.839843-18.375 10.226562-5.390625 5.386719-9.109375 12.082031-10.21875 18.375-.566406 3.179688-.921875 9.101563 2.976562 13 3.902344 3.90625 9.816406 3.539063 13.007813 2.988281 6.292969-1.113281 12.988281-4.839843 18.375-10.226562s9.109375-12.082031 10.21875-18.375c.5625-3.179688.921875-9.101562-2.980469-13-2.632812-2.632812-6.1875-3.328125-9.195312-3.328125zm0 0" fill="#4c241d"/><path d="m316.773438 185.527344c5.136718 12.15625 32.269531 30.914062 49.632812 23.574218 17.367188-7.335937 18.386719-37.984374 13.253906-50.140624-5.136718-12.15625-23.375-16.0625-40.742187-8.726563-17.367188 7.335937-27.28125 23.136719-22.144531 35.292969zm0 0" fill="#a9ba5a"/><path d="m357.550781 217.621094c-19.839843 0-41.824219-17.027344-47.066406-29.441406-6.703125-15.859376 4.621094-35.292969 25.777344-44.234376 21.164062-8.929687 42.988281-3.511718 49.683593 12.355469 6.394532 15.140625 4.789063 49.933594-16.882812 59.09375-3.644531 1.539063-7.539062 2.226563-11.511719 2.226563zm-34.488281-34.75c3.964844 9.386718 27.632812 25.441406 40.6875 19.949218 12.3125-5.207031 14-30.824218 9.621094-41.207031-3.597656-8.519531-18.167969-10.839843-31.792969-5.09375-13.632813 5.765625-22.113281 17.832031-18.515625 26.351563zm0 0" fill="#4c241d"/><path d="m241.554688 238.933594c-2.234376 0-4.375-1.101563-5.660157-3.015625-1.636719-2.433594-1.539062-5.632813.238281-7.957031l88.746094-116.054688c2.289063-2.992188 6.570313-3.574219 9.570313-1.273438 2.996093 2.285157 3.566406 6.574219 1.277343 9.566407l-76.472656 100.007812 55.597656-15.167969c3.628907-1.015624 7.390626 1.152344 8.382813 4.792969.992187 3.632813-1.152344 7.386719-4.789063 8.378907l-75.09375 20.480468c-.59375.160156-1.199218.242188-1.796874.242188zm0 0" fill="#4c241d"/><path d="m378.089844 112.640625c0 20.734375-16.8125 37.546875-37.546875 37.546875-20.738281 0-37.546875-16.8125-37.546875-37.546875 0-20.738281 16.808594-37.546875 37.546875-37.546875 20.734375 0 37.546875 16.808594 37.546875 37.546875zm0 0" fill="#a9ba5a"/><path d="m340.542969 157.011719c-24.46875 0-44.375-19.90625-44.375-44.371094 0-24.46875 19.90625-44.375 44.375-44.375 24.464843 0 44.371093 19.90625 44.371093 44.375 0 24.464844-19.90625 44.371094-44.371093 44.371094zm0-75.089844c-16.941407 0-30.71875 13.777344-30.71875 30.71875s13.777343 30.71875 30.71875 30.71875c16.941406 0 30.71875-13.777344 30.71875-30.71875s-13.777344-30.71875-30.71875-30.71875zm0 0" fill="#4c241d"/><path d="m268.863281 122.878906-27.308593 109.226563" fill="#a9ba5a"/><path d="m241.5625 238.933594c-.550781 0-1.105469-.066406-1.664062-.207032-3.65625-.914062-5.878907-4.621093-4.964844-8.273437l27.304687-109.226563c.917969-3.667968 4.632813-5.871093 8.28125-4.964843 3.65625.910156 5.878907 4.617187 4.964844 8.273437l-27.304687 109.226563c-.777344 3.105469-3.5625 5.171875-6.617188 5.171875zm0 0" fill="#4c241d"/><path d="m285.753906 109.398438c-13.328125-13.328126-31.699218-16.570313-41.03125-7.238282-9.332031 9.328125-6.089844 27.699219 7.242188 41.03125 13.328125 13.328125 31.699218 16.570313 41.03125 7.238282 9.328125-9.332032 6.085937-27.699219-7.242188-41.03125zm0 0" fill="#a9ba5a"/><path d="m278.890625 162.574219c-1.988281 0-4.023437-.179688-6.09375-.546875-9.117187-1.605469-18.230469-6.578125-25.65625-14.011719-7.429687-7.429687-12.410156-16.535156-14.015625-25.65625-1.738281-9.859375.730469-18.984375 6.773438-25.023437 6.050781-6.046876 15.195312-8.519532 25.03125-6.773438 9.117187 1.605469 18.230468 6.578125 25.65625 14.011719 7.429687 7.425781 12.40625 16.535156 14.015624 25.652343 1.738282 9.859376-.730468 18.988282-6.777343 25.027344-4.773438 4.78125-11.472657 7.320313-18.933594 7.320313zm-20.140625-58.914063c-3.011719 0-6.558594.691406-9.195312 3.324219-3.902344 3.902344-3.542969 9.820313-2.980469 13 1.109375 6.296875 4.832031 12.988281 10.21875 18.375s12.082031 9.113281 18.375 10.226563c3.183593.554687 9.097656.914062 13.003906-2.988282 3.902344-3.898437 3.542969-9.820312 2.980469-13-1.109375-6.292968-4.832032-12.984375-10.21875-18.371094-5.386719-5.390624-12.082032-9.113281-18.375-10.226562-1.035156-.179688-2.359375-.339844-3.808594-.339844zm-14.023438-1.5h.066407zm0 0" fill="#4c241d"/><path d="m227.902344 95.574219 16.324218 149.273437" fill="#a9ba5a"/><path d="m244.214844 251.671875c-3.4375 0-6.390625-2.585937-6.777344-6.085937l-16.320312-149.273438c-.410157-3.746094 2.296874-7.113281 6.042968-7.523438 3.734375-.402343 7.117188 2.292969 7.53125 6.046876l16.320313 149.273437c.410156 3.746094-2.296875 7.113281-6.042969 7.523437-.253906.027344-.5.039063-.753906.039063zm0 0" fill="#4c241d"/><path d="m250.109375 209.113281c0 29.230469-14.355469 71.609375-43.585937 71.609375-29.230469 0-62.265626-42.378906-62.265626-71.609375s23.695313-52.925781 52.925782-52.925781c29.230468 0 52.925781 23.695312 52.925781 52.925781zm0 0" fill="#a9ba5a"/><path d="m206.523438 287.546875c-33.359376 0-69.09375-46.035156-69.09375-78.433594 0-32.949219 26.808593-59.753906 59.753906-59.753906 32.949218 0 59.753906 26.804687 59.753906 59.753906 0 31.632813-16.023438 78.433594-50.414062 78.433594zm-9.339844-124.53125c-25.421875 0-46.101563 20.679687-46.101563 46.097656 0 25.582031 29.738281 64.78125 55.4375 64.78125 23.671875 0 36.761719-38.304687 36.761719-64.78125 0-25.417969-20.679688-46.097656-46.097656-46.097656zm0 0" fill="#4c241d"/><path d="m230.359375 128.640625c-19.804687 6.851563-51.878906 7.0625-58.734375-12.742187-6.855469-19.804688 14.109375-52.121094 33.914062-58.972657 19.804688-6.855469 41.414063 3.640625 48.265626 23.445313 6.855468 19.804687-3.644532 41.414062-23.445313 48.269531zm0 0" fill="#a9ba5a"/><path d="m204.707031 139.746094c-17.3125 0-34.035156-5.730469-39.535156-21.613282-8.347656-24.125 15.148437-59.707031 38.132813-67.660156 11.300781-3.90625 23.449218-3.191406 34.210937 2.03125 10.753906 5.226563 18.832031 14.335938 22.742187 25.636719 3.914063 11.300781 3.1875 23.445313-2.039062 34.207031-5.226562 10.753906-14.328125 18.832032-25.628906 22.746094-8.21875 2.839844-18.144532 4.652344-27.882813 4.652344zm13.273438-78.097656c-3.429688 0-6.875.570312-10.210938 1.730468-16.226562 5.613282-35.308593 34.066406-29.695312 50.289063 5.148437 14.859375 32.871093 14.480469 50.050781 8.519531 7.855469-2.714844 14.179688-8.335938 17.8125-15.808594 3.632812-7.480468 4.136719-15.917968 1.421875-23.773437-2.722656-7.859375-8.335937-14.183594-15.8125-17.8125-4.300781-2.09375-8.921875-3.144531-13.566406-3.144531zm0 0" fill="#4c241d"/><path d="m266.726562 238.753906c8.800782 21.085938 48.015626 35.347656 69.105469 26.546875 21.085938-8.800781 16.066407-37.332031 7.265625-58.421875-8.804687-21.089844-33.035156-31.050781-54.125-22.25-21.089844 8.800782-31.046875 33.03125-22.246094 54.125zm0 0" fill="#a9ba5a"/><path d="m320.949219 274.765625c-23.980469.007813-52.597657-14.394531-60.523438-33.386719-4.960937-11.878906-4.996093-24.984375-.101562-36.890625 4.898437-11.914062 14.136719-21.199219 26.019531-26.160156 24.53125-10.21875 52.816406 1.390625 63.054688 25.925781 13.96875 33.472656 9.878906 58.652344-10.941407 67.347656-5.203125 2.171876-11.195312 3.164063-17.507812 3.164063zm-16.085938-86.503906c-4.425781 0-8.925781.859375-13.257812 2.664062-8.519531 3.554688-15.144531 10.214844-18.652344 18.746094-3.507813 8.539063-3.484375 17.933594.070313 26.453125 7.179687 17.1875 42.058593 30.433594 60.175781 22.875 19.164062-8.003906 7.597656-39.910156 3.597656-49.496094-5.527344-13.242187-18.398437-21.242187-31.933594-21.242187zm0 0" fill="#4c241d"/></svg>