<svg height="430pt" viewBox="-24 0 430 430.15339" width="430pt" xmlns="http://www.w3.org/2000/svg"><path d="m307.277344 201.460938c0 84.828124-68.769532 153.597656-153.601563 153.597656-84.828125 0-153.597656-68.769532-153.597656-153.597656 0-84.832032 68.769531-153.601563 153.597656-153.601563 84.832031 0 153.601563 68.769531 153.601563 153.601563zm0 0" fill="#efefd2"/><path d="m207.628906 287.417969s65.515625-137.15625 167.914063-150.8125c0 0-101.539063 69.515625-139.515625 150.8125zm0 0" fill="#a9ba5a"/><path d="m236.03125 294.246094h-28.402344c-2.347656 0-4.527344-1.203125-5.773437-3.1875-1.253907-1.980469-1.398438-4.464844-.386719-6.582032.679688-1.429687 17.066406-35.433593 46.414062-71.640624 39.292969-48.476563 83.125-77.179688 126.757813-82.996094 3.097656-.417969 6.132813 1.371094 7.273437 4.320312 1.132813 2.953125.09375 6.296875-2.511718 8.082032-1.003906.679687-100.460938 69.4375-137.1875 148.066406-1.125 2.398437-3.53125 3.9375-6.183594 3.9375zm-17.117188-13.65625h12.820313c26.535156-53.800782 78.496094-101.410156 111.136719-127.820313-64.15625 27.390625-109.300782 101.160157-123.957032 127.820313zm0 0" fill="#4c241d"/><path d="m191.722656 285.144531s40.460938-169.015625 129.207032-223.628906c0 0-90.125 133.238281-96.261719 223.628906zm0 0" fill="#a9ba5a"/><path d="m224.667969 291.976562h-32.945313c-2.09375 0-4.066406-.960937-5.363281-2.601562-1.292969-1.640625-1.765625-3.78125-1.277344-5.816406 1.679688-7.011719 42.152344-172.402344 132.265625-227.855469 2.734375-1.6875 6.289063-1.238281 8.507813 1.089844 2.226562 2.324219 2.523437 5.882812.726562 8.546875-.890625 1.320312-89.167969 132.769531-95.101562 220.273437-.246094 3.578125-3.21875 6.363281-6.8125 6.363281zm-24.085938-13.65625h17.832031c6.574219-61.980468 47.648438-139.699218 74.1875-184.460937-53.933593 57.171875-83.972656 155.269531-92.019531 184.460937zm0 0" fill="#4c241d"/><path d="m181.644531 287.417969s-65.515625-137.15625-167.917969-150.8125c0 0 101.539063 69.515625 139.515626 150.8125zm0 0" fill="#a9ba5a"/><path d="m181.640625 294.246094h-28.398437c-2.65625 0-5.0625-1.539063-6.1875-3.9375-36.726563-78.628906-136.1875-147.382813-137.1875-148.066406-2.605469-1.789063-3.648438-5.132813-2.511719-8.082032 1.136719-2.949218 4.171875-4.738281 7.273437-4.320312 43.632813 5.816406 87.464844 34.519531 126.757813 82.996094 29.347656 36.207031 45.734375 70.210937 46.414062 71.640624 1.011719 2.117188.867188 4.601563-.386719 6.582032-1.242187 1.984375-3.425781 3.1875-5.773437 3.1875zm-24.105469-13.65625h12.820313c-14.652344-26.660156-59.800781-100.429688-123.953125-127.820313 32.640625 26.410157 84.597656 74.015625 111.132812 127.820313zm0 0" fill="#4c241d"/><path d="m197.546875 285.144531s-40.457031-169.015625-129.203125-223.628906c0 0 90.125 133.238281 96.261719 223.628906zm0 0" fill="#a9ba5a"/><path d="m197.550781 291.976562h-32.949219c-3.589843 0-6.566406-2.785156-6.8125-6.367187-5.933593-87.5-94.210937-218.953125-95.101562-220.269531-1.800781-2.664063-1.5-6.222656.730469-8.546875 2.210937-2.328125 5.765625-2.777344 8.503906-1.09375 90.113281 55.453125 130.585937 220.84375 132.265625 227.859375.488281 2.03125.015625 4.175781-1.277344 5.816406-1.292968 1.640625-3.269531 2.601562-5.359375 2.601562zm-26.695312-13.65625h17.832031c-8.046875-29.191406-38.085938-127.289062-92.019531-184.460937 26.542969 44.761719 67.613281 122.476563 74.1875 184.460937zm0 0" fill="#4c241d"/><path d="m191.824219 423.328125c-52.910157 0-95.804688-42.894531-95.804688-95.804687v-40.730469h191.609375v40.730469c0 52.910156-42.894531 95.804687-95.804687 95.804687zm0 0" fill="#fff"/><path d="m191.824219 430.152344c-56.589844 0-102.628907-46.039063-102.628907-102.628906v-40.730469c0-3.769531 3.054688-6.828125 6.828126-6.828125h191.605468c3.773438 0 6.828125 3.058594 6.828125 6.828125v40.730469c0 56.589843-46.042969 102.628906-102.632812 102.628906zm-88.976563-136.53125v33.902344c0 49.0625 39.914063 88.976562 88.976563 88.976562 49.066406 0 88.980469-39.914062 88.980469-88.976562v-33.902344zm0 0" fill="#4c241d"/><path d="m219.796875 399.132812c-2.640625 0-5.160156-1.546874-6.273437-4.132812-1.488282-3.460938.113281-7.480469 3.574218-8.96875 14.230469-6.125 25.757813-17.203125 32.453125-31.191406 1.625-3.394532 5.714844-4.839844 9.105469-3.207032 3.402344 1.625 4.839844 5.703126 3.214844 9.101563-8.128906 16.96875-22.113282 30.40625-39.375 37.835937-.878906.378907-1.792969.5625-2.699219.5625zm0 0" fill="#4c241d"/><path d="m239.011719 286.792969c1.234375-9.207031 70.785156-80.195313 129.703125 47.785156 0 0-47.785156-61.4375-129.703125-47.785156zm0 0" fill="#a9ba5a"/><path d="m368.722656 341.402344c-2.039062 0-4.050781-.910156-5.386718-2.621094-1.867188-2.378906-46.464844-58.074219-123.203126-45.253906-2.128906.375-4.3125-.320313-5.875-1.828125-1.550781-1.511719-2.300781-3.667969-2.011718-5.8125 1.226562-9.113281 22.019531-29.386719 47.246094-33.164063 25.199218-3.773437 62.214843 6.855469 95.425781 79.003906 1.449219 3.144532.308593 6.875-2.644531 8.679688-1.109376.671875-2.339844.996094-3.550782.996094zm-105.851562-63.445313c34.3125 0 61.390625 12.179688 80.246094 24.8125-17.226563-24.792969-36.121094-37.527343-55.839844-37.042969-13.425782.292969-24.601563 6.507813-32 12.425782 2.566406-.132813 5.097656-.195313 7.59375-.195313zm0 0" fill="#4c241d"/><path d="m150.261719 286.792969c-1.234375-9.207031-70.785157-80.195313-129.703125 47.785156 0 0 47.785156-61.4375 129.703125-47.785156zm0 0" fill="#a9ba5a"/><path d="m20.550781 341.402344c-1.214843 0-2.441406-.324219-3.546875-.996094-2.953125-1.804688-4.09375-5.535156-2.648437-8.679688 33.222656-72.15625 70.226562-82.804687 95.453125-79 25.222656 3.789063 46 24.054688 47.222656 33.164063.285156 2.144531-.460938 4.300781-2.023438 5.808594-1.550781 1.507812-3.726562 2.207031-5.867187 1.828125-76.792969-12.769532-121.347656 42.875-123.203125 45.253906-1.335938 1.707031-3.347656 2.621094-5.386719 2.621094zm80.492188-75.683594c-19.3125 0-37.9375 12.664062-54.894531 37.054688 20.222656-13.550782 49.835937-26.582032 87.855468-24.621094-7.398437-5.917969-18.574218-12.132813-32-12.425782-.320312-.003906-.640625-.007812-.960937-.007812zm42.617187 22.703125" fill="#4c241d"/><path d="m194.382812 159.195312c3.804688 3.105469 7.882813 4.792969 12.128907 4.792969 20.605469 0 37.316406-39.765625 37.316406-88.820312zm0 0" fill="#e66353"/><path d="m206.511719 170.8125c-5.777344 0-11.308594-2.128906-16.449219-6.332031-2.605469-2.132813-3.273438-5.847657-1.566406-8.75l49.441406-84.027344c1.566406-2.652344 4.707031-3.941406 7.679688-3.121094 2.972656.808594 5.03125 3.507813 5.03125 6.585938 0 54.527343-18.972657 95.644531-44.136719 95.644531zm-2.761719-14.070312c.925781.277343 1.84375.417968 2.757812.417968 11.273438 0 23.585938-21.511718 28.402344-53.378906zm0 0" fill="#4c241d"/><path d="m206.511719 87.574219c0 44.59375-5.316407 67.089843-11.875 67.089843-6.558594 0-11.875-22.496093-11.875-67.089843 0-44.597657 11.875-80.746094 11.875-80.746094s11.875 36.152344 11.875 80.746094zm0 0" fill="#e66353"/><path d="m194.636719 161.492188c-5.113281 0-18.699219 0-18.699219-73.917969 0-45.171875 11.710938-81.359375 12.210938-82.878907.921874-2.800781 3.539062-4.695312 6.488281-4.695312s5.566406 1.894531 6.488281 4.695312c.5 1.519532 12.210938 37.707032 12.210938 82.878907 0 73.917969-13.585938 73.917969-18.699219 73.917969zm.007812-125.734376c-2.628906 13.878907-5.054687 32.050782-5.054687 51.816407 0 31.863281 2.761718 48.511719 5.046875 56.039062 2.285156-7.527343 5.046875-24.175781 5.046875-56.039062 0-19.796875-2.421875-37.953125-5.039063-51.816407zm0 0" fill="#4c241d"/><path d="m193.957031 152.976562c-3.953125-1.746093-7.851562-5.058593-11.546875-10.03125-17.941406-24.140624-24.261718-78.328124-14.121094-121.03125zm0 0" fill="#e66353"/><path d="m193.957031 159.804688c-.933593 0-1.882812-.195313-2.761719-.585938-5.125-2.269531-9.925781-6.371094-14.257812-12.195312-19.289062-25.945313-25.992188-81.59375-15.289062-126.683594.742187-3.132813 3.574218-5.226563 6.777343-5.25 3.210938.066406 5.945313 2.359375 6.566407 5.511718l25.664062 131.0625c.488281 2.5-.453125 5.0625-2.4375 6.648438-1.234375.980469-2.742188 1.492188-4.261719 1.492188zm-23.582031-91.707032c.328125 23.40625 4.59375 46.144532 12.066406 61.617188zm0 0" fill="#4c241d"/><path d="m195.3125 152.976562c3.953125-1.746093 7.851562-5.058593 11.550781-10.03125 17.9375-24.140624 24.261719-78.328124 14.117188-121.03125zm0 0" fill="#e66353"/><path d="m195.316406 159.804688c-1.519531 0-3.027344-.507813-4.261718-1.492188-1.984376-1.589844-2.925782-4.148438-2.4375-6.648438l25.664062-131.0625c.621094-3.15625 3.355469-5.445312 6.566406-5.511718 3.023438.039062 6.042969 2.117187 6.777344 5.25 10.703125 45.09375 4 100.738281-15.28125 126.679687-4.339844 5.828125-9.140625 9.933594-14.265625 12.203125-.882813.386719-1.828125.582032-2.761719.582032zm23.578125-91.707032-12.066406 61.621094c7.472656-15.472656 11.742187-38.210938 12.066406-61.621094zm0 0" fill="#4c241d"/><path d="m194.886719 159.195312c-3.800781 3.105469-7.878907 4.792969-12.125 4.792969-20.609375 0-37.316407-39.765625-37.316407-88.820312zm0 0" fill="#e66353"/><g fill="#4c241d"><path d="m182.761719 170.8125c-25.164063 0-44.136719-41.121094-44.136719-95.644531 0-3.082031 2.058594-5.777344 5.03125-6.585938 2.964844-.820312 6.113281.46875 7.679688 3.121094l49.441406 84.027344c1.707031 2.902343 1.039062 6.617187-1.566406 8.75-5.140626 4.203125-10.675782 6.332031-16.449219 6.332031zm-28.398438-67.03125c5.207031 34.453125 18.820313 56.691406 31.160157 52.960938zm0 0"/><path d="m191.722656 291.976562c-3.773437 0-6.824218-3.058593-6.824218-6.828124v-128.058594c0-3.769532 3.050781-6.828125 6.824218-6.828125 3.773438 0 6.828125 3.058593 6.828125 6.828125v128.058594c0 3.769531-3.054687 6.828124-6.828125 6.828124zm0 0"/></g></svg>