<svg height="426pt" viewBox="-29 0 426 426.45845" width="426pt" xmlns="http://www.w3.org/2000/svg"><path d="m307.429688 228.691406c0 84.832032-68.769532 153.601563-153.601563 153.601563-84.828125 0-153.597656-68.769531-153.597656-153.601563 0-84.828125 68.769531-153.597656 153.597656-153.597656 84.832031 0 153.601563 68.769531 153.601563 153.597656zm0 0" fill="#efefd2"/><g fill="#4c241d"><path d="m198.203125 300.375c-3.769531 0-6.828125-3.054688-6.828125-6.828125v-269.652344c0-13.175781 10.71875-23.894531 23.894531-23.894531 13.171875 0 23.894531 10.71875 23.894531 23.894531v3.414063c0 3.773437-3.058593 6.824218-6.828124 6.824218-3.769532 0-6.828126-3.050781-6.828126-6.824218v-3.414063c0-5.648437-4.589843-10.242187-10.238281-10.242187-5.648437 0-10.242187 4.59375-10.242187 10.242187v269.652344c0 3.773437-3.054688 6.828125-6.824219 6.828125zm0 0"/><path d="m164.070312 75.09375c-3.769531 0-6.828124-3.054688-6.828124-6.828125 0-15.058594 12.25-27.304687 27.308593-27.304687h13.269531c3.773438 0 6.828126 3.050781 6.828126 6.824218 0 3.773438-3.054688 6.828125-6.828126 6.828125h-13.269531c-7.53125 0-13.65625 6.128907-13.65625 13.652344 0 3.773437-3.054687 6.828125-6.824219 6.828125zm0 0"/><path d="m164.070312 163.839844c-3.769531 0-6.828124-3.054688-6.828124-6.828125 0-15.058594 12.25-27.304688 27.308593-27.304688h13.269531c3.773438 0 6.828126 3.054688 6.828126 6.828125 0 3.773438-3.054688 6.824219-6.828126 6.824219h-13.269531c-7.53125 0-13.65625 6.128906-13.65625 13.652344 0 3.773437-3.054687 6.828125-6.824219 6.828125zm0 0"/><path d="m232.335938 116.054688c-3.769532 0-6.828126-3.054688-6.828126-6.828126 0-7.527343-6.121093-13.652343-13.652343-13.652343h-13.273438c-3.769531 0-6.824219-3.054688-6.824219-6.828125 0-3.773438 3.054688-6.824219 6.824219-6.824219h13.273438c15.054687 0 27.308593 12.246094 27.308593 27.304687 0 3.773438-3.058593 6.828126-6.828124 6.828126zm0 0"/><path d="m232.335938 184.320312c-3.769532 0-6.828126-3.054687-6.828126-6.828124 0-7.523438-6.121093-13.652344-13.652343-13.652344h-13.273438c-3.769531 0-6.824219-3.054688-6.824219-6.828125 0-3.773438 3.054688-6.824219 6.824219-6.824219h13.273438c15.054687 0 27.308593 12.246094 27.308593 27.304688 0 3.773437-3.058593 6.828124-6.828124 6.828124zm0 0"/></g><path d="m183.285156 324.890625c28.328125-1.796875-4.738281-263.339844-148.921875-256.625 0 0 34.132813 61.4375 88.746094 95.574219 56.199219 35.125 53.949219 127.84375 60.175781 161.050781zm0 0" fill="#a9ba5a"/><path d="m183.28125 331.71875c-3.265625 0-6.097656-2.320312-6.710938-5.566406-1.203124-6.445313-2.082031-14.800782-3.097656-24.472656-4.398437-41.902344-11.050781-105.21875-53.980468-132.054688-55.46875-34.664062-89.667969-95.472656-91.097657-98.046875-1.144531-2.058594-1.144531-4.574219.003907-6.640625 1.152343-2.058594 3.289062-3.378906 5.648437-3.492188 50.066406-2.328124 92.945313 25.792969 124.246094 81.300782 27.042969 47.953125 38.863281 105.425781 40.769531 140.066406 1.746094 31.683594-3.417969 48.132812-15.34375 48.890625-.148438.007813-.296875.015625-.4375.015625zm-136.644531-256.519531c12.082031 18.613281 40.820312 58.304687 80.089843 82.851562 43.476563 27.175781 53.933594 86.101563 58.800782 128.167969-1.269532-26.964844-8.261719-67.011719-24.507813-106.464844-15.71875-38.179687-50.910156-100.292968-114.382812-104.554687zm0 0" fill="#4c241d"/><path d="m213.121094 318.0625c-28.328125-1.796875 4.738281-263.339844 148.921875-256.625 0 0-34.132813 61.441406-88.746094 95.574219-56.203125 35.125-53.949219 127.84375-60.175781 161.050781zm0 0" fill="#a9ba5a"/><path d="m213.125 324.894531c-.144531 0-.289062-.007812-.4375-.015625-11.925781-.757812-17.089844-17.207031-15.34375-48.890625 1.90625-34.640625 13.730469-92.117187 40.769531-140.066406 31.300781-55.515625 74.28125-83.589844 124.246094-81.300781 2.359375.113281 4.496094 1.433594 5.648437 3.492187 1.148438 2.066407 1.148438 4.582031.003907 6.640625-1.425781 2.574219-35.628907 63.382813-91.097657 98.046875-42.929687 26.832031-49.582031 90.152344-53.980468 132.054688-1.015625 9.671875-1.890625 18.023437-3.097656 24.472656-.613282 3.242187-3.445313 5.566406-6.710938 5.566406zm136.65625-256.523437c-63.492188 4.246094-98.671875 66.375-114.394531 104.554687-16.246094 39.453125-23.234375 79.5-24.503907 106.46875 4.867188-42.066406 15.324219-100.996093 58.796876-128.167969 39.335937-24.585937 68.035156-64.253906 80.101562-82.855468zm0 0" fill="#4c241d"/><path d="m266.46875 252.585938c54.613281-34.132813 88.746094-95.574219 88.746094-95.574219-81.425782-3.789063-127.402344 77.96875-146.910156 150.1875h17.257812c8.207031-21.996094 20.761719-42.023438 40.90625-54.613281zm0 0" fill="#a9ba5a"/><path d="m225.5625 314.027344h-17.257812c-2.121094 0-4.125-.988282-5.417969-2.671875-1.292969-1.6875-1.726563-3.878907-1.171875-5.933594 10.160156-37.621094 51.316406-160.164063 153.816406-155.226563 2.359375.109376 4.496094 1.433594 5.648438 3.492188 1.148437 2.066406 1.148437 4.582031.003906 6.640625-1.429688 2.574219-35.628906 63.378906-91.097656 98.046875-16.691407 10.433594-29.160157 27.179688-38.128907 51.210938-.996093 2.664062-3.542969 4.441406-6.394531 4.441406zm-8.238281-13.652344h3.570312c9.941407-24.613281 23.703125-42.167969 41.957031-53.574219 39.207032-24.507812 67.84375-63.988281 79.976563-82.667969-30.851563 2.804688-92.316406 23.339844-125.503906 136.242188zm49.144531-47.789062h.066406zm0 0" fill="#4c241d"/><path d="m129.9375 266.238281c-54.613281-34.132812-88.75-95.570312-88.75-95.570312 81.425781-3.792969 127.40625 77.96875 146.910156 150.183593h-17.257812c-8.207032-21.996093-20.761719-42.019531-40.902344-54.613281zm0 0" fill="#a9ba5a"/><path d="m188.097656 327.679688h-17.253906c-2.851562 0-5.402344-1.765626-6.398438-4.441407-8.964843-24.027343-21.4375-40.78125-38.128906-51.210937-55.46875-34.667969-89.667968-95.472656-91.09375-98.046875-1.148437-2.0625-1.148437-4.574219.003906-6.640625 1.148438-2.0625 3.285157-3.378906 5.648438-3.496094 102.269531-4.972656 143.65625 117.601562 153.816406 155.226562.550782 2.054688.121094 4.246094-1.171875 5.933594-1.292969 1.691406-3.296875 2.675782-5.421875 2.675782zm-12.585937-13.652344h3.535156c-12.113281-40.148438-48.078125-131.28125-125.589844-136.433594 12.085938 18.613281 40.820313 58.3125 80.09375 82.859375h.003907c18.253906 11.410156 32.011718 28.96875 41.957031 53.574219zm0 0" fill="#4c241d"/><path d="m121.132812 292.941406c-6.53125 12.125-10.25 25.988282-10.25 40.722656 0 47.480469 38.488282 85.972657 85.96875 85.972657 47.480469 0 85.96875-38.492188 85.96875-85.972657 0-14.734374-3.71875-28.597656-10.253906-40.722656zm0 0" fill="#fff"/><path d="m196.851562 426.457031c-51.164062 0-92.796874-41.625-92.796874-92.792969 0-15.320312 3.828124-30.527343 11.070312-43.960937 1.195312-2.203125 3.5-3.585937 6.007812-3.585937h151.433594c2.511719 0 4.816406 1.382812 6.011719 3.585937 7.238281 13.433594 11.0625 28.632813 11.0625 43.960937.003906 51.167969-41.621094 92.792969-92.789063 92.792969zm-71.523437-126.683593c-4.992187 10.539062-7.617187 22.171874-7.617187 33.890624 0 43.640626 35.503906 79.140626 79.140624 79.140626 43.636719 0 79.140626-35.5 79.140626-79.140626 0-11.726562-2.621094-23.359374-7.617188-33.890624zm0 0" fill="#4c241d"/><path d="m229.804688 384.199219c-2.066407 0-4.105469-.933594-5.445313-2.707031-2.277344-3-1.683594-7.285157 1.316406-9.558594 12.910157-9.78125 20.3125-24.667969 20.3125-40.84375 0-3.773438 3.058594-6.824219 6.828125-6.824219 3.769532 0 6.824219 3.050781 6.824219 6.824219 0 20.488281-9.371094 39.34375-25.71875 51.722656-1.234375.933594-2.683594 1.386719-4.117187 1.386719zm0 0" fill="#4c241d"/><path d="m177.722656 85.332031c0 9.425781-7.640625 17.066407-17.066406 17.066407s-17.066406-7.640626-17.066406-17.066407 7.640625-17.066406 17.066406-17.066406 17.066406 7.640625 17.066406 17.066406zm0 0" fill="#fff"/><path d="m160.65625 109.226562c-13.175781 0-23.894531-10.71875-23.894531-23.894531 0-13.171875 10.71875-23.890625 23.894531-23.890625 13.171875 0 23.894531 10.71875 23.894531 23.890625 0 13.175781-10.722656 23.894531-23.894531 23.894531zm0-34.132812c-5.648438 0-10.242188 4.59375-10.242188 10.238281 0 5.648438 4.59375 10.242188 10.242188 10.242188s10.238281-4.59375 10.238281-10.242188c0-5.644531-4.589843-10.238281-10.238281-10.238281zm0 0" fill="#4c241d"/><path d="m252.816406 44.375c0 9.425781-7.640625 17.066406-17.066406 17.066406s-17.066406-7.640625-17.066406-17.066406 7.640625-17.066406 17.066406-17.066406 17.066406 7.640625 17.066406 17.066406zm0 0" fill="#fff"/><path d="m235.75 68.265625c-13.175781 0-23.894531-10.71875-23.894531-23.890625 0-13.175781 10.71875-23.894531 23.894531-23.894531 13.171875 0 23.890625 10.71875 23.890625 23.894531 0 13.171875-10.71875 23.890625-23.890625 23.890625zm0-34.132813c-5.648438 0-10.242188 4.59375-10.242188 10.242188 0 5.644531 4.59375 10.238281 10.242188 10.238281s10.238281-4.59375 10.238281-10.238281c0-5.648438-4.589843-10.242188-10.238281-10.242188zm0 0" fill="#4c241d"/><path d="m252.816406 119.464844c0 9.425781-7.640625 17.070312-17.066406 17.070312s-17.066406-7.644531-17.066406-17.070312c0-9.425782 7.640625-17.066406 17.066406-17.066406s17.066406 7.640624 17.066406 17.066406zm0 0" fill="#fff"/><path d="m235.75 143.359375c-13.175781 0-23.894531-10.71875-23.894531-23.894531 0-13.171875 10.71875-23.890625 23.894531-23.890625 13.171875 0 23.890625 10.71875 23.890625 23.890625 0 13.175781-10.71875 23.894531-23.890625 23.894531zm0-34.132813c-5.648438 0-10.242188 4.59375-10.242188 10.238282 0 5.648437 4.59375 10.242187 10.242188 10.242187s10.238281-4.59375 10.238281-10.242187c0-5.644532-4.589843-10.238282-10.238281-10.238282zm0 0" fill="#4c241d"/><path d="m170.894531 167.253906c0 9.425782-7.640625 17.066406-17.066406 17.066406s-17.066406-7.640624-17.066406-17.066406c0-9.425781 7.640625-17.066406 17.066406-17.066406s17.066406 7.640625 17.066406 17.066406zm0 0" fill="#fff"/><path d="m153.828125 191.148438c-13.171875 0-23.890625-10.722657-23.890625-23.894532 0-13.175781 10.71875-23.894531 23.890625-23.894531 13.175781 0 23.894531 10.71875 23.894531 23.894531 0 13.171875-10.71875 23.894532-23.894531 23.894532zm0-34.136719c-5.644531 0-10.238281 4.59375-10.238281 10.242187 0 5.648438 4.59375 10.238282 10.238281 10.238282 5.648437 0 10.242187-4.589844 10.242187-10.238282 0-5.648437-4.59375-10.242187-10.242187-10.242187zm0 0" fill="#4c241d"/><path d="m252.816406 187.734375c0 9.425781-7.640625 17.066406-17.066406 17.066406s-17.066406-7.640625-17.066406-17.066406 7.640625-17.066406 17.066406-17.066406 17.066406 7.640625 17.066406 17.066406zm0 0" fill="#fff"/><path d="m235.75 211.625c-13.175781 0-23.894531-10.71875-23.894531-23.890625 0-13.175781 10.71875-23.894531 23.894531-23.894531 13.171875 0 23.890625 10.71875 23.890625 23.894531 0 13.171875-10.71875 23.890625-23.890625 23.890625zm0-34.132812c-5.648438 0-10.242188 4.59375-10.242188 10.242187 0 5.644531 4.59375 10.238281 10.242188 10.238281s10.238281-4.59375 10.238281-10.238281c0-5.648437-4.589843-10.242187-10.238281-10.242187zm0 0" fill="#4c241d"/></svg>