<svg height="413pt" viewBox="-51 0 413 413.01333" width="413pt" xmlns="http://www.w3.org/2000/svg"><path d="m307.207031 187.734375c0 84.828125-68.769531 153.597656-153.601562 153.597656-84.828125 0-153.5976565-68.769531-153.5976565-153.597656 0-84.832031 68.7695315-153.601563 153.5976565-153.601563 84.832031 0 153.601562 68.769532 153.601562 153.601563zm0 0" fill="#efefd2"/><path d="m169.710938 219.472656c16.863281 41.152344 19.066406 79.210938 4.921874 85.007813-14.148437 5.796875-39.285156-22.863281-56.148437-64.015625-16.859375-41.152344-4.917969-85.007813-4.917969-85.007813s39.28125 22.863281 56.144532 64.015625zm0 0" fill="#a9ba5a"/><path d="m170.695312 312.066406c-6.90625 0-16.335937-3.898437-28.25-17.484375-11.09375-12.648437-21.84375-30.941406-30.277343-51.527343-17.535157-42.804688-5.699219-87.503907-5.1875-89.386719.554687-2.046875 2.03125-3.71875 3.996093-4.527344 1.96875-.792969 4.1875-.636719 6.023438.421875 1.6875.980469 41.492188 24.519531 59.03125 67.324219 8.433594 20.585937 13.613281 41.167969 14.582031 57.953125 1.425781 24.601562-6.5 33.136718-13.398437 35.960937-1.835938.753907-4.011719 1.265625-6.519532 1.265625zm-52.449218-145.195312c-2.316406 14.640625-4.640625 43.683594 6.554687 71.007812 7.875 19.21875 17.789063 36.160156 27.90625 47.699219 10.445313 11.90625 17.082031 13.480469 19.332031 12.585937 2.269532-.933593 5.863282-6.71875 4.945313-22.53125-.890625-15.328124-5.710937-34.347656-13.589844-53.574218-11.195312-27.320313-33.226562-46.378906-45.148437-55.1875zm0 0" fill="#4c241d"/><path d="m219.421875 219.472656c-16.863281 41.152344-19.066406 79.210938-4.917969 85.007813 14.144532 5.796875 39.28125-22.863281 56.144532-64.015625 16.863281-41.152344 4.917968-85.007813 4.917968-85.007813s-39.28125 22.863281-56.144531 64.015625zm0 0" fill="#a9ba5a"/><path d="m218.441406 312.066406c-2.511718 0-4.6875-.511718-6.527344-1.273437-6.894531-2.816407-14.816406-11.351563-13.394531-35.953125.96875-16.785156 6.152344-37.367188 14.582031-57.953125 17.539063-42.804688 57.34375-66.34375 59.03125-67.324219 1.832032-1.066406 4.058594-1.222656 6.023438-.421875 1.960938.808594 3.441406 2.480469 3.996094 4.527344.515625 1.882812 12.351562 46.582031-5.1875 89.386719-8.433594 20.585937-19.183594 38.878906-30.273438 51.527343-11.914062 13.582031-21.347656 17.484375-28.25 17.484375zm7.296875-90.007812c-7.878906 19.226562-12.699219 38.246094-13.585937 53.574218-.917969 15.816407 2.671875 21.601563 4.9375 22.527344 2.269531.917969 8.882812-.667968 19.339844-12.582031 10.113281-11.539063 20.027343-28.480469 27.90625-47.699219 11.191406-27.324218 8.867187-56.363281 6.554687-71.003906-11.925781 8.804688-33.957031 27.863281-45.152344 55.183594zm0 0" fill="#4c241d"/><path d="m228.699219 208.214844c0 60.324218-16.808594 109.226562-37.546875 109.226562-20.734375 0-37.546875-48.902344-37.546875-109.226562 0-60.324219 37.546875-109.226563 37.546875-109.226563s37.546875 48.902344 37.546875 109.226563zm0 0" fill="#a9ba5a"/><path d="m191.152344 324.265625c-28.820313 0-44.371094-59.792969-44.371094-116.050781 0-61.933594 37.367188-111.316406 38.957031-113.390625 2.582031-3.359375 8.25-3.359375 10.828125 0 1.59375 2.074219 38.960938 51.457031 38.960938 113.390625 0 56.257812-15.554688 116.050781-44.375 116.050781zm0-213.152344c-10.085938 15.871094-30.71875 53.671875-30.71875 97.101563 0 63.445312 17.890625 102.398437 30.71875 102.398437s30.722656-38.953125 30.722656-102.398437c0-43.425782-20.636719-81.230469-30.722656-97.101563zm0 0" fill="#4c241d"/><path d="m296.964844 300.375c0 58.4375-45.84375 105.8125-102.398438 105.8125-56.554687 0-102.398437-47.375-102.398437-105.8125zm0 0" fill="#fff"/><g fill="#4c241d"><path d="m194.566406 413.011719c-60.226562 0-109.226562-50.53125-109.226562-112.636719 0-3.773438 3.058594-6.828125 6.828125-6.828125h204.796875c3.773437 0 6.828125 3.054687 6.828125 6.828125 0 62.105469-49 112.636719-109.226563 112.636719zm-95.347656-105.8125c3.398438 51.40625 44.863281 92.160156 95.347656 92.160156s91.949219-40.753906 95.351563-92.160156zm0 0"/><path d="m290.140625 296.960938c-2.824219 0-5.460937-1.761719-6.441406-4.574219l-92.546875-264.859375-92.542969 264.859375c-1.246094 3.558593-5.128906 5.441406-8.695313 4.191406-3.558593-1.246094-5.4375-5.140625-4.191406-8.699219l98.984375-283.308594c.960938-2.738281 3.542969-4.570312 6.445313-4.570312s5.488281 1.832031 6.445312 4.574219l98.984375 283.304687c1.246094 3.5625-.632812 7.453125-4.1875 8.703125-.746093.257813-1.507812.378907-2.253906.378907zm0 0"/><path d="m95.578125 317.441406c-9.410156 0-17.066406-7.652344-17.066406-17.066406s7.65625-17.066406 17.066406-17.066406c9.414063 0 17.070313 7.652344 17.070313 17.066406s-7.65625 17.066406-17.070313 17.066406zm0-20.480468c-1.882813 0-3.410156 1.53125-3.410156 3.414062 0 1.878906 1.527343 3.410156 3.410156 3.410156 1.886719 0 3.414063-1.53125 3.414063-3.410156 0-1.882812-1.527344-3.414062-3.414063-3.414062zm0 0"/><path d="m293.554688 317.441406c-9.410157 0-17.066407-7.652344-17.066407-17.066406s7.65625-17.066406 17.066407-17.066406c9.410156 0 17.066406 7.652344 17.066406 17.066406s-7.65625 17.066406-17.066406 17.066406zm0-20.480468c-1.886719 0-3.414063 1.53125-3.414063 3.414062 0 1.878906 1.527344 3.410156 3.414063 3.410156 1.882812 0 3.410156-1.53125 3.410156-3.410156 0-1.882812-1.527344-3.414062-3.410156-3.414062zm0 0"/><path d="m219.765625 377.738281c-2.761719 0-5.363281-1.683593-6.386719-4.425781-1.328125-3.527344.460938-7.464844 3.988282-8.792969 15.359374-5.765625 27.871093-17.039062 35.230468-31.738281 1.683594-3.375 5.792969-4.722656 9.15625-3.054688 3.375 1.6875 4.738282 5.792969 3.050782 9.160157-8.902344 17.792969-24.042969 31.433593-42.636719 38.417969-.792969.296874-1.605469.433593-2.402344.433593zm0 0"/><path d="m191.152344 300.375c-3.769532 0-6.824219-3.054688-6.824219-6.828125v-189.601563c0-3.773437 3.054687-6.824218 6.824219-6.824218 3.769531 0 6.828125 3.050781 6.828125 6.824218v189.601563c0 3.773437-3.058594 6.828125-6.828125 6.828125zm0 0"/><path d="m189.445312 195.414062c-.070312 0-.136718 0-.207031 0-2.027343-.066406-3.914062-1.019531-5.164062-2.613281l-24.746094-31.574219c-2.328125-2.964843-1.808594-7.257812 1.164063-9.585937 2.957031-2.320313 7.257812-1.800781 9.582031 1.160156l19.703125 25.140625 21.875-24.609375c2.503906-2.816406 6.8125-3.085937 9.636718-.566406 2.816407 2.5 3.070313 6.820313.566407 9.636719l-27.304688 30.71875c-1.300781 1.460937-3.15625 2.292968-5.105469 2.292968zm0 0"/><path d="m189.472656 251.453125c-1.8125 0-3.621094-.71875-4.964844-2.148437l-32.453124-34.425782c-2.589844-2.738281-2.460938-7.058594.28125-9.644531 2.742187-2.59375 7.066406-2.460937 9.652343.285156l27.789063 29.476563 30.84375-28.847656c2.75-2.582032 7.070312-2.441407 9.652344.324218 2.570312 2.753906 2.429687 7.074219-.324219 9.648438l-35.8125 33.492187c-1.316407 1.234375-2.988281 1.839844-4.664063 1.839844zm0 0"/></g></svg>