<svg height="434pt" viewBox="-50 0 434 434.50539" width="434pt" xmlns="http://www.w3.org/2000/svg"><path d="m307.453125 185.332031c0 84.832031-68.769531 153.601563-153.601563 153.601563-84.828124 0-153.597656-68.769532-153.597656-153.601563s68.769532-153.601562 153.597656-153.601562c84.832032 0 153.601563 68.769531 153.601563 153.601562zm0 0" fill="#efefd2"/><path d="m226.476562 76.285156c0 38.460938-21.425781 69.636719-21.425781 69.636719s-21.425781-31.175781-21.425781-69.636719c0-38.457031 21.425781-69.636718 21.425781-69.636718s21.425781 31.179687 21.425781 69.636718zm0 0" fill="#a9ba5a"/><path d="m205.050781 152.75c-2.242187 0-4.351562-1.105469-5.625-2.957031-.925781-1.347657-22.625-33.386719-22.625-73.507813s21.699219-72.160156 22.625-73.503906c2.546875-3.707031 8.707031-3.707031 11.253907 0 .925781 1.34375 22.625 33.382812 22.625 73.503906s-21.699219 72.160156-22.625 73.507813c-1.273438 1.851562-3.382813 2.957031-5.628907 2.957031zm0-132.433594c-5.984375 11.660156-14.597656 32.515625-14.597656 55.96875s8.613281 44.304688 14.597656 55.964844c5.988281-11.660156 14.601563-32.511719 14.601563-55.964844s-8.613282-44.308594-14.601563-55.96875zm0 0" fill="#4c241d"/><path d="m133.472656 132.324219c34.003906 17.972656 71.578125 13.597656 71.578125 13.597656s-17.546875-33.511719-51.550781-51.484375c-34-17.972656-71.578125-13.601562-71.578125-13.601562s17.550781 33.511718 51.550781 51.488281zm0 0" fill="#a9ba5a"/><path d="m194.257812 153.238281c-14.367187 0-39.867187-2.132812-63.980468-14.878906-35.457032-18.746094-53.652344-52.910156-54.40625-54.355469-1.046875-1.992187-1.039063-4.367187.015625-6.359375 1.042969-1.988281 3.011719-3.328125 5.246093-3.589843 1.605469-.179688 40.09375-4.40625 75.558594 14.347656 35.457032 18.746094 53.652344 52.90625 54.40625 54.351562 1.046875 1.996094 1.039063 4.371094-.011718 6.363282-1.046876 1.984374-3.015626 3.324218-5.25 3.585937-.511719.0625-4.8125.535156-11.578126.535156zm-100.265624-66.03125c7.503906 10.746094 21.925781 28.121094 42.671874 39.085938 20.8125 11 43.242188 13.121093 56.3125 13.265625-7.503906-10.746094-21.925781-28.121094-42.671874-39.085938-20.8125-11-43.242188-13.121094-56.3125-13.265625zm0 0" fill="#4c241d"/><path d="m276.628906 132.324219c-34 17.972656-71.578125 13.597656-71.578125 13.597656s17.550781-33.511719 51.550781-51.484375c34.003907-17.972656 71.582032-13.601562 71.582032-13.601562s-17.550782 33.511718-51.554688 51.488281zm0 0" fill="#a9ba5a"/><path d="m215.84375 153.238281c-6.765625 0-11.0625-.472656-11.578125-.53125-2.234375-.261719-4.199219-1.601562-5.246094-3.589843-1.054687-1.992188-1.058593-4.367188-.011719-6.359376.75-1.449218 18.945313-35.605468 54.40625-54.355468 35.464844-18.75 73.957032-14.527344 75.558594-14.34375 2.234375.257812 4.199219 1.601562 5.246094 3.585937 1.050781 1.992188 1.058594 4.367188.011719 6.359375-.75 1.449219-18.945313 35.609375-54.40625 54.355469-24.113281 12.746094-49.613281 14.878906-63.980469 14.878906zm100.253906-66.015625c-13.105468.160156-35.566406 2.289063-56.296875 13.25-20.742187 10.960938-35.148437 28.320313-42.660156 39.066406 13.105469-.160156 35.566406-2.289062 56.296875-13.246093 20.742188-10.960938 35.148438-28.320313 42.660156-39.070313zm0 0" fill="#4c241d"/><path d="m205.050781 345.589844c-3.773437 0-6.824219-3.050782-6.824219-6.824219v-192.839844c0-3.773437 3.050782-6.828125 6.824219-6.828125 3.773438 0 6.828125 3.054688 6.828125 6.828125v192.839844c0 3.773437-3.054687 6.824219-6.828125 6.824219zm0 0" fill="#4c241d"/><path d="m175.308594 210.136719c0 23.53125-13.109375 42.605469-13.109375 42.605469s-13.109375-19.074219-13.109375-42.605469 13.109375-42.605469 13.109375-42.605469 13.109375 19.074219 13.109375 42.605469zm0 0" fill="#a9ba5a"/><path d="m162.199219 259.570312c-2.246094 0-4.355469-1.105468-5.628907-2.957031-.585937-.855469-14.3125-21.121093-14.3125-46.472656 0-25.359375 13.734376-45.625 14.3125-46.472656 1.273438-1.855469 3.378907-2.960938 5.628907-2.960938 2.246093 0 4.351562 1.105469 5.625 2.960938.589843.851562 14.308593 21.113281 14.308593 46.472656 0 25.351563-13.71875 45.617187-14.308593 46.472656-1.273438 1.851563-3.378907 2.957031-5.625 2.957031zm.011719-77.519531c-3.085938 7.109375-6.296876 17.128907-6.296876 28.085938 0 10.941406 3.199219 20.949219 6.285157 28.054687 3.082031-7.105468 6.28125-17.113281 6.28125-28.054687 0-11.011719-3.195313-21.003907-6.269531-28.085938zm0 0" fill="#4c241d"/><path d="m118.40625 244.421875c20.800781 10.996094 43.792969 8.320313 43.792969 8.320313s-10.738281-20.503907-31.542969-31.5c-20.804688-10.996094-43.792969-8.320313-43.792969-8.320313s10.738281 20.503906 31.542969 31.5zm0 0" fill="#a9ba5a"/><path d="m155.671875 259.867188c-9.085937 0-25.210937-1.355469-40.460937-9.414063h.007812c-22.421875-11.847656-33.917969-33.457031-34.398438-34.367187-1.046874-1.996094-1.039062-4.367188.011719-6.363282 1.046875-1.984375 3.015625-3.324218 5.246094-3.585937 1.023437-.121094 25.347656-2.792969 47.773437 9.070312 22.414063 11.847657 33.914063 33.457031 34.394532 34.367188 1.046875 1.996093 1.039062 4.371093-.015625 6.363281-1.046875 1.984375-3.011719 3.324219-5.246094 3.585938-.324219.042968-3.039063.34375-7.3125.34375zm-55.9375-40.148438c4.839844 6.046875 12.191406 13.550781 21.859375 18.667969h.007812c9.730469 5.144531 20.050782 6.992187 27.753907 7.578125-4.839844-6.046875-12.199219-13.566406-21.882813-18.6875-9.679687-5.113282-20.019531-6.957032-27.738281-7.558594zm0 0" fill="#4c241d"/><path d="m205.992188 244.421875c-20.804688 10.996094-43.792969 8.320313-43.792969 8.320313s10.734375-20.503907 31.539062-31.5c20.804688-10.996094 43.792969-8.320313 43.792969-8.320313s-10.738281 20.503906-31.539062 31.5zm0 0" fill="#a9ba5a"/><path d="m168.722656 259.867188c-4.273437 0-6.984375-.300782-7.3125-.339844-2.234375-.261719-4.199218-1.601563-5.246094-3.589844-1.050781-1.992188-1.058593-4.367188-.011718-6.359375.480468-.914063 11.980468-22.519531 34.398437-34.367187 22.40625-11.851563 46.742188-9.199219 47.765625-9.074219 2.234375.261719 4.199219 1.601562 5.246094 3.589843 1.054688 1.992188 1.0625 4.367188.015625 6.359376-.480469.914062-11.980469 22.519531-34.402344 34.367187-15.238281 8.058594-31.371093 9.414063-40.453125 9.414063zm55.976563-40.148438c-7.726563.59375-18.082031 2.441406-27.769531 7.558594-9.730469 5.148437-17.078126 12.640625-21.898438 18.667968 7.726562-.59375 18.078125-2.441406 27.765625-7.558593h.007813c9.734374-5.148438 17.074218-12.640625 21.894531-18.667969zm0 0" fill="#4c241d"/><path d="m164.09375 373.066406c-3.773438 0-6.828125-3.054687-6.828125-6.828125v-116.054687c0-3.773438 3.054687-6.824219 6.828125-6.824219s6.824219 3.050781 6.824219 6.824219v116.054687c0 3.773438-3.054688 6.828125-6.824219 6.828125zm0 0" fill="#4c241d"/><path d="m231.058594 427.679688h-98.273438l-14.132812-116.054688h126.539062zm0 0" fill="#fff"/><path d="m231.058594 434.503906h-98.273438c-3.453125 0-6.359375-2.570312-6.773437-6l-14.132813-116.050781c-.242187-1.941406.367188-3.886719 1.660156-5.355469 1.300782-1.460937 3.160157-2.300781 5.113282-2.300781h126.542968c1.953126 0 3.8125.839844 5.113282 2.300781 1.292968 1.464844 1.898437 3.414063 1.660156 5.355469l-14.132812 116.050781c-.417969 3.429688-3.324219 6-6.777344 6zm-92.226563-13.652344h86.179688l12.472656-102.398437h-111.125zm0 0" fill="#4c241d"/></svg>