<svg height="423pt" viewBox="-58 0 423 423.25333" width="423pt" xmlns="http://www.w3.org/2000/svg"><path d="m307.328125 201.386719c0 84.832031-68.769531 153.601562-153.601563 153.601562-84.832031 0-153.601562-68.769531-153.601562-153.601562s68.769531-153.601563 153.601562-153.601563c84.832032 0 153.601563 68.769532 153.601563 153.601563zm0 0" fill="#efefd2"/><path d="m245.886719 64.851562c0 32.050782-25.980469 58.027344-58.027344 58.027344s-58.027344-25.976562-58.027344-58.027344c0-32.046874 25.980469-58.023437 58.027344-58.023437s58.027344 25.976563 58.027344 58.023437zm0 0" fill="#ffce56"/><path d="m187.859375 129.707031c-35.757813 0-64.851563-29.09375-64.851563-64.855469 0-35.757812 29.09375-64.851562 64.851563-64.851562 35.761719 0 64.855469 29.09375 64.855469 64.851562 0 35.761719-29.09375 64.855469-64.855469 64.855469zm0-116.054687c-28.234375 0-51.199219 22.96875-51.199219 51.199218 0 28.234376 22.964844 51.203126 51.199219 51.203126s51.199219-22.96875 51.199219-51.203126c0-28.230468-22.964844-51.199218-51.199219-51.199218zm0 0" fill="#4c241d"/><path d="m211.957031 64.851562c0 13.308594-10.789062 24.097657-24.097656 24.097657s-24.097656-10.789063-24.097656-24.097657c0-13.304687 10.789062-24.09375 24.097656-24.09375s24.097656 10.789063 24.097656 24.09375zm0 0" fill="#ffec95"/><path d="m187.859375 95.773438c-17.050781 0-30.921875-13.875-30.921875-30.921876 0-17.042968 13.871094-30.917968 30.921875-30.917968s30.921875 13.875 30.921875 30.917968c0 17.046876-13.871094 30.921876-30.921875 30.921876zm0-48.1875c-9.523437 0-17.269531 7.746093-17.269531 17.265624 0 9.523438 7.746094 17.269532 17.269531 17.269532s17.269531-7.746094 17.269531-17.269532c0-9.519531-7.746094-17.265624-17.269531-17.265624zm0 0" fill="#4c241d"/><path d="m191.273438 334.507812c-3.769532 0-6.828126-3.054687-6.828126-6.828124v-204.800782c0-3.773437 3.058594-6.824218 6.828126-6.824218 3.769531 0 6.828124 3.050781 6.828124 6.824218v204.800782c0 3.773437-3.058593 6.828124-6.828124 6.828124zm0 0" fill="#4c241d"/><path d="m265.78125 221.875-15.082031-13.984375 28.78125-24.691406-17.671875-8.773438 31.367187-29.902343-3.660156-14.8125-2.902344-27.425782-21.773437 21.671875-15.839844-1.367187-4.863281 43.0625-17.667969-8.773438-2.277344 37.851563-20.257812-3.5625-4.859375 43.066406-15.839844-1.371094 17.984375 41.414063 43.863281-10.707032-10.667969-11.789062zm0 0" fill="#a9ba5a"/><path d="m201.214844 281.105469c-2.664063 0-5.15625-1.566407-6.253906-4.105469l-17.988282-41.414062c-.957031-2.207032-.6875-4.753907.71875-6.707032 1.402344-1.953125 3.707032-3.082031 6.128906-2.8125l9.214844.792969 4.117188-36.457031c.210937-1.875 1.1875-3.574219 2.695312-4.703125 1.503906-1.125 3.421875-1.59375 5.273438-1.25l12.714844 2.234375 1.816406-30.207032c.136718-2.289062 1.410156-4.355468 3.390625-5.5 1.972656-1.15625 4.394531-1.242187 6.457031-.207031l8.945312 4.441407 3.769532-33.386719c.414062-3.671875 3.710937-6.375 7.371094-6.035157l12.679687 1.101563 19.527344-19.441406c1.867187-1.851563 4.628906-2.476563 7.101562-1.59375 2.476563.882812 4.230469 3.101562 4.503907 5.714843l2.855468 26.960938 3.546875 14.351562c.589844 2.382813-.144531 4.894532-1.917969 6.582032l-24.316406 23.183594 8.945313 4.441406c2.050781 1.019531 3.453125 2.996094 3.738281 5.265625.28125 2.273437-.589844 4.535156-2.328125 6.027343l-22.972656 19.707032 9.472656 8.78125c1.382813 1.28125 2.171875 3.074218 2.183594 4.960937.015625 1.878907-.75 3.683594-2.117188 4.984375l-26.550781 25.320313 6.203125 6.863281c1.613281 1.785156 2.167969 4.285156 1.460937 6.585938-.707031 2.296874-2.570312 4.050781-4.90625 4.625l-43.859374 10.707031c-.539063.128906-1.082032.1875-1.621094.1875zm-7.15625-40.453125 11.132812 25.636718 27.144532-6.628906-2.984376-3.300781c-2.480468-2.746094-2.324218-6.964844.355469-9.519531l26.109375-24.894532-9.757812-9.046874c-1.425782-1.316407-2.222656-3.191407-2.1875-5.140626.039062-1.9375.90625-3.777343 2.382812-5.046874l20.957032-17.976563-8.441407-4.195313c-1.992187-.984374-3.378906-2.886718-3.714843-5.09375-.332032-2.199218.429687-4.425781 2.042968-5.957031l28.5-27.175781-2.707031-10.957031c-.078125-.308594-.132813-.613281-.164063-.921875l-1.402343-13.253906-11.667969 11.621093c-1.429688 1.417969-3.429688 2.160157-5.40625 1.957031l-9.214844-.796874-4.117187 36.457031c-.246094 2.214843-1.5625 4.167969-3.515625 5.226562-1.960938 1.066407-4.3125 1.105469-6.304688.121094l-8.433594-4.1875-1.65625 27.558594c-.117187 1.949219-1.058593 3.746093-2.585937 4.953125-1.527344 1.199218-3.496094 1.71875-5.414063 1.359375l-13.101562-2.308594-4.050781 35.855469c-.414063 3.679687-3.652344 6.445312-7.371094 6.03125zm0 0" fill="#4c241d"/><path d="m127.734375 237.144531 15.1875-13.78125-28.167969-23.453125 17.671875-8.777344-30.652343-28.460937 3.863281-14.398437 3.308593-26.601563 21.265626 20.640625 15.738281-1.574219 4.144531 41.625 17.671875-8.773437 1.660156 36.613281 20.15625-3.765625 4.144531 41.625 15.738282-1.574219-18.496094 40.382813-43.351562-9.675782 10.769531-11.589843zm0 0" fill="#a9ba5a"/><path d="m190.972656 293.699219c-.492187 0-.992187-.050781-1.488281-.167969l-43.351563-9.679688c-2.386718-.53125-4.304687-2.300781-5.03125-4.632812-.722656-2.339844-.148437-4.878906 1.519532-6.671875l6.117187-6.585937-25.644531-23.8125c-1.40625-1.300782-2.195312-3.128907-2.183594-5.042969.007813-1.910157.820313-3.734375 2.238282-5.011719l9.371093-8.507812-22.136719-18.433594c-1.773437-1.480469-2.679687-3.753906-2.410156-6.039063.269532-2.292969 1.675782-4.292969 3.746094-5.320312l8.820312-4.378907-23.414062-21.738281c-1.851562-1.722656-2.601562-4.328125-1.945312-6.769531l3.738281-13.945312 3.253906-26.132813c.320313-2.574219 2.066406-4.738281 4.511719-5.597656 2.425781-.855469 5.15625-.253907 7.019531 1.539062l18.984375 18.4375 12.582031-1.257812c1.785157-.175781 3.597657.359375 5.003907 1.515625 1.402343 1.144531 2.289062 2.800781 2.46875 4.605468l3.164062 31.785157 8.824219-4.378907c2.070312-1.03125 4.515625-.945312 6.503906.234376 1.984375 1.167968 3.25 3.265624 3.351563 5.574218l1.304687 28.773438 12.4375-2.328125c1.875-.332031 3.8125.105469 5.351563 1.253906 1.527343 1.144531 2.503906 2.878906 2.695312 4.78125l3.46875 34.824219 8.945312-.890625c2.496094-.207031 4.8125.839843 6.230469 2.824219 1.421875 1.988281 1.671875 4.589843.652344 6.808593l-18.496094 40.386719c-1.128906 2.460938-3.578125 3.980469-6.203125 3.980469zm-30.253906-20.574219 26.347656 5.882812 11.238282-24.550781-3.894532.394531c-1.800781.148438-3.609375-.359374-5.003906-1.515624-1.40625-1.144532-2.292969-2.800782-2.472656-4.597657l-3.410156-34.21875-12.839844 2.398438c-1.957032.347656-3.949219-.140625-5.496094-1.367188-1.546875-1.226562-2.488281-3.066406-2.578125-5.039062l-1.1875-26.152344-8.289063 4.109375c-2.015624.996094-4.375.941406-6.34375-.136719-1.960937-1.089843-3.261718-3.066406-3.488281-5.300781l-3.464843-34.820312-8.941407.894531c-1.988281.179687-3.992187-.492188-5.4375-1.894531l-11.425781-11.097657-1.617188 13c-.035156.3125-.097656.625-.179687.925781l-2.796875 10.425782 27.636719 25.664062c1.640625 1.523438 2.429687 3.761719 2.109375 5.980469-.320313 2.222656-1.714844 4.140625-3.722656 5.136719l-8.289063 4.117187 20.121094 16.753907c1.515625 1.265624 2.414062 3.125 2.457031 5.097656.039062 1.980468-.777344 3.875-2.242188 5.203125l-9.675781 8.785156 25.199219 23.398437c1.332031 1.226563 2.113281 2.941407 2.179688 4.746094.066406 1.8125-.589844 3.574219-1.820313 4.902344zm0 0" fill="#4c241d"/><path d="m277.367188 273.066406h-158.058594l18.945312 117.292969h120.167969zm0 0" fill="#fff"/><path d="m258.425781 397.1875h-120.171875c-3.351562 0-6.207031-2.433594-6.738281-5.738281l-18.945313-117.296875c-.320312-1.972656.246094-3.984375 1.542969-5.511719 1.296875-1.519531 3.195313-2.398437 5.195313-2.398437h158.058594c2 0 3.898437.878906 5.195312 2.398437 1.296875 1.527344 1.863281 3.539063 1.542969 5.511719l-18.945313 117.296875c-.53125 3.304687-3.386718 5.738281-6.734375 5.738281zm-114.359375-13.652344h108.542969l16.742187-103.640625h-142.023437zm0 0" fill="#4c241d"/><path d="m138.253906 389.121094 4.207032 27.304687h111.75l4.210937-27.304687zm0 0" fill="#bf7e68"/><path d="m254.214844 423.253906h-111.753906c-3.367188 0-6.230469-2.460937-6.746094-5.789062l-4.207032-27.304688c-.304687-1.96875.265626-3.972656 1.5625-5.488281 1.296876-1.507813 3.1875-2.378906 5.183594-2.378906h120.167969c1.992187 0 3.882813.871093 5.183594 2.378906 1.296875 1.515625 1.867187 3.519531 1.5625 5.488281l-4.210938 27.304688c-.511719 3.328125-3.371093 5.789062-6.742187 5.789062zm-105.898438-13.652344h100.042969l2.101563-13.65625h-104.25zm0 0" fill="#4c241d"/></svg>