<svg height="419pt" viewBox="-56 0 419 419.66251" width="419pt" xmlns="http://www.w3.org/2000/svg"><path d="m307.53125 218.277344c0 84.828125-68.769531 153.597656-153.601562 153.597656-84.828126 0-153.597657-68.769531-153.597657-153.597656 0-84.832032 68.769531-153.601563 153.597657-153.601563 84.832031 0 153.601562 68.769531 153.601562 153.601563zm0 0" fill="#efefd2"/><path d="m139.28125 190.878906c28.679688 40.488282 43.726562 79.121094 33.601562 86.292969-10.121093 7.167969-41.574218-19.839844-70.253906-60.328125-28.679687-40.484375-33.601562-86.289062-33.601562-86.289062s41.578125 19.839843 70.253906 60.324218zm0 0" fill="#a9ba5a"/><path d="m168.886719 285.203125c-7.367188 0-16.824219-5.019531-28.617188-15.148437-13.683593-11.746094-29.027343-29.238282-43.210937-49.265626-29.367188-41.460937-34.609375-87.558593-34.816406-89.503906-.265626-2.460937.820312-4.867187 2.839843-6.300781 2.019531-1.414063 4.664063-1.652344 6.886719-.585937 1.761719.839843 43.515625 21.074218 72.886719 62.539062 14.183593 20.027344 25.601562 40.308594 32.140625 57.105469 7.925781 20.355469 7.867187 33.007812-.167969 38.703125-2.3125 1.636718-4.957031 2.457031-7.941406 2.457031zm-90.558594-141.519531c3.621094 16.171875 11.960937 43.925781 29.871094 69.210937 29.203125 41.226563 55.136719 60.222657 60.984375 58.574219 2.855468-4.621094-6.261719-35.40625-35.46875-76.640625-17.914063-25.292969-41.328125-42.359375-55.386719-51.144531zm0 0" fill="#4c241d"/><path d="m216.367188 190.878906c-28.679688 40.488282-43.722657 79.121094-33.601563 86.292969 10.121094 7.167969 41.574219-19.839844 70.253906-60.328125 28.679688-40.484375 33.601563-86.289062 33.601563-86.289062s-41.574219 19.839843-70.253906 60.324218zm0 0" fill="#a9ba5a"/><path d="m186.761719 285.203125c-2.984375 0-5.628907-.820313-7.945313-2.460937-8.03125-5.691407-8.089844-18.34375-.164062-38.699219 6.542968-16.800781 17.957031-37.082031 32.140625-57.105469 29.371093-41.46875 71.125-61.699219 72.886719-62.542969 2.238281-1.066406 4.875-.824219 6.886718.589844 2.019532 1.433594 3.105469 3.839844 2.839844 6.296875-.207031 1.949219-5.449219 48.046875-34.816406 89.507812-14.183594 20.023438-29.53125 37.519532-43.207032 49.265626-11.792968 10.128906-21.25 15.148437-28.621093 15.148437zm90.558593-141.519531c-14.054687 8.785156-37.472656 25.851562-55.386718 51.144531-29.203125 41.234375-38.320313 72.019531-35.019532 76.960937 5.332032 1.214844 31.335938-17.660156 60.539063-58.894531 17.90625-25.285156 26.246094-53.039062 29.867187-69.210937zm-60.957031 47.199218h.066407zm0 0" fill="#4c241d"/><path d="m177.824219 278.574219c-3.769531 0-6.828125-3.050781-6.828125-6.824219v-118.328125c0-3.773437 3.058594-6.824219 6.828125-6.824219s6.828125 3.050782 6.828125 6.824219v118.328125c0 3.773438-3.058594 6.824219-6.828125 6.824219zm0 0" fill="#4c241d"/><path d="m257.089844 269.476562h-158.058594l18.945312 117.296876h120.171876zm0 0" fill="#fff"/><path d="m238.148438 393.597656h-120.167969c-3.351563 0-6.210938-2.433594-6.742188-5.742187l-18.941406-117.292969c-.324219-1.972656.246094-3.984375 1.539063-5.511719 1.300781-1.519531 3.199218-2.398437 5.199218-2.398437h158.054688c2 0 3.902344.878906 5.199218 2.398437 1.296876 1.527344 1.863282 3.539063 1.542969 5.511719l-18.945312 117.292969c-.53125 3.308593-3.386719 5.742187-6.738281 5.742187zm-114.355469-13.65625h108.542969l16.742187-103.640625h-142.027344zm0 0" fill="#4c241d"/><path d="m117.976562 385.527344 4.210938 27.308594h111.75l4.210938-27.308594zm0 0" fill="#bf7e68"/><path d="m233.9375 419.664062h-111.75c-3.371094 0-6.234375-2.460937-6.746094-5.789062l-4.210937-27.304688c-.304688-1.96875.265625-3.976562 1.5625-5.488281 1.296875-1.507812 3.191406-2.382812 5.183593-2.382812h120.171876c1.992187 0 3.882812.875 5.179687 2.382812 1.296875 1.511719 1.867187 3.519531 1.566406 5.488281l-4.210937 27.304688c-.511719 3.328125-3.375 5.789062-6.746094 5.789062zm-105.894531-13.65625h100.042969l2.101562-13.652343h-104.25zm0 0" fill="#4c241d"/><path d="m164.171875 129.527344c0 11.441406 3.421875 22.027344 9.132813 31.015625 1.820312.195312 3.664062.308593 5.535156.308593 28.386718 0 51.398437-23.015624 51.398437-51.402343 0-9.136719-5.339843-23.054688-12.566406-37.71875-29.921875 2.316406-53.5 27.277343-53.5 57.796875zm0 0" fill="#f53e28"/><path d="m178.839844 167.675781c-2.113282 0-4.199219-.125-6.253906-.34375-2.070313-.222656-3.925782-1.367187-5.039063-3.128906-6.675781-10.492187-10.203125-22.480469-10.203125-34.671875 0-33.632812 26.273438-62.015625 59.804688-64.605469 2.753906-.1875 5.417968 1.285157 6.648437 3.785157 8.929687 18.128906 13.269531 31.449218 13.269531 40.742187 0 32.101563-26.117187 58.222656-58.226562 58.222656zm-1.480469-13.679687c.488281.019531.984375.027344 1.480469.027344 24.578125 0 44.574218-19.992188 44.574218-44.574219 0-4.480469-1.757812-13.328125-9.765624-30.351563-24.257813 4.097656-42.652344 25.425782-42.652344 50.429688 0 8.503906 2.191406 16.890625 6.363281 24.46875zm0 0" fill="#4c241d"/><path d="m150.113281 52.699219c-11.765625 20.835937-22.671875 43.675781-22.671875 56.75 0 26.515625 20.082032 48.332031 45.867188 51.09375-5.714844-8.988281-9.136719-19.574219-9.136719-31.015625 0-16.253906 6.730469-30.886719 17.503906-41.40625-7.253906-14.398438-18.207031-26.578125-31.5625-35.421875zm0 0" fill="#f53e28"/><path d="m173.304688 167.371094c-.238282 0-.480469-.015625-.726563-.039063-29.625-3.175781-51.964844-28.054687-51.964844-57.882812 0-12.371094 7.707031-32.03125 23.558594-60.105469.929687-1.65625 2.507813-2.839844 4.347656-3.289062 1.851563-.445313 3.785157-.097657 5.367188.949218 14.457031 9.578125 26.171875 22.738282 33.882812 38.054688 1.339844 2.652344.800781 5.871094-1.324219 7.953125-9.964843 9.722656-15.449218 22.691406-15.449218 36.515625 0 9.59375 2.792968 19.046875 8.070312 27.355468 1.40625 2.210938 1.421875 5.03125.039063 7.257813-1.253907 2.023437-3.457031 3.230469-5.800781 3.230469zm-20.953126-104.621094c-15.632812 28.828125-18.089843 41.554688-18.089843 46.699219 0 18.117187 10.773437 33.859375 26.550781 40.792969-2.289062-6.667969-3.46875-13.660157-3.46875-20.714844 0-15.792969 5.636719-30.707032 15.976562-42.511719-5.359374-9.292969-12.488281-17.539063-20.96875-24.265625zm0 0" fill="#4c241d"/><path d="m178.839844 6.648438s-14.949219 21.652343-28.726563 46.046874c13.355469 8.847657 24.308594 21.027344 31.558594 35.421876 9.457031-9.230469 22.015625-15.304688 36.003906-16.386719-15.21875-30.875-38.835937-65.082031-38.835937-65.082031zm0 0" fill="#f53e28"/><path d="m181.671875 94.949219c-.375 0-.75-.03125-1.125-.09375-2.144531-.359375-3.996094-1.71875-4.972656-3.664063-6.644531-13.191406-16.75-24.535156-29.230469-32.800781-2.984375-1.980469-3.9375-5.933594-2.171875-9.054687 13.765625-24.371094 28.902344-46.347657 29.054687-46.566407 2.542969-3.691406 8.683594-3.691406 11.230469 0 .976563 1.414063 24.078125 34.972657 39.339844 65.941407 1.003906 2.03125.933594 4.425781-.1875 6.398437-1.121094 1.96875-3.148437 3.253906-5.402344 3.429687-11.871093.917969-23.148437 6.058594-31.765625 14.472657-1.285156 1.25-3.003906 1.9375-4.769531 1.9375zm-22.558594-44.230469c9.761719 7.40625 18.0625 16.519531 24.453125 26.832031 7.101563-5.273437 15.195313-9.054687 23.746094-11.085937-9.785156-18.507813-21.632812-37.140625-28.472656-47.539063-4.886719 7.421875-12.324219 19.050781-19.726563 31.792969zm0 0" fill="#4c241d"/></svg>