<svg height="431pt" viewBox="-59 0 431 431.66051" width="431pt" xmlns="http://www.w3.org/2000/svg"><path d="m307.53125 186.105469c0 84.832031-68.769531 153.601562-153.601562 153.601562-84.832032 0-153.597657-68.769531-153.597657-153.601562 0-84.828125 68.765625-153.597657 153.597657-153.597657 84.832031 0 153.601562 68.769532 153.601562 153.597657zm0 0" fill="#efefd2"/><path d="m242.449219 136.902344c6.125 15.820312 2.878906 83.066406 2.878906 83.066406s-47.683594-47.53125-53.808594-63.351562c-6.125-15.820313.3125-33.0625 14.375-38.503907 14.0625-5.449219 30.429688 2.964844 36.554688 18.789063zm0 0" fill="#c1dbdc"/><path d="m245.332031 226.800781c-1.773437 0-3.515625-.691406-4.820312-1.992187-4.988281-4.96875-48.898438-49.035156-55.363281-65.726563-7.464844-19.308593.730468-40.542969 18.273437-47.339843 17.554687-6.792969 37.914063 3.390624 45.394531 22.691406 6.460938 16.6875 3.675782 78.839844 3.335938 85.867187-.136719 2.699219-1.839844 5.066407-4.355469 6.039063-.796875.308594-1.636719.460937-2.464844.460937zm-30.539062-103.519531c-2.175781 0-4.339844.386719-6.441407 1.191406-10.519531 4.082032-15.21875 17.394532-10.464843 29.683594 3.316406 8.578125 23.925781 31.699219 41.207031 49.699219.652344-24.945313.320312-55.90625-3.007812-64.488281-3.816407-9.839844-12.554688-16.085938-21.292969-16.085938zm0 0" fill="#4c241d"/><path d="m157.171875 111.683594c-13.746094 9.945312-47.59375 68.144531-47.59375 68.144531s65.863281-13.953125 79.609375-23.898437c13.746094-9.949219 17.722656-27.914063 8.878906-40.132813-8.839844-12.21875-27.152344-14.0625-40.894531-4.113281zm0 0" fill="#c1dbdc"/><path d="m109.578125 186.65625c-2.160156 0-4.234375-1.027344-5.535156-2.828125-1.578125-2.1875-1.726563-5.097656-.367188-7.433594 3.542969-6.085937 34.996094-59.753906 49.496094-70.246093 16.773437-12.121094 39.386719-9.597657 50.425781 5.648437 11.027344 15.246094 6.359375 37.527344-10.414062 49.667969-14.5 10.488281-75.308594 23.585937-82.191406 25.046875-.46875.09375-.945313.144531-1.414063.144531zm66.894531-74.554688c-5.132812 0-10.554687 1.679688-15.300781 5.113282-7.460937 5.390625-24.574219 31.191406-37.585937 52.480468 24.285156-5.707031 54.140624-13.902343 61.601562-19.300781 10.671875-7.71875 13.964844-21.445312 7.347656-30.601562-3.679687-5.078125-9.652344-7.691407-16.0625-7.691407zm0 0" fill="#4c241d"/><path d="m224.007812 72.441406c15.386719-7.15625 82.703126-8.355468 82.703126-8.355468s-44.28125 50.714843-59.667969 57.871093c-15.382813 7.15625-33.007813 1.875-39.371094-11.800781-6.359375-13.671875.953125-30.5625 16.335937-37.714844zm0 0" fill="#c1dbdc"/><path d="m232.898438 131.960938c-13.414063 0-25.828126-6.921876-31.414063-18.925782-3.914063-8.40625-3.933594-17.960937-.058594-26.894531 3.746094-8.660156 10.746094-15.726563 19.707031-19.886719 16.21875-7.554687 78.417969-8.867187 85.457032-8.992187 2.769531.011719 5.175781 1.503906 6.308594 3.945312 1.140624 2.445313.734374 5.339844-1.046876 7.371094-4.625 5.300781-45.707031 52.019531-61.925781 59.566406-5.5625 2.589844-11.378906 3.816407-17.027343 3.816407zm58.136718-60.578126c-24.929687.992188-55.804687 3.367188-64.144531 7.246094v.007813c-5.925781 2.75-10.519531 7.34375-12.941406 12.929687-2.300781 5.308594-2.332031 10.886719-.09375 15.707032 4.769531 10.234374 18.355469 14.058593 30.308593 8.496093 8.347657-3.882812 30.054688-25.960937 46.871094-44.386719zm-67.023437 1.058594h.066406zm0 0" fill="#4c241d"/><path d="m160.257812 89.816406c-4.675781-16.308594 4.617188-82.992187 4.617188-82.992187s43.207031 51.636719 47.878906 67.945312c4.675782 16.308594-3.285156 32.898438-17.785156 37.054688s-30.039062-5.695313-34.710938-22.007813zm0 0" fill="#c1dbdc"/><path d="m188.25 119.601562c-15.257812 0-29.753906-11.140624-34.550781-27.90625-4.933594-17.199218 3.445312-78.839843 4.417969-85.808593.375-2.671875 2.289062-4.878907 4.878906-5.617188 2.589844-.753906 5.386718.109375 7.113281 2.179688 4.519531 5.398437 44.28125 53.238281 49.207031 70.4375 5.703125 19.898437-4.371094 40.304687-22.457031 45.5-2.863281.820312-5.746094 1.214843-8.609375 1.214843zm-18.613281-96.152343c-2.890625 24.78125-5.351563 55.640625-2.816407 64.484375 3.632813 12.675781 15.425782 20.414062 26.273438 17.332031 10.851562-3.117187 16.734375-15.953125 13.105469-28.617187-2.542969-8.847657-20.976563-33.71875-36.5625-53.199219zm0 0" fill="#4c241d"/><path d="m173.667969 84.628906c-11.453125-1.722656-55.761719 10.460938-55.761719 10.460938s38.761719 24.675781 50.214844 26.402344c11.453125 1.722656 21.976562-5.132813 23.507812-15.3125 1.53125-10.179688-6.511718-19.828126-17.960937-21.550782zm0 0" fill="#c1dbdc"/><path d="m171.671875 128.582031c-1.515625 0-3.039063-.113281-4.566406-.339843-12.261719-1.847657-46.1875-23.148438-52.867188-27.394532-2.273437-1.453125-3.488281-4.105468-3.089843-6.773437.40625-2.671875 2.339843-4.855469 4.945312-5.566407 7.628906-2.109374 46.289062-12.488281 58.582031-10.632812 15.152344 2.277344 25.785157 15.425781 23.707031 29.3125-1.039062 6.878906-4.96875 12.851562-11.058593 16.824219-4.605469 3.003906-10.039063 4.570312-15.652344 4.570312zm-36.472656-30.894531c13.792969 8.179688 28.832031 16.28125 33.9375 17.046875 3.921875.613281 7.703125-.179687 10.734375-2.160156 2.78125-1.8125 4.5625-4.445313 5.007812-7.421875.964844-6.433594-4.519531-12.621094-12.226562-13.773438-5.121094-.839844-21.867188 2.550782-37.453125 6.308594zm0 0" fill="#4c241d"/><path d="m203.109375 78.214844c4.101563-10.832032 36.410156-43.507813 36.410156-43.507813s2.546875 45.878907-1.554687 56.710938c-4.101563 10.828125-15.230469 16.648437-24.855469 13.003906s-14.101563-15.378906-10-26.207031zm0 0" fill="#c1dbdc"/><path d="m219.089844 112.347656c-2.847656 0-5.671875-.511718-8.398438-1.539062-6.5-2.464844-11.515625-7.566406-14.109375-14.367188-2.484375-6.511718-2.433593-13.84375.148438-20.648437 4.390625-11.605469 32.367187-40.257813 37.933593-45.886719 1.898438-1.910156 4.753907-2.523438 7.273438-1.585938 2.519531.960938 4.246094 3.3125 4.394531 6.007813.4375 7.90625 2.410157 47.914063-1.988281 59.507813-2.574219 6.796874-7.394531 12.324218-13.566406 15.558593-3.753906 1.96875-7.730469 2.953125-11.6875 2.953125zm14.234375-61.285156c-10.90625 11.753906-22 24.738281-23.828125 29.566406 0 .007813 0 .007813-.003906.007813-1.386719 3.671875-1.449219 7.550781-.15625 10.9375 1.1875 3.105469 3.386718 5.402343 6.195312 6.460937 2.800781 1.074219 5.964844.800782 8.914062-.734375 3.214844-1.679687 5.746094-4.625 7.132813-8.300781 1.832031-4.839844 2.132813-21.914062 1.746094-37.9375zm-30.214844 27.152344h.070313zm0 0" fill="#4c241d"/><path d="m190.324219 306.714844c-3.453125 0-6.417969-2.613282-6.785157-6.128906-9.621093-92.953126-2.527343-140.832032-2.222656-142.828126.574219-3.71875 3.996094-6.273437 7.78125-5.707031 3.726563.574219 6.28125 4.054688 5.714844 7.78125-.074219.472657-7.101562 48.386719 2.3125 139.355469.386719 3.746094-2.339844 7.097656-6.09375 7.492188-.234375.023437-.472656.035156-.707031.035156zm0 0" fill="#4c241d"/><path d="m171.402344 218.515625c11.808594 14.695313 16.613281 30.4375 10.734375 35.160156-5.875 4.722657-20.214844-3.359375-32.019531-18.054687-11.808594-14.695313-10.738282-35.160156-10.738282-35.160156s20.214844 3.359374 32.023438 18.054687zm0 0" fill="#a9ba5a"/><path d="m177.851562 261.839844c-3.367187 0-7.613281-1.007813-12.855468-3.964844-6.785156-3.828125-13.957032-10.207031-20.199219-17.980469-13.292969-16.539062-12.285156-38.847656-12.238281-39.792969.105468-1.941406 1.027344-3.746093 2.546875-4.960937 1.511719-1.210937 3.457031-1.71875 5.390625-1.410156.925781.152343 22.933594 3.972656 36.222656 20.511719 6.246094 7.769531 10.9375 16.15625 13.210938 23.601562 3.914062 12.804688-.527344 18.753906-3.519532 21.160156-1.644531 1.316406-4.4375 2.835938-8.558594 2.835938zm-31.066406-52.160156c.914063 6.300781 3.160156 14.828124 8.652344 21.667968 10.007812 12.445313 19.414062 16.875 22.285156 16.875h.035156c.640626-2.769531-1.640624-12.941406-11.679687-25.433594-5.492187-6.835937-13.335937-10.863281-19.292969-13.109374zm0 0" fill="#4c241d"/><path d="m197.902344 249.273438c-11.808594-14.695313-16.617188-30.4375-10.738282-35.160157 5.878907-4.722656 20.214844 3.359375 32.023438 18.054688 11.808594 14.695312 10.734375 35.160156 10.734375 35.160156s-20.210937-3.359375-32.019531-18.054687zm0 0" fill="#a9ba5a"/><path d="m229.925781 274.152344c-.375 0-.75-.03125-1.121093-.09375-.925782-.152344-22.933594-3.972656-36.21875-20.511719-6.246094-7.769531-10.941407-16.15625-13.214844-23.601563-3.914063-12.804687.527344-18.753906 3.519531-21.160156 3-2.390625 9.765625-5.449218 21.414063 1.128906 6.785156 3.824219 13.960937 10.207032 20.199218 17.980469 13.292969 16.539063 12.285156 38.84375 12.242188 39.792969-.105469 1.9375-1.027344 3.746094-2.546875 4.957031-1.222657.984375-2.726563 1.507813-4.273438 1.507813zm-38.378906-54.585938c-.640625 2.769532 1.636719 12.941406 11.679687 25.433594 5.492188 6.835938 13.332032 10.859375 19.292969 13.109375-.914062-6.300781-3.160156-14.828125-8.652343-21.667969-10.007813-12.445312-19.414063-16.875-22.289063-16.875-.015625 0-.019531 0-.03125 0zm0 0" fill="#4c241d"/><path d="m134.890625 298.144531c-6.53125 12.121094-10.253906 25.984375-10.253906 40.722657 0 47.480468 38.488281 85.96875 85.96875 85.96875 47.484375 0 85.972656-38.488282 85.972656-85.96875 0-14.738282-3.71875-28.601563-10.253906-40.722657zm0 0" fill="#fff"/><path d="m210.605469 431.660156c-51.167969 0-92.792969-41.628906-92.792969-92.792968 0-15.320313 3.824219-30.527344 11.074219-43.960938 1.183593-2.207031 3.492187-3.585938 6.003906-3.585938h151.433594c2.515625 0 4.820312 1.378907 6.007812 3.585938 7.246094 13.433594 11.074219 28.640625 11.074219 43.960938 0 51.167968-41.628906 92.792968-92.800781 92.792968zm-71.523438-126.683594c-4.992187 10.539063-7.617187 22.171876-7.617187 33.890626 0 43.640624 35.5 79.140624 79.140625 79.140624 43.636719 0 79.144531-35.5 79.144531-79.140624 0-11.71875-2.625-23.355469-7.621094-33.890626zm0 0" fill="#4c241d"/><path d="m243.558594 389.402344c-2.066406 0-4.105469-.933594-5.445313-2.707032-2.28125-3.007812-1.6875-7.289062 1.316407-9.5625 12.90625-9.777343 20.3125-24.664062 20.3125-40.839843 0-3.773438 3.054687-6.824219 6.828124-6.824219 3.773438 0 6.828126 3.050781 6.828126 6.824219 0 20.488281-9.375 39.339843-25.726563 51.722656-1.234375.933594-2.679687 1.386719-4.113281 1.386719zm0 0" fill="#4c241d"/><path d="m223.53125 103.253906c-2.460938-.832031-4.980469-1.011718-7.382812-.652344 2.152343-1.796874 3.867187-4.175781 4.835937-7.027343 2.792969-8.242188-1.621094-17.195313-9.867187-19.992188-8.246094-2.792969-17.195313 1.621094-19.992188 9.867188-.839844 2.476562-1.015625 5.019531-.648438 7.4375-1.304687-.984375-2.777343-1.785157-4.410156-2.335938-8.246094-2.796875-17.195312 1.621094-19.992187 9.863281-2.792969 8.246094 1.621093 17.199219 9.867187 19.992188 1.335938.453125 2.691406.699219 4.039063.789062-1.089844 1.375-1.976563 2.945313-2.574219 4.703126-2.792969 8.242187 1.621094 17.195312 9.867188 19.992187 8.246093 2.792969 17.195312-1.621094 19.992187-9.867187.671875-1.992188.917969-4.019532.800781-5.992188 1.515625 1.328125 3.308594 2.390625 5.335938 3.082031 8.246094 2.792969 17.199218-1.621093 19.992187-9.867187 2.796875-8.246094-1.621093-17.195313-9.863281-19.992188zm0 0" fill="#9dc1e4"/><path d="m192.3125 153.554688c-2.402344 0-4.835938-.382813-7.234375-1.195313-11.210937-3.804687-17.5-15.617187-14.652344-26.914063-4.179687-2.199218-7.554687-5.652343-9.679687-9.972656-2.671875-5.40625-3.074219-11.53125-1.140625-17.253906 3.605469-10.613281 14.339843-16.785156 25.078125-15.03125 1.949218-5.6875 5.980468-10.273438 11.375-12.933594 5.398437-2.671875 11.503906-3.089844 17.25-1.140625 11.699218 3.972657 18.035156 16.660157 14.226562 28.378907 10.621094 4.640624 16.113282 16.765624 12.328125 27.949218-3.8125 11.199219-15.617187 17.5-26.867187 14.660156-3.664063 8.308594-11.914063 13.453126-20.683594 13.453126zm-11.300781-57.011719c-3.726563 0-7.214844 2.34375-8.472657 6.066406-.765624 2.257813-.605468 4.683594.445313 6.824219 1.0625 2.140625 2.886719 3.742187 5.148437 4.507812.714844.25 1.464844.386719 2.285157.441406 2.527343.167969 4.761719 1.714844 5.796875 4.03125 1.03125 2.3125.699218 5.015626-.867188 7.007813-.660156.824219-1.15625 1.734375-1.480468 2.679687-1.574219 4.660157.933593 9.746094 5.597656 11.328126 4.679687 1.578124 9.753906-.929688 11.335937-5.59375.375-1.09375.519531-2.234376.453125-3.386719-.167968-2.746094 1.332032-5.328125 3.800782-6.539063 2.464843-1.222656 5.425781-.832031 7.5.984375.90625.789063 1.929687 1.375 3.046874 1.753907 4.640626 1.574218 9.753907-.917969 11.335938-5.59375.765625-2.257813.605469-4.683594-.449219-6.824219-1.058593-2.140625-2.886719-3.742188-5.144531-4.507813-1.347656-.460937-2.761719-.589844-4.1875-.367187-2.988281.433593-5.988281-1.167969-7.242188-3.96875-1.246093-2.792969-.484374-6.078125 1.875-8.039063 1.289063-1.066406 2.207032-2.398437 2.734376-3.964844 1.582031-4.667968-.925782-9.753906-5.59375-11.335937-2.273438-.773437-4.699219-.597656-6.824219.449219-2.140625 1.058594-3.742188 2.886718-4.507813 5.148437-.464844 1.359375-.585937 2.777344-.367187 4.203125.417969 2.742188-.855469 5.46875-3.234375 6.894532-2.382813 1.425781-5.386719 1.273437-7.605469-.390626-.789063-.589843-1.632813-1.035156-2.515625-1.335937-.949219-.320313-1.910156-.472656-2.863281-.472656zm0 0" fill="#4c241d"/></svg>