<svg height="436pt" viewBox="0 -5 436.89042 436" width="436pt" xmlns="http://www.w3.org/2000/svg"><path d="m307.199219 170.828125c0 84.832031-68.769531 153.601563-153.597657 153.601563-84.832031 0-153.601562-68.769532-153.601562-153.601563s68.769531-153.601563 153.601562-153.601563c84.828126 0 153.597657 68.769532 153.597657 153.601563zm0 0" fill="#efefd2"/><g fill="#4c241d"><path d="m242.351562 314.1875c-.417968 0-.84375-.039062-1.269531-.117188-3.703125-.695312-6.140625-4.269531-5.441406-7.976562 1.824219-9.707031 45.59375-238.5 114.777344-300.765625 2.800781-2.523437 7.113281-2.300781 9.640625.507813 2.519531 2.800781 2.292968 7.121093-.507813 9.640624-65.773437 59.191407-110.058593 290.820313-110.5 293.152344-.609375 3.273438-3.476562 5.558594-6.699219 5.558594zm0 0"/><path d="m269.652344 314.1875c-.632813 0-1.277344-.085938-1.925782-.277344-3.613281-1.0625-5.6875-4.855468-4.621093-8.476562 1.421875-4.84375 36.019531-119.324219 132.867187-174.664063 3.269532-1.894531 7.441406-.734375 9.316406 2.539063 1.871094 3.273437.730469 7.4375-2.542968 9.3125-92.117188 52.640625-126.210938 165.53125-126.542969 166.664062-.875 2.976563-3.597656 4.902344-6.550781 4.902344zm0 0"/><path d="m208.214844 314.1875c-2.953125 0-5.675782-1.925781-6.546875-4.898438-.335938-1.132812-34.566407-114.105468-126.546875-166.667968-3.273438-1.871094-4.414063-6.039063-2.539063-9.3125 1.859375-3.273438 6.03125-4.433594 9.3125-2.539063 96.847657 55.339844 131.449219 169.820313 132.867188 174.667969 1.066406 3.613281-1 7.40625-4.621094 8.472656-.640625.1875-1.292969.277344-1.925781.277344zm0 0"/><path d="m235.519531 314.1875c-3.773437 0-6.828125-3.050781-6.828125-6.824219 0-126.566406-80.386718-288.867187-81.199218-290.496093-1.683594-3.371094-.320313-7.472657 3.054687-9.160157 3.367187-1.679687 7.464844-.320312 9.160156 3.054688 3.375 6.746093 82.640625 166.773437 82.640625 296.601562 0 3.773438-3.054687 6.824219-6.828125 6.824219zm0 0"/></g><path d="m314.078125 283.246094h-150.476563l18.035157 110.066406h114.40625zm0 0" fill="#fff"/><path d="m296.046875 400.140625h-114.40625c-3.347656 0-6.195313-2.417969-6.742187-5.71875l-18.039063-110.066406c-.320313-1.980469.242187-4 1.539063-5.527344 1.292968-1.527344 3.195312-2.40625 5.199218-2.40625h150.480469c2.007813 0 3.90625.878906 5.203125 2.40625 1.300781 1.527344 1.859375 3.546875 1.539062 5.527344l-18.035156 110.066406c-.546875 3.300781-3.394531 5.71875-6.738281 5.71875zm-108.605469-13.652344h102.804688l15.800781-96.410156h-134.414063zm0 0" fill="#4c241d"/><path d="m181.636719 392.695312 4.007812 27.527344h106.390625l4.007813-27.527344zm0 0" fill="#bf7e68"/><path d="m292.039062 427.046875h-106.394531c-3.390625 0-6.265625-2.484375-6.75-5.84375l-4.007812-27.527344c-.289063-1.960937.292969-3.945312 1.59375-5.445312 1.292969-1.5 3.179687-2.363281 5.160156-2.363281h114.40625c1.976563 0 3.867187.863281 5.15625 2.363281 1.300781 1.5 1.882813 3.484375 1.59375 5.445312l-4.003906 27.527344c-.488281 3.359375-3.359375 5.84375-6.753907 5.84375zm-100.484374-13.652344h94.578124l2.019532-13.871093h-98.617188zm0 0" fill="#4c241d"/><path d="m351.292969 91.371094c13.847656-38.292969 15.253906-67.960938 6.203125-78.023438-19.300782-21.453125-54.292969 15.640625-77.660156 84.667969-19.5625 57.792969-36.820313 105.109375-21.242188 112.910156 11.355469 5.683594 32.90625-12.976562 54.332031-44.609375l-9.140625-9.140625 21.648438-10.824219c3.691406-6.386718 7.316406-13.097656 10.820312-20.09375 1.265625-2.53125 2.4375-5.015624 3.613282-7.507812l-15.601563-9.359375zm0 0" fill="#a9ba5a"/><path d="m263.066406 218.78125c-2.601562 0-5.121094-.550781-7.535156-1.75-19.945312-9.996094-6.324219-50.082031 14.292969-110.761719l3.542969-10.4375c18.21875-53.8125 43.683593-90.160156 66.457031-94.851562 8.6875-1.785157 16.546875.917969 22.746093 7.804687 11.542969 12.832032 9.726563 44.570313-4.859374 84.90625-.492188 1.371094-1.421876 2.550782-2.632813 3.359375l-18.054687 12.035157 6.355468 3.8125c3.007813 1.800781 4.152344 5.585937 2.664063 8.757812-1.199219 2.546875-2.398438 5.082031-3.691407 7.660156-3.449218 6.894532-7.152343 13.78125-11.015624 20.453125-.664063 1.152344-1.660157 2.085938-2.851563 2.6875l-13.175781 6.585938 2.441406 2.445312c2.3125 2.3125 2.660156 5.949219.828125 8.652344-10.566406 15.609375-35.339844 48.640625-55.511719 48.640625zm81.820313-204.679688c-.742188 0-1.507813.085938-2.308594.246094-14.085937 2.90625-37.707031 31.007813-56.28125 85.855469l-3.542969 10.460937c-12.835937 37.765626-30.414062 89.492188-21.109375 94.152344 4.90625 2.433594 21.441407-8.046875 42.425781-37.699218l-5.113281-5.113282c-1.550781-1.554687-2.257812-3.753906-1.910156-5.921875.351563-2.167969 1.726563-4.03125 3.683594-5.011719l19.808593-9.910156c3.351563-5.878906 6.585938-11.910156 9.605469-17.957031.300781-.601563.59375-1.195313.886719-1.792969l-10.277344-6.167968c-2.007812-1.207032-3.253906-3.351563-3.3125-5.691407-.054687-2.339843 1.09375-4.542969 3.039063-5.84375l25.144531-16.765625c14.21875-40.3125 11.921875-63.332031 6.800781-69.023437-2.328125-2.589844-4.71875-3.816407-7.539062-3.816407zm6.40625 77.269532h.066406zm0 0" fill="#4c241d"/><path d="m417.089844 164.035156c16.601562-25.941406 15.074218-50.246094 7.6875-56.546875-11.378906-9.707031-63.757813 29.175781-93.742188 62.335938-29.988281 33.15625-45.074218 67.910156-33.695312 77.617187 10.996094 9.378906 34.167968-18.042968 71.011718-40.136718l-7.570312-11.023438h24.875c6.078125-4.355469 11.476562-8.855469 16.128906-13.449219l-13.578125-13.191406zm0 0" fill="#a9ba5a"/><path d="m302.441406 256.269531c-3.414062 0-6.574218-1.113281-9.535156-3.632812-2.539062-2.167969-5.660156-6.253907-6.125-13.421875-1.128906-17.367188 14.257812-46.398438 39.183594-73.972656 19.761718-21.847657 83.535156-79.757813 103.242187-62.945313 11.09375 9.464844 11.171875 38.011719-6.375 65.417969-1.003906 1.574218-2.613281 2.667968-4.445312 3.019531l-16.046875 3.121094 4.207031 4.089843c1.316406 1.269532 2.0625 3.03125 2.070313 4.867188.003906 1.832031-.730469 3.589844-2.035157 4.882812-4.890625 4.828126-10.59375 9.589844-16.953125 14.140626-1.160156.828124-2.546875 1.273437-3.972656 1.273437h-11.90625l.226562.339844c1.066407 1.554687 1.445313 3.472656 1.042969 5.3125-.40625 1.839843-1.542969 3.433593-3.160156 4.402343-12.992187 7.789063-24.171875 16.203126-34.039063 23.632813-14.398437 10.839844-25.867187 19.472656-35.378906 19.472656zm116.65625-143.769531c-10.519531 0-52.125 27.761719-83 61.902344-24.40625 26.988281-36.433594 52.585937-35.691406 63.933594.085938 1.324218.390625 3.082031 1.367188 3.914062 2.820312 2.378906 17.890624-8.875 27.839843-16.359375 8.558594-6.449219 18.09375-13.621094 29.050781-20.621094l-3.511718-5.128906c-1.433594-2.085937-1.597656-4.796875-.414063-7.039063 1.179688-2.242187 3.507813-3.648437 6.039063-3.648437h22.652344c3-2.210937 5.820312-4.464844 8.433593-6.738281l-8.421875-8.179688c-1.820312-1.765625-2.507812-4.40625-1.78125-6.839844.730469-2.441406 2.742188-4.273437 5.242188-4.753906l25.945312-5.039062c14.265625-23.859375 10.738282-42.453125 7.492188-45.21875-.339844-.121094-.753906-.183594-1.242188-.183594zm-2.011718 51.535156h.066406zm0 0" fill="#4c241d"/><path d="m79.308594 164.035156c-14.113282-25.941406-12.8125-50.246094-6.535156-56.546875 9.675781-9.707031 54.191406 29.175781 79.683593 62.335938 25.492188 33.160156 38.3125 67.910156 28.636719 77.621093-9.34375 9.375-29.042969-18.046874-60.355469-40.136718l6.429688-11.027344h-21.140625c-5.167969-4.355469-9.757813-8.855469-13.714844-13.449219l11.542969-13.1875zm0 0" fill="#a9ba5a"/><path d="m176.859375 256.335938c-8.765625 0-19.050781-9.113282-31.210937-19.886719-8.367188-7.40625-17.847657-15.800781-28.839844-23.558594-2.894532-2.046875-3.746094-5.960937-1.960938-9.019531l.441406-.761719h-9.261718c-1.605469 0-3.167969-.566406-4.402344-1.605469-5.417969-4.566406-10.292969-9.347656-14.484375-14.207031-2.21875-2.578125-2.207031-6.390625.035156-8.953125l4.019531-4.589844-13.40625-3.0625c-1.90625-.433594-3.539062-1.667968-4.472656-3.390625-14.742187-27.089843-14.683594-55.28125-5.378906-64.628906 1.765625-1.765625 4.90625-3.746094 10.132812-3.484375 19.441407 1.25 59.527344 40.097656 79.800782 66.476562 24.746094 32.195313 42.332031 72.277344 28.058594 86.601563-2.828126 2.828125-5.84375 4.0625-9.070313 4.070313zm-47.113281-50.914063c9.433594 7.0625 17.605468 14.308594 24.953125 20.808594 7.765625 6.878906 18.378906 16.277343 21.832031 16.277343h.09375c4.148438-4.414062-2.078125-32.746093-29.585938-68.527343-25.886718-33.675781-60.886718-61.210938-69.691406-61.210938-.035156 0-.074218 0-.105468 0-2.679688 4.015625-5.003907 22.238281 6.652343 45.3125l21.484375 4.90625c2.339844.535157 4.234375 2.261719 4.972656 4.546875.742188 2.289063.226563 4.796875-1.351562 6.601563l-7.527344 8.597656c2.199219 2.273437 4.566406 4.519531 7.078125 6.722656h18.621094c2.449219 0 4.699219 1.308594 5.921875 3.425781 1.21875 2.121094 1.207031 4.726563-.027344 6.839844zm0 0" fill="#4c241d"/><path d="m220.847656 112.234375c-5.410156-19.222656-10.480468-37.851563-16.335937-53.761719l-9.953125 9.957032 4.625-23.136719c-10.488282-23.046875-24-36.875-45.585938-31.476563-16.15625 4.039063-13.550781 23.296875-5.492187 49.953125l19.144531 11.484375h-15.527344c5.148438 15.757813 11.386719 33.417969 16.550782 51.769532.117187.414062.242187.808593.359374 1.21875l19.101563 15.28125h-14.410156c15.652343 47.757812 36.839843 81.636718 49.894531 77.964843 14.515625-4.085937 13.453125-53-2.371094-109.253906zm0 0" fill="#a9ba5a"/><path d="m221.132812 228.609375c-25.753906 0-49.585937-68.585937-54.292968-82.960937-.679688-2.078126-.324219-4.359376.960937-6.132813.503907-.691406 1.125-1.28125 1.832031-1.734375l-5.265624-4.207031c-1.128907-.90625-1.933594-2.140625-2.320313-3.523438-.007813-.027343-.320313-1.101562-.328125-1.128906-3.792969-13.476563-8.105469-26.390625-12.277344-38.878906-1.453125-4.332031-2.859375-8.566407-4.199218-12.667969-.679688-2.078125-.328126-4.359375.957031-6.125.113281-.160156.234375-.308594.355469-.449219l-1.960938-1.175781c-1.453125-.875-2.53125-2.253906-3.019531-3.882812-6.445313-21.304688-9.476563-37.71875-3.320313-48.558594 2.875-5.074219 7.488282-8.4375 13.691406-9.988282 33.5-8.386718 48.539063 24.476563 53.453126 35.273438.59375 1.300781.761718 2.761719.480468 4.167969l-1.007812 5.019531c.375.019531.742187.074219 1.105468.152344 2.273438.5 4.132813 2.125 4.941407 4.304687 5.371093 14.59375 10.007812 31.121094 14.914062 48.613281l1.585938 5.660157c10.546875 37.5 23.632812 110.351562-2.347657 117.671875-1.316406.371094-2.628906.550781-3.9375.550781zm-38.273437-78.261719c17.011719 48.035156 34 65.847656 38.511719 64.566406 5.894531-1.660156 10.585937-37.964843-7.097656-100.832031l-1.589844-5.667969c-3.707032-13.210937-7.257813-25.871093-11.054688-37.40625l-2.246094 2.246094c-2.132812 2.132813-5.40625 2.605469-8.046874 1.195313-2.652344-1.421875-4.066407-4.40625-3.472657-7.359375l4.1875-20.941406c-13.050781-27.441407-25.894531-28.414063-36.796875-25.714844-3.261718.820312-4.453125 2.296875-5.128906 3.480468-4.121094 7.261719.949219 25.902344 3.761719 35.363282l16.878906 10.125c2.625 1.582031 3.886719 4.722656 3.066406 7.671875-.820312 2.960937-3.511719 5.007812-6.578125 5.007812h-6.078125c.398438 1.203125.804688 2.414063 1.210938 3.636719 4.132812 12.359375 8.402343 25.132812 12.199219 38.546875l17.414062 13.925781c2.257812 1.8125 3.132812 4.859375 2.171875 7.589844-.960937 2.734375-3.539063 4.570312-6.4375 4.570312h-4.875zm0 0" fill="#4c241d"/></svg>